<!-- Generated by IcoMoon.io -->
<svg version="1.1" xmlns="http://www.w3.org/2000/svg" width="32" height="32" viewBox="0 0 32 32">
<title>finance-department</title>
<path fill="none" stroke="#124b9b" stroke-width="0.892" stroke-miterlimit="10" stroke-linecap="butt" stroke-linejoin="miter" d="M24.277 30.92h-20.794v-25.58h20.794c0 0 0 6.984 0 13.653"></path>
<path fill="none" stroke="#124b9b" stroke-width="0.892" stroke-miterlimit="10" stroke-linecap="butt" stroke-linejoin="miter" d="M5.759 1.338h16.321v3.766h-16.321v-3.766z"></path>
<path fill="none" stroke="#124b9b" stroke-width="0.892" stroke-miterlimit="10" stroke-linecap="butt" stroke-linejoin="miter" d="M7.015 9.499h2.825v2.118h-2.825v-2.118z"></path>
<path fill="none" stroke="#124b9b" stroke-width="0.892" stroke-miterlimit="10" stroke-linecap="butt" stroke-linejoin="miter" d="M7.015 14.207h2.825v2.118h-2.825v-2.118z"></path>
<path fill="none" stroke="#124b9b" stroke-width="0.892" stroke-miterlimit="10" stroke-linecap="butt" stroke-linejoin="miter" d="M7.015 19.386h2.825v2.118h-2.825v-2.118z"></path>
<path fill="none" stroke="#124b9b" stroke-width="0.892" stroke-miterlimit="10" stroke-linecap="butt" stroke-linejoin="miter" d="M7.015 24.093h2.825v2.118h-2.825v-2.118z"></path>
<path fill="none" stroke="#124b9b" stroke-width="0.892" stroke-miterlimit="10" stroke-linecap="butt" stroke-linejoin="miter" d="M12.193 9.499h2.825v2.118h-2.825v-2.118z"></path>
<path fill="none" stroke="#124b9b" stroke-width="0.892" stroke-miterlimit="10" stroke-linecap="butt" stroke-linejoin="miter" d="M12.193 14.207h2.825v2.118h-2.825v-2.118z"></path>
<path fill="none" stroke="#124b9b" stroke-width="0.892" stroke-miterlimit="10" stroke-linecap="butt" stroke-linejoin="miter" d="M17.372 9.499h2.825v2.118h-2.825v-2.118z"></path>
<path fill="none" stroke="#124b9b" stroke-width="0.892" stroke-miterlimit="10" stroke-linecap="butt" stroke-linejoin="miter" d="M17.372 14.207h2.825v2.118h-2.825v-2.118z"></path>
<path fill="none" stroke="#124b9b" stroke-width="0.892" stroke-miterlimit="10" stroke-linecap="butt" stroke-linejoin="miter" d="M12.115 18.679h17.655v12.28h-17.655v-12.28z"></path>
<path fill="none" stroke="#124b9b" stroke-width="0.892" stroke-miterlimit="10" stroke-linecap="butt" stroke-linejoin="miter" d="M23.622 24.453h-4.708v3.947h1.108l0.277 2.285h1.939l0.277-2.285h1.108z"></path>
<path fill="none" stroke="#124b9b" stroke-width="0.892" stroke-miterlimit="10" stroke-linecap="butt" stroke-linejoin="miter" d="M22.791 22.411c0 0.848-0.687 1.535-1.535 1.535s-1.535-0.687-1.535-1.535c0-0.848 0.687-1.535 1.535-1.535s1.535 0.687 1.535 1.535z"></path>
</svg>
