<!-- Generated by IcoMoon.io -->
<svg version="1.1" xmlns="http://www.w3.org/2000/svg" width="1024" height="1024" viewBox="0 0 1024 1024">
<title>plan-analysis</title>
<g id="icomoon-ignore">
</g>
<path d="M784.152 87.258h-549.344c-95.423 0-173.054 77.613-173.054 173.036v549.362c0 95.423 77.631 173.036 173.054 173.036h549.362c95.423 0 173.036-77.613 173.036-173.036v-549.38c-0.018-95.423-77.631-173.018-173.054-173.018zM833.787 190.448l19.796-0.072v151.777l-151.271 0.488-0.524-151.759 131.999-0.433zM381.672 443.066c28.683-39.683 75.211-65.71 127.808-65.71s99.125 26.028 127.772 65.71c18.658 25.901 29.839 57.582 29.839 91.9 0 86.897-70.768 157.593-157.629 157.593-86.915 0-157.611-70.695-157.611-157.593 0.018-34.318 11.162-65.999 29.821-91.9zM869.948 809.638c0 47.341-38.491 85.795-85.795 85.795h-549.344c-47.323 0-85.813-38.454-85.813-85.795v-366.572h133.66c-11.542 28.394-18.026 59.407-18.026 91.9 0 134.979 109.818 244.869 244.851 244.869 135.015 0 244.833-109.89 244.833-244.869 0-32.494-6.52-63.507-18.062-91.9h133.696v366.572z"></path>
</svg>
