<!-- Generated by IcoMoon.io -->
<svg version="1.1" xmlns="http://www.w3.org/2000/svg" width="1108" height="1024" viewBox="0 0 1108 1024">
<title></title>
<g id="icomoon-ignore">
</g>
<path fill="none" stroke="#124a9b" stroke-width="55.4509" stroke-miterlimit="10" stroke-linecap="butt" stroke-linejoin="miter" d="M40.624 511.161h277.319v471.376h-277.319v-471.376z"></path>
<path fill="none" stroke="#124a9b" stroke-width="55.4509" stroke-miterlimit="10" stroke-linecap="butt" stroke-linejoin="miter" d="M401.039 344.803h277.319v637.734h-277.319v-637.734z"></path>
<path fill="none" stroke="#124a9b" stroke-width="55.4509" stroke-miterlimit="10" stroke-linecap="butt" stroke-linejoin="miter" d="M789.151 39.785h277.319v942.584h-277.319v-942.584z"></path>
<path fill="#124a9b" d="M28.37 14.269h62.783v76.884l65.805-76.884h83.599l-74.198 76.716 77.555 126.573h-77.388l-42.807-83.599-32.567 34.077v49.689h-62.783v-203.457z"></path>
<path fill="#124a9b" d="M264.561 14.269h104.414c22.83 0 39.785 5.372 51.2 16.283 11.247 10.744 16.955 26.188 16.955 46.164 0 20.48-6.211 36.595-18.466 48.178s-31.224 17.29-56.572 17.29h-34.413v75.541h-63.119v-203.457zM327.68 101.057h15.444c12.087 0 20.648-2.182 25.516-6.379s7.386-9.569 7.386-16.115c0-6.379-2.182-11.751-6.379-16.283s-12.254-6.715-24.005-6.715h-17.962v45.492z"></path>
<path fill="#124a9b" d="M472.551 14.269h62.951v203.457h-62.951v-203.457z"></path>
</svg>
