<!-- Generated by IcoMoon.io -->
<svg version="1.1" xmlns="http://www.w3.org/2000/svg" width="32" height="32" viewBox="0 0 32 32">
<title>KPI</title>
<path fill="none" stroke="#000" stroke-width="1.0323" stroke-miterlimit="10" stroke-linecap="butt" stroke-linejoin="miter" d="M6.194 16.516h5.161v8.774h-5.161v-8.774z"></path>
<path fill="none" stroke="#000" stroke-width="1.0323" stroke-miterlimit="10" stroke-linecap="butt" stroke-linejoin="miter" d="M12.903 13.419h5.161v11.871h-5.161v-11.871z"></path>
<path fill="none" stroke="#000" stroke-width="1.0323" stroke-miterlimit="10" stroke-linecap="butt" stroke-linejoin="miter" d="M20.129 7.742h5.161v17.548h-5.161v-17.548z"></path>
<path d="M5.965 7.266h1.17v1.431l1.226-1.431h1.557l-1.382 1.43 1.444 2.358h-1.441l-0.798-1.558-0.605 0.633v0.924h-1.17v-3.787z"></path>
<path d="M10.362 7.266h1.945c0.424 0 0.741 0.101 0.952 0.302s0.316 0.488 0.316 0.86c0 0.382-0.115 0.681-0.344 0.897s-0.581 0.323-1.053 0.323h-0.641v1.405h-1.175v-3.788zM11.537 8.88h0.287c0.226 0 0.384-0.039 0.475-0.118s0.137-0.179 0.137-0.301c0-0.119-0.040-0.219-0.119-0.302s-0.228-0.124-0.447-0.124h-0.333v0.845z"></path>
<path d="M14.234 7.266h1.173v3.787h-1.173v-3.787z"></path>
</svg>
