<!-- Generated by IcoMoon.io -->
<svg version="1.1" xmlns="http://www.w3.org/2000/svg" width="1024" height="1024" viewBox="0 0 1024 1024">
    <title></title>
    <g id="icomoon-ignore">
    </g>
    <path fill="none" stroke="#124a9b" stroke-width="33.0323" stroke-miterlimit="10" stroke-linecap="butt" stroke-linejoin="miter" d="M198.194 528.516h165.161v280.774h-165.161v-280.774z"></path>
    <path fill="none" stroke="#124a9b" stroke-width="33.0323" stroke-miterlimit="10" stroke-linecap="butt" stroke-linejoin="miter" d="M412.903 429.419h165.161v379.871h-165.161v-379.871z"></path>
    <path fill="none" stroke="#124a9b" stroke-width="33.0323" stroke-miterlimit="10" stroke-linecap="butt" stroke-linejoin="miter" d="M644.129 247.742h165.161v561.548h-165.161v-561.548z"></path>
    <path fill="#124a9b" d="M190.877 232.498h37.442v45.799l39.226-45.799h49.813l-44.23 45.75 46.212 75.446h-46.113l-25.55-49.846-19.357 20.265v29.58h-37.442v-121.195z"></path>
    <path fill="#124a9b" d="M331.578 232.498h62.233c13.56 0 23.717 3.221 30.472 9.678 6.739 6.441 10.108 15.624 10.108 27.532 0 12.238-3.667 21.801-11.016 28.689s-18.597 10.339-33.693 10.339h-20.497v44.973h-37.607v-121.212zM369.185 284.16h9.183c7.218 0 12.288-1.255 15.211-3.766s4.377-5.715 4.377-9.629c0-3.799-1.272-7.019-3.799-9.678s-7.3-3.964-14.303-3.964h-10.669v27.037z"></path>
    <path fill="#124a9b" d="M455.482 232.498h37.525v121.195h-37.525v-121.195z"></path>
</svg>
