<!-- Generated by IcoMoon.io -->
<svg version="1.1" xmlns="http://www.w3.org/2000/svg" width="986" height="1024" viewBox="0 0 986 1024">
<title></title>
<g id="icomoon-ignore">
</g>
<path fill="none" stroke="#fff" stroke-width="35.2927" stroke-miterlimit="10" stroke-linecap="round" stroke-linejoin="round" d="M860.26 432.336c0-190.051-154.053-344.104-344.104-344.104s-344.104 154.053-344.104 344.104c0 95.943 41.134 189.839 112.531 254.107 67.338 60.615 144.806 112.16 216.521 167.517 0.953 0.741 19.129 16.005 19.923 15.352 44.839-36.193 89.679-72.368 134.5-108.56 42.334-34.181 89.414-65.697 124.548-107.713 31.922-38.187 56.662-84.491 69.050-132.789 7.253-28.217 11.135-58.78 11.135-87.914z"></path>
<path fill="none" stroke="#fff" stroke-width="35.2927" stroke-miterlimit="10" stroke-linecap="round" stroke-linejoin="round" d="M690.819 429.724c0 99.339-80.53 179.869-179.869 179.869s-179.869-80.53-179.869-179.869c0-99.339 80.53-179.869 179.869-179.869s179.869 80.53 179.869 179.869z"></path>
<path fill="none" stroke="#fff" stroke-width="35.2927" stroke-miterlimit="10" stroke-linecap="round" stroke-linejoin="round" d="M622.14 815.755c50.804 12.952 84.332 35.152 84.332 60.386 0 39.951-84.032 72.332-187.687 72.332s-187.687-32.381-187.687-72.332c0-24.546 31.728-46.233 80.238-59.309"></path>
</svg>
