<!-- Generated by IcoMoon.io -->
<svg version="1.1" xmlns="http://www.w3.org/2000/svg" width="31" height="32" viewBox="0 0 31 32">
<title>location</title>
<path fill="none" stroke="#000" stroke-width="1.1029" stroke-miterlimit="10" stroke-linecap="round" stroke-linejoin="round" d="M26.883 13.511c0-5.939-4.814-10.753-10.753-10.753s-10.753 4.814-10.753 10.753c0 2.998 1.285 5.932 3.517 7.941 2.104 1.894 4.525 3.505 6.766 5.235 0.030 0.023 0.598 0.5 0.623 0.48 1.401-1.131 2.802-2.262 4.203-3.393 1.323-1.068 2.794-2.053 3.892-3.366 0.998-1.193 1.771-2.64 2.158-4.15 0.227-0.882 0.348-1.837 0.348-2.747z"></path>
<path fill="none" stroke="#000" stroke-width="1.1029" stroke-miterlimit="10" stroke-linecap="round" stroke-linejoin="round" d="M21.588 13.429c0 3.104-2.517 5.621-5.621 5.621s-5.621-2.517-5.621-5.621c0-3.104 2.517-5.621 5.621-5.621s5.621 2.517 5.621 5.621z"></path>
<path fill="none" stroke="#000" stroke-width="1.1029" stroke-miterlimit="10" stroke-linecap="round" stroke-linejoin="round" d="M19.442 25.492c1.588 0.405 2.635 1.099 2.635 1.887 0 1.248-2.626 2.26-5.865 2.26s-5.865-1.012-5.865-2.26c0-0.767 0.992-1.445 2.507-1.853"></path>
</svg>
