<!-- Generated by IcoMoon.io -->
<svg version="1.1" xmlns="http://www.w3.org/2000/svg" width="1024" height="1024" viewBox="0 0 1024 1024">
<title>plan-analysis</title>
<g id="icomoon-ignore">
</g>
<path d="M750.933 512c-34.133 0-102.4 68.267-238.933 68.267s-204.8-68.267-238.933-68.267c-37.683 0-68.267 30.583-68.267 68.267 0 34.133 19.388 50.551 34.133 59.187 40.448 23.654 170.667 77.346 170.667 77.346l-145.067 185.617c0 0-25.6 31.915-25.6 53.316 0 37.683 30.583 68.267 68.267 68.267 34.85 0 50.654-22.391 50.654-22.391s153.907-182.647 154.146-182.409c0.239-0.239 154.146 182.409 154.146 182.409s15.804 22.391 50.654 22.391c37.683 0 68.267-30.583 68.267-68.267 0-21.402-25.6-53.316-25.6-53.316l-145.067-185.617c0 0 130.219-53.692 170.667-77.346 14.746-8.636 34.133-25.054 34.133-59.187 0-37.683-30.583-68.267-68.267-68.267z"></path>
<path d="M512 0c-131.959 0-238.933 106.974-238.933 238.933s106.974 238.933 238.933 238.933c131.925 0 238.933-106.974 238.933-238.933s-107.008-238.933-238.933-238.933zM512 358.4c-65.98 0-119.467-53.453-119.467-119.467 0-65.98 53.487-119.467 119.467-119.467 65.946 0 119.467 53.487 119.467 119.467 0 66.014-53.521 119.467-119.467 119.467z"></path>
</svg>
