<!-- Generated by IcoMoon.io -->
<svg version="1.1" xmlns="http://www.w3.org/2000/svg" width="28" height="32" viewBox="0 0 28 32">
<title>package-services</title>
<path fill="none" stroke-width="0.4444" stroke-miterlimit="10" stroke-linecap="butt" stroke-linejoin="miter" d="M19.836 14.167l-1.157 2.667h-8.408l-1.432-2.667h-5.005v16h20.889v-16z"></path>
<path fill="none" stroke-width="0.4444" stroke-miterlimit="10" stroke-linecap="butt" stroke-linejoin="miter" d="M5.833 14.389v-9.778h16.444v9.556"></path>
<path fill="none" stroke-width="0.4444" stroke-miterlimit="10" stroke-linecap="butt" stroke-linejoin="miter" d="M7.167 2.833h13.778v1.778h-13.778v-1.778z"></path>
<path fill="none" stroke-width="0.4444" stroke-miterlimit="10" stroke-linecap="butt" stroke-linejoin="miter" d="M3.833 14.389v-1.778h2"></path>
<path fill="none" stroke-width="0.4444" stroke-miterlimit="10" stroke-linecap="butt" stroke-linejoin="miter" d="M22.278 12.611h2.444v2"></path>
<path fill="none" stroke-width="0.4444" stroke-miterlimit="10" stroke-linecap="butt" stroke-linejoin="miter" d="M8.722 8.833h10.667"></path>
<path fill="none" stroke-width="0.4444" stroke-miterlimit="10" stroke-linecap="butt" stroke-linejoin="miter" d="M10.722 10.167h6.667"></path>
<path fill="none" stroke-width="0.4444" stroke-miterlimit="10" stroke-linecap="butt" stroke-linejoin="miter" d="M18.278 27.278h5.111"></path>
<path fill="none" stroke-width="0.4444" stroke-miterlimit="10" stroke-linecap="butt" stroke-linejoin="miter" d="M20.944 28.389h2.444"></path>
<path stroke="none" d="M16.076 24.959l-0.1 0.035-0.057 0.016-0.063 0.020-0.069 0.020-0.079 0.022-0.086 0.026-0.098 0.029-0.108 0.030-0.059 0.018-0.030 0.009 0.326-0.584-0.051 0.051-0.028 0.026-0.033 0.024-0.035 0.029-0.041 0.028-0.045 0.031-0.051 0.032-0.057 0.039-0.061 0.041-0.071 0.047-0.078 0.053-0.086 0.057-0.094 0.065-0.051 0.035-0.053 0.039-0.055 0.039-0.057 0.041-0.018 0.014-0.051-0.014h-0.004l-0.047 0.014-0.018-0.019-0.059-0.038-0.055-0.037-0.104-0.070-0.094-0.065-0.086-0.057-0.149-0.098-0.063-0.041-0.055-0.039-0.051-0.033-0.045-0.031-0.041-0.028-0.037-0.026-0.033-0.027-0.028-0.024-0.051-0.051 0.045 0.057 0.022 0.030 0.022 0.035 0.022 0.039 0.024 0.043 0.026 0.049 0.029 0.053 0.030 0.061 0.035 0.065 0.039 0.076 0.041 0.075-0.039-0.012-0.059-0.018-0.108-0.030-0.098-0.029-0.088-0.024-0.149-0.043-0.063-0.020-0.055-0.018-0.053-0.016-0.047-0.018-0.043-0.016-0.080-0.039 0.076 0.045 0.039 0.026 0.041 0.031 0.043 0.032 0.047 0.037 0.051 0.043 0.057 0.047 0.061 0.053 0.071 0.059 0.077 0.063 0.086 0.073 0.047 0.039 0.051 0.041 0.051 0.043 0.055 0.045 0.12 0.096 0.063 0.051 0.104 0.053 0.064 0.010v0.002l-0.029 0.055-0 0.053 0.017 0.053 0.028 0.049 0.034 0.043 0.042 0.037 0.048 0.033 0.053 0.026 0.053 0.018 0.055 0.010 0.059 0.004 0.057-0.004 0.055-0.010 0.053-0.018 0.053-0.026 0.049-0.033 0.043-0.037 0.037-0.043 0.033-0.049 0.026-0.053 0.066-0.053 0.058-0.055v-0.003l-0.021-0.011 0.044-0.053 0.051-0.053 0.055-0.049 0.054-0.047 0.054-0.045 0.052-0.043 0.048-0.041 0.047-0.039 0.087-0.071 0.078-0.065 0.069-0.059 0.061-0.053 0.057-0.047 0.051-0.043 0.047-0.037 0.043-0.033 0.041-0.030 0.039-0.026 0.075-0.045-0.080 0.039z"></path>
<path stroke="none" d="M11.518 22.277l0.006-0.047 0.010-0.049 0.010-0.055 0.012-0.059 0.016-0.067 0.016-0.074 0.018-0.084 0.020-0.092 0.024-0.102 0.024-0.114 0.004-0.019 0.002 0.003 0.055 0.071 0.055 0.076 0.106 0.155 0.047 0.075 0.043 0.073 0.037 0.071 0.031 0.065-0.010-0.029-0.010-0.030-0.020-0.069-0.016-0.080-0.016-0.084-0.016-0.092-0.014-0.092-0.022-0.186-0.010-0.090-0.008-0.084-0.006-0.076-0.006-0.067-0.002-0.031-0.002-0.026-0.030-0.022-0.031-0.018v-0.037l0.015-0.025 0.029-0.022 0.018-0.021 0.034-0.001 0.071-0.026 0.068-0.027 0.064-0.024 0.059-0.024 0.112-0.045 0.1-0.041 0.092-0.037 0.082-0.035 0.073-0.031 0.065-0.026 0.059-0.024 0.053-0.020 0.049-0.020 0.086-0.028 0.039-0.010 0.073-0.016-0.075-0.048-0.041-0.052h-0.043l-0.047 0.052-0.051 0.023-0.057 0.010-0.063 0.003-0.071-0.005-0.079-0.004-0.088-0.007-0.088-0.005 0.702-0.559-0.080 0.037-0.045 0.018-0.047 0.016-0.051 0.018-0.057 0.018-0.063 0.018-0.071 0.020-0.077 0.022-0.088 0.026-0.098 0.028-0.108 0.031-0.057 0.018-0.061 0.018-0.065 0.018-0.067 0.020-0.071 0.022-0.075 0.022-0.078 0.024-0.081 0.026-0.023 0.015-0.030-0.015-0.053-0.018-0.055-0.071-0.057-0.067h-0.004l-0.057 0.067-0.055 0.041-0.051 0.032-0.053 0.034-0.049 0.037-0.043 0.038-0.037 0.044-0.033 0.050-0.026 0.053-0.018 0.053-0.008 0.055-0.004 0.057 0.004 0.059 0.008 0.055 0.018 0.053 0.026 0.053 0.033 0.049 0.037 0.043 0.043 0.037 0.015 0.010-0.002 0.031 0.016 0.077 0.014 0.076 0.014 0.071 0.014 0.067 0.014 0.065 0.012 0.061 0.024 0.114 0.024 0.102 0.020 0.092 0.018 0.084 0.016 0.074 0.016 0.067 0.012 0.059 0.010 0.055 0.010 0.049 0.006 0.047 0.006 0.043 0.004 0.082 0.002-0.082z"></path>
<path stroke="none" d="M13.246 19.817l0.1-0.039 0.106-0.037 0.222-0.073 0.11-0.033 0.108-0.031 0.104-0.028 0.096-0.027 0.128-0.032 0.037-0.008 0.033-0.008 0.030-0.008 0.025-0.006 0.022-0.004 0.018-0.004 0.012-0.004 0.003-0.001 0.023 0.019 0.037 0.035 0.031 0.030 0.026 0.026 0.026 0.022 0.024 0.020 0.031 0.016 0.035 0.012 0.067-0.049 0.063-0.053 0.063-0.053 0.031-0.026 0.073 0.024 0.079 0.024 0.076 0.024 0.071 0.022 0.067 0.020 0.065 0.020 0.061 0.018 0.059 0.016 0.108 0.032 0.098 0.029 0.088 0.026 0.078 0.022 0.071 0.020 0.12 0.039 0.051 0.016 0.047 0.018 0.045 0.018 0.055 0.026-0.053-0.032-0.039-0.026-0.041-0.030-0.043-0.033-0.047-0.039-0.051-0.041-0.055-0.049-0.063-0.053-0.069-0.057-0.080-0.067-0.086-0.071-0.047-0.039-0.051-0.043-0.051-0.043-0.055-0.045-0.059-0.047-0.061-0.049-0.063-0.053-0.067-0.053-0.026-0.010-0-0.006-0.010-0.055-0.018-0.053-0.026-0.053-0.033-0.049-0.037-0.043-0.043-0.037-0.049-0.033-0.053-0.026-0.053-0.018-0.055-0.017-0.057-0.013h-0.004l-0.057 0.013-0.055 0.015-0.051 0.018-0.053 0.028-0.049 0.033-0.043 0.037-0.037 0.043-0.033 0.049-0.026 0.053-0.018 0.053-0.008 0.055-0 0.004-0.026 0.010-0.067 0.053-0.063 0.051-0.061 0.049-0.057 0.047-0.055 0.045-0.053 0.043-0.049 0.041-0.047 0.039-0.088 0.073-0.078 0.063-0.069 0.059-0.061 0.053-0.057 0.047-0.051 0.041-0.047 0.039-0.043 0.033-0.039 0.028-0.039 0.027-0.075 0.045 0.082-0.039z"></path>
<path stroke="none" d="M12.958 24.834l-0.041-0.028-0.043-0.033-0.047-0.039-0.051-0.041-0.057-0.047-0.063-0.053-0.069-0.059-0.077-0.065-0.088-0.071-0.047-0.039-0.049-0.041-0.053-0.043-0.053-0.045-0.059-0.047-0.061-0.049-0.063-0.053-0.050-0.040 0.067-0.268-0.294-0.101-0.014-0.066-0.014-0.073-0.014-0.071-0.014-0.069-0.014-0.063-0.012-0.061-0.024-0.114-0.024-0.102-0.020-0.094-0.018-0.082-0.016-0.075-0.016-0.065-0.012-0.061-0.010-0.055-0.010-0.049-0.006-0.047-0.006-0.043-0.002-0.082-0.004 0.082-0.006 0.043-0.006 0.047-0.010 0.049-0.010 0.055-0.012 0.061-0.016 0.065-0.016 0.075-0.018 0.082-0.020 0.094-0.024 0.102-0.024 0.114-0.012 0.061-0.014 0.063-0.014 0.069-0.014 0.071-0.014 0.073-0.016 0.080 0.002 0.029-0.014 0.010-0.043 0.037-0.037 0.043-0.033 0.049-0.026 0.053-0.018 0.053-0.008 0.055-0.004 0.057 0.004 0.059 0.008 0.055 0.018 0.053 0.026 0.053 0.033 0.049 0.037 0.043 0.043 0.037 0.049 0.032 0.053 0.027 0.053 0.018 0.055 0.010 0.059 0.004 0.057-0.004 0.055-0.010 0.053-0.018 0.028-0.014 0.025 0.016 0.081 0.026 0.153 0.047 0.071 0.022 0.132 0.039 0.061 0.018 0.059 0.018 0.108 0.030 0.098 0.029 0.088 0.024 0.080 0.022 0.069 0.020 0.065 0.020 0.057 0.016 0.051 0.018 0.047 0.016 0.045 0.018 0.080 0.037-0.077-0.045z"></path>
<path stroke="none" d="M16.213 19.916l-0.018-0.012-0.024-0.011 0.022 0.013z"></path>
<path stroke="none" d="M16.084 20.469l-0.041-0.012-0.043-0.016-0.049-0.020-0.053-0.020-0.059-0.024-0.065-0.029-0.073-0.030-0.079-0.035-0.092-0.039-0.271-0.11-0.061-0.026-0.067-0.026-0.069-0.026-0.031-0.001-0.014-0.027-0.033-0.049-0.037-0.043-0.043-0.037-0.017-0.011 0.002-0.030-0.257-0.2-0.253 0.204 0.003 0.026-0.015 0.010-0.043 0.037-0.037 0.043-0.033 0.049-0.013 0.025-0.028 0.001-0.069 0.026-0.067 0.026-0.063 0.024-0.061 0.024-0.11 0.045-0.102 0.041-0.090 0.037-0.082 0.035-0.073 0.031-0.065 0.026-0.059 0.024-0.053 0.020-0.049 0.020-0.045 0.014-0.041 0.014-0.039 0.010-0.075-0.029 0.075-0.053h0.084l0.049 0.047 0.051 0.025 0.057 0.015 0.063 0.012 0.071 0.009 0.079 0.010 0.088 0.007 0.098 0.008 0.108 0.008 0.12 0.010 0.063 0.004 0.088 0.005-0.023 0.056-0.033 0.079-0.030 0.076-0.029 0.071-0.028 0.069-0.026 0.065-0.025 0.063-0.022 0.059-0.022 0.055-0.041 0.104-0.037 0.094-0.033 0.083-0.028 0.076-0.028 0.067-0.024 0.061-0.024 0.055-0.022 0.049-0.022 0.047-0.049 0.084 1.021-1.145 0.010 0.010 0.014 0.012 0.082 0.082 0.026 0.024 0.029 0.031 0.063 0.063 0.071 0.069 0.073 0.077 0.078 0.082 0.079 0.086 0.080 0.088 0.155 0.179 0.073 0.090 0.067 0.086 0.059 0.084 0.051 0.080 0.587 1.402-0.022 0.004-0.024 0.006-0.030 0.006-0.033 0.008-0.037 0.006-0.039 0.008-0.088 0.018-0.096 0.018-0.104 0.020-0.112 0.020-0.116 0.020-0.24 0.037-0.12 0.016-0.118 0.016-0.116 0.012-0.11 0.008-0.104 0.006-0.096 0.002 0.104 0.004 0.057 0.006 0.059 0.006 0.063 0.010 0.069 0.010 0.078 0.014 0.086 0.016 0.094 0.016 0.106 0.020 0.057 0.010 0.061 0.010 0.065 0.012 0.067 0.012 0.069 0.012 0.076 0.014 0.079 0.012 0.082 0.014 0.088 0.016 0.092 0.014 0.053 0.009-0.014 0.026-0.031 0.055-0.102 0.192-0.043 0.084-0.039 0.073-0.035 0.067-0.030 0.061-0.029 0.053-0.026 0.049-0.022 0.043-0.022 0.039-0.022 0.035-0.022 0.033-0.045 0.057 0.041-0.041 0.053-0.045 0.063-0.051 0.069-0.053 0.075-0.055 0.080-0.057 0.161-0.11 0.080-0.053 0.073-0.051 0.069-0.045 0.059-0.039 0.026-0.016 0.024-0.016 0.020-0.012 0.018-0.012 0.014-0.008 0.010-0.006 0.006-0.004 0.002-0.002 0.016-0.022 0.049 0.003 0.057-0.004 0.055-0.010 0.053-0.018 0.024-0.012 0.027 0.018 0.092-0.030 0.034-0.012 0.029-0.008 0.024-0.008 0.020-0.006 0.016-0.006 0.014-0.004 0.020-0.008 0.020-0.006 0.024-0.008 0.014-0.006 0.018-0.006-0.043-0.171-0.022-0.084-0.020-0.082-0.023-0.010-0.001-0.014-0.010-0.055-0.018-0.053-0.027-0.053-0.012-0.019 0.012-0.024 0.010-0.067 0.010-0.063 0.016-0.12 0.014-0.108 0.012-0.098 0.010-0.088 0.010-0.079 0.008-0.071 0.008-0.065 0.006-0.057 0.008-0.051 0.006-0.047 0.008-0.043 0.008-0.039 0.008-0.035 0.022-0.065-0.029 0.063-0.018 0.031-0.022 0.035-0.022 0.034-0.029 0.039-0.030 0.041-0.035 0.047-0.039 0.051-0.043 0.059-0.049 0.063-0.053 0.071-0.124 0.167-0.069 0.098-0.028 0.038-0.007-0.007-0.059-0.067-0.112-0.124-0.053-0.057-0.049-0.055-0.047-0.051-0.047-0.049-0.043-0.047-0.041-0.045-0.075-0.080-0.067-0.073-0.061-0.065-0.055-0.059-0.049-0.053-0.043-0.049-0.039-0.045-0.035-0.043-0.030-0.041-0.055-0.079-0.049-0.084-0.022-0.045-0.022-0.051-0.024-0.053-0.024-0.061-0.026-0.067-0.031-0.073-0.030-0.084-0.037-0.094-0.041-0.102-0.022-0.057-0.022-0.059-0.024-0.061-0.027-0.065-0.026-0.069-0.030-0.071-0.031-0.076-0.031-0.079-0.026-0.062 0.010-0.001 0.069-0.008 0.077-0.008 0.179-0.016 0.098-0.008 0.102-0.006 0.202-0.010 0.098-0.002 0.094 0.002 0.086 0.004 0.080 0.008-0.075-0.016z"></path>
<path stroke="none" d="M13.551 24.518l-0.022-0.035-0.022-0.039-0.024-0.043-0.024-0.047-0.028-0.055-0.031-0.059-0.037-0.067-0.039-0.073-0.043-0.084-0.049-0.092-0.055-0.1-0.029-0.055-0.031-0.052 0.062-0.009 0.092-0.014 0.086-0.014 0.084-0.012 0.079-0.014 0.076-0.012 0.069-0.010 0.069-0.012 0.063-0.010 0.061-0.010 0.057-0.010 0.106-0.018 0.096-0.016 0.086-0.014 0.078-0.012 0.069-0.010 0.065-0.008 0.059-0.006 0.055-0.006 0.104-0.002-1.596-0.259 0.008-0.020 0.008-0.024 0.010-0.029 0.010-0.030 0.026-0.067 0.029-0.077 0.032-0.086 0.035-0.092 0.037-0.098 0.041-0.098 0.084-0.206 0.088-0.2 0.045-0.096 0.045-0.092 0.043-0.084 0.043-0.076-0.055 0.080-0.067 0.084-0.041 0.045-0.043 0.049-0.051 0.055-0.053 0.059-0.063 0.065-0.067 0.071-0.075 0.082-0.043 0.045-0.134 0.147-0.051 0.055-0.053 0.057-0.055 0.061-0.057 0.065-0.059 0.065-0.008 0.009-0.587-0.85 0.163 1.111 0.013 0.023-0.015 0.022-0.026 0.053-0.018 0.053-0.008 0.055-0 0.006-0.028 0.012-0.012 0.053-0.012 0.045-0.010 0.039-0.006 0.030-0.008 0.024-0.004 0.020-0.004 0.016-0.004 0.012-0.006 0.020-0.004 0.018-0.004 0.020-0.002 0.016-0.004 0.018 0.039 0.004 0.035 0.008 0.030 0.010 0.031 0.012 0.035 0.016 0.043 0.016 0.051 0.022 0.028 0.010 0.035 0.012 0.022-0.015 0.029 0.015 0.053 0.018 0.055 0.010 0.059 0.004 0.054-0.004 0.015 0.020 0.059 0.041 0.055 0.039 0.053 0.037 0.147 0.1 0.086 0.057 0.149 0.098 0.061 0.043 0.057 0.037 0.051 0.032 0.045 0.033 0.041 0.029 0.037 0.026 0.033 0.024 0.028 0.026 0.051 0.051-0.045-0.057z"></path>
<path stroke="none" d="M18.18 23.95l-0.018-0.053-0.026-0.053-0.033-0.049-0.037-0.043-0.043-0.037-0.014-0.009 0.003-0.028-0.016-0.077-0.014-0.073-0.014-0.071-0.014-0.067-0.014-0.063-0.012-0.061-0.025-0.112-0.024-0.102-0.020-0.092-0.018-0.082-0.016-0.073-0.016-0.067-0.012-0.059-0.010-0.053-0.010-0.049-0.006-0.047-0.006-0.043-0.002-0.080 0.002-0.082 0.006-0.043 0.006-0.045 0.010-0.049 0.010-0.055 0.012-0.059 0.016-0.065 0.016-0.074 0.018-0.084 0.020-0.090 0.024-0.102 0.025-0.112 0.012-0.061 0.014-0.063 0.014-0.067 0.014-0.071 0.014-0.073 0.016-0.078-0.004-0.031 0.014-0.009 0.043-0.037 0.037-0.043 0.033-0.049 0.026-0.053 0.018-0.053 0.010-0.055 0.004-0.059-0.004-0.057-0.010-0.055-0.018-0.053-0.026-0.053-0.033-0.049-0.037-0.043-0.043-0.037-0.049-0.033-0.053-0.026-0.053-0.018-0.055-0.080-0.057-0.076h-0.004l-0.057 0.076-0.055 0.046-0.051 0.034-0.027 0.023-0.024-0.011-0.082-0.024-0.079-0.023-0.076-0.024-0.071-0.022-0.067-0.020-0.065-0.020-0.061-0.018-0.059-0.016-0.108-0.033-0.098-0.028-0.088-0.026-0.077-0.022-0.071-0.020-0.063-0.020-0.108-0.034-0.047-0.018-0.045-0.018-0.059-0.027 0.057 0.035 0.039 0.026 0.041 0.029 0.043 0.035 0.047 0.037 0.051 0.043 0.057 0.047 0.061 0.053 0.069 0.059 0.080 0.065 0.086 0.073 0.047 0.039 0.014 0.011-0.089 0.007-0.088 0.006-0.080 0.006-0.071 0.006-0.063 0.004-0.057-0.054-0.051-0.054h-0.047l-0.043 0.060-0.041 0.027-0.075 0.006 1.137 0.452 0.027 0.005 0.012 0.025 0.015 0.023-0.012 0.024-0.010 0.067-0.010 0.063-0.016 0.12-0.014 0.108-0.012 0.098-0.012 0.090-0.008 0.079-0.010 0.071-0.006 0.065-0.008 0.057-0.006 0.051-0.008 0.047-0.006 0.043-0.008 0.039-0.008 0.035-0.022 0.065 0.028-0.063 0.018-0.031 0.020-0.035 0.024-0.035 0.027-0.039 0.032-0.043 0.035-0.045 0.039-0.053 0.043-0.057 0.049-0.065 0.066-0.090 0.023 0.106 0.022 0.102 0.020 0.090 0.020 0.084 0.016 0.074 0.014 0.065 0.014 0.059 0.010 0.055 0.008 0.049 0.008 0.045 0.004 0.043 0.004 0.082-0.004 0.080-0.004 0.043-0.008 0.047-0.008 0.049-0.010 0.053-0.014 0.059-0.014 0.067-0.016 0.073-0.020 0.082-0.020 0.092-0.022 0.102-0.025 0.112-0.014 0.061-0.014 0.063-0.014 0.067-0.014 0.071-0.014 0.073-0.014 0.068-0.298 0.101 0.070 0.268-0.048 0.038-0.063 0.053-0.061 0.049-0.057 0.047-0.055 0.045-0.053 0.043-0.049 0.041-0.047 0.039-0.086 0.073-0.078 0.065-0.069 0.059-0.063 0.051-0.057 0.047-0.051 0.043-0.045 0.037-0.043 0.035-0.041 0.029-0.039 0.026-0.075 0.045 0.077-0.037 0.045-0.018 0.047-0.016 0.051-0.018 0.057-0.018 0.063-0.018 0.069-0.020 0.080-0.024 0.088-0.024 0.096-0.028 0.108-0.033 0.059-0.016 0.061-0.018 0.065-0.020 0.067-0.020 0.071-0.022 0.073-0.022 0.079-0.024 0.082-0.026 0.025-0.017 0.026 0.013 0.053 0.018 0.055 0.010 0.059 0.004 0.057-0.004 0.055-0.010 0.053-0.018 0.053-0.027 0.049-0.032 0.043-0.037 0.037-0.043 0.033-0.049 0.026-0.053 0.018-0.053 0.010-0.055 0.004-0.059-0.004-0.057z"></path>
</svg>
