<?xml version="1.0" encoding="utf-8"?>
<!-- Generator: Adobe Illustrator 17.0.0, SVG Export Plug-In . SVG Version: 6.00 Build 0)  -->
<!DOCTYPE svg PUBLIC "-//W3C//DTD SVG 1.1//EN" "http://www.w3.org/Graphics/SVG/1.1/DTD/svg11.dtd">
<svg version="1.1" id="Слой_1" xmlns="http://www.w3.org/2000/svg" xmlns:xlink="http://www.w3.org/1999/xlink" x="0px" y="0px"
	 width="125.5px" height="144px" viewBox="0 0 125.5 144" enable-background="new 0 0 125.5 144" xml:space="preserve">
<polygon fill="none" stroke="#124B9B" stroke-width="2" stroke-miterlimit="10" points="89.261,63.75 84.055,75.75 46.219,75.75 
	39.773,63.75 17.25,63.75 17.25,135.75 111.25,135.75 111.25,63.75 "/>
<polyline fill="none" stroke="#124B9B" stroke-width="2" stroke-miterlimit="10" points="26.25,64.75 26.25,20.75 100.25,20.75 
	100.25,63.75 "/>
<rect x="32.25" y="12.75" fill="none" stroke="#124B9B" stroke-width="2" stroke-miterlimit="10" width="62" height="8"/>
<polyline fill="none" stroke="#124B9B" stroke-width="2" stroke-miterlimit="10" points="17.25,64.75 17.25,56.75 26.25,56.75 "/>
<polyline fill="none" stroke="#124B9B" stroke-width="2" stroke-miterlimit="10" points="100.25,56.75 111.25,56.75 111.25,65.75 
	"/>
<line fill="none" stroke="#124B9B" stroke-width="2" stroke-miterlimit="10" x1="39.25" y1="39.75" x2="87.25" y2="39.75"/>
<line fill="none" stroke="#124B9B" stroke-width="2" stroke-miterlimit="10" x1="48.25" y1="45.75" x2="78.25" y2="45.75"/>
<line fill="none" stroke="#124B9B" stroke-width="2" stroke-miterlimit="10" x1="82.25" y1="122.75" x2="105.25" y2="122.75"/>
<line fill="none" stroke="#124B9B" stroke-width="2" stroke-miterlimit="10" x1="94.25" y1="127.75" x2="105.25" y2="127.75"/>
<g>
	<polygon fill-rule="evenodd" clip-rule="evenodd" fill="#124B9B" points="72.344,112.314 72.133,112.387 71.894,112.47 
		71.637,112.543 71.353,112.635 71.041,112.726 70.684,112.827 70.299,112.946 69.858,113.075 69.372,113.212 69.106,113.295 
		68.97,113.336 70.436,110.709 70.207,110.938 70.079,111.057 69.932,111.167 69.776,111.296 69.592,111.424 69.391,111.562 
		69.161,111.708 68.905,111.883 68.63,112.066 68.309,112.277 67.96,112.515 67.575,112.772 67.153,113.065 66.924,113.221 
		66.685,113.396 66.438,113.57 66.181,113.753 66.1,113.814 65.869,113.75 65.851,113.75 65.638,113.813 65.557,113.729 
		65.291,113.558 65.044,113.39 64.805,113.228 64.576,113.073 64.154,112.781 63.769,112.524 63.421,112.295 63.1,112.084 
		62.815,111.901 62.568,111.727 62.338,111.58 62.137,111.442 61.953,111.314 61.788,111.195 61.641,111.075 61.513,110.965 
		61.284,110.736 61.486,110.993 61.586,111.13 61.687,111.286 61.788,111.461 61.898,111.653 62.017,111.873 62.146,112.112 
		62.283,112.387 62.439,112.68 62.614,113.02 62.799,113.357 62.623,113.304 62.357,113.221 61.871,113.084 61.43,112.955 
		61.036,112.845 60.688,112.745 60.367,112.653 60.082,112.561 59.835,112.479 59.596,112.405 59.385,112.323 59.193,112.25 
		58.835,112.075 59.175,112.277 59.349,112.396 59.532,112.534 59.725,112.68 59.936,112.845 60.165,113.038 60.422,113.249 
		60.697,113.487 61.018,113.753 61.366,114.038 61.751,114.368 61.962,114.542 62.192,114.725 62.421,114.918 62.669,115.12 
		62.934,115.331 63.21,115.551 63.494,115.78 63.964,116.019 64.25,116.065 64.25,116.074 64.119,116.321 64.118,116.56 
		64.196,116.798 64.322,117.018 64.476,117.211 64.664,117.376 64.881,117.523 65.118,117.642 65.356,117.724 65.603,117.77 
		65.869,117.789 66.126,117.77 66.374,117.724 66.612,117.642 66.851,117.523 67.071,117.376 67.263,117.211 67.428,117.018 
		67.575,116.798 67.694,116.56 67.991,116.321 68.25,116.074 68.25,116.061 68.155,116.01 68.351,115.771 68.582,115.533 
		68.83,115.312 69.074,115.101 69.315,114.9 69.55,114.707 69.768,114.524 69.979,114.35 70.372,114.029 70.721,113.735 
		71.032,113.469 71.307,113.231 71.564,113.02 71.793,112.827 72.004,112.662 72.197,112.515 72.38,112.378 72.555,112.259 
		72.894,112.057 72.536,112.231 	"/>
	<polygon fill-rule="evenodd" clip-rule="evenodd" fill="#124B9B" points="51.829,100.245 51.856,100.034 51.902,99.814 
		51.948,99.566 52.003,99.3 52.076,98.998 52.15,98.667 52.232,98.291 52.324,97.879 52.434,97.42 52.544,96.907 52.561,96.82 
		52.572,96.833 52.819,97.154 53.067,97.494 53.544,98.191 53.755,98.53 53.947,98.86 54.112,99.181 54.25,99.475 54.204,99.346 
		54.158,99.209 54.066,98.897 53.993,98.539 53.92,98.163 53.846,97.751 53.782,97.338 53.681,96.503 53.635,96.1 53.599,95.724 
		53.571,95.384 53.544,95.082 53.535,94.944 53.525,94.825 53.388,94.724 53.25,94.642 53.25,94.568 53.25,94.522 53.25,94.486 
		53.25,94.477 53.316,94.366 53.445,94.266 53.524,94.17 53.675,94.165 53.994,94.046 54.301,93.926 54.587,93.816 54.854,93.706 
		55.359,93.504 55.809,93.321 56.221,93.156 56.588,93 56.918,92.862 57.212,92.743 57.478,92.633 57.716,92.542 57.936,92.45 
		58.129,92.386 58.322,92.322 58.496,92.276 58.826,92.202 58.487,91.985 58.303,91.75 58.111,91.75 57.9,91.985 57.671,92.089 
		57.414,92.132 57.129,92.144 56.808,92.123 56.451,92.103 56.056,92.07 55.658,92.047 58.817,89.532 58.459,89.698 58.257,89.781 
		58.047,89.855 57.817,89.937 57.56,90.02 57.276,90.102 56.955,90.194 56.607,90.295 56.212,90.414 55.772,90.542 55.286,90.68 
		55.029,90.762 54.754,90.845 54.461,90.927 54.158,91.019 53.837,91.12 53.498,91.221 53.149,91.331 52.783,91.45 52.68,91.518 
		52.544,91.45 52.306,91.368 52.058,91.05 51.801,90.75 51.783,90.75 51.526,91.05 51.279,91.236 51.049,91.38 50.811,91.534 
		50.591,91.699 50.398,91.872 50.233,92.069 50.086,92.292 49.967,92.531 49.885,92.77 49.848,93.018 49.83,93.275 49.848,93.541 
		49.885,93.789 49.967,94.027 50.086,94.266 50.233,94.486 50.398,94.678 50.591,94.843 50.657,94.888 50.646,95.027 50.719,95.375 
		50.783,95.715 50.847,96.036 50.912,96.338 50.976,96.632 51.031,96.907 51.141,97.42 51.251,97.879 51.343,98.291 51.425,98.667 
		51.499,98.998 51.572,99.3 51.627,99.566 51.673,99.814 51.719,100.034 51.746,100.245 51.774,100.437 51.792,100.804 
		51.801,100.437 	"/>
	<polygon fill-rule="evenodd" clip-rule="evenodd" fill="#124B9B" points="59.606,89.176 60.055,89.002 60.532,88.837 
		61.531,88.507 62.027,88.36 62.513,88.222 62.98,88.094 63.411,87.974 63.806,87.874 63.989,87.828 64.154,87.791 64.301,87.754 
		64.438,87.718 64.549,87.69 64.649,87.672 64.732,87.653 64.787,87.635 64.802,87.632 64.906,87.718 65.071,87.874 65.209,88.011 
		65.328,88.13 65.447,88.231 65.557,88.323 65.695,88.396 65.851,88.451 66.153,88.231 66.438,87.993 66.722,87.754 66.862,87.639 
		67.19,87.745 67.547,87.855 67.887,87.965 68.208,88.066 68.51,88.158 68.804,88.25 69.079,88.332 69.345,88.406 69.831,88.552 
		70.271,88.681 70.665,88.8 71.014,88.901 71.335,88.992 71.619,89.084 71.876,89.167 72.105,89.24 72.316,89.322 72.518,89.405 
		72.767,89.52 72.527,89.377 72.353,89.258 72.169,89.121 71.977,88.974 71.766,88.8 71.537,88.617 71.289,88.396 71.005,88.158 
		70.693,87.901 70.335,87.598 69.95,87.277 69.739,87.103 69.51,86.911 69.281,86.718 69.033,86.516 68.767,86.305 68.492,86.085 
		68.208,85.847 67.905,85.608 67.788,85.563 67.786,85.535 67.74,85.287 67.657,85.049 67.538,84.811 67.391,84.591 67.226,84.398 
		67.034,84.233 66.814,84.086 66.575,83.967 66.337,83.884 66.089,83.808 65.832,83.75 65.814,83.75 65.557,83.808 65.31,83.874 
		65.081,83.957 64.842,84.081 64.622,84.23 64.429,84.397 64.264,84.59 64.117,84.81 63.998,85.049 63.916,85.287 63.879,85.535 
		63.878,85.553 63.76,85.599 63.457,85.838 63.173,86.067 62.898,86.287 62.641,86.498 62.393,86.7 62.155,86.892 61.935,87.076 
		61.724,87.25 61.33,87.58 60.981,87.864 60.669,88.13 60.394,88.369 60.137,88.58 59.908,88.763 59.697,88.937 59.505,89.084 
		59.33,89.212 59.156,89.332 58.817,89.533 59.184,89.359 	"/>
	<polygon fill-rule="evenodd" clip-rule="evenodd" fill="#124B9B" points="58.312,111.754 58.129,111.626 57.936,111.479 
		57.726,111.305 57.496,111.121 57.239,110.91 56.955,110.672 56.643,110.406 56.295,110.113 55.901,109.792 55.69,109.617 
		55.47,109.434 55.231,109.241 54.993,109.04 54.727,108.829 54.452,108.609 54.167,108.37 53.941,108.192 54.241,106.986 
		52.917,106.53 52.856,106.233 52.792,105.903 52.727,105.582 52.663,105.271 52.599,104.986 52.544,104.711 52.434,104.197 
		52.324,103.739 52.232,103.317 52.15,102.95 52.076,102.611 52.003,102.317 51.948,102.042 51.902,101.795 51.856,101.575 
		51.829,101.364 51.801,101.171 51.792,100.804 51.774,101.171 51.746,101.364 51.719,101.575 51.673,101.795 51.627,102.042 
		51.572,102.317 51.499,102.611 51.425,102.95 51.343,103.317 51.251,103.739 51.141,104.197 51.031,104.711 50.976,104.986 
		50.912,105.271 50.847,105.582 50.783,105.903 50.719,106.233 50.646,106.591 50.656,106.722 50.591,106.765 50.398,106.931 
		50.233,107.123 50.086,107.343 49.967,107.581 49.885,107.82 49.848,108.068 49.83,108.324 49.848,108.59 49.885,108.838 
		49.967,109.076 50.086,109.315 50.233,109.535 50.398,109.727 50.591,109.893 50.811,110.039 51.049,110.159 51.288,110.241 
		51.535,110.287 51.801,110.305 52.058,110.287 52.306,110.241 52.544,110.159 52.672,110.094 52.783,110.168 53.149,110.287 
		53.507,110.397 53.837,110.498 54.158,110.599 54.47,110.69 54.754,110.773 55.029,110.855 55.295,110.938 55.781,111.075 
		56.222,111.204 56.616,111.314 56.974,111.415 57.285,111.506 57.579,111.598 57.836,111.672 58.065,111.754 58.276,111.828 
		58.477,111.91 58.835,112.075 58.487,111.873 	"/>
	<polygon fill-rule="evenodd" clip-rule="evenodd" fill="#124B9B" points="72.958,89.622 72.875,89.57 72.767,89.52 72.866,89.579 	
		"/>
	<polygon fill-rule="evenodd" clip-rule="evenodd" fill="#124B9B" points="72.38,92.111 72.197,92.056 72.004,91.982 71.784,91.89 
		71.546,91.799 71.28,91.689 70.986,91.56 70.656,91.423 70.299,91.267 69.886,91.092 69.436,90.909 68.941,90.707 68.666,90.597 
		68.391,90.478 68.088,90.359 67.777,90.24 67.636,90.234 67.575,90.111 67.428,89.891 67.263,89.699 67.071,89.533 66.996,89.484 
		67.006,89.35 65.851,88.451 64.714,89.368 64.728,89.487 64.659,89.533 64.466,89.699 64.301,89.891 64.154,90.111 64.097,90.225 
		63.971,90.231 63.659,90.35 63.356,90.469 63.072,90.579 62.797,90.689 62.302,90.891 61.843,91.074 61.44,91.239 61.073,91.395 
		60.743,91.533 60.449,91.652 60.183,91.762 59.945,91.854 59.725,91.945 59.523,92.01 59.34,92.074 59.165,92.12 58.826,91.99 
		59.165,91.75 59.349,91.75 59.541,91.75 59.761,91.962 59.991,92.073 60.247,92.142 60.532,92.195 60.853,92.235 61.21,92.278 
		61.605,92.309 62.045,92.347 62.531,92.385 63.072,92.431 63.356,92.45 63.668,92.468 63.754,92.473 63.65,92.725 63.503,93.082 
		63.366,93.422 63.237,93.743 63.109,94.055 62.99,94.348 62.879,94.632 62.779,94.898 62.678,95.146 62.494,95.614 62.329,96.036 
		62.182,96.411 62.054,96.751 61.926,97.053 61.816,97.329 61.706,97.576 61.605,97.796 61.504,98.007 61.284,98.383 65.878,93.229 
		65.924,93.275 65.988,93.33 66.062,93.404 66.144,93.486 66.245,93.587 66.355,93.697 66.474,93.807 66.603,93.945 66.887,94.229 
		67.208,94.541 67.538,94.889 67.887,95.256 68.244,95.641 68.602,96.036 69.299,96.842 69.629,97.246 69.932,97.631 70.198,98.007 
		70.427,98.365 73.068,104.674 72.967,104.693 72.857,104.72 72.72,104.748 72.573,104.785 72.408,104.812 72.234,104.849 
		71.839,104.931 71.408,105.014 70.941,105.106 70.436,105.197 69.913,105.289 68.831,105.454 68.29,105.527 67.758,105.601 
		67.236,105.656 66.74,105.692 66.273,105.72 65.841,105.729 66.309,105.747 66.566,105.775 66.832,105.802 67.116,105.848 
		67.428,105.894 67.777,105.958 68.162,106.032 68.584,106.105 69.061,106.197 69.317,106.243 69.592,106.288 69.886,106.343 
		70.189,106.399 70.5,106.454 70.84,106.518 71.197,106.573 71.564,106.637 71.959,106.71 72.371,106.775 72.61,106.815 
		72.546,106.931 72.408,107.178 72.169,107.627 71.949,108.04 71.757,108.416 71.582,108.746 71.426,109.049 71.289,109.324 
		71.16,109.562 71.041,109.782 70.941,109.975 70.84,110.149 70.739,110.305 70.638,110.452 70.436,110.709 70.519,110.626 
		70.62,110.525 70.858,110.324 71.142,110.094 71.454,109.856 71.793,109.608 72.151,109.351 72.875,108.856 73.233,108.618 
		73.563,108.389 73.875,108.187 74.141,108.012 74.26,107.939 74.37,107.866 74.462,107.811 74.545,107.756 74.609,107.719 
		74.655,107.691 74.682,107.673 74.691,107.664 74.765,107.566 74.985,107.581 75.242,107.563 75.489,107.517 75.728,107.435 
		75.835,107.381 75.957,107.462 76.177,107.389 76.37,107.325 76.525,107.27 76.654,107.233 76.764,107.196 76.856,107.169 
		76.929,107.141 76.993,107.123 77.085,107.086 77.177,107.059 77.287,107.022 77.351,106.995 77.433,106.967 77.241,106.197 
		77.14,105.821 77.048,105.454 76.943,105.408 76.938,105.344 76.892,105.096 76.81,104.858 76.69,104.619 76.634,104.535 
		76.69,104.427 76.736,104.124 76.782,103.84 76.856,103.299 76.92,102.813 76.975,102.372 77.021,101.978 77.067,101.621 
		77.103,101.3 77.14,101.006 77.167,100.749 77.204,100.52 77.232,100.309 77.268,100.116 77.305,99.942 77.342,99.786 
		77.443,99.493 77.314,99.777 77.232,99.915 77.131,100.071 77.03,100.226 76.901,100.401 76.764,100.584 76.608,100.795 
		76.434,101.024 76.241,101.291 76.021,101.575 75.783,101.896 75.517,102.253 75.223,102.648 74.911,103.088 74.786,103.259 
		74.755,103.226 74.49,102.923 74.233,102.638 73.985,102.363 73.747,102.106 73.527,101.859 73.316,101.63 73.105,101.41 
		72.912,101.199 72.729,100.997 72.39,100.639 72.087,100.309 71.812,100.016 71.564,99.75 71.344,99.511 71.151,99.291 
		70.977,99.089 70.821,98.897 70.684,98.713 70.436,98.356 70.216,97.98 70.115,97.778 70.014,97.549 69.904,97.31 69.794,97.035 
		69.675,96.732 69.537,96.402 69.4,96.026 69.235,95.605 69.051,95.146 68.951,94.889 68.85,94.623 68.74,94.348 68.62,94.055 
		68.501,93.743 68.364,93.422 68.226,93.082 68.088,92.725 67.97,92.447 68.015,92.441 68.327,92.404 68.675,92.367 69.07,92.331 
		69.482,92.294 69.923,92.257 70.381,92.23 71.289,92.184 71.729,92.175 72.151,92.184 72.536,92.202 72.894,92.239 72.555,92.166 	
		"/>
	<polygon fill-rule="evenodd" clip-rule="evenodd" fill="#124B9B" points="60.981,110.333 60.88,110.177 60.779,110.003 
		60.669,109.81 60.559,109.599 60.431,109.351 60.293,109.086 60.128,108.783 59.954,108.453 59.761,108.077 59.541,107.664 
		59.294,107.215 59.165,106.967 59.026,106.732 59.303,106.692 59.716,106.628 60.101,106.564 60.477,106.509 60.834,106.444 
		61.174,106.389 61.486,106.343 61.797,106.288 62.082,106.243 62.357,106.197 62.614,106.151 63.09,106.068 63.521,105.995 
		63.906,105.931 64.255,105.876 64.567,105.83 64.86,105.793 65.126,105.766 65.374,105.738 65.841,105.729 58.661,104.564 
		58.698,104.473 58.734,104.363 58.78,104.234 58.826,104.097 58.945,103.794 59.074,103.446 59.22,103.06 59.376,102.648 
		59.541,102.207 59.725,101.767 60.101,100.841 60.495,99.942 60.697,99.511 60.899,99.099 61.091,98.723 61.284,98.383 
		61.036,98.741 60.889,98.924 60.734,99.117 60.55,99.319 60.358,99.539 60.128,99.786 59.89,100.052 59.606,100.346 
		59.303,100.667 58.964,101.034 58.771,101.235 58.578,101.446 58.377,101.666 58.166,101.896 57.936,102.143 57.698,102.4 
		57.45,102.675 57.194,102.969 56.928,103.262 56.893,103.301 54.25,99.475 54.983,104.473 55.04,104.576 54.974,104.674 
		54.855,104.913 54.773,105.151 54.736,105.399 54.734,105.426 54.607,105.481 54.552,105.72 54.497,105.921 54.452,106.096 
		54.424,106.233 54.387,106.343 54.369,106.435 54.351,106.509 54.332,106.564 54.305,106.655 54.286,106.738 54.268,106.83 
		54.259,106.903 54.241,106.986 54.415,107.004 54.571,107.041 54.708,107.086 54.846,107.141 55.002,107.215 55.194,107.288 
		55.424,107.389 55.552,107.435 55.708,107.49 55.806,107.424 55.937,107.49 56.176,107.572 56.423,107.618 56.689,107.636 
		56.933,107.619 57.001,107.71 57.267,107.893 57.515,108.068 57.753,108.233 57.982,108.389 58.413,108.682 58.799,108.939 
		59.147,109.168 59.468,109.379 59.743,109.571 60,109.737 60.229,109.883 60.431,110.03 60.614,110.159 60.779,110.278 
		60.926,110.388 61.054,110.507 61.284,110.736 61.082,110.48 	"/>
	<polygon fill-rule="evenodd" clip-rule="evenodd" fill="#124B9B" points="81.808,107.774 81.725,107.536 81.606,107.297 
		81.459,107.077 81.294,106.885 81.102,106.72 81.041,106.679 81.056,106.554 80.982,106.206 80.918,105.876 80.854,105.555 
		80.79,105.252 80.726,104.968 80.671,104.693 80.56,104.188 80.45,103.73 80.359,103.317 80.276,102.95 80.203,102.62 
		80.13,102.317 80.075,102.051 80.029,101.813 79.983,101.593 79.955,101.382 79.928,101.19 79.919,100.832 79.928,100.465 
		79.955,100.272 79.983,100.071 80.029,99.851 80.075,99.603 80.13,99.337 80.203,99.044 80.276,98.713 80.359,98.337 80.45,97.934 
		80.56,97.475 80.671,96.971 80.726,96.696 80.79,96.411 80.854,96.109 80.918,95.788 80.982,95.458 81.056,95.109 81.039,94.968 
		81.102,94.926 81.294,94.761 81.459,94.568 81.606,94.348 81.725,94.11 81.808,93.871 81.854,93.624 81.872,93.358 81.854,93.101 
		81.808,92.853 81.725,92.615 81.606,92.377 81.459,92.156 81.294,91.964 81.102,91.799 80.882,91.652 80.643,91.533 80.405,91.45 
		80.157,91.091 79.9,90.75 79.882,90.75 79.625,91.091 79.378,91.298 79.148,91.452 79.025,91.554 78.919,91.504 78.552,91.394 
		78.195,91.289 77.855,91.182 77.534,91.082 77.232,90.991 76.938,90.9 76.663,90.817 76.397,90.744 75.911,90.597 75.471,90.469 
		75.076,90.35 74.728,90.249 74.407,90.157 74.123,90.065 73.866,89.983 73.637,89.91 73.426,89.827 73.224,89.744 72.958,89.622 
		73.215,89.781 73.389,89.9 73.573,90.029 73.765,90.185 73.976,90.35 74.205,90.542 74.462,90.753 74.737,90.992 75.049,91.257 
		75.407,91.551 75.792,91.881 76.003,92.056 76.064,92.105 75.664,92.138 75.269,92.166 74.911,92.193 74.59,92.221 74.306,92.239 
		74.05,91.994 73.82,91.75 73.609,91.75 73.417,92.022 73.233,92.144 72.894,92.173 78.011,94.205 78.133,94.226 78.185,94.34 
		78.251,94.442 78.195,94.548 78.149,94.851 78.103,95.136 78.03,95.678 77.965,96.164 77.91,96.604 77.855,97.008 77.819,97.365 
		77.773,97.686 77.745,97.98 77.709,98.236 77.681,98.466 77.644,98.677 77.617,98.869 77.58,99.044 77.544,99.2 77.443,99.493 
		77.571,99.209 77.654,99.071 77.745,98.915 77.855,98.759 77.975,98.585 78.121,98.392 78.277,98.191 78.451,97.952 78.644,97.696 
		78.864,97.402 79.102,97.081 79.163,96.999 79.268,97.475 79.368,97.934 79.46,98.337 79.552,98.713 79.625,99.044 79.69,99.337 
		79.754,99.603 79.8,99.851 79.836,100.071 79.873,100.272 79.891,100.465 79.91,100.832 79.891,101.19 79.873,101.382 
		79.836,101.593 79.8,101.813 79.754,102.051 79.69,102.317 79.625,102.62 79.552,102.95 79.46,103.317 79.368,103.73 
		79.268,104.188 79.157,104.693 79.093,104.968 79.029,105.252 78.965,105.555 78.901,105.876 78.836,106.206 78.772,106.513 
		77.433,106.967 77.748,108.174 77.534,108.343 77.25,108.581 76.975,108.801 76.718,109.012 76.47,109.214 76.232,109.406 
		76.012,109.59 75.801,109.764 75.416,110.094 75.067,110.388 74.755,110.654 74.471,110.883 74.215,111.094 73.985,111.286 
		73.783,111.451 73.591,111.607 73.407,111.736 73.233,111.855 72.894,112.057 73.242,111.892 73.444,111.809 73.655,111.736 
		73.884,111.653 74.141,111.571 74.425,111.488 74.737,111.396 75.095,111.286 75.489,111.176 75.92,111.048 76.406,110.901 
		76.672,110.828 76.947,110.745 77.241,110.654 77.544,110.562 77.865,110.461 78.195,110.36 78.552,110.25 78.919,110.131 
		79.033,110.055 79.148,110.113 79.387,110.195 79.635,110.241 79.9,110.259 80.157,110.241 80.405,110.195 80.643,110.113 
		80.882,109.993 81.102,109.847 81.294,109.682 81.459,109.489 81.606,109.269 81.725,109.03 81.808,108.792 81.854,108.545 
		81.872,108.279 81.854,108.022 	"/>
</g>
</svg>
