<!-- Generated by IcoMoon.io -->
<svg version="1.1" xmlns="http://www.w3.org/2000/svg" width="31" height="32" viewBox="0 0 31 32">
<title>phone</title>
<path d="M17.451 26.909c-0.096-0.887-0.265-1.766-0.42-2.644-0.307-1.753-1.192-2.753-3.125-2.357-1.085 0.222-1.717-0.354-2.062-1.272-0.952-2.531-1.079-5.093-0.098-7.651 0.434-1.132 1.141-1.83 2.511-1.568 0.725 0.138 1.506 0.227 2.111-0.447 0.789-0.879 1.552-5.696 1.047-6.79-0.209-0.452-0.547-0.774-0.997-0.998-2.507-1.246-4.828-0.48-5.91 2.091-3.231 7.673-3.118 15.375-0.056 23.072 0.176 0.438 0.463 0.832 0.589 1.052 1.212 1.237 3.826 1.492 5.413 0.736 1.526-0.732 1.13-2.022 0.999-3.225v0z"></path>
<path d="M22.422 9.873c3.329 4.537 3.272 8.222-0.189 12.684-0.32 0.412-1.007 0.827-0.494 1.359 0.536 0.556 0.947-0.118 1.317-0.48 3.777-3.685 3.983-10.397 0.332-14.301-0.325-0.243-0.678-1.072-1.354-0.469-0.456 0.405 0.111 0.832 0.387 1.206v0z"></path>
<path d="M22.104 11.73c-0.332-0.423-0.654-1.101-1.266-0.665-0.643 0.46-0.031 0.959 0.247 1.397 1.886 2.973 1.848 4.702-0.162 7.511-0.293 0.409-0.956 0.841-0.267 1.346 0.509 0.374 0.819-0.253 1.13-0.491 2.331-2.293 2.455-6.381 0.318-9.099v0z"></path>
<path d="M20.436 13.845c-0.26-0.247-0.534-0.467-0.896-0.289-0.543 0.263-0.345 0.654-0.094 0.999 0.836 1.157 0.774 2.268-0.12 3.361-0.243 0.296-0.291 0.687 0.002 0.916 0.403 0.318 0.758 0.029 1.052-0.287 1.132-1.099 1.161-3.65 0.056-4.7v0z"></path>
</svg>
