<!-- Generated by IcoMoon.io -->
<svg version="1.1" xmlns="http://www.w3.org/2000/svg" width="32" height="32" viewBox="0 0 32 32">
<title>specialists</title>
<path fill="none" stroke="#124b9b" stroke-width="0.892" stroke-miterlimit="10" stroke-linecap="butt" stroke-linejoin="miter" d="M18.732 11.849h-14.42v12.088h3.393l0.848 6.998h5.938l0.848-6.998h3.393z"></path>
<path fill="none" stroke="#124b9b" stroke-width="0.892" stroke-miterlimit="10" stroke-linecap="butt" stroke-linejoin="miter" d="M16.187 5.593c0 2.596-2.105 4.701-4.701 4.701s-4.701-2.105-4.701-4.701c0-2.596 2.105-4.701 4.701-4.701s4.701 2.105 4.701 4.701z"></path>
<path fill="none" stroke="#124b9b" stroke-width="0.892" stroke-miterlimit="10" stroke-linecap="butt" stroke-linejoin="miter" d="M18.657 22.533c0.69 0 1.824 0 1.824 0l0.586 4.834h4.101l0.586-4.834h2.343v-8.349c0 0-7.059 0-9.292 0"></path>
<path fill="none" stroke="#124b9b" stroke-width="0.892" stroke-miterlimit="10" stroke-linecap="butt" stroke-linejoin="miter" d="M26.34 9.863c0 1.793-1.454 3.247-3.247 3.247s-3.247-1.454-3.247-3.247c0-1.793 1.454-3.247 3.247-3.247s3.247 1.454 3.247 3.247z"></path>
</svg>
