<!-- Generated by IcoMoon.io -->
<svg version="1.1" xmlns="http://www.w3.org/2000/svg" width="862" height="1024" viewBox="0 0 862 1024">
<title>plan-analysis</title>
<g id="icomoon-ignore">
</g>
<path d="M775.608 901.872c46.416-57.715 69.635-123.286 69.635-196.709 0-122.674-93.954-208.379-225.508-239.293 56.605-14.98 99.16-31.459 127.715-71.312 28.542-39.854 42.815-84.45 42.815-133.713 0-67.632-24.579-108.528-73.722-161.177-49.152-52.649-127.337-78.972-234.569-78.972h-461.374v988.937h484.057c151.917 0.003 224.532-50.043 270.951-107.761zM277.154 216.277h115.449c69.499 0 104.261 25.166 104.261 80.224 0 20.283-7.447 58.438-22.335 76.302-14.9 17.871-40.481 26.805-76.711 26.805h-120.661v-183.331h-0.003zM275.807 789.394v-179.679h141.496c45.668 0 77.079 9.543 94.205 28.615 17.116 19.082 25.698 39.961 25.698 62.67 0 22.712-8.823 43.1-26.437 61.218-17.636 18.131-45.322 27.176-83.042 27.176h-151.92z"></path>
</svg>
