<svg width="116" height="130" viewBox="0 0 116 130" fill="none" xmlns="http://www.w3.org/2000/svg">
<path fill-rule="evenodd" clip-rule="evenodd" d="M101.598 19.6837C101.397 19.0008 100.914 18.4358 100.271 18.1306C99.628 17.8254 98.8852 17.8088 98.2291 18.0851L90.3221 21.4144C89.0495 21.9502 88.4523 23.4161 88.9881 24.6886C89.5239 25.9611 90.9898 26.5583 92.2623 26.0225L93.7292 25.4049L88.809 34.4253L79.102 36.5824C75.8976 32.9192 71.1886 30.6055 65.9393 30.6055C56.2843 30.6055 48.4575 38.4324 48.4575 48.0873C48.4575 54.1115 51.5046 59.424 56.1416 62.5677L50.73 78.4642L42.5745 74.3865C43.7481 72.0376 44.4084 69.3875 44.4084 66.5832C44.4084 56.9283 36.5816 49.1014 26.9266 49.1014C17.2717 49.1014 9.44483 56.9283 9.44483 66.5832C9.44483 71.5322 11.5013 76.0009 14.8063 79.1814L1.2282 107.536C0.631867 108.781 1.15795 110.274 2.40324 110.87C3.64853 111.467 5.14146 110.941 5.7378 109.695L18.9353 82.1357C21.3304 83.3689 24.0472 84.065 26.9266 84.065C31.9603 84.065 36.4971 81.9376 39.6869 78.5328L51.0556 84.2172C51.7014 84.5401 52.4552 84.568 53.123 84.2939C53.7909 84.0197 54.3076 83.4702 54.5403 82.7868L60.6761 64.7629C62.3371 65.2867 64.1052 65.5691 65.9393 65.5691C75.5942 65.5691 83.4211 57.7423 83.4211 48.0873C83.4211 45.5916 82.8981 43.218 81.9558 41.0702L91.0023 39.0599C91.7067 38.9033 92.3091 38.45 92.6547 37.8165L98.5436 27.0201L98.8817 28.1693C99.2712 29.4939 100.661 30.2519 101.985 29.8623C103.31 29.4727 104.068 28.0831 103.678 26.7585L101.598 19.6837ZM65.9393 35.6055C59.0458 35.6055 53.4575 41.1938 53.4575 48.0873C53.4575 54.9808 59.0458 60.5691 65.9393 60.5691C72.8328 60.5691 78.4211 54.9808 78.4211 48.0873C78.4211 41.1938 72.8328 35.6055 65.9393 35.6055ZM14.4448 66.5832C14.4448 59.6897 20.0331 54.1014 26.9266 54.1014C33.8201 54.1014 39.4084 59.6897 39.4084 66.5832C39.4084 73.4768 33.8201 79.065 26.9266 79.065C20.0331 79.065 14.4448 73.4768 14.4448 66.5832ZM25.08 57.8799C23.6993 57.8799 22.58 58.9992 22.58 60.3799V65.3047V66.8196V69.8792C21.6888 70.2614 21.0644 71.1468 21.0644 72.178C21.0644 73.2517 21.7414 74.1674 22.6918 74.5214C23.0076 75.5402 23.9574 76.2802 25.08 76.2802C26.1443 76.2802 27.0533 75.6152 27.414 74.678H30.3837C31.7644 74.678 32.8837 73.5587 32.8837 72.178C32.8837 70.7973 31.7644 69.678 30.3837 69.678H27.58V69.3196H28.679C31.8384 69.3196 34.3993 66.7587 34.3993 63.5993V63.5982C34.3978 60.4407 31.8378 57.8799 28.679 57.8799H25.08ZM27.58 64.3196V62.8799H28.679C29.0758 62.8799 29.3988 63.202 29.3993 63.6C29.3989 63.9977 29.0767 64.3196 28.679 64.3196H27.58ZM64.0919 39.384C62.7112 39.384 61.5919 40.5032 61.5919 41.884V48.3236C61.5919 48.3471 61.5922 48.3706 61.5929 48.3939V51.3835C60.7016 51.7657 60.0772 52.6511 60.0772 53.6823C60.0772 54.7561 60.7542 55.6717 61.7047 56.0258C62.0206 57.0444 62.9703 57.7842 64.0929 57.7842C65.157 57.7842 66.0659 57.1193 66.4267 56.1823H69.3956C70.7763 56.1823 71.8956 55.063 71.8956 53.6823C71.8956 52.3016 70.7763 51.1823 69.3956 51.1823H66.5929V50.8236H67.6908C70.8502 50.8236 73.4111 48.2628 73.4111 45.1034C73.4111 41.9444 70.8498 39.384 67.6908 39.384H64.0919ZM66.5919 45.8236V44.384H67.6908C68.0892 44.384 68.4111 44.7067 68.4111 45.1034C68.4111 45.5013 68.0888 45.8236 67.6908 45.8236H66.5919ZM97.4971 89.0556C96.2368 89.8383 95.9015 90.6088 95.8761 91.0768C95.9015 91.5448 96.2368 92.3152 97.4971 93.0979C98.7737 93.8908 100.694 94.4629 102.946 94.4629C105.199 94.4629 107.119 93.8908 108.395 93.0979C109.656 92.3152 109.991 91.5448 110.016 91.0768C109.991 90.6088 109.656 89.8383 108.395 89.0556C107.119 88.2627 105.199 87.6907 102.946 87.6907C100.694 87.6907 98.7737 88.2627 97.4971 89.0556ZM90.8745 91.0184C90.8745 90.9526 90.8771 90.8874 90.8821 90.8228C91.0115 88.1527 92.7889 86.0939 94.8591 84.8081C97.0468 83.4495 99.9124 82.6907 102.946 82.6907C105.98 82.6907 108.846 83.4495 111.033 84.8081C113.104 86.0939 114.881 88.1527 115.01 90.8228C115.015 90.8874 115.018 90.9526 115.018 91.0184L115.018 91.0768L115.018 91.1351V97.7453V103.8C115.018 106.622 113.184 108.791 111.033 110.127C108.846 111.485 105.98 112.244 102.946 112.244C101.837 112.244 100.75 112.143 99.7105 111.948H74.1921C73.883 111.96 73.5716 111.967 73.2584 111.967C72.9452 111.967 72.6338 111.96 72.3247 111.948H27.2042C25.8235 111.948 24.7042 110.828 24.7042 109.448C24.7042 108.067 25.8235 106.948 27.2042 106.948H61.6408C61.3556 106.336 61.1867 105.653 61.1867 104.895V95.735V95.1541C61.1867 92.374 63.4595 90.5982 65.4128 89.6652C67.55 88.6444 70.3268 88.0821 73.2584 88.0821C76.19 88.0821 78.9668 88.6444 81.104 89.6652C83.0573 90.5982 85.3301 92.374 85.3301 95.1541V95.735V104.895C85.3301 105.653 85.1612 106.336 84.876 106.948H91.7051C91.1869 106.018 90.8745 104.964 90.8745 103.8V97.7453V91.1351L90.8748 91.0768L90.8745 91.0184ZM105.675 106.948H100.218C99.1431 106.704 98.2176 106.327 97.4971 105.879C96.9134 105.517 96.5281 105.157 96.2801 104.828C98.2244 105.709 100.532 106.19 102.946 106.19C105.36 106.19 107.668 105.709 109.612 104.828C109.364 105.157 108.979 105.517 108.395 105.879C107.675 106.327 106.749 106.704 105.675 106.948ZM74.0843 106.948C76.0817 106.854 77.78 106.43 78.9491 105.872C80.0863 105.329 80.294 104.905 80.3272 104.838L80.3301 104.832V102.626C78.305 103.629 75.8427 104.179 73.2584 104.179C70.6741 104.179 68.2118 103.629 66.1867 102.626V104.832L66.1896 104.838C66.2228 104.905 66.4305 105.329 67.5677 105.872C68.7368 106.43 70.4351 106.854 72.4325 106.948H74.0843ZM108.395 99.8248C109.56 99.1018 109.935 98.3891 110.005 97.9158C107.982 98.9146 105.525 99.4629 102.946 99.4629C100.367 99.4629 97.9102 98.9146 95.8876 97.9158C95.958 98.3891 96.3328 99.1018 97.4971 99.8248C98.7737 100.618 100.694 101.19 102.946 101.19C105.199 101.19 107.119 100.618 108.395 99.8248ZM66.1867 95.735V95.217L66.1896 95.2111C66.2228 95.1435 66.4305 94.7202 67.5677 94.177C68.8948 93.5431 70.9039 93.0821 73.2584 93.0821C75.6129 93.0821 77.622 93.5431 78.9491 94.177C80.0862 94.7202 80.294 95.1435 80.3272 95.2111L80.3301 95.217V95.735C80.3301 96.1955 80.0217 96.9983 78.7076 97.8145C77.4309 98.6074 75.5107 99.1794 73.2584 99.1794C71.0061 99.1794 69.0859 98.6074 67.8092 97.8145C66.4951 96.9983 66.1867 96.1955 66.1867 95.735Z" fill="#2462BC"/>
</svg>
