<svg width="115" height="130" viewBox="0 0 115 130" fill="none" xmlns="http://www.w3.org/2000/svg">
<path d="M80.4636 48.4249C94.3556 56.5819 109.375 65.4009 109.375 65.4009L59.8716 100.918L4.22559 70.3939C4.22559 70.3939 24.7836 56.6599 40.3326 46.2719" stroke="#2462BC" stroke-width="5" stroke-miterlimit="10" stroke-linecap="round" stroke-linejoin="round"/>
<path d="M109.83 84.3709L59.8716 120.442L4.22559 89.9179" stroke="#2462BC" stroke-width="5" stroke-miterlimit="10" stroke-linecap="round" stroke-linejoin="round"/>
<path d="M4.12695 88.9459V71.5579" stroke="#2462BC" stroke-width="5" stroke-miterlimit="10" stroke-linecap="round" stroke-linejoin="round"/>
<path d="M110.288 83.1499V66.6769" stroke="#2462BC" stroke-width="5" stroke-miterlimit="10" stroke-linecap="round" stroke-linejoin="round"/>
<path d="M58.7334 119.758V101.454" stroke="#2462BC" stroke-width="5" stroke-miterlimit="10" stroke-linecap="round" stroke-linejoin="round"/>
<path d="M59.6464 35.2559C55.2804 35.2559 54.9684 35.2559 54.9684 35.2559C49.9144 35.2559 45.8164 31.1589 45.8164 26.1039C45.8164 21.0489 49.9134 16.9519 54.9684 16.9519C54.9684 16.9519 65.9694 16.9519 69.4094 16.9519" stroke="#2462BC" stroke-width="5" stroke-miterlimit="10" stroke-linecap="round" stroke-linejoin="round"/>
<path d="M44.5967 53.5599C48.9627 53.5599 60.2567 53.5599 60.2567 53.5599C65.3107 53.5599 69.4087 49.4629 69.4087 44.4079C69.4087 39.8069 66.0127 35.9989 61.5907 35.3529" stroke="#2462BC" stroke-width="5" stroke-miterlimit="10" stroke-linecap="round" stroke-linejoin="round"/>
<path d="M59.3408 16.9519V9.63092" stroke="#2462BC" stroke-width="5" stroke-miterlimit="10" stroke-linecap="round" stroke-linejoin="round"/>
<path d="M59.3408 62.1009V54.7799" stroke="#2462BC" stroke-width="5" stroke-miterlimit="10" stroke-linecap="round" stroke-linejoin="round"/>
</svg>
