<svg width="115" height="130" viewBox="0 0 115 130" fill="none" xmlns="http://www.w3.org/2000/svg">
<path fill-rule="evenodd" clip-rule="evenodd" d="M60.0367 8.99987C59.1455 8.31593 57.9075 8.31044 57.0103 8.98644L20.5103 36.4864C20.4108 36.5614 20.3186 36.6423 20.2336 36.7283H10.6816C9.30093 36.7283 8.18164 37.8476 8.18164 39.2283V47.1503C8.18164 48.531 9.30093 49.6503 10.6816 49.6503H13.21V56.4981C13.21 57.8788 14.3292 58.9981 15.71 58.9981H22.1862C22.1832 59.0484 22.1816 59.0991 22.1816 59.1501V100.313H15.71C14.3292 100.313 13.21 101.432 13.21 102.813V108.728H10.6816C9.30093 108.728 8.18164 109.847 8.18164 111.228V119.15C8.18164 120.531 9.30093 121.65 10.6816 121.65H105.215C106.595 121.65 107.715 120.531 107.715 119.15V111.228C107.715 109.847 106.595 108.728 105.215 108.728H103.107V102.813C103.107 101.432 101.988 100.313 100.607 100.313H94.1816V59.1501C94.1816 59.0991 94.1801 59.0484 94.1771 58.9981H100.607C101.988 58.9981 103.107 57.8788 103.107 56.4981V49.6503H105.215C106.595 49.6503 107.715 48.531 107.715 47.1503V39.2283C107.715 37.8476 106.595 36.7283 105.215 36.7283H96.1296C96.0497 36.6474 95.9634 36.571 95.8707 36.4999L60.0367 8.99987ZM89.1862 58.9981H82.71C81.3292 58.9981 80.21 57.8788 80.21 56.4981V49.6503H36.107V56.4981C36.107 57.8788 34.9877 58.9981 33.607 58.9981H27.1771C27.1801 59.0484 27.1816 59.0991 27.1816 59.1501V100.313H33.607C34.9877 100.313 36.107 101.432 36.107 102.813V108.728H80.21V102.813C80.21 101.432 81.3292 100.313 82.71 100.313H89.1816V59.1501C89.1816 59.0991 89.1832 59.0484 89.1862 58.9981ZM87.9556 36.7283L58.5007 14.1238L28.4984 36.7283H87.9556ZM13.1816 41.7283V44.6503H102.715V41.7283H13.1816ZM13.1816 113.728V116.65H102.715V113.728H13.1816ZM57.6816 59.3162C46.9121 59.3162 38.1816 68.0466 38.1816 78.8162C38.1816 89.5857 46.9121 98.3162 57.6816 98.3162C68.4512 98.3162 77.1816 89.5857 77.1816 78.8162C77.1816 68.0466 68.4512 59.3162 57.6816 59.3162ZM33.1816 78.8162C33.1816 65.2852 44.1507 54.3162 57.6816 54.3162C71.2126 54.3162 82.1816 65.2852 82.1816 78.8162C82.1816 92.3471 71.2126 103.316 57.6816 103.316C44.1507 103.316 33.1816 92.3471 33.1816 78.8162ZM54.4796 65.5632C53.0989 65.5632 51.9796 66.6825 51.9796 68.0632V79.2272C51.9796 79.251 51.98 79.2748 51.9806 79.2985V83.1302H51.8536C50.4729 83.1302 49.3536 84.2495 49.3536 85.6302C49.3536 87.0109 50.4729 88.1302 51.8536 88.1302H51.9806V91.2942C51.9806 92.6749 53.0999 93.7942 54.4806 93.7942C55.8614 93.7942 56.9806 92.6749 56.9806 91.2942V88.1302H63.6746C65.0554 88.1302 66.1746 87.0109 66.1746 85.6302C66.1746 84.2495 65.0554 83.1302 63.6746 83.1302H56.9806V81.7272H60.7186C65.1824 81.7272 68.8006 78.1089 68.8006 73.6452C68.8006 69.1815 65.1824 65.5632 60.7186 65.5632H54.4796ZM56.9806 76.6002V76.7272H60.7186C62.4209 76.7272 63.8006 75.3475 63.8006 73.6452C63.8006 71.9429 62.4209 70.5632 60.7186 70.5632H56.9796V76.5288C56.9803 76.5525 56.9806 76.5763 56.9806 76.6002ZM18.21 105.313V108.169H31.107V105.313H18.21ZM18.21 53.9981V51.1421H31.107V53.9981H18.21ZM85.21 108.169V105.313H98.107V108.169H85.21ZM85.21 51.1421V53.9981H98.107V51.1421H85.21Z" fill="#2462BC"/>
</svg>
