<svg width="117" height="130" viewBox="0 0 117 130" fill="none" xmlns="http://www.w3.org/2000/svg">
<path d="M52.3412 23.1179C42.2098 23.1179 37.9298 23.1179 29.7793 23.1179" stroke="#2462BC" stroke-width="5" stroke-miterlimit="10" stroke-linecap="round" stroke-linejoin="round"/>
<path d="M84.3054 23.1179C76.7573 23.1179 73.6483 23.1179 64.751 23.1179" stroke="#2462BC" stroke-width="5" stroke-miterlimit="10" stroke-linecap="round" stroke-linejoin="round"/>
<path d="M18.4968 23.1179C11.3537 23.1179 6.84131 23.1179 6.84131 23.1179C4.97206 23.1179 3.45703 24.633 3.45703 26.5022V111.109C3.45703 112.979 4.97206 114.494 6.84131 114.494H92.5235L114.01 96.4745V26.5022C114.01 24.633 112.495 23.1179 110.626 23.1179C110.626 23.1179 105.474 23.1179 97.4645 23.1179" stroke="#2462BC" stroke-width="5" stroke-miterlimit="10" stroke-linecap="round" stroke-linejoin="round"/>
<path d="M89.7559 112.801V91.9316H112.318" stroke="#2462BC" stroke-width="5" stroke-miterlimit="10" stroke-linecap="round" stroke-linejoin="round"/>
<path d="M6.8418 44.5518H114.011" stroke="#2462BC" stroke-width="5" stroke-miterlimit="10" stroke-linecap="round" stroke-linejoin="round"/>
<path d="M50.2746 75.1038C53.6047 75.1038 56.3843 75.1038 56.3843 75.1038C61.5758 75.1038 65.7847 79.3127 65.7847 84.5042C65.7847 89.6957 61.5758 93.9046 56.3843 93.9046C56.3843 93.9046 48.6298 93.9046 43.5049 93.9046" stroke="#2462BC" stroke-width="5" stroke-miterlimit="10" stroke-linecap="round" stroke-linejoin="round"/>
<path d="M49.4277 75.0102V60.063H66.9132" stroke="#2462BC" stroke-width="5" stroke-miterlimit="10" stroke-linecap="round" stroke-linejoin="round"/>
<path d="M27.5239 15.2212H20.0029V29.8864H27.5239V15.2212Z" stroke="#2462BC" stroke-width="5" stroke-miterlimit="10" stroke-linecap="round" stroke-linejoin="round"/>
<path d="M61.3667 15.2212H53.8457V29.8864H61.3667V15.2212Z" stroke="#2462BC" stroke-width="5" stroke-miterlimit="10" stroke-linecap="round" stroke-linejoin="round"/>
<path d="M95.2095 15.2212H87.6885V29.8864H95.2095V15.2212Z" stroke="#2462BC" stroke-width="5" stroke-miterlimit="10" stroke-linecap="round" stroke-linejoin="round"/>
</svg>
