<svg width="27" height="28" viewBox="0 0 27 28" fill="none" xmlns="http://www.w3.org/2000/svg">
<path fill-rule="evenodd" clip-rule="evenodd" d="M24.8495 14.0456C24.8495 20.2868 19.79 25.3463 13.5488 25.3463C7.30756 25.3463 2.24805 20.2868 2.24805 14.0456C2.24805 7.80438 7.30756 2.74487 13.5488 2.74487C19.79 2.74487 24.8495 7.80438 24.8495 14.0456ZM26.8495 14.0456C26.8495 21.3914 20.8946 27.3463 13.5488 27.3463C6.20299 27.3463 0.248047 21.3914 0.248047 14.0456C0.248047 6.69981 6.20299 0.744873 13.5488 0.744873C20.8946 0.744873 26.8495 6.69981 26.8495 14.0456ZM11.1043 17.1672L19.7106 8.56087L18.2964 7.14665L10.3972 15.0458L8.88142 13.5301L7.46721 14.9443L9.69006 17.1672L10.3972 17.8743L11.1043 17.1672Z" fill="#2462BC"/>
</svg>
