<svg width="115" height="130" viewBox="0 0 115 130" fill="none" xmlns="http://www.w3.org/2000/svg">
<path d="M72.2036 38.3726H5.635C4.39903 38.3726 3.39746 39.5251 3.39746 40.9457V94.9854C3.39746 96.407 4.39903 97.5586 5.635 97.5586H21.2987V114.928L41.9959 97.5586H72.2036C73.4395 97.5586 74.4411 96.406 74.4411 94.9854V40.9457C74.4411 39.5242 73.4395 38.3726 72.2036 38.3726Z" stroke="#2462BC" stroke-width="5" stroke-miterlimit="10" stroke-linecap="round" stroke-linejoin="round"/>
<path d="M40.3174 36.4396C40.3174 26.2285 40.3174 17.7855 40.3174 17.7855C40.3174 16.364 41.3189 15.2124 42.5549 15.2124H109.123C110.359 15.2124 111.361 16.365 111.361 17.7855V71.8253C111.361 73.2468 110.359 74.3984 109.123 74.3984H93.4598V91.7683C93.4598 91.7683 83.2586 82.8594 77.1267 77.714" stroke="#2462BC" stroke-width="5" stroke-miterlimit="10" stroke-linecap="round" stroke-linejoin="round"/>
<path d="M17.9414 54.4553H56.5407" stroke="#2462BC" stroke-width="5" stroke-miterlimit="10" stroke-linecap="round" stroke-linejoin="round"/>
<path d="M17.9414 66.0352H56.5407" stroke="#2462BC" stroke-width="5" stroke-miterlimit="10" stroke-linecap="round" stroke-linejoin="round"/>
<path d="M17.9414 77.6147H33.6051" stroke="#2462BC" stroke-width="5" stroke-miterlimit="10" stroke-linecap="round" stroke-linejoin="round"/>
</svg>
