<svg viewBox="0 0 114 129" fill="none" xmlns="http://www.w3.org/2000/svg">
<path d="M29.249 25.25C35.3242 25.25 40.249 20.3251 40.249 14.25C40.249 8.17487 35.3242 3.25 29.249 3.25C23.1739 3.25 18.249 8.17487 18.249 14.25C18.249 20.3251 23.1739 25.25 29.249 25.25Z" stroke="#2462BC" stroke-width="5" stroke-miterlimit="10"/>
<path d="M14.249 52.75V122H42.999" stroke="#2462BC" stroke-width="5" stroke-miterlimit="10" stroke-linecap="round" stroke-linejoin="round"/>
<path d="M53.916 52.583C53.916 49.79 53.916 47.916 53.916 47.916C53.916 47.916 53.416 41.25 49.416 37.25C47.336 35.17 40.083 30.083 40.083 30.083L29 37.083L16.75 30.083C16.75 30.083 9.49699 35.169 7.41699 37.25C3.41699 41.25 2.91699 47.917 2.91699 47.917V76.75L12.917 82.583" stroke="#2462BC" stroke-width="5" stroke-miterlimit="10" stroke-linecap="round" stroke-linejoin="round"/>
<path d="M28.916 120.917V88.917" stroke="#2462BC" stroke-width="5" stroke-miterlimit="10" stroke-linecap="round" stroke-linejoin="round"/>
<path d="M76.416 125.75C95.5621 125.75 111.083 110.229 111.083 91.083C111.083 71.937 95.5621 56.416 76.416 56.416C57.27 56.416 41.749 71.937 41.749 91.083C41.749 110.229 57.27 125.75 76.416 125.75Z" stroke="#2462BC" stroke-width="5" stroke-miterlimit="10" stroke-linecap="round" stroke-linejoin="round"/>
<path d="M79.499 80.167H73.166V91.5H79.499C82.629 91.5 85.166 88.963 85.166 85.833C85.166 82.704 82.629 80.167 79.499 80.167Z" stroke="#2462BC" stroke-width="5" stroke-miterlimit="10" stroke-linecap="round" stroke-linejoin="round"/>
<path d="M73.166 88.833V103.75" stroke="#2462BC" stroke-width="5" stroke-miterlimit="10" stroke-linecap="round" stroke-linejoin="round"/>
<path d="M70.499 98H82.499" stroke="#2462BC" stroke-width="5" stroke-miterlimit="10" stroke-linecap="round" stroke-linejoin="round"/>
</svg>
