<svg width="120" height="130" viewBox="0 0 120 130" fill="none" xmlns="http://www.w3.org/2000/svg">
<path d="M71.2913 71.1797C71.2913 71.1797 63.4893 83.7977 61.6853 88.2247C60.3643 91.4677 58.3793 101.239 54.6563 101.052C51.1423 100.876 50.0123 91.8407 50.4393 88.5757C50.8233 85.6417 52.7233 78.7357 52.7233 78.7357" stroke="#2462BC" stroke-width="5" stroke-miterlimit="10" stroke-linecap="round" stroke-linejoin="round"/>
<path d="M51.8447 77.9746C47.7797 77.9746 40.4817 77.9746 40.4817 77.9746C37.8287 77.9746 35.6787 75.8246 35.6787 73.1716C35.6787 70.6306 37.6517 68.5506 40.1487 68.3796" stroke="#2462BC" stroke-width="5" stroke-miterlimit="10" stroke-linecap="round" stroke-linejoin="round"/>
<path d="M40.4807 68.1336C37.8277 68.1336 35.6777 65.9836 35.6777 63.3306C35.6777 60.7896 37.6507 58.7096 40.1477 58.5386" stroke="#2462BC" stroke-width="5" stroke-miterlimit="10" stroke-linecap="round" stroke-linejoin="round"/>
<path d="M40.4807 58.2937C37.8277 58.2937 35.6777 56.1437 35.6777 53.4907C35.6777 50.9497 37.6507 48.8697 40.1477 48.6987" stroke="#2462BC" stroke-width="5" stroke-miterlimit="10" stroke-linecap="round" stroke-linejoin="round"/>
<path d="M40.4807 48.4536C37.8277 48.4536 35.6777 46.3036 35.6777 43.6506C35.6777 41.1096 37.6507 39.0296 40.1477 38.8586" stroke="#2462BC" stroke-width="5" stroke-miterlimit="10" stroke-linecap="round" stroke-linejoin="round"/>
<path d="M41.0674 38.6135H71.9934V70.9455" stroke="#2462BC" stroke-width="5" stroke-miterlimit="10" stroke-linecap="round" stroke-linejoin="round"/>
<path d="M91.4391 72.3515H72.6961L72.5791 38.6135L87.2221 38.1445L91.4391 72.3515Z" stroke="#2462BC" stroke-width="5" stroke-miterlimit="10" stroke-linecap="round" stroke-linejoin="round"/>
<path d="M60.0449 122.256C91.6174 122.256 117.212 96.6611 117.212 65.0886C117.212 33.5162 91.6174 7.92163 60.0449 7.92163C28.4725 7.92163 2.87793 33.5162 2.87793 65.0886C2.87793 96.6611 28.4725 122.256 60.0449 122.256Z" stroke="#2462BC" stroke-width="5" stroke-miterlimit="10" stroke-linecap="round" stroke-linejoin="round"/>
</svg>
