<svg width="116" height="130" viewBox="0 0 116 130" fill="none" xmlns="http://www.w3.org/2000/svg">
<path d="M68.5778 70.793C68.5778 70.793 61.271 82.6102 59.5814 86.7563C58.3443 89.7935 56.4852 98.9444 52.9985 98.7693C49.7075 98.6045 48.6492 90.1428 49.0491 87.085C49.4087 84.3372 51.1882 77.8695 51.1882 77.8695" stroke="#2462BC" stroke-width="5" stroke-miterlimit="10" stroke-linecap="round" stroke-linejoin="round"/>
<path d="M50.3657 77.1568C46.5587 77.1568 39.7238 77.1568 39.7238 77.1568C37.2391 77.1568 35.2256 75.1432 35.2256 72.6586C35.2256 70.2788 37.0734 68.3308 39.4119 68.1707" stroke="#2462BC" stroke-width="5" stroke-miterlimit="10" stroke-linecap="round" stroke-linejoin="round"/>
<path d="M39.7228 67.9402C37.2382 67.9402 35.2246 65.9266 35.2246 63.442C35.2246 61.0623 37.0724 59.1142 39.4109 58.9541" stroke="#2462BC" stroke-width="5" stroke-miterlimit="10" stroke-linecap="round" stroke-linejoin="round"/>
<path d="M39.7228 58.7249C37.2382 58.7249 35.2246 56.7113 35.2246 54.2267C35.2246 51.8469 37.0724 49.8989 39.4109 49.7388" stroke="#2462BC" stroke-width="5" stroke-miterlimit="10" stroke-linecap="round" stroke-linejoin="round"/>
<path d="M39.7228 49.5091C37.2382 49.5091 35.2246 47.4955 35.2246 45.0108C35.2246 42.6311 37.0724 40.6831 39.4109 40.5229" stroke="#2462BC" stroke-width="5" stroke-miterlimit="10" stroke-linecap="round" stroke-linejoin="round"/>
<path d="M40.2715 40.2935H69.2349V70.5737" stroke="#2462BC" stroke-width="5" stroke-miterlimit="10" stroke-linecap="round" stroke-linejoin="round"/>
<path d="M87.4473 71.8905H69.8938L69.7842 40.2935L83.4979 39.8542L87.4473 71.8905Z" stroke="#2462BC" stroke-width="5" stroke-miterlimit="10" stroke-linecap="round" stroke-linejoin="round"/>
<path d="M58.045 118.628C87.6139 118.628 111.584 94.6574 111.584 65.0885C111.584 35.5196 87.6139 11.5493 58.045 11.5493C28.4762 11.5493 4.50586 35.5196 4.50586 65.0885C4.50586 94.6574 28.4762 118.628 58.045 118.628Z" stroke="#2462BC" stroke-width="5" stroke-miterlimit="10" stroke-linecap="round" stroke-linejoin="round"/>
</svg>
