<svg width="48" height="43" viewBox="0 0 48 43" fill="none" xmlns="http://www.w3.org/2000/svg">
<path fill-rule="evenodd" clip-rule="evenodd" d="M41.7024 4.75464H5.51146L22.455 18.7283C23.0043 19.1812 23.7963 19.1857 24.3507 18.7389L41.7024 4.75464ZM4.1897 7.55319L4.18969 38.1957L43.5313 38.1957L43.5313 7.13366L26.2332 21.0748C24.5702 22.4151 22.1941 22.4017 20.5463 21.0427L4.1897 7.55319ZM1.1897 4.75464C1.1897 3.09779 2.53284 1.75464 4.1897 1.75464H43.5313C45.1882 1.75464 46.5313 3.09778 46.5313 4.75464V38.1957C46.5313 39.8526 45.1882 41.1957 43.5313 41.1957H4.18969C2.53284 41.1957 1.1897 39.8526 1.1897 38.1957V4.75464Z" fill="#2462BC"/>
<path d="M41.7024 4.75464L42.3299 5.53325L44.5368 3.75464H41.7024V4.75464ZM5.51146 4.75464V3.75464H2.72722L4.87521 5.52612L5.51146 4.75464ZM22.455 18.7283L21.8188 19.4997V19.4997L22.455 18.7283ZM24.3507 18.7389L23.7232 17.9603L24.3507 18.7389ZM4.1897 7.55319L4.82595 6.7817L3.1897 5.43226L3.1897 7.55319H4.1897ZM4.18969 38.1957H3.18969L3.18969 39.1957H4.18969V38.1957ZM43.5313 38.1957V39.1957H44.5313V38.1957H43.5313ZM43.5313 7.13366H44.5313V5.04339L42.9038 6.35505L43.5313 7.13366ZM26.2332 21.0748L25.6057 20.2962H25.6057L26.2332 21.0748ZM20.5463 21.0427L21.1825 20.2712H21.1825L20.5463 21.0427ZM41.7024 3.75464H5.51146V5.75464H41.7024V3.75464ZM4.87521 5.52612L21.8188 19.4997L23.0913 17.9568L6.14771 3.98316L4.87521 5.52612ZM21.8188 19.4997C22.7342 20.2547 24.0543 20.2622 24.9782 19.5176L23.7232 17.9603C23.5384 18.1093 23.2744 18.1078 23.0913 17.9568L21.8188 19.4997ZM24.9782 19.5176L42.3299 5.53325L41.0749 3.97603L23.7232 17.9603L24.9782 19.5176ZM3.1897 7.55319L3.18969 38.1957H5.18969L5.1897 7.55319H3.1897ZM4.18969 39.1957L43.5313 39.1957V37.1957L4.18969 37.1957V39.1957ZM44.5313 38.1957L44.5313 7.13366H42.5313L42.5313 38.1957H44.5313ZM42.9038 6.35505L25.6057 20.2962L26.8607 21.8534L44.1588 7.91227L42.9038 6.35505ZM25.6057 20.2962C24.3122 21.3386 22.4641 21.3282 21.1825 20.2712L19.91 21.8142C21.924 23.4751 24.8281 23.4915 26.8607 21.8534L25.6057 20.2962ZM21.1825 20.2712L4.82595 6.7817L3.55344 8.32467L19.91 21.8142L21.1825 20.2712ZM4.1897 0.754639C1.98056 0.754639 0.189697 2.54551 0.189697 4.75464H2.1897C2.1897 3.65007 3.08513 2.75464 4.1897 2.75464V0.754639ZM43.5313 0.754639H4.1897V2.75464H43.5313V0.754639ZM47.5313 4.75464C47.5313 2.5455 45.7405 0.754639 43.5313 0.754639V2.75464C44.6359 2.75464 45.5313 3.65007 45.5313 4.75464H47.5313ZM47.5313 38.1957V4.75464H45.5313V38.1957H47.5313ZM43.5313 42.1957C45.7405 42.1957 47.5313 40.4049 47.5313 38.1957H45.5313C45.5313 39.3003 44.6359 40.1957 43.5313 40.1957V42.1957ZM4.18969 42.1957H43.5313V40.1957H4.18969V42.1957ZM0.189697 38.1957C0.189697 40.4049 1.98055 42.1957 4.18969 42.1957V40.1957C3.08513 40.1957 2.1897 39.3003 2.1897 38.1957H0.189697ZM0.189697 4.75464V38.1957H2.1897V4.75464H0.189697Z" fill="#2462BC"/>
</svg>
