<svg width="115" height="130" viewBox="0 0 115 130" fill="none" xmlns="http://www.w3.org/2000/svg">
<path d="M76.9508 82.3508C76.9508 82.3508 71.4008 91.3268 70.1178 94.4758C69.1778 96.7828 67.7658 103.733 65.1178 103.601C62.6178 103.476 61.8138 97.0478 62.1178 94.7258C62.3908 92.6388 63.7428 87.7258 63.7428 87.7258" stroke="#2462BC" stroke-width="5" stroke-miterlimit="10" stroke-linecap="round" stroke-linejoin="round"/>
<path d="M63.1182 87.1839C60.2262 87.1839 55.0352 87.1839 55.0352 87.1839C53.1482 87.1839 51.6182 85.6539 51.6182 83.7669C51.6182 81.9599 53.0212 80.4799 54.7982 80.3579" stroke="#2462BC" stroke-width="5" stroke-miterlimit="10" stroke-linecap="round" stroke-linejoin="round"/>
<path d="M55.0342 80.1839C53.1472 80.1839 51.6172 78.6539 51.6172 76.7669C51.6172 74.9599 53.0202 73.4799 54.7972 73.3579" stroke="#2462BC" stroke-width="5" stroke-miterlimit="10" stroke-linecap="round" stroke-linejoin="round"/>
<path d="M55.0342 73.1839C53.1472 73.1839 51.6172 71.6539 51.6172 69.7669C51.6172 67.9599 53.0202 66.4799 54.7972 66.3579" stroke="#2462BC" stroke-width="5" stroke-miterlimit="10" stroke-linecap="round" stroke-linejoin="round"/>
<path d="M55.0342 66.1839C53.1472 66.1839 51.6172 64.6539 51.6172 62.7669C51.6172 60.9599 53.0202 59.4799 54.7972 59.3579" stroke="#2462BC" stroke-width="5" stroke-miterlimit="10" stroke-linecap="round" stroke-linejoin="round"/>
<path d="M55.4512 59.1838H77.4512V82.1838" stroke="#2462BC" stroke-width="5" stroke-miterlimit="10" stroke-linecap="round" stroke-linejoin="round"/>
<path d="M91.2842 83.1838H77.9512L77.8672 59.1838L88.2842 58.8508L91.2842 83.1838Z" stroke="#2462BC" stroke-width="5" stroke-miterlimit="10" stroke-linecap="round" stroke-linejoin="round"/>
<path d="M68.9512 118.684C91.4109 118.684 109.618 100.477 109.618 78.0169C109.618 55.5571 91.4109 37.3499 68.9512 37.3499C46.4914 37.3499 28.2842 55.5571 28.2842 78.0169C28.2842 100.477 46.4914 118.684 68.9512 118.684Z" stroke="#2462BC" stroke-width="5" stroke-miterlimit="10" stroke-linecap="round" stroke-linejoin="round"/>
<path d="M20.1509 23.9239C23.7767 23.9239 26.7159 20.9847 26.7159 17.3589C26.7159 13.7332 23.7767 10.7939 20.1509 10.7939C16.5252 10.7939 13.5859 13.7332 13.5859 17.3589C13.5859 20.9847 16.5252 23.9239 20.1509 23.9239Z" stroke="#2462BC" stroke-width="5" stroke-miterlimit="10"/>
<path d="M11.1982 42.3359V83.6639H28.3562" stroke="#2462BC" stroke-width="5" stroke-miterlimit="10" stroke-linecap="round" stroke-linejoin="round"/>
<path d="M19.9512 83.0169V63.9199" stroke="#2462BC" stroke-width="5" stroke-miterlimit="10" stroke-linecap="round" stroke-linejoin="round"/>
<path d="M28.3564 42.3359V83.6639" stroke="#2462BC" stroke-width="5" stroke-miterlimit="10" stroke-linecap="round" stroke-linejoin="round"/>
<path d="M35.5176 43.6589V39.4509C35.5176 39.4509 35.2196 35.4719 32.8316 33.0849C31.5906 31.8439 27.2616 28.8079 27.2616 28.8079L19.9506 32.9859L12.6896 28.8079C12.6896 28.8079 8.36057 31.8439 7.11957 33.0849C4.73257 35.4719 4.43457 39.4509 4.43457 39.4509V56.6589L10.4026 60.1399" stroke="#2462BC" stroke-width="5" stroke-miterlimit="10" stroke-linecap="round" stroke-linejoin="round"/>
</svg>
