<svg width="115" height="130" viewBox="0 0 115 130" fill="none" xmlns="http://www.w3.org/2000/svg">
<path d="M15.4369 72.0218C9.14346 71.3303 4.22852 65.4857 4.22852 58.377C4.22852 50.8036 9.80764 44.6631 16.6905 44.6631C22.7636 44.6631 27.8217 49.4433 28.9273 55.7711" stroke="#2462BC" stroke-width="5" stroke-miterlimit="10" stroke-linecap="round"/>
<path d="M27.958 52.5408C27.958 52.5408 32.068 61.7318 33.1283 74.7158C33.662 81.2546 33.1283 100.976 33.1283 100.976" stroke="#2462BC" stroke-width="5" stroke-miterlimit="10" stroke-linecap="round"/>
<path d="M15.3574 71.9832C15.4624 72.8734 15.5539 73.7846 15.6303 74.716C16.164 81.2548 15.6303 100.976 15.6303 100.976" stroke="#2462BC" stroke-width="5" stroke-miterlimit="10" stroke-linecap="round"/>
<path d="M100.109 72.0218C106.404 71.3303 111.318 65.4848 111.318 58.377C111.318 50.8036 105.739 44.6631 98.8559 44.6631C93.1949 44.6631 88.4159 48.8166 86.8975 54.5063" stroke="#2462BC" stroke-width="5" stroke-miterlimit="10"/>
<path d="M87.5872 52.5413C87.5872 52.5413 83.4772 61.7323 82.4169 74.7162C81.8832 81.255 82.4169 100.976 82.4169 100.976" stroke="#2462BC" stroke-width="5" stroke-miterlimit="10" stroke-linecap="round"/>
<path d="M100.189 71.9832C100.084 72.8734 99.9923 73.7846 99.9159 74.716C99.3822 81.2548 99.9159 100.976 99.9159 100.976" stroke="#2462BC" stroke-width="5" stroke-miterlimit="10" stroke-linecap="round"/>
<path d="M15.7617 102.144H99.5464" stroke="#2462BC" stroke-width="5" stroke-miterlimit="10" stroke-linecap="round"/>
<path d="M19.8721 103.887L21.5655 112.357H27.3721L29.5492 104.72" stroke="#2462BC" stroke-width="5" stroke-miterlimit="10" stroke-linecap="round" stroke-linejoin="round"/>
<path d="M85.0967 103.887L86.7901 112.357H92.5968L94.7738 104.72" stroke="#2462BC" stroke-width="5" stroke-miterlimit="10" stroke-linecap="round" stroke-linejoin="round"/>
<path d="M34.7197 73.8418H81.5179" stroke="#2462BC" stroke-width="5" stroke-miterlimit="10" stroke-linecap="round" stroke-linejoin="round"/>
<path d="M27.6934 50.7905C27.6934 38.1532 27.6934 24.2108 27.6934 24.2108C27.6934 20.9431 30.1003 18.2935 33.0704 18.2935H81.9741C84.9434 18.2935 87.3512 20.9422 87.3512 24.2108C87.3512 24.2108 87.3512 39.5844 87.3512 52.1043" stroke="#2462BC" stroke-width="5" stroke-miterlimit="10" stroke-linecap="round" stroke-linejoin="round"/>
</svg>
