<?xml version="1.0" encoding="utf-8"?>
<!-- Generator: Adobe Illustrator 25.0.0, SVG Export Plug-In . SVG Version: 6.00 Build 0)  -->
<svg version="1.1" id="Слой_1" xmlns="http://www.w3.org/2000/svg" xmlns:xlink="http://www.w3.org/1999/xlink" x="0px" y="0px"
	 viewBox="0 0 48 36" style="enable-background:new 0 0 48 36;" xml:space="preserve">
<style type="text/css">
	.st0{fill:#1F50A4;}
</style>
<g>
	<path class="st0" d="M46.9,35.3H1.3c-0.6,0-1-0.4-1-1V1.2c0-0.6,0.4-1,1-1h45.6c0.6,0,1,0.4,1,1v33.2
		C47.9,34.9,47.5,35.3,46.9,35.3z M2.3,33.3h43.6V2.2H2.3V33.3z"/>
</g>
<g>
	<rect x="1.3" y="5.2" class="st0" width="45.6" height="2"/>
</g>
<g>
	<path class="st0" d="M6.3,4.7H4.7c-0.6,0-1-0.4-1-1s0.4-1,1-1h1.7c0.6,0,1,0.4,1,1S6.9,4.7,6.3,4.7z"/>
</g>
<g>
	<path class="st0" d="M27.9,4.7H8.8c-0.6,0-1-0.4-1-1s0.4-1,1-1h19.1c0.6,0,1,0.4,1,1S28.4,4.7,27.9,4.7z"/>
</g>
<g>
	<path class="st0" d="M29.7,28.3c-0.7,0-1.3-0.3-1.8-0.7c-0.4-0.4-0.4-1,0-1.4c0.4-0.4,1-0.4,1.4,0c0.1,0.1,0.3,0.2,0.5,0.2
		c0.2,0,0.3-0.1,0.5-0.2l2.8-3c0.1-0.1,0.2-0.3,0.2-0.5c0-0.2-0.1-0.3-0.2-0.5S32.7,22,32.5,22c-0.2,0-0.3,0.1-0.5,0.2l-0.6,0.6
		c-0.4,0.4-1,0.4-1.4,0c-0.4-0.4-0.4-1,0-1.4l0.6-0.6c0.5-0.5,1.1-0.8,1.9-0.8c0.7,0,1.4,0.2,1.9,0.7c0.5,0.5,0.8,1.1,0.8,1.9
		s-0.2,1.4-0.7,1.9l-2.8,3C31.1,28,30.5,28.3,29.7,28.3C29.7,28.3,29.7,28.3,29.7,28.3z"/>
</g>
<g>
	<path class="st0" d="M25.7,31.3c-0.7,0-1.3-0.2-1.8-0.7c-0.5-0.5-0.8-1.1-0.8-1.9s0.2-1.4,0.7-1.9l2.8-3c1-1,2.6-1.1,3.7-0.2
		c0.4,0.4,0.5,1,0.1,1.4c-0.4,0.4-1,0.5-1.4,0.1c-0.3-0.2-0.7-0.2-0.9,0.1l-2.8,3c-0.1,0.1-0.2,0.3-0.2,0.5s0.1,0.3,0.2,0.5
		c0.3,0.3,0.7,0.2,0.9,0l0.6-0.6c0.4-0.4,1-0.4,1.4,0c0.4,0.4,0.4,1,0,1.4l-0.6,0.6C27.1,31,26.4,31.3,25.7,31.3z"/>
</g>
<g>
	<path class="st0" d="M21.2,27.9h-3.3c-0.6,0-1-0.4-1-1V12.8c0-0.6,0.4-1,1-1h11.6c0.6,0,1,0.4,1,1v7.5c0,0.6-0.4,1-1,1s-1-0.4-1-1
		v-6.5h-9.6v12.1h2.3c0.6,0,1,0.4,1,1S21.8,27.9,21.2,27.9z"/>
</g>
</svg>
