<?xml version="1.0" encoding="utf-8"?>
<!-- Generator: Adobe Illustrator 25.0.0, SVG Export Plug-In . SVG Version: 6.00 Build 0)  -->
<svg version="1.1" id="Слой_1" xmlns="http://www.w3.org/2000/svg" xmlns:xlink="http://www.w3.org/1999/xlink" x="0px" y="0px"
	 viewBox="0 0 47 42" style="enable-background:new 0 0 47 42;" xml:space="preserve">
<style type="text/css">
	.st0{fill:#1F50A4;}
</style>
<g>
	<path class="st0" d="M1.7,26.4c-0.6,0-1-0.4-1-1l0-16.1c0-0.6,0.4-1,1-1c0,0,0,0,0,0c0.6,0,1,0.4,1,1l0,16.1
		C2.7,25.9,2.3,26.4,1.7,26.4C1.7,26.4,1.7,26.4,1.7,26.4z"/>
</g>
<g>
	<path class="st0" d="M33.2,16.7c-0.6,0-1-0.4-1-1l0-6.1c0-0.6,0.4-1,1-1c0,0,0,0,0,0c0.6,0,1,0.4,1,1l0,6.1
		C34.2,16.3,33.8,16.7,33.2,16.7C33.2,16.7,33.2,16.7,33.2,16.7z"/>
</g>
<g>
	<path class="st0" d="M17.5,18.3c-9.4,0-16.8-3.9-16.8-9s7.4-9,16.8-9s16.8,3.9,16.8,9S26.9,18.3,17.5,18.3z M17.5,2.3
		c-8,0-14.8,3.2-14.8,7s6.8,7,14.8,7c8,0,14.8-3.2,14.8-7S25.5,2.3,17.5,2.3z"/>
</g>
<g>
	<path class="st0" d="M17.5,34.8c-9.4,0-16.8-3.9-16.8-9c0-0.2,0-0.4,0-0.6c0.1-0.5,0.6-0.9,1.1-0.9c0.5,0.1,0.9,0.6,0.9,1.1
		c0,0.1,0,0.2,0,0.3c0,3.8,6.8,7,14.8,7c1.3,0,2.6-0.1,3.8-0.2c0.5-0.1,1,0.3,1.1,0.9s-0.3,1-0.9,1.1C20.2,34.7,18.8,34.8,17.5,34.8
		z"/>
</g>
<g>
	<path class="st0" d="M17.5,23.8c-9.4,0-16.8-3.9-16.8-9c0-0.2,0-0.4,0-0.6c0.1-0.5,0.6-0.9,1.1-0.9c0.5,0.1,0.9,0.6,0.9,1.1
		c0,0.1,0,0.2,0,0.3c0,3.8,6.8,7,14.8,7c1.8,0,3.6-0.2,5.2-0.5c0.5-0.1,1.1,0.3,1.2,0.8s-0.3,1.1-0.8,1.2
		C21.3,23.7,19.4,23.8,17.5,23.8z"/>
</g>
<g>
	<path class="st0" d="M17.5,29.3c-9.4,0-16.8-4-16.8-9c0-0.2,0-0.4,0-0.6c0.1-0.5,0.6-0.9,1.1-0.9C2.4,19,2.8,19.5,2.7,20
		c0,0.1,0,0.2,0,0.3c0,3.8,6.8,7,14.8,7c1.1,0,2.2-0.1,3.3-0.2c0.5-0.1,1,0.3,1.1,0.9c0.1,0.5-0.3,1-0.9,1.1
		C19.8,29.3,18.6,29.3,17.5,29.3z"/>
</g>
<g>
	<path class="st0" d="M33.2,41.9c-7.2,0-13-5.9-13-13.2s5.8-13.2,13-13.2c7.2,0,13,5.9,13,13.2S40.4,41.9,33.2,41.9z M33.2,17.5
		c-6.1,0-11,5-11,11.2s4.9,11.2,11,11.2s11-5,11-11.2S39.3,17.5,33.2,17.5z"/>
</g>
<g>
	<path class="st0" d="M31.2,28.6c-1.8,0-3.2-1.5-3.2-3.2c0-1.8,1.4-3.2,3.2-3.2s3.2,1.5,3.2,3.2C34.5,27.1,33,28.6,31.2,28.6z
		 M31.2,24.1c-0.7,0-1.2,0.6-1.2,1.2c0,0.7,0.5,1.2,1.2,1.2s1.2-0.6,1.2-1.2C32.5,24.7,31.9,24.1,31.2,24.1z"/>
</g>
<g>
	<path class="st0" d="M29,33.9c-0.3,0-0.6-0.1-0.8-0.3c-0.4-0.4-0.3-1,0.1-1.4l9.1-8c0.4-0.4,1-0.3,1.4,0.1c0.4,0.4,0.3,1-0.1,1.4
		l-9.1,8C29.5,33.9,29.3,33.9,29,33.9z"/>
</g>
<g>
	<path class="st0" d="M36.3,35c-1.8,0-3.2-1.5-3.2-3.2c0-1.8,1.4-3.2,3.2-3.2s3.2,1.5,3.2,3.2C39.5,33.6,38.1,35,36.3,35z
		 M36.3,30.5c-0.7,0-1.2,0.6-1.2,1.2c0,0.7,0.5,1.2,1.2,1.2s1.2-0.6,1.2-1.2C37.5,31.1,37,30.5,36.3,30.5z"/>
</g>
</svg>
