<svg width="47" height="48" viewBox="0 0 47 48" fill="none" xmlns="http://www.w3.org/2000/svg">
<path d="M42.1834 5.23169H1.34357V46.0716H42.1834V5.23169Z" stroke="#1F50A4" stroke-width="2" stroke-miterlimit="10" stroke-linejoin="round"/>
<path d="M7.29938 12.0383H33.6751" stroke="#1F50A4" stroke-width="2" stroke-miterlimit="10" stroke-linecap="round" stroke-linejoin="round"/>
<path d="M7.29938 14.5908H22.6143" stroke="#1F50A4" stroke-width="2" stroke-miterlimit="10" stroke-linecap="round" stroke-linejoin="round"/>
<path d="M11.5535 20.5466H7.29938V30.7566H11.5535V20.5466Z" stroke="#1F50A4" stroke-width="2" stroke-miterlimit="10" stroke-linecap="round" stroke-linejoin="round"/>
<path d="M19.211 27.3533H14.9568V30.7566H19.211V27.3533Z" stroke="#1F50A4" stroke-width="2" stroke-miterlimit="10" stroke-linecap="round" stroke-linejoin="round"/>
<path d="M31.4417 39.903C34.6723 39.903 37.2911 37.2841 37.2911 34.0536C37.2911 30.823 34.6723 28.2041 31.4417 28.2041C28.2111 28.2041 25.5922 30.823 25.5922 34.0536C25.5922 37.2841 28.2111 39.903 31.4417 39.903Z" stroke="#1F50A4" stroke-width="2" stroke-miterlimit="10" stroke-linecap="round" stroke-linejoin="round"/>
<path d="M31.1226 28.2041V34.1599L36.231 37.4126" stroke="#1F50A4" stroke-width="2" stroke-miterlimit="10" stroke-linecap="round" stroke-linejoin="round"/>
<path d="M7.29938 36.7124H19.211" stroke="#1F50A4" stroke-width="2" stroke-miterlimit="10" stroke-linecap="round" stroke-linejoin="round"/>
<path d="M7.29938 39.2649H19.211" stroke="#1F50A4" stroke-width="2" stroke-miterlimit="10" stroke-linecap="round" stroke-linejoin="round"/>
<path d="M4.74689 5.23169V1.82837H45.5868V42.6682H41.3326" stroke="#1F50A4" stroke-width="2" stroke-miterlimit="10" stroke-linejoin="round"/>
</svg>
