<?xml version="1.0" encoding="utf-8"?>
<!-- Generator: Adobe Illustrator 25.0.0, SVG Export Plug-In . SVG Version: 6.00 Build 0)  -->
<svg version="1.1" id="Слой_1" xmlns="http://www.w3.org/2000/svg" xmlns:xlink="http://www.w3.org/1999/xlink" x="0px" y="0px"
	 viewBox="0 0 46 33" style="enable-background:new 0 0 46 33;" xml:space="preserve">
<style type="text/css">
	.st0{fill:#1F50A4;}
</style>
<g>
	<path class="st0" d="M17.6,23c-0.3,0-0.5-0.1-0.7-0.3c-0.4-0.4-0.4-1,0-1.4c0.1-0.1,7.8-7.8,10.3-10.4l-8.7-7.1v3.5
		c0,0.6-0.4,1-1,1H2.3v6.1h15.1c0.6,0,1,0.4,1,1s-0.4,1-1,1H1.3c-0.6,0-1-0.4-1-1V7.4c0-0.6,0.4-1,1-1h15.1V1.8
		c0-0.4,0.2-0.7,0.6-0.9c0.3-0.2,0.8-0.1,1.1,0.1l11.2,9.1c0.2,0.2,0.4,0.4,0.4,0.7s-0.1,0.6-0.3,0.8c-11,11.1-11.1,11.2-11.1,11.2
		C18.1,22.9,17.9,23,17.6,23z"/>
</g>
<g>
	<path class="st0" d="M28,32.7c-0.2,0-0.5-0.1-0.7-0.3c0,0-7.8-7.3-10.4-9.7c-0.4-0.4-0.4-1,0-1.4c0.4-0.4,1-0.4,1.4,0
		c1.8,1.7,6.2,5.9,8.7,8.1v-3.6c0-0.6,0.4-1,1-1h15.1v-6.1H28c-0.6,0-1-0.4-1-1s0.4-1,1-1h16.1c0.6,0,1,0.4,1,1v8.1c0,0.6-0.4,1-1,1
		H29v4.9c0,0.4-0.2,0.8-0.6,0.9C28.2,32.7,28.1,32.7,28,32.7z"/>
</g>
</svg>
