<svg width="50" height="43" viewBox="0 0 50 43" fill="none" xmlns="http://www.w3.org/2000/svg">
<path d="M37.4596 22.7181H33.5327V29.052H37.4596C39.1357 29.052 40.4946 27.5249 40.4946 25.8851C40.4946 24.2453 39.1357 22.7181 37.4596 22.7181Z" stroke="#1F50A4" stroke-width="2" stroke-miterlimit="10" stroke-linecap="round" stroke-linejoin="round"/>
<path d="M33.5327 26.9408V34.6822" stroke="#1F50A4" stroke-width="2" stroke-miterlimit="10" stroke-linecap="round" stroke-linejoin="round"/>
<path d="M31.3746 31.8671H39.2875" stroke="#1F50A4" stroke-width="2" stroke-miterlimit="10" stroke-linecap="round" stroke-linejoin="round"/>
<path d="M24.9003 35.3859H1.8808V6.53149H35.6907V15.6805" stroke="#1F50A4" stroke-width="2" stroke-miterlimit="10" stroke-linecap="round" stroke-linejoin="round"/>
<path d="M31.4753 16.6981C32.7327 14.0139 34.7052 9.60411 35.6907 7.49915" stroke="#1F50A4" stroke-width="2" stroke-miterlimit="10" stroke-linecap="round" stroke-linejoin="round"/>
<path d="M21.3035 20.6068H25.6197" stroke="#1F50A4" stroke-width="2" stroke-miterlimit="10" stroke-linecap="round" stroke-linejoin="round"/>
<path d="M2.56201 7.64978C4.32804 11.1123 9.17005 20.6068 9.17005 20.6068H17.7067" stroke="#1F50A4" stroke-width="2" stroke-miterlimit="10" stroke-linecap="round" stroke-linejoin="round"/>
<path d="M20.5842 19.1992H17.7067V24.1256H20.5842V19.1992Z" stroke="#1F50A4" stroke-width="2" stroke-miterlimit="10" stroke-linecap="round" stroke-linejoin="round"/>
<path d="M12.6712 5.8277V1.6051H25.6197V6.53146" stroke="#1F50A4" stroke-width="2" stroke-miterlimit="10" stroke-linecap="round" stroke-linejoin="round"/>
<path d="M35.6295 41.1976C42.7057 41.1976 48.442 35.5856 48.442 28.6628C48.442 21.7401 42.7057 16.1281 35.6295 16.1281C28.5534 16.1281 22.817 21.7401 22.817 28.6628C22.817 35.5856 28.5534 41.1976 35.6295 41.1976Z" stroke="#1F50A4" stroke-width="2" stroke-miterlimit="10" stroke-linecap="round" stroke-linejoin="round"/>
</svg>
