<?xml version="1.0" encoding="utf-8"?>
<!-- Generator: Adobe Illustrator 25.0.0, SVG Export Plug-In . SVG Version: 6.00 Build 0)  -->
<svg version="1.1" id="Слой_1" xmlns="http://www.w3.org/2000/svg" xmlns:xlink="http://www.w3.org/1999/xlink" x="0px" y="0px"
	 viewBox="0 0 38 44" style="enable-background:new 0 0 38 44;" xml:space="preserve">
<style type="text/css">
	.st0{clip-path:url(#SVGID_2_);}
	.st1{fill:#1F50A4;}
</style>
<g>
	<defs>
		<rect id="SVGID_1_" x="0.1" y="0.2" width="37" height="43"/>
	</defs>
	<clipPath id="SVGID_2_">
		<use xlink:href="#SVGID_1_"  style="overflow:visible;"/>
	</clipPath>
	<g class="st0">
		<g>
			<path class="st1" d="M32.6,43.3H1c-0.6,0-1-0.4-1-1V4.2c0-0.6,0.4-1,1-1h26c0.3,0,0.5,0.1,0.7,0.3l5.6,5.6
				c0.2,0.2,0.3,0.4,0.3,0.7v32.5C33.6,42.9,33.1,43.3,32.6,43.3z M2,41.3h29.6V10.3l-5-5.1H2V41.3z"/>
		</g>
		<g>
			<path class="st1" d="M15.4,38.5h-4.5c-0.6,0-1-0.4-1-1v-8.1c0-0.6,0.4-1,1-1h4.5c0.6,0,1,0.4,1,1v8.1C16.4,38,16,38.5,15.4,38.5z
				 M11.9,36.5h2.5v-6.1h-2.5V36.5z"/>
		</g>
		<g>
			<path class="st1" d="M22.6,38.5h-4.5c-0.6,0-1-0.4-1-1v-13c0-0.6,0.4-1,1-1h4.5c0.6,0,1,0.4,1,1v13C23.6,38,23.2,38.5,22.6,38.5z
				 M19.1,36.5h2.5v-11h-2.5V36.5z"/>
		</g>
		<g>
			<path class="st1" d="M7.3,23.1c-0.3,0-0.5-0.1-0.7-0.3c-0.4-0.4-0.4-1,0-1.4l4.5-4.3c0.3-0.3,0.8-0.4,1.2-0.1l3.9,2.5l5.7-5.1
				c0.4-0.4,1-0.3,1.4,0.1c0.4,0.4,0.3,1-0.1,1.4L17,21.5c-0.3,0.3-0.8,0.3-1.2,0.1l-3.9-2.5L8,22.8C7.8,23,7.5,23.1,7.3,23.1z"/>
		</g>
		<g>
			<path class="st1" d="M23.5,18.2c-0.6,0-1-0.4-1-1v-2.2h-2.6c-0.6,0-1-0.4-1-1s0.4-1,1-1h3.6c0.6,0,1,0.4,1,1v3.2
				C24.5,17.7,24.1,18.2,23.5,18.2z"/>
		</g>
		<g>
			<path class="st1" d="M36.2,40.1h-3.6c-0.6,0-1-0.4-1-1s0.4-1,1-1h2.6V7.8l-5-5.8H5.6v2.2c0,0.6-0.4,1-1,1s-1-0.4-1-1V1
				c0-0.6,0.4-1,1-1h26c0.3,0,0.6,0.1,0.8,0.3l5.6,6.5c0.2,0.2,0.2,0.4,0.2,0.7v31.7C37.2,39.7,36.7,40.1,36.2,40.1z"/>
		</g>
	</g>
</g>
</svg>
