<svg width="35" height="44" viewBox="0 0 35 44" fill="none" xmlns="http://www.w3.org/2000/svg">
<path fill-rule="evenodd" clip-rule="evenodd" d="M3.11 0.216187H4.11H28.7607H29.2389L29.5391 0.588493L34.3496 6.55437L34.5711 6.82912V7.18206V40.8046V41.8046H33.5711H31.8091V42.6459V43.6459H30.8091H1.34802H0.348022V42.6459V3.97817V2.97817H1.34802H3.11V1.21619V0.216187ZM32.5711 39.8046H31.8091V10.2083V9.81333L31.5393 9.52497L29.8689 7.74015H32.5711V39.8046ZM27.9678 5.70876V2.21619H5.11V2.97817H24.9786H25.4124L25.7087 3.29486L27.9678 5.70876ZM29.9678 4.30641V5.74015H31.1239L29.9678 4.30641ZM2.34802 41.6459V4.97817H24.2852V10.4228V11.4228H25.2852H29.8091V41.6459H2.34802ZM28.7044 9.42279L26.2852 6.83776V9.42279H28.7044ZM6.87198 32.4393H5.87198V33.4393V37.1219V38.1219H6.87198H10.4753H11.4753H12.4753H16.0786H17.0786V37.1219V26.9947V25.9947H16.0786H11.4753H10.4753V26.9947V32.4393H6.87198ZM10.4753 34.4393V36.1219H7.87198V34.4393H10.4753ZM15.0786 36.1219H12.4753V33.4393V32.4393V27.9947H15.0786V36.1219ZM7.01392 16.2312C7.01392 14.1317 8.49856 12.3789 10.4753 11.9654V15.9467V16.9467H11.4753H15.672C15.3306 19.0133 13.5355 20.5895 11.3722 20.5895C8.96517 20.5895 7.01392 18.6382 7.01392 16.2312ZM15.538 14.9467C15.0964 13.5128 13.9348 12.3945 12.4753 12.0138V14.9467H15.538ZM11.3722 9.873C7.8606 9.873 5.01392 12.7197 5.01392 16.2312C5.01392 19.7428 7.8606 22.5895 11.3722 22.5895C14.8837 22.5895 17.7304 19.7428 17.7304 16.2312C17.7304 12.7197 14.8837 9.873 11.3722 9.873Z" fill="#124B9B"/>
</svg>
