<svg width="42" height="42" viewBox="0 0 42 42" fill="none" xmlns="http://www.w3.org/2000/svg">
<g clip-path="url(#clip0)">
<path d="M38.0652 4.81909H1.70673V41.1776H38.0652V4.81909Z" stroke="#1F50A4" stroke-width="2" stroke-miterlimit="10" stroke-linecap="round" stroke-linejoin="round"/>
<path d="M12.5369 8.68701H6.34821V15.6493H12.5369V8.68701Z" stroke="#1F50A4" stroke-width="2" stroke-miterlimit="10" stroke-linecap="round" stroke-linejoin="round"/>
<path d="M16.4048 9.46057H33.4237" stroke="#1F50A4" stroke-width="2" stroke-miterlimit="10" stroke-linecap="round" stroke-linejoin="round"/>
<path d="M16.4048 12.5549H23.367" stroke="#1F50A4" stroke-width="2" stroke-miterlimit="10" stroke-linecap="round" stroke-linejoin="round"/>
<path d="M12.5369 24.9323V26.4795H6.34821V19.5172H12.5369" stroke="#1F50A4" stroke-width="2" stroke-miterlimit="10" stroke-linecap="round" stroke-linejoin="round"/>
<path d="M16.4048 20.2908H33.4237" stroke="#1F50A4" stroke-width="2" stroke-miterlimit="10" stroke-linecap="round" stroke-linejoin="round"/>
<path d="M16.4048 23.3851H23.367" stroke="#1F50A4" stroke-width="2" stroke-miterlimit="10" stroke-linecap="round" stroke-linejoin="round"/>
<path d="M4.80109 4.81907V1.72473H41.1596V38.0832H38.0652" stroke="#1F50A4" stroke-width="2" stroke-miterlimit="10" stroke-linecap="round" stroke-linejoin="round"/>
<path d="M12.5369 30.3474H6.34821V36.536H12.5369V30.3474Z" stroke="#1F50A4" stroke-width="2" stroke-miterlimit="10" stroke-linecap="round" stroke-linejoin="round"/>
<path d="M16.4048 31.1209H33.4237" stroke="#1F50A4" stroke-width="2" stroke-miterlimit="10" stroke-linecap="round" stroke-linejoin="round"/>
<path d="M16.4048 34.2153H23.367" stroke="#1F50A4" stroke-width="2" stroke-miterlimit="10" stroke-linecap="round" stroke-linejoin="round"/>
<path d="M8.83917 23.1229L9.84251 24.1262L14.4121 20.1136" stroke="#1F50A4" stroke-width="2" stroke-miterlimit="10" stroke-linecap="round" stroke-linejoin="round"/>
</g>
<defs>
<clipPath id="clip0">
<rect width="41" height="41" fill="white" transform="translate(0.933167 0.951172)"/>
</clipPath>
</defs>
</svg>
