<svg width="42" height="40" viewBox="0 0 42 40" fill="none" xmlns="http://www.w3.org/2000/svg">
<path d="M20.9177 38.6595C31.5314 38.6595 40.1355 30.2705 40.1355 19.9221C40.1355 9.57372 31.5314 1.18469 20.9177 1.18469C10.304 1.18469 1.69983 9.57372 1.69983 19.9221C1.69983 30.2705 10.304 38.6595 20.9177 38.6595Z" stroke="#1F50A4" stroke-width="2" stroke-miterlimit="10" stroke-linecap="round" stroke-linejoin="round"/>
<path d="M20.9177 35.5581C29.7746 35.5581 36.9546 28.5576 36.9546 19.9221C36.9546 11.2866 29.7746 4.28613 20.9177 4.28613C12.0608 4.28613 4.8808 11.2866 4.8808 19.9221C4.8808 28.5576 12.0608 35.5581 20.9177 35.5581Z" stroke="#1F50A4" stroke-width="2" stroke-miterlimit="10" stroke-linecap="round" stroke-linejoin="round"/>
<path d="M23.2708 12.8717H18.6381V19.7316H23.2708C25.1236 19.7316 26.6261 18.1081 26.6261 16.3016C26.6261 14.4952 25.1236 12.8717 23.2708 12.8717Z" stroke="#1F50A4" stroke-width="2" stroke-miterlimit="10" stroke-linecap="round" stroke-linejoin="round"/>
<path d="M18.6381 17.4449V26.5915" stroke="#1F50A4" stroke-width="2" stroke-miterlimit="10" stroke-linecap="round" stroke-linejoin="round"/>
<path d="M16.2928 22.7804H25.6739" stroke="#1F50A4" stroke-width="2" stroke-miterlimit="10" stroke-linecap="round" stroke-linejoin="round"/>
</svg>
