<?xml version="1.0" encoding="utf-8"?>
<!-- Generator: Adobe Illustrator 25.0.0, SVG Export Plug-In . SVG Version: 6.00 Build 0)  -->
<svg version="1.1" id="Слой_1" xmlns="http://www.w3.org/2000/svg" xmlns:xlink="http://www.w3.org/1999/xlink" x="0px" y="0px"
	 viewBox="0 0 47 48" style="enable-background:new 0 0 47 48;" xml:space="preserve">
<style type="text/css">
	.st0{fill:#1F50A4;}
</style>
<g>
	<path class="st0" d="M42.2,47.1H1.3c-0.6,0-1-0.4-1-1V5.2c0-0.6,0.4-1,1-1h40.8c0.6,0,1,0.4,1,1v40.8
		C43.2,46.6,42.7,47.1,42.2,47.1z M2.3,45.1h38.8V6.2H2.3V45.1z"/>
</g>
<g>
	<path class="st0" d="M33.7,13H7.3c-0.6,0-1-0.4-1-1s0.4-1,1-1h26.4c0.6,0,1,0.4,1,1S34.2,13,33.7,13z"/>
</g>
<g>
	<path class="st0" d="M22.6,15.6H7.3c-0.6,0-1-0.4-1-1s0.4-1,1-1h15.3c0.6,0,1,0.4,1,1S23.2,15.6,22.6,15.6z"/>
</g>
<g>
	<path class="st0" d="M11.6,31.8H7.3c-0.6,0-1-0.4-1-1V20.5c0-0.6,0.4-1,1-1h4.3c0.6,0,1,0.4,1,1v10.2
		C12.6,31.3,12.1,31.8,11.6,31.8z M8.3,29.8h2.3v-8.2H8.3V29.8z"/>
</g>
<g>
	<path class="st0" d="M19.2,31.8H15c-0.6,0-1-0.4-1-1v-3.4c0-0.6,0.4-1,1-1h4.3c0.6,0,1,0.4,1,1v3.4C20.2,31.3,19.8,31.8,19.2,31.8z
		 M16,29.8h2.3v-1.4H16V29.8z"/>
</g>
<g>
	<path class="st0" d="M31.4,40.9c-3.8,0-6.8-3.1-6.8-6.8s3.1-6.8,6.8-6.8s6.8,3.1,6.8,6.8S35.2,40.9,31.4,40.9z M31.4,29.2
		c-2.7,0-4.8,2.2-4.8,4.8s2.2,4.8,4.8,4.8s4.8-2.2,4.8-4.8S34.1,29.2,31.4,29.2z"/>
</g>
<g>
	<path class="st0" d="M36.2,38.4c-0.2,0-0.4-0.1-0.5-0.2L30.6,35c-0.3-0.2-0.5-0.5-0.5-0.8v-6c0-0.6,0.4-1,1-1s1,0.4,1,1v5.4l4.6,3
		c0.5,0.3,0.6,0.9,0.3,1.4C36.9,38.2,36.6,38.4,36.2,38.4z"/>
</g>
<g>
	<path class="st0" d="M19.2,37.7H7.3c-0.6,0-1-0.4-1-1s0.4-1,1-1h11.9c0.6,0,1,0.4,1,1S19.8,37.7,19.2,37.7z"/>
</g>
<g>
	<path class="st0" d="M19.2,40.3H7.3c-0.6,0-1-0.4-1-1s0.4-1,1-1h11.9c0.6,0,1,0.4,1,1S19.8,40.3,19.2,40.3z"/>
</g>
<g>
	<path class="st0" d="M45.6,43.7h-4.3v-2h3.3V2.8H5.7v2.4h-2V1.8c0-0.6,0.4-1,1-1h40.8c0.6,0,1,0.4,1,1v40.8
		C46.6,43.2,46.1,43.7,45.6,43.7z"/>
</g>
</svg>
