<svg width="42" height="36" viewBox="0 0 42 36" fill="none" xmlns="http://www.w3.org/2000/svg">
<path fill-rule="evenodd" clip-rule="evenodd" d="M2.56506 3.62312C2.56506 2.97543 3.08993 2.45056 3.73762 2.45056H38.4985C39.1462 2.45056 39.6711 2.97543 39.6711 3.62312V4.79571H2.56506V3.62312ZM2.56506 6.79571V31.8664C2.56506 32.5141 3.08993 33.0389 3.73762 33.0389H38.4985C39.1462 33.0389 39.6711 32.5141 39.6711 31.8664V6.79571H2.56506ZM3.73762 0.450562C1.98536 0.450562 0.565063 1.87086 0.565063 3.62312V31.8664C0.565063 33.6186 1.98536 35.0389 3.73762 35.0389H38.4985C40.2508 35.0389 41.6711 33.6186 41.6711 31.8664V3.62312C41.6711 1.87086 40.2508 0.450562 38.4985 0.450562H3.73762ZM16.4972 12.0374H17.4972H19.3939V10.1407V9.14072H20.3939H23.2906H24.2906V10.1407V17.1067H26.1874H27.1874V18.1067V22.4519V23.4519H26.1874H24.2906V23.4519H23.2906H20.3939H19.3939V23.4519H17.4972H16.4972V22.4519V13.0374V12.0374ZM18.4972 14.0374V21.4519H19.3939V14.0374H18.4972ZM22.2906 21.4519H21.3939V11.1407H22.2906V21.4519ZM24.2907 21.4519H25.1874V19.1067H24.2907V21.4519ZM29.9031 13.9427C29.9031 12.7475 30.6514 11.7271 31.705 11.3245V13.7617V14.7617H32.705H35.3854C35.0351 15.9096 33.9676 16.7447 32.705 16.7447C31.1575 16.7447 29.9031 15.4902 29.9031 13.9427ZM33.705 12.7617V11.3244C34.3867 11.585 34.9406 12.104 35.2467 12.7617H33.705ZM32.705 9.14074C30.053 9.14074 27.9031 11.2907 27.9031 13.9427C27.9031 16.5948 30.053 18.7447 32.705 18.7447C35.3571 18.7447 37.507 16.5948 37.507 13.9427C37.507 11.2907 35.3571 9.14074 32.705 9.14074ZM16.773 27.0729H26.9116V25.0729H16.773V27.0729ZM22.5664 29.9696H16.773V27.9696H22.5664V29.9696ZM5.91018 8.41659H4.91018V9.41659V29.6938V30.6938H5.91018H11.7037H12.7037V29.6938V9.41659V8.41659H11.7037H5.91018ZM6.91018 28.6938V10.4166H10.7037V28.6938H6.91018ZM30.2567 29.6938V26.0729H32.2567V27.3605L34.0764 25.6275L35.4557 27.0758L33.7567 28.6938H34.8776V30.6938H31.2567H30.2567V29.6938Z" fill="#124B9B"/>
</svg>
