<svg width="32" height="43" viewBox="0 0 32 43" fill="none" xmlns="http://www.w3.org/2000/svg">
<path fill-rule="evenodd" clip-rule="evenodd" d="M14.2665 6.55694C14.2665 5.67164 14.8942 4.68142 16.3185 3.85684C17.7169 3.04725 19.715 2.51453 21.9761 2.51453C24.2372 2.51453 26.2353 3.04725 27.6337 3.85684C29.058 4.68142 29.6857 5.67164 29.6857 6.55694C29.6857 7.44225 29.058 8.43247 27.6337 9.25705C26.2353 10.0666 24.2372 10.5994 21.9761 10.5994C19.715 10.5994 17.7169 10.0666 16.3185 9.25705C14.8942 8.43247 14.2665 7.44225 14.2665 6.55694ZM15.3164 10.9879C14.9446 10.7726 14.5916 10.5328 14.2665 10.27V12.0187L14.2667 12.0187L14.2665 12.0284L14.2665 12.0578C14.2665 12.9433 14.8942 13.9335 16.3184 14.758C17.7167 15.5676 19.7148 16.1002 21.9761 16.1002C24.2374 16.1002 26.2355 15.5676 27.6338 14.758C29.0555 13.935 29.6835 12.9468 29.6857 12.0624V12.053C29.6856 12.005 29.6838 11.957 29.6802 11.9089L29.6857 11.9085V10.27C29.3606 10.5328 29.0076 10.7726 28.6358 10.9879C26.8819 12.0033 24.5252 12.5994 21.9761 12.5994C19.427 12.5994 17.0703 12.0033 15.3164 10.9879ZM31.6857 12.051V7.01541H31.6597C31.6769 6.86511 31.6857 6.71226 31.6857 6.55694C31.6857 4.6574 30.3638 3.12641 28.6358 2.12599C26.8819 1.11059 24.5252 0.514526 21.9761 0.514526C19.427 0.514526 17.0703 1.11059 15.3164 2.12599C13.7297 3.04462 12.4853 4.41063 12.2925 6.09856H12.2665V6.55694V12.0434C12.2665 12.0472 12.2665 12.0506 12.2665 12.0537L12.2665 12.0578V17.5442L12.2665 17.5545L12.2665 17.5586V21.754C11.5543 21.6535 10.8145 21.601 10.0577 21.601C7.50861 21.601 5.15187 22.197 3.39799 23.2124C1.81126 24.1311 0.566883 25.4971 0.374036 27.185H0.348023V32.2131L0.348022 32.2233L0.348023 32.2274V36.7971L0.348022 36.8073L0.348023 36.8113V37.2698H0.374034C0.566898 38.9578 1.81115 40.3238 3.39789 41.2424C5.15176 42.2578 7.5085 42.8537 10.0577 42.8537C12.6068 42.8537 14.9635 42.2578 16.7174 41.2424C18.3042 40.3238 19.5484 38.9578 19.7413 37.2698H19.7673V37.2001C20.4779 37.3005 21.2177 37.353 21.9761 37.353C24.5253 37.353 26.882 36.7571 28.6359 35.7417C30.2226 34.8231 31.4669 33.4571 31.6597 31.7691H31.6857V31.3218L31.6857 31.3106L31.6857 31.2996V26.737L31.6857 26.7266L31.6857 26.7162V22.1523L31.6857 22.1426L31.6857 22.133V17.5654L31.6857 17.5586L31.6857 17.5518V12.0646C31.6857 12.0624 31.6857 12.0601 31.6857 12.0578C31.6857 12.0555 31.6857 12.0533 31.6857 12.051ZM29.6857 15.7711C29.3607 16.0338 29.0077 16.2737 28.6359 16.4889C26.882 17.5043 24.5252 18.1002 21.9761 18.1002C19.427 18.1002 17.0702 17.5043 15.3163 16.4889C14.9445 16.2737 14.5915 16.0338 14.2665 15.7711V17.5195L14.2667 17.5195L14.2665 17.5292L14.2665 17.5586C14.2665 18.4441 14.8942 19.4343 16.3184 20.2588C17.7167 21.0684 19.7148 21.601 21.9761 21.601C24.2374 21.601 26.2355 21.0684 27.6338 20.2588C29.0555 19.4358 29.6835 18.4476 29.6857 17.5632V17.5538C29.6856 17.5058 29.6838 17.4578 29.6802 17.4097L29.6857 17.4093V15.7711ZM14.2665 22.1036V21.2719C14.5915 21.5346 14.9445 21.7744 15.3163 21.9897C17.0702 23.0051 19.427 23.601 21.9761 23.601C24.5252 23.601 26.882 23.0051 28.6359 21.9897C29.0077 21.7744 29.3607 21.5346 29.6857 21.2719V21.9933L29.6802 21.9937C29.6837 22.0412 29.6856 22.0885 29.6857 22.1358V22.1492C29.6826 23.0331 29.0545 24.0204 27.6338 24.8429C26.2355 25.6524 24.2374 26.185 21.9761 26.185C21.0687 26.185 20.1996 26.0989 19.3928 25.9419C18.8818 24.8203 17.8936 23.8934 16.7173 23.2124C15.9936 22.7934 15.1671 22.4458 14.2669 22.182L14.2666 22.1644L14.2665 22.1427L14.2665 22.1133L14.2667 22.1036L14.2665 22.1036ZM29.6857 25.8559C29.3607 26.1187 29.0077 26.3585 28.6359 26.5737C26.882 27.5891 24.5253 28.185 21.9761 28.185C21.2109 28.185 20.4649 28.1313 19.7489 28.0293C19.7466 28.0535 19.744 28.0777 19.7413 28.1018H19.7673V30.5931C20.4666 30.7072 21.2075 30.769 21.9761 30.769C24.2374 30.769 26.2355 30.2364 27.6338 29.4268C29.0542 28.6045 29.6824 27.6174 29.6857 26.7337V26.7193C29.6856 26.6721 29.6837 26.625 29.6802 26.5777L29.6857 26.5773V25.8559ZM29.6857 30.4399C29.3607 30.7026 29.0077 30.9424 28.6359 31.1577C26.882 32.173 24.5253 32.769 21.9761 32.769C21.2168 32.769 20.4773 32.7161 19.7673 32.616V35.1771C20.466 35.2916 21.2072 35.353 21.9761 35.353C24.2374 35.353 26.2355 34.8204 27.6338 34.0109C29.0539 33.1887 29.6822 32.2018 29.6857 31.3182V31.3028C29.6855 31.2558 29.6837 31.2088 29.6802 31.1617L29.6857 31.1613V30.4399ZM2.34803 27.6434C2.34803 26.7581 2.97579 25.7679 4.40006 24.9433C5.79845 24.1337 7.79652 23.601 10.0577 23.601C12.3188 23.601 14.3169 24.1337 15.7153 24.9433C17.1395 25.7679 17.7673 26.7581 17.7673 27.6434C17.7673 28.5287 17.1395 29.5189 15.7153 30.3435C14.3169 31.1531 12.3188 31.6858 10.0577 31.6858C7.79652 31.6858 5.79845 31.1531 4.40006 30.3435C2.97579 29.5189 2.34803 28.5287 2.34803 27.6434ZM17.7673 36.8151V36.8074C17.7672 36.7592 17.7654 36.7109 17.7618 36.6624L17.7673 36.662V35.9407C17.4422 36.2034 17.0892 36.4432 16.7174 36.6585C14.9635 37.6739 12.6068 38.2698 10.0577 38.2698C7.5085 38.2698 5.15176 37.6739 3.39789 36.6585C3.02609 36.4432 2.67309 36.2034 2.34802 35.9407V36.7722L2.34825 36.7722C2.34826 36.7722 2.34816 36.7749 2.3481 36.7819L2.34802 36.8113C2.34802 37.6969 2.97577 38.6871 4.39994 39.5116C5.79827 40.3211 7.79634 40.8537 10.0577 40.8537C12.319 40.8537 14.317 40.3211 15.7154 39.5116C17.1375 38.6883 17.7655 37.6997 17.7673 36.8151ZM17.7673 32.2312V32.2235C17.7672 32.1752 17.7654 32.1269 17.7618 32.0785L17.7673 32.0781V31.3565C17.4422 31.6192 17.0892 31.8591 16.7173 32.0743C14.9635 33.0897 12.6067 33.6858 10.0577 33.6858C7.50861 33.6858 5.15187 33.0897 3.39799 32.0743C3.02616 31.8591 2.67313 31.6192 2.34802 31.3564V32.1883L2.34825 32.1883C2.34826 32.1883 2.34816 32.191 2.3481 32.198L2.34802 32.2274C2.34802 33.1129 2.97577 34.1031 4.39994 34.9276C5.79827 35.7372 7.79634 36.2698 10.0577 36.2698C12.319 36.2698 14.317 35.7372 15.7154 34.9276C17.1375 34.1043 17.7655 33.1157 17.7673 32.2312Z" fill="#1F50A4"/>
</svg>
