<svg width="48" height="36" viewBox="0 0 48 36" fill="none" xmlns="http://www.w3.org/2000/svg">
<path d="M46.9303 1.19043H1.34357V34.3444H46.9303V1.19043Z" stroke="#1F50A4" stroke-width="2" stroke-miterlimit="10" stroke-linejoin="round"/>
<path d="M1.34357 6.16357H46.9303" stroke="#1F50A4" stroke-width="2" stroke-miterlimit="10" stroke-linejoin="round"/>
<path d="M4.659 3.677H6.3167" stroke="#1F50A4" stroke-width="2" stroke-miterlimit="10" stroke-linecap="round" stroke-linejoin="round"/>
<path d="M8.80322 3.677H27.8668" stroke="#1F50A4" stroke-width="2" stroke-miterlimit="10" stroke-linecap="round" stroke-linejoin="round"/>
<path d="M30.7702 22.0774L31.3396 21.4757C31.9687 20.8109 33.018 20.7819 33.6828 21.411C34.3475 22.0401 34.3765 23.0894 33.7474 23.7542L30.8995 26.7646C30.2704 27.4293 29.2211 27.4583 28.5563 26.8292" stroke="#1F50A4" stroke-width="2" stroke-miterlimit="10" stroke-linecap="round" stroke-linejoin="round"/>
<path d="M27.4498 29.2056L26.8804 29.8074C26.2513 30.4721 25.202 30.5011 24.5373 29.872C23.8725 29.2429 23.8435 28.1936 24.4726 27.5289L27.3205 24.5185C27.9281 23.8769 28.9617 23.7899 29.6289 24.3527" stroke="#1F50A4" stroke-width="2" stroke-miterlimit="10" stroke-linecap="round" stroke-linejoin="round"/>
<path d="M21.236 26.8848H17.9206V12.7943H29.5245V20.254" stroke="#1F50A4" stroke-width="2" stroke-miterlimit="10" stroke-linecap="round" stroke-linejoin="round"/>
</svg>
