<svg width="32" height="49" viewBox="0 0 32 49" fill="none" xmlns="http://www.w3.org/2000/svg">
<path d="M30.7123 44.3695C30.7123 46.2634 29.1768 47.799 27.2828 47.799H4.99108C3.09714 47.799 1.56158 46.2634 1.56158 44.3695V4.93023C1.56158 3.03629 3.09714 1.50073 4.99108 1.50073H27.2828C29.1768 1.50073 30.7123 3.03629 30.7123 4.93023V44.3695Z" stroke="#1F50A4" stroke-width="2" stroke-miterlimit="10" stroke-linecap="round" stroke-linejoin="round"/>
<path d="M1.56158 5.7876H30.7123" stroke="#1F50A4" stroke-width="2" stroke-miterlimit="10" stroke-linecap="round" stroke-linejoin="round"/>
<path d="M16.0298 45.2269C16.9176 45.2269 17.6373 44.5071 17.6373 43.6193C17.6373 42.7315 16.9176 42.0117 16.0298 42.0117C15.1419 42.0117 14.4222 42.7315 14.4222 43.6193C14.4222 44.5071 15.1419 45.2269 16.0298 45.2269Z" stroke="#1F50A4" stroke-width="2" stroke-miterlimit="10" stroke-linecap="round" stroke-linejoin="round"/>
<path d="M1.56158 39.2252H30.7123" stroke="#1F50A4" stroke-width="2" stroke-miterlimit="10" stroke-linecap="round" stroke-linejoin="round"/>
<path d="M16.125 29.9947C20.8009 29.9947 24.5915 26.2041 24.5915 21.5281C24.5915 16.8521 20.8009 13.0615 16.125 13.0615C11.449 13.0615 7.65839 16.8521 7.65839 21.5281C7.65839 26.2041 11.449 29.9947 16.125 29.9947Z" stroke="#1F50A4" stroke-width="2" stroke-miterlimit="10" stroke-linecap="round" stroke-linejoin="round"/>
<path d="M23.5001 26.067L28.454 30.8109L26.0825 33.2878L21.7476 29.1373" stroke="#1F50A4" stroke-width="2" stroke-miterlimit="10" stroke-linecap="round" stroke-linejoin="round"/>
</svg>
