<?xml version="1.0" encoding="utf-8"?>
<!-- Generator: Adobe Illustrator 25.0.0, SVG Export Plug-In . SVG Version: 6.00 Build 0)  -->
<svg version="1.1" id="Слой_1" xmlns="http://www.w3.org/2000/svg" xmlns:xlink="http://www.w3.org/1999/xlink" x="0px" y="0px"
	 viewBox="0 0 22 17" style="enable-background:new 0 0 22 17;" xml:space="preserve">
<style type="text/css">
	.st0{clip-path:url(#SVGID_2_);}
	.st1{fill:#124B9B;}
</style>
<g>
	<defs>
		<rect id="SVGID_1_" x="0" y="0.3" width="22" height="16"/>
	</defs>
	<clipPath id="SVGID_2_">
		<use xlink:href="#SVGID_1_"  style="overflow:visible;"/>
	</clipPath>
	<g class="st0">
		<g>
			<path class="st1" d="M18.5,16.3c-0.1,0-0.2,0-0.3-0.1l-3.3-2.9H8.5c-0.3,0-0.5-0.2-0.5-0.5v-9c0-0.3,0.2-0.5,0.5-0.5h13
				c0.3,0,0.5,0.2,0.5,0.5v9c0,0.3-0.2,0.5-0.5,0.5H19v2.5c0,0.2-0.1,0.4-0.3,0.5C18.6,16.3,18.6,16.3,18.5,16.3z M9,12.3h6.1
				c0.1,0,0.2,0,0.3,0.1l2.6,2.3v-1.8c0-0.2,0.1-0.4,0.3-0.5c0.1,0,0.2-0.1,0.2-0.1H21v-8H9V12.3z"/>
		</g>
		<g>
			<path class="st1" d="M2.5,12.8c-0.1,0-0.2,0-0.2-0.1C2.1,12.7,2,12.5,2,12.3v-2.1H0.5C0.2,10.3,0,10.1,0,9.8v-9
				c0-0.3,0.2-0.5,0.5-0.5h13c0.3,0,0.5,0.2,0.5,0.5v2.5c0,0.3-0.2,0.5-0.5,0.5S13,3.6,13,3.3v-2H1v8h1.5C2.8,9.3,3,9.5,3,9.8v1.7
				l3.2-2.1c0.1-0.1,0.2-0.1,0.3-0.1H8c0.3,0,0.5,0.2,0.5,0.5S8.3,10.3,8,10.3H6.7l-3.9,2.5C2.7,12.8,2.6,12.8,2.5,12.8z"/>
		</g>
		<g>
			<rect x="10" y="6.3" class="st1" width="6" height="1"/>
		</g>
		<g>
			<rect x="10" y="8.3" class="st1" width="3" height="1"/>
		</g>
	</g>
</g>
</svg>
