<?xml version="1.0" encoding="utf-8"?>
<!-- Generator: Adobe Illustrator 25.0.0, SVG Export Plug-In . SVG Version: 6.00 Build 0)  -->
<svg version="1.1" id="Слой_1" xmlns="http://www.w3.org/2000/svg" xmlns:xlink="http://www.w3.org/1999/xlink" x="0px" y="0px"
	 viewBox="0 0 38 44" style="enable-background:new 0 0 38 44;" xml:space="preserve">
<style type="text/css">
	.st0{clip-path:url(#SVGID_2_);}
	.st1{fill:#1F50A4;}
</style>
<g>
	<defs>
		<rect id="SVGID_1_" y="0.2" width="38" height="43"/>
	</defs>
	<clipPath id="SVGID_2_">
		<use xlink:href="#SVGID_1_"  style="overflow:visible;"/>
	</clipPath>
	<g class="st0">
		<g>
			<path class="st1" d="M37.2,40.9H0.8c-0.6,0-1-0.4-1-1V3.4c0-0.6,0.4-1,1-1h6.5v2H1.8v34.5h34.4V4.4h-5.5v-2h6.5c0.6,0,1,0.4,1,1
				v36.5C38.2,40.5,37.7,40.9,37.2,40.9z"/>
		</g>
		<g>
			<rect x="10.5" y="2.4" class="st1" width="16.2" height="2"/>
		</g>
		<g>
			<path class="st1" d="M10.5,6.8h-4c-0.6,0-1-0.4-1-1V1c0-0.6,0.4-1,1-1h4c0.6,0,1,0.4,1,1v4.9C11.5,6.4,11.1,6.8,10.5,6.8z
				 M7.5,4.8h2V2h-2V4.8z"/>
		</g>
		<g>
			<path class="st1" d="M30.7,6.8h-4c-0.6,0-1-0.4-1-1V1c0-0.6,0.4-1,1-1h4c0.6,0,1,0.4,1,1v4.9C31.7,6.4,31.3,6.8,30.7,6.8z
				 M27.7,4.8h2V2h-2V4.8z"/>
		</g>
		<g>
			<rect x="0.8" y="12.1" class="st1" width="35.6" height="2"/>
		</g>
		<g>
			<rect x="6.5" y="18.6" class="st1" width="1.6" height="2"/>
		</g>
		<g>
			<rect x="14.6" y="18.6" class="st1" width="1.6" height="2"/>
		</g>
		<g>
			<rect x="22.6" y="18.6" class="st1" width="1.6" height="2"/>
		</g>
		<g>
			<rect x="30.7" y="18.6" class="st1" width="1.6" height="2"/>
		</g>
		<g>
			<rect x="6.5" y="30.8" class="st1" width="1.6" height="2"/>
		</g>
		<g>
			<rect x="14.6" y="30.8" class="st1" width="1.6" height="2"/>
		</g>
		<g>
			<rect x="22.6" y="30.8" class="st1" width="1.6" height="2"/>
		</g>
		<g>
			<rect x="30.7" y="30.8" class="st1" width="1.6" height="2"/>
		</g>
		<g>
			<rect x="6.5" y="24.3" class="st1" width="1.6" height="2"/>
		</g>
		<g>
			<rect x="14.6" y="24.3" class="st1" width="1.6" height="2"/>
		</g>
		<g>
			<rect x="22.6" y="24.3" class="st1" width="1.6" height="2"/>
		</g>
		<g>
			<rect x="30.7" y="24.3" class="st1" width="1.6" height="2"/>
		</g>
		<g>
			<path class="st1" d="M34.8,43.3H2.4c-0.6,0-1-0.4-1-1v-3.2h2v2.2h30.3v-2.2h2v3.2C35.8,42.9,35.3,43.3,34.8,43.3z"/>
		</g>
	</g>
</g>
</svg>
