<?xml version="1.0" encoding="utf-8"?>
<!-- Generator: Adobe Illustrator 25.0.0, SVG Export Plug-In . SVG Version: 6.00 Build 0)  -->
<svg version="1.1" id="Слой_1" xmlns="http://www.w3.org/2000/svg" xmlns:xlink="http://www.w3.org/1999/xlink" x="0px" y="0px"
	 viewBox="0 0 23 14" style="enable-background:new 0 0 23 14;" xml:space="preserve">
<style type="text/css">
	.st0{clip-path:url(#SVGID_2_);}
	.st1{fill:#124B9B;}
</style>
<g>
	<defs>
		<rect id="SVGID_1_" x="0" y="0.1" width="22" height="13.6"/>
	</defs>
	<clipPath id="SVGID_2_">
		<use xlink:href="#SVGID_1_"  style="overflow:visible;"/>
	</clipPath>
	<g class="st0">
		<g>
			<path class="st1" d="M11,13.7c-6,0-11-4.9-11-6.8c0-2.2,5.1-6.8,11-6.8c6,0,11,4.2,11,6.8C22,9.2,17.1,13.7,11,13.7z M11,1.1
				C5.3,1.1,1,5.6,1,6.9c0,1.2,4.4,5.8,10,5.8c5.5,0,10-4.2,10-5.8C21,5.2,16.8,1.1,11,1.1z"/>
		</g>
		<g>
			<path class="st1" d="M10.9,13.1c-3.4,0-6.2-2.8-6.2-6.2s2.8-6.2,6.2-6.2s6.2,2.8,6.2,6.2S14.3,13.1,10.9,13.1z M10.9,1.8
				c-2.8,0-5.2,2.3-5.2,5.2c0,2.8,2.3,5.2,5.2,5.2c2.8,0,5.2-2.3,5.2-5.2C16.1,4.1,13.8,1.8,10.9,1.8z"/>
		</g>
	</g>
</g>
</svg>
