<?xml version="1.0" encoding="utf-8"?>
<!-- Generator: Adobe Illustrator 25.0.0, SVG Export Plug-In . SVG Version: 6.00 Build 0)  -->
<svg version="1.1" id="Слой_1" xmlns="http://www.w3.org/2000/svg" xmlns:xlink="http://www.w3.org/1999/xlink" x="0px" y="0px"
	 viewBox="0 0 18 20" style="enable-background:new 0 0 18 20;" xml:space="preserve">
<style type="text/css">
	.st0{clip-path:url(#SVGID_2_);}
	.st1{fill:#124B9B;}
</style>
<g>
	<defs>
		<rect id="SVGID_1_" x="0" y="0.4" width="18" height="19"/>
	</defs>
	<clipPath id="SVGID_2_">
		<use xlink:href="#SVGID_1_"  style="overflow:visible;"/>
	</clipPath>
	<g class="st0">
		<g>
			<path class="st1" d="M16.2,19.5H8.1c-0.3,0-0.5-0.2-0.5-0.5s0.2-0.5,0.5-0.5h8.1c0.5,0,0.8-0.4,0.8-0.9c0-0.5-0.4-0.9-0.9-0.9
				c-0.3,0-0.5-0.2-0.5-0.5s0.2-0.5,0.5-0.5c1,0,1.9,0.9,1.9,1.9C18,18.6,17.2,19.5,16.2,19.5z"/>
		</g>
		<g>
			<path class="st1" d="M16.2,16.7h-0.9c-0.3,0-0.5-0.2-0.5-0.5s0.2-0.5,0.5-0.5h0.9c0.5,0,0.8-0.4,0.8-0.9S16.7,14,16.2,14h-0.9
				c-0.3,0-0.5-0.2-0.5-0.5S15,13,15.3,13h0.9c1,0,1.8,0.8,1.8,1.9C18,15.9,17.2,16.7,16.2,16.7z"/>
		</g>
		<g>
			<path class="st1" d="M16.2,14h-0.9c-0.3,0-0.5-0.2-0.5-0.5S15,13,15.3,13h0.9c0.5,0,0.8-0.4,0.8-0.9s-0.4-0.9-0.8-0.9h-0.9
				c-0.3,0-0.5-0.2-0.5-0.5s0.2-0.5,0.5-0.5h0.9c1,0,1.8,0.8,1.8,1.9C18,13.2,17.2,14,16.2,14z"/>
		</g>
		<g>
			<path class="st1" d="M16.2,11.3h-0.9c-0.3,0-0.5-0.2-0.5-0.5c0-0.3,0.2-0.5,0.5-0.5h0.9c0.5,0,0.8-0.4,0.8-0.9s-0.4-0.9-0.8-0.9
				h-0.9c-0.3,0-0.5-0.2-0.5-0.5s0.2-0.5,0.5-0.5h0.9c1,0,1.8,0.8,1.8,1.9C18,10.5,17.2,11.3,16.2,11.3z"/>
		</g>
		<g>
			<path class="st1" d="M15.3,8.6h-4.5c-0.3,0-0.5-0.2-0.5-0.5s0.2-0.5,0.5-0.5h4.5c0.3,0,0.5,0.2,0.5,0.5S15.6,8.6,15.3,8.6z"/>
		</g>
		<g>
			<path class="st1" d="M6.6,9.5H5.4C5.1,9.5,4.9,9.3,4.9,9s0.2-0.5,0.5-0.5h0.9C6.7,7.6,7.9,5,8.1,3.9c0.1-0.6,0-2.4,0-3
				c0-0.1,0-0.3,0.1-0.4c0.1-0.1,0.2-0.2,0.4-0.2h1.6c0.1,0,0.3,0.1,0.4,0.2c0.1,0.1,1.6,1.9,1.6,4c0,1.6-0.8,3.7-0.8,3.8
				c-0.1,0.3-0.4,0.4-0.6,0.3c-0.3-0.1-0.4-0.4-0.3-0.6c0,0,0.8-2,0.8-3.4c0-1.4-0.9-2.7-1.2-3.2H9.1c0,0.8,0.1,2.2,0,2.8
				c-0.3,1.4-1.9,4.9-2,5.1C7,9.4,6.8,9.5,6.6,9.5z"/>
		</g>
		<g>
			<path class="st1" d="M5,19.5H0.5C0.2,19.5,0,19.2,0,19V8.1c0-0.3,0.2-0.5,0.5-0.5H5c0.3,0,0.5,0.2,0.5,0.5V19
				C5.5,19.2,5.2,19.5,5,19.5z M1,18.5h3.5V8.6H1V18.5z"/>
		</g>
		<g>
			<path class="st1" d="M7.9,19.5c-0.1,0-0.2,0-0.2-0.1l-1.5-0.8H5.4c-0.3,0-0.5-0.2-0.5-0.5s0.2-0.5,0.5-0.5h1l1.8,1
				c0.2,0.1,0.3,0.4,0.2,0.7C8.3,19.4,8.1,19.5,7.9,19.5z"/>
		</g>
	</g>
</g>
</svg>
