<?xml version="1.0" encoding="utf-8"?>
<!-- Generator: Adobe Illustrator 25.0.0, SVG Export Plug-In . SVG Version: 6.00 Build 0)  -->
<svg version="1.1" id="Слой_1" xmlns="http://www.w3.org/2000/svg" xmlns:xlink="http://www.w3.org/1999/xlink" x="0px" y="0px"
	 viewBox="0 0 47 33" style="enable-background:new 0 0 47 33;" xml:space="preserve">
<style type="text/css">
	.st0{fill:#1F50A4;}
</style>
<g>
	<path class="st0" d="M38.4,27.2h-8.3c-0.6,0-1-0.4-1-1s0.4-1,1-1h8.3c3.2,0,5.8-2.6,5.8-5.9c0-3-2.1-5.5-5-5.9
		c-0.4-0.1-0.8-0.4-0.8-0.9c-0.4-3-3-5.3-6-5.3c-0.2,0-0.5,0-0.7,0c-0.4,0-0.7-0.1-0.9-0.4c-1.9-2.5-4.7-4-7.8-4c-2.7,0-5.2,1.1-7,3
		c-0.3,0.3-0.6,0.4-1,0.3c-0.9-0.3-1.8-0.4-2.6-0.4c-5.3,0-9.6,4.3-9.6,9.7c0,4.2,2.8,8,6.8,9.2c0.7,0.3,1.4,0.4,2.1,0.4h5.4
		c0.6,0,1,0.4,1,1s-0.4,1-1,1h-5.4c-0.9,0-1.9-0.2-2.8-0.5c-4.9-1.5-8.2-6-8.2-11.1c0-6.4,5.2-11.7,11.6-11.7c0.9,0,1.8,0.1,2.6,0.3
		c2.2-2.1,5-3.2,8-3.2c3.5,0,6.9,1.6,9.1,4.4c0.1,0,0.3,0,0.4,0c3.8,0,7,2.7,7.8,6.3c3.5,0.8,6,4,6,7.6
		C46.3,23.7,42.8,27.2,38.4,27.2z"/>
</g>
<g>
	<path class="st0" d="M23.4,32.5c-3.9,0-7-3.2-7-7.1s3.2-7.1,7-7.1c3.9,0,7,3.2,7,7.1S27.3,32.5,23.4,32.5z M23.4,20.4
		c-2.8,0-5,2.3-5,5.1s2.3,5.1,5,5.1c2.8,0,5-2.3,5-5.1S26.2,20.4,23.4,20.4z"/>
</g>
<g>
	<path class="st0" d="M23.6,28.7c-0.6,0-1-0.4-1-1v-4.4c0-0.6,0.4-1,1-1s1,0.4,1,1v4.4C24.6,28.2,24.2,28.7,23.6,28.7z"/>
</g>
<g>
	<path class="st0" d="M25.8,26.5h-4.3c-0.6,0-1-0.4-1-1s0.4-1,1-1h4.3c0.6,0,1,0.4,1,1S26.3,26.5,25.8,26.5z"/>
</g>
</svg>
