<?xml version="1.0" encoding="utf-8"?>
<!-- Generator: Adobe Illustrator 25.0.0, SVG Export Plug-In . SVG Version: 6.00 Build 0)  -->
<svg version="1.1" id="Слой_1" xmlns="http://www.w3.org/2000/svg" xmlns:xlink="http://www.w3.org/1999/xlink" x="0px" y="0px"
	 viewBox="0 0 42 42" style="enable-background:new 0 0 42 42;" xml:space="preserve">
<style type="text/css">
	.st0{clip-path:url(#SVGID_2_);}
	.st1{fill:#1F50A4;}
</style>
<g>
	<defs>
		<rect id="SVGID_1_" x="0.9" y="1" width="41" height="41"/>
	</defs>
	<clipPath id="SVGID_2_">
		<use xlink:href="#SVGID_1_"  style="overflow:visible;"/>
	</clipPath>
	<g class="st0">
		<g>
			<path class="st1" d="M38.1,42.2H1.7c-0.6,0-1-0.4-1-1V4.8c0-0.6,0.4-1,1-1h36.4c0.6,0,1,0.4,1,1v36.4
				C39.1,41.7,38.6,42.2,38.1,42.2z M2.7,40.2h34.4V5.8H2.7V40.2z"/>
		</g>
		<g>
			<path class="st1" d="M12.5,16.6H6.3c-0.6,0-1-0.4-1-1v-7c0-0.6,0.4-1,1-1h6.2c0.6,0,1,0.4,1,1v7C13.5,16.2,13.1,16.6,12.5,16.6z
				 M7.3,14.6h4.2v-5H7.3V14.6z"/>
		</g>
		<g>
			<path class="st1" d="M33.4,10.5h-17c-0.6,0-1-0.4-1-1s0.4-1,1-1h17c0.6,0,1,0.4,1,1S34,10.5,33.4,10.5z"/>
		</g>
		<g>
			<path class="st1" d="M23.4,13.6h-7c-0.6,0-1-0.4-1-1s0.4-1,1-1h7c0.6,0,1,0.4,1,1S23.9,13.6,23.4,13.6z"/>
		</g>
		<g>
			<path class="st1" d="M12.5,27.5H6.3c-0.6,0-1-0.4-1-1v-7c0-0.6,0.4-1,1-1h6.2c0.6,0,1,0.4,1,1s-0.4,1-1,1H7.3v5h4.2v-0.5
				c0-0.6,0.4-1,1-1s1,0.4,1,1v1.5C13.5,27,13.1,27.5,12.5,27.5z"/>
		</g>
		<g>
			<path class="st1" d="M33.4,21.3h-17c-0.6,0-1-0.4-1-1s0.4-1,1-1h17c0.6,0,1,0.4,1,1S34,21.3,33.4,21.3z"/>
		</g>
		<g>
			<path class="st1" d="M23.4,24.4h-7c-0.6,0-1-0.4-1-1s0.4-1,1-1h7c0.6,0,1,0.4,1,1S23.9,24.4,23.4,24.4z"/>
		</g>
		<g>
			<path class="st1" d="M41.2,39.1h-3.1c-0.6,0-1-0.4-1-1s0.4-1,1-1h2.1V2.7H5.8v2.1c0,0.6-0.4,1-1,1s-1-0.4-1-1V1.7
				c0-0.6,0.4-1,1-1h36.4c0.6,0,1,0.4,1,1v36.4C42.2,38.6,41.7,39.1,41.2,39.1z"/>
		</g>
		<g>
			<path class="st1" d="M12.5,37.5H6.3c-0.6,0-1-0.4-1-1v-6.2c0-0.6,0.4-1,1-1h6.2c0.6,0,1,0.4,1,1v6.2
				C13.5,37.1,13.1,37.5,12.5,37.5z M7.3,35.5h4.2v-4.2H7.3V35.5z"/>
		</g>
		<g>
			<path class="st1" d="M33.4,32.1h-17c-0.6,0-1-0.4-1-1s0.4-1,1-1h17c0.6,0,1,0.4,1,1S34,32.1,33.4,32.1z"/>
		</g>
		<g>
			<path class="st1" d="M23.4,35.2h-7c-0.6,0-1-0.4-1-1s0.4-1,1-1h7c0.6,0,1,0.4,1,1S23.9,35.2,23.4,35.2z"/>
		</g>
		<g>
			<path class="st1" d="M9.8,25.1c-0.3,0-0.5-0.1-0.7-0.3l-1-1c-0.4-0.4-0.4-1,0-1.4s1-0.4,1.4,0l0.3,0.3l3.9-3.4
				c0.4-0.4,1-0.3,1.4,0.1c0.4,0.4,0.3,1-0.1,1.4l-4.6,4C10.3,25,10.1,25.1,9.8,25.1z"/>
		</g>
	</g>
</g>
</svg>
