<svg width="47" height="33" viewBox="0 0 47 33" fill="none" xmlns="http://www.w3.org/2000/svg">
<path d="M30.1024 26.2096H38.4349C42.2062 26.2096 45.2629 23.1321 45.2629 19.3367V19.2764C45.2629 15.8174 42.721 12.963 39.4167 12.4827C38.9547 9.02008 36.015 6.34736 32.4486 6.34736C32.1649 6.34736 31.887 6.36916 31.6119 6.40186C29.6548 3.72915 26.5151 1.9873 22.9625 1.9873C19.9174 1.9873 17.1741 3.26698 15.2183 5.31475C14.2892 5.04661 13.3103 4.89401 12.2953 4.89401C6.44691 4.89401 1.70673 9.66609 1.70673 15.5522C1.70673 20.3649 4.87744 24.4285 9.22923 25.7525C9.98653 26.0439 10.8045 26.2103 11.6636 26.2103H17.1084" stroke="#1F50A4" stroke-width="2" stroke-miterlimit="10" stroke-linecap="round" stroke-linejoin="round"/>
<path d="M23.4426 31.534C26.7722 31.534 29.4714 28.817 29.4714 25.4655C29.4714 22.114 26.7722 19.397 23.4426 19.397C20.113 19.397 17.4138 22.114 17.4138 25.4655C17.4138 28.817 20.113 31.534 23.4426 31.534Z" stroke="#1F50A4" stroke-width="2" stroke-miterlimit="10" stroke-linecap="round" stroke-linejoin="round"/>
<path d="M23.605 23.3029V27.663" stroke="#1F50A4" stroke-width="2" stroke-miterlimit="10" stroke-linecap="round" stroke-linejoin="round"/>
<path d="M25.7708 25.483H21.4392" stroke="#1F50A4" stroke-width="2" stroke-miterlimit="10" stroke-linecap="round" stroke-linejoin="round"/>
</svg>
