<svg width="47" height="32" viewBox="0 0 47 32" fill="none" xmlns="http://www.w3.org/2000/svg">
<path d="M4.8726 30.8202C3.19715 30.5156 1.93073 29.0966 1.93073 27.3932V4.91816C1.93073 2.99229 3.54992 1.43066 5.5468 1.43066C7.54367 1.43066 9.16287 2.99229 9.16287 4.91816V27.3932C9.16287 27.5195 9.15564 26.0943 9.14198 26.2167" stroke="#1F50A4" stroke-width="2" stroke-miterlimit="10" stroke-linecap="round" stroke-linejoin="round"/>
<path d="M5.31698 30.8737C3.42698 30.7598 1.93073 29.2446 1.93073 27.3932C1.93073 25.4673 3.54992 23.9057 5.5468 23.9057C7.54367 23.9057 9.16287 25.4673 9.16287 27.3932" stroke="#1F50A4" stroke-width="2" stroke-miterlimit="10" stroke-linejoin="round"/>
<path d="M8.35931 5.30566H42.1093V30.8807H5.14502" stroke="#1F50A4" stroke-width="2" stroke-miterlimit="10" stroke-linejoin="round"/>
<path d="M13.1807 5.30566V2.20566H45.3236V29.3307H42.9129" stroke="#1F50A4" stroke-width="2" stroke-miterlimit="10" stroke-linejoin="round"/>
<path d="M14.7878 10.7307H30.8593" stroke="#1F50A4" stroke-width="2" stroke-miterlimit="10" stroke-linecap="round" stroke-linejoin="round"/>
<path d="M14.7878 13.8307H25.2343" stroke="#1F50A4" stroke-width="2" stroke-miterlimit="10" stroke-linecap="round" stroke-linejoin="round"/>
<path d="M27.645 17.7057H14.7878V24.6807H27.645V17.7057Z" stroke="#1F50A4" stroke-width="2" stroke-miterlimit="10" stroke-linecap="round" stroke-linejoin="round"/>
</svg>
