<svg width="47" height="42" viewBox="0 0 47 42" fill="none" xmlns="http://www.w3.org/2000/svg">
<path d="M1.67578 9.32532L1.69985 25.3958" stroke="#1F50A4" stroke-width="2" stroke-miterlimit="10" stroke-linecap="round" stroke-linejoin="round"/>
<path d="M33.2286 9.68103L33.2461 15.747" stroke="#1F50A4" stroke-width="2" stroke-miterlimit="10" stroke-linecap="round" stroke-linejoin="round"/>
<path d="M17.4609 17.314C26.1788 17.314 33.2461 13.7374 33.2461 9.3253C33.2461 4.91323 26.1788 1.33655 17.4609 1.33655C8.74303 1.33655 1.67578 4.91323 1.67578 9.3253C1.67578 13.7374 8.74303 17.314 17.4609 17.314Z" stroke="#1F50A4" stroke-width="2" stroke-miterlimit="10" stroke-linejoin="round"/>
<path d="M21.3915 33.5772C20.1351 33.7403 18.818 33.8266 17.4609 33.8266C8.74286 33.8266 1.67578 30.2504 1.67578 25.8379C1.67578 25.6895 1.6838 25.5419 1.69985 25.3958" stroke="#1F50A4" stroke-width="2" stroke-miterlimit="10" stroke-linecap="round" stroke-linejoin="round"/>
<path d="M22.877 22.3355C21.1881 22.6477 19.3635 22.8182 17.4609 22.8182C8.74286 22.8182 1.67578 19.242 1.67578 14.8295C1.67578 14.6811 1.6838 14.5335 1.69985 14.3873" stroke="#1F50A4" stroke-width="2" stroke-miterlimit="10" stroke-linecap="round" stroke-linejoin="round"/>
<path d="M20.8607 28.1372C19.7661 28.259 18.6284 28.3232 17.4609 28.3232C8.74286 28.3225 1.67578 24.7463 1.67578 20.3337C1.67578 20.1854 1.6838 20.0378 1.69985 19.8916" stroke="#1F50A4" stroke-width="2" stroke-miterlimit="10" stroke-linecap="round" stroke-linejoin="round"/>
<path d="M33.2089 40.8603C39.8414 40.8603 45.218 35.4181 45.218 28.7048C45.218 21.9915 39.8414 16.5493 33.2089 16.5493C26.5764 16.5493 21.1998 21.9915 21.1998 28.7048C21.1998 35.4181 26.5764 40.8603 33.2089 40.8603Z" stroke="#1F50A4" stroke-width="2" stroke-miterlimit="10" stroke-linecap="round" stroke-linejoin="round"/>
<path d="M31.237 27.5888C32.4634 27.5888 33.4576 26.5825 33.4576 25.3412C33.4576 24.0999 32.4634 23.0936 31.237 23.0936C30.0106 23.0936 29.0165 24.0999 29.0165 25.3412C29.0165 26.5825 30.0106 27.5888 31.237 27.5888Z" stroke="#1F50A4" stroke-width="2" stroke-miterlimit="10" stroke-linecap="round" stroke-linejoin="round"/>
<path d="M29.0165 32.9402L38.1101 24.9131" stroke="#1F50A4" stroke-width="2" stroke-miterlimit="10" stroke-linecap="round" stroke-linejoin="round"/>
<path d="M36.3125 34.0106C37.5389 34.0106 38.5331 33.0043 38.5331 31.763C38.5331 30.5217 37.5389 29.5154 36.3125 29.5154C35.0862 29.5154 34.092 30.5217 34.092 31.763C34.092 33.0043 35.0862 34.0106 36.3125 34.0106Z" stroke="#1F50A4" stroke-width="2" stroke-miterlimit="10" stroke-linecap="round" stroke-linejoin="round"/>
</svg>
