<svg width="38" height="44" viewBox="0 0 38 44" fill="none" xmlns="http://www.w3.org/2000/svg">
<g clip-path="url(#clip0)">
<path d="M30.7234 3.39905H37.1915V39.9085H0.808533V3.39905C0.808533 3.39905 3.43538 3.39905 7.27662 3.39905" stroke="#1F50A4" stroke-width="2" stroke-miterlimit="10" stroke-linejoin="round"/>
<path d="M10.5107 3.39905H26.6809" stroke="#1F50A4" stroke-width="2" stroke-miterlimit="10" stroke-linejoin="round"/>
<path d="M10.5107 0.965088H6.46814V5.83301H10.5107V0.965088Z" stroke="#1F50A4" stroke-width="2" stroke-miterlimit="10" stroke-linejoin="round"/>
<path d="M30.7234 0.965088H26.6808V5.83301H30.7234V0.965088Z" stroke="#1F50A4" stroke-width="2" stroke-miterlimit="10" stroke-linejoin="round"/>
<path d="M0.808533 13.1349H36.383" stroke="#1F50A4" stroke-width="2" stroke-miterlimit="10" stroke-linejoin="round"/>
<path d="M6.46814 19.6255H8.08516" stroke="#1F50A4" stroke-width="2" stroke-miterlimit="10" stroke-linejoin="round"/>
<path d="M14.5532 19.6255H16.1702" stroke="#1F50A4" stroke-width="2" stroke-miterlimit="10" stroke-linejoin="round"/>
<path d="M22.6384 19.6255H24.2554" stroke="#1F50A4" stroke-width="2" stroke-miterlimit="10" stroke-linejoin="round"/>
<path d="M30.7234 19.6255H32.3405" stroke="#1F50A4" stroke-width="2" stroke-miterlimit="10" stroke-linejoin="round"/>
<path d="M6.46814 31.7953H8.08516" stroke="#1F50A4" stroke-width="2" stroke-miterlimit="10" stroke-linejoin="round"/>
<path d="M14.5532 31.7953H16.1702" stroke="#1F50A4" stroke-width="2" stroke-miterlimit="10" stroke-linejoin="round"/>
<path d="M22.6384 31.7953H24.2554" stroke="#1F50A4" stroke-width="2" stroke-miterlimit="10" stroke-linejoin="round"/>
<path d="M30.7234 31.7953H32.3405" stroke="#1F50A4" stroke-width="2" stroke-miterlimit="10" stroke-linejoin="round"/>
<path d="M6.46814 25.3047H8.08516" stroke="#1F50A4" stroke-width="2" stroke-miterlimit="10" stroke-linejoin="round"/>
<path d="M14.5532 25.3047H16.1702" stroke="#1F50A4" stroke-width="2" stroke-miterlimit="10" stroke-linejoin="round"/>
<path d="M22.6384 25.3047H24.2554" stroke="#1F50A4" stroke-width="2" stroke-miterlimit="10" stroke-linejoin="round"/>
<path d="M30.7234 25.3047H32.3405" stroke="#1F50A4" stroke-width="2" stroke-miterlimit="10" stroke-linejoin="round"/>
<path d="M34.766 39.0972V42.3425H2.42554V39.0972" stroke="#1F50A4" stroke-width="2" stroke-miterlimit="10" stroke-linejoin="round"/>
</g>
<defs>
<clipPath id="clip0">
<rect width="38" height="43" fill="white" transform="translate(0 0.153809)"/>
</clipPath>
</defs>
</svg>
