<?xml version="1.0" encoding="utf-8"?>
<!-- Generator: Adobe Illustrator 25.0.0, SVG Export Plug-In . SVG Version: 6.00 Build 0)  -->
<svg version="1.1" id="Слой_1" xmlns="http://www.w3.org/2000/svg" xmlns:xlink="http://www.w3.org/1999/xlink" x="0px" y="0px"
	 viewBox="0 0 47 32" style="enable-background:new 0 0 47 32;" xml:space="preserve">
<style type="text/css">
	.st0{fill:#1F50A4;}
</style>
<g>
	<path class="st0" d="M4.9,31.8c-0.1,0-0.1,0-0.2,0c-2.2-0.4-3.8-2.3-3.8-4.4V4.9c0-2.5,2.1-4.5,4.6-4.5s4.6,2,4.6,4.5v22.5
		c0,0.6-0.4,1-1,1c0,0,0,0,0,0c-0.5,0-0.9-0.5-1-1h0v-0.1c0,0,0,0,0,0c0-0.2,0-0.8,0-1c0-0.1,0-0.2,0-0.2c0,0,0-0.1,0-0.1V4.9
		c0-1.4-1.2-2.5-2.6-2.5S2.9,3.5,2.9,4.9v22.5c0,1.2,0.9,2.2,2.1,2.4C5.6,29.9,6,30.5,5.9,31C5.8,31.5,5.3,31.8,4.9,31.8z"/>
</g>
<g>
	<path class="st0" d="M5.3,31.9c-2.4-0.1-4.3-2.1-4.3-4.5c0-2.5,2.1-4.5,4.6-4.5s4.6,2,4.6,4.5h-2c0-1.4-1.2-2.5-2.6-2.5
		S2.9,26,2.9,27.4c0,1.3,1.1,2.4,2.4,2.5L5.3,31.9z"/>
</g>
<g>
	<path class="st0" d="M42.1,31.9h-37v-2h36V6.3H8.4v-2h33.8c0.6,0,1,0.4,1,1v25.6C43.1,31.4,42.7,31.9,42.1,31.9z"/>
</g>
<g>
	<path class="st0" d="M45.3,30.3h-2.4v-2h1.4V3.2H14.2v2.1h-2V2.2c0-0.6,0.4-1,1-1h32.1c0.6,0,1,0.4,1,1v27.1
		C46.3,29.9,45.9,30.3,45.3,30.3z"/>
</g>
<g>
	<path class="st0" d="M30.9,11.7H14.8c-0.6,0-1-0.4-1-1s0.4-1,1-1h16.1c0.6,0,1,0.4,1,1S31.4,11.7,30.9,11.7z"/>
</g>
<g>
	<path class="st0" d="M25.2,14.8H14.8c-0.6,0-1-0.4-1-1s0.4-1,1-1h10.4c0.6,0,1,0.4,1,1S25.8,14.8,25.2,14.8z"/>
</g>
<g>
	<path class="st0" d="M27.6,25.7H14.8c-0.6,0-1-0.4-1-1v-7c0-0.6,0.4-1,1-1h12.9c0.6,0,1,0.4,1,1v7C28.6,25.2,28.2,25.7,27.6,25.7z
		 M15.8,23.7h10.9v-5H15.8V23.7z"/>
</g>
</svg>
