<svg width="18" height="20" viewBox="0 0 18 20" fill="none" xmlns="http://www.w3.org/2000/svg">
<g clip-path="url(#clip0)">
<path d="M16.0876 16.248C16.8328 16.248 17.4934 16.856 17.4934 17.6052C17.4934 18.3543 16.9453 18.9623 16.1992 18.9623H8.1001" stroke="#124B9B" stroke-miterlimit="10" stroke-linecap="round"/>
<path d="M15.3 13.5337H16.2C16.9452 13.5337 17.55 14.1417 17.55 14.8908C17.55 15.64 16.9452 16.248 16.2 16.248H15.3" stroke="#124B9B" stroke-miterlimit="10" stroke-linecap="round"/>
<path d="M15.3 10.8193H16.2C16.9452 10.8193 17.55 11.4273 17.55 12.1765C17.55 12.9256 16.9452 13.5336 16.2 13.5336H15.3" stroke="#124B9B" stroke-miterlimit="10" stroke-linecap="round"/>
<path d="M15.3 8.10547H16.2C16.9452 8.10547 17.55 8.71347 17.55 9.46261C17.55 10.2118 16.9452 10.8198 16.2 10.8198H15.3" stroke="#124B9B" stroke-miterlimit="10" stroke-linecap="round"/>
<path d="M15.3 8.10547H10.8" stroke="#124B9B" stroke-miterlimit="10" stroke-linecap="round"/>
<path d="M10.8001 8.10528C10.8001 8.10528 11.6065 6.06957 11.6065 4.52424C11.6065 2.63962 10.1251 0.867188 10.1251 0.867188H8.55009C8.55009 0.867188 8.69679 3.25576 8.55009 4.03385C8.30169 5.34757 6.59979 9.01005 6.59979 9.01005H5.40009" stroke="#124B9B" stroke-miterlimit="10" stroke-linecap="round" stroke-linejoin="round"/>
<path d="M4.95007 8.10547H0.450073V18.9626H4.95007V8.10547Z" stroke="#124B9B" stroke-miterlimit="10" stroke-linecap="round" stroke-linejoin="round"/>
<path d="M5.40009 18.0576H6.30009L7.94979 18.9624" stroke="#124B9B" stroke-miterlimit="10" stroke-linecap="round"/>
</g>
<defs>
<clipPath id="clip0">
<rect width="18" height="19" fill="white" transform="translate(6.10352e-05 0.415039)"/>
</clipPath>
</defs>
</svg>
