<svg width="115" height="130" viewBox="0 0 115 130" fill="none" xmlns="http://www.w3.org/2000/svg">
<path d="M52.1396 89.0484C31.2436 89.0484 6.50055 89.0484 6.50055 89.0484C5.13631 89.0484 4.0293 87.9423 4.0293 86.5771V12.4472C4.0293 11.082 5.13536 9.97595 6.50055 9.97595H80.6314C81.9957 9.97595 83.1027 11.082 83.1027 12.4472C83.1027 12.4472 83.1027 32.5106 83.1027 52.5293" stroke="#2462BC" stroke-width="5" stroke-miterlimit="10" stroke-linecap="round" stroke-linejoin="round"/>
<path d="M82.1494 119.852C98.2849 119.852 111.365 106.772 111.365 90.6365C111.365 74.501 98.2849 61.4207 82.1494 61.4207C66.014 61.4207 52.9336 74.501 52.9336 90.6365C52.9336 106.772 66.014 119.852 82.1494 119.852Z" stroke="#2462BC" stroke-width="5" stroke-miterlimit="10" stroke-linecap="round" stroke-linejoin="round"/>
<path d="M4.0293 51.1003L21.6539 37.2864L34.5151 55.3873L62.1428 33.952" stroke="#2462BC" stroke-width="5" stroke-miterlimit="10" stroke-linecap="round" stroke-linejoin="round"/>
<path d="M82.1494 82.0624V101.116" stroke="#2462BC" stroke-width="5" stroke-miterlimit="10" stroke-linecap="round" stroke-linejoin="round"/>
<path d="M76.4336 85.5549L82.1497 80.7915L87.7067 85.3968" stroke="#2462BC" stroke-width="5" stroke-miterlimit="10" stroke-linecap="round" stroke-linejoin="round"/>
<path d="M57.6543 29.2173L64.747 31.4647L63.8629 38.6279" stroke="#2462BC" stroke-width="5" stroke-miterlimit="10" stroke-linecap="round" stroke-linejoin="round"/>
</svg>
