<svg width="20" height="22" viewBox="0 0 20 22" xmlns="http://www.w3.org/2000/svg">
<g clip-path="url(#clip0)">
<path fill-rule="evenodd" clip-rule="evenodd" d="M9.14076 2.87855L9.13507 2.87856L9.11283 2.88413L9.07937 2.89542L9.02919 2.90672L8.96778 2.91784L8.90085 2.93466L8.8172 2.95725L8.72782 2.97964L8.62741 3.00204L8.51578 3.03016L8.27582 3.09196L8.01357 3.16503L7.72902 3.24346L7.43331 3.32781L7.13202 3.4175L6.52387 3.61951L6.23377 3.72042L5.96039 3.8268L5.70378 3.93889L5.48065 4.0454L5.68705 3.92214L5.79297 3.84951L5.89894 3.77112L6.01602 3.68148L6.14425 3.57532L6.28365 3.46339L6.43974 3.33471L6.60698 3.18924L6.79656 3.02702L7.00842 2.85352L7.24813 2.65219L7.37636 2.54581L7.51018 2.43389L7.65516 2.31646L7.80567 2.19328L7.96176 2.0646L8.12902 1.93037L8.30191 1.79043L8.48582 1.64494L8.61413 1.59453L8.74816 1.56639L8.88209 1.57189L9.01605 1.5995L9.13902 1.64976L9.25079 1.72209L9.35136 1.8169L9.42972 1.93401L9.48009 2.06239L9.50824 2.20204L9.50843 2.33604L9.48067 2.46453L9.43065 2.58757L9.35262 2.69942L9.25786 2.80005L9.14076 2.87855ZM17.061 6.47529L16.8767 6.32463L16.7034 6.18539L16.5358 6.05147L16.3735 5.92325L16.2227 5.79501L16.0829 5.67799L15.9434 5.56645L15.8148 5.46065L15.58 5.25984L15.3622 5.08142L15.1722 4.91973L15.0046 4.77474L14.848 4.6465L14.7083 4.52948L14.5797 4.42896L14.4625 4.33438L14.3507 4.2563L14.2444 4.18376L14.0379 4.0556L13.82 3.95541L13.6972 3.90537L13.5687 3.85533L13.4291 3.81079L13.2726 3.76079L13.0994 3.70507L12.904 3.64958L12.6919 3.58843L12.4517 3.51628L12.1838 3.43843L11.8877 3.34938L11.7258 3.30508L11.5583 3.25489L11.3796 3.19938L11.1952 3.14368L10.9998 3.08265L10.7931 3.01574L10.5754 2.94905L10.352 2.87688L10.2348 2.79882L10.1397 2.70399L10.0614 2.59237L10.011 2.46399L9.98837 2.33557L9.98264 2.20158L10.0104 2.06185L10.0659 1.93331L10.144 1.81598L10.2387 1.72084L10.3503 1.64819L10.4786 1.59758L10.6069 1.56959L10.7409 1.5694L10.8805 1.59701L11.009 1.64726L11.1933 1.79223L11.3666 1.93721L11.5342 2.07097L11.6962 2.19919L11.8472 2.32174L11.987 2.43897L12.1266 2.55599L12.2551 2.662L12.4899 2.85712L12.7078 3.04103L12.8978 3.19717L13.0711 3.34216L13.2219 3.47594L13.3617 3.58747L13.4902 3.69348L13.6075 3.78258L13.7193 3.86614L13.8253 3.93868L14.0321 4.06136L14.25 4.16154L14.3728 4.21159L14.5012 4.26163L14.6409 4.30617L14.7973 4.35617L14.9705 4.41168L15.1659 4.46737L15.378 4.52853L15.6182 4.60067L15.8861 4.67853L16.1822 4.76758L16.3441 4.81187L16.5116 4.86206L16.6903 4.91757L16.8747 4.97307L17.0701 5.03425L17.2768 5.10095L17.4945 5.16785L17.7179 5.24002L17.8351 5.31809L17.9302 5.41845L18.0085 5.53007L18.0589 5.65297L18.0813 5.78693L18.0872 5.92092L18.0595 6.05511L18.0039 6.18364L17.9259 6.30097L17.8311 6.40161L17.7196 6.47446L17.5913 6.5304L17.4629 6.55285L17.329 6.55874L17.1893 6.53097L17.061 6.47529ZM17.636 14.3941L17.6804 14.1818L17.7191 13.9806L17.758 13.7851L17.7967 13.6008L17.8356 13.4276L17.8744 13.26L17.9409 12.9526L18.0019 12.6733L18.0573 12.422L18.1129 12.1986L18.1573 11.9973L18.196 11.8131L18.2348 11.6511L18.2625 11.5058L18.2848 11.3716L18.3068 11.2431L18.3179 11.1259L18.3286 10.9081L18.3173 10.6847L18.3059 10.5675L18.2834 10.4446L18.2608 10.3106L18.2326 10.1598L18.1934 9.99786L18.1542 9.81918L18.1092 9.61825L18.053 9.38917L17.9969 9.14358L17.9351 8.86449L17.8677 8.5574L17.8285 8.3898L17.7891 8.21688L17.7498 8.03251L17.7104 7.83711L17.6711 7.63617L17.6261 7.42406L17.6426 7.28434L17.6816 7.15029L17.7427 7.03278L17.832 6.92666L17.9323 6.8428L18.0494 6.78118L18.1834 6.74179L18.3228 6.72487L18.4624 6.74139L18.5964 6.7804L18.7138 6.84169L18.8144 6.92527L18.9037 7.03112L18.9653 7.14847L19.0047 7.28241L19.0216 7.42207L18.9772 7.63431L18.9385 7.83536L18.8996 8.03087L18.8609 8.21535L18.822 8.38839L18.7888 8.55609L18.7222 8.86337L18.6557 9.14264L18.6001 9.38839L18.5502 9.61763L18.5058 9.81868L18.4615 9.99748L18.4283 10.1595L18.4006 10.3104L18.3728 10.4445L18.3563 10.5675L18.3397 10.6847L18.3345 10.9081L18.3404 11.1258L18.3572 11.243L18.3741 11.3715L18.4023 11.5056L18.4304 11.6508L18.4641 11.8127L18.5089 11.9968L18.5539 12.1979L18.6044 12.4213L18.6607 12.6724L18.728 12.9515L18.7954 13.2587L18.8292 13.4262L18.8686 13.5993L18.9078 13.7835L18.9473 13.9789L18.9865 14.18L19.0315 14.3921L19.015 14.5318L18.976 14.6658L18.9148 14.7831L18.8257 14.8838L18.7254 14.9734L18.6081 15.035L18.4742 15.0742L18.3347 15.0911L18.1952 15.0746L18.0611 15.0358L17.9439 14.9745L17.8433 14.8852L17.7537 14.7848L17.6923 14.6677L17.6529 14.5337L17.636 14.3941ZM10.3971 18.9339L10.6203 18.8609L10.838 18.7935L11.0388 18.7318L11.2341 18.6702L11.4183 18.614L11.5968 18.558L11.7642 18.5075L11.926 18.4569L12.2218 18.3727L12.4895 18.2941L12.7239 18.2213L12.9414 18.1595L13.1312 18.1035L13.3042 18.0473L13.4604 18.0023L13.6055 17.9519L13.7338 17.907L13.8509 17.8566L14.0683 17.7503L14.2747 17.627L14.3808 17.5544L14.4923 17.476L14.6093 17.3809L14.7321 17.2802L14.8713 17.1626L15.0275 17.0339L15.2004 16.8942L15.3898 16.7319L15.6018 16.5529L15.8358 16.3514L15.964 16.2453L16.0978 16.1333L16.2428 16.0157L16.3935 15.8927L16.5496 15.764L16.7168 15.6297L16.8897 15.4842L17.0736 15.3387L17.2019 15.2827L17.3415 15.2546L17.4754 15.2601L17.6038 15.2822L17.7323 15.3377L17.844 15.4103L17.9391 15.5106L18.0174 15.6277L18.0734 15.7561L18.1015 15.8958L18.096 16.0298L18.0739 16.1583L18.0239 16.2813L17.9459 16.3932L17.8511 16.4938L17.7341 16.5722L17.5109 16.645L17.2934 16.7125L17.0925 16.7741L16.8972 16.8358L16.7132 16.8921L16.5345 16.9481L16.3671 16.9985L16.2053 17.0435L15.9097 17.1334L15.6473 17.212L15.4075 17.2793L15.1898 17.3466L15.0001 17.4027L14.8271 17.4531L14.671 17.5038L14.5315 17.5542L14.4031 17.5989L14.2805 17.6495L14.0684 17.7503L13.8622 17.8734L13.7562 17.9462L13.6446 18.0301L13.5276 18.1197L13.3994 18.2204L13.2599 18.3378L13.1038 18.4665L12.9366 18.612L12.747 18.7742L12.5352 18.9532L12.2954 19.149L12.1672 19.2554L12.0334 19.3673L11.8885 19.4848L11.738 19.6079L11.5819 19.7366L11.4145 19.8709L11.2418 20.0163L11.0577 20.1618L10.9294 20.218L10.7955 20.246L10.6559 20.2406L10.5275 20.2186L10.4047 20.1683L10.293 20.0904L10.1924 19.9956L10.114 19.8783L10.0579 19.7499L10.0299 19.6105L10.0353 19.4763L10.0573 19.348L10.1073 19.2195L10.1854 19.1077L10.2801 19.0126L10.3971 18.9339ZM2.4826 15.3762L2.66702 15.5213L2.84027 15.6663L3.00791 15.8L3.16995 15.9283L3.31528 16.0508L3.46059 16.168L3.59472 16.2796L3.72326 16.3854L3.96353 16.5805L4.17589 16.7589L4.36593 16.9206L4.53917 17.0656L4.69563 17.1938L4.83535 17.3053L4.96388 17.4114L5.08121 17.5007L5.19294 17.5785L5.29912 17.6511L5.51141 17.7735L5.29357 17.6733L5.1707 17.6233L5.04226 17.5787L4.90263 17.5287L4.74629 17.4842L4.56758 17.4287L4.3777 17.3732L4.15991 17.3121L3.91982 17.2454L3.65177 17.1675L3.35582 17.0842L3.19388 17.034L3.02636 16.9841L2.85325 16.9341L2.66337 16.8786L2.46794 16.8174L2.26692 16.7562L2.04913 16.6896L1.82574 16.6172L1.70842 16.5393L1.61339 16.4445L1.53509 16.3329L1.48461 16.2043L1.46207 16.0759L1.45629 15.9417L1.48404 15.8021L1.53969 15.6736L1.61766 15.5563L1.71242 15.4554L1.82398 15.3828L1.95229 15.3266L2.08063 15.2987L2.21455 15.2985L2.35415 15.3261L2.4826 15.3762ZM5.51135 17.7734L5.7292 17.8793L5.84647 17.9239L5.97492 17.9739L6.12014 18.0184L6.27089 18.0684L6.44401 18.124L6.63943 18.1797L6.85163 18.2408L7.09172 18.3075L7.35977 18.3853L7.65572 18.4686L7.81766 18.5186L7.98518 18.5686L8.16388 18.6186L8.34812 18.6743L8.54355 18.7353L8.74467 18.7965L8.96236 18.8632L9.18575 18.9355L9.30301 19.0136L9.39805 19.1084L9.4764 19.22L9.52677 19.3484L9.5549 19.4766L9.55509 19.6108L9.52735 19.7503L9.47733 19.8788L9.39931 19.9964L9.30455 20.0915L9.1932 20.1697L9.06489 20.2203L8.93654 20.2483L8.80247 20.2484L8.66303 20.2208L8.53457 20.1706L8.35005 20.0256L8.17686 19.8864L8.00922 19.7525L7.84717 19.6242L7.69631 19.5017L7.55659 19.3847L7.41687 19.2731L7.28834 19.1671L7.05359 18.9665L6.84124 18.7936L6.64566 18.6319L6.47801 18.4869L6.32155 18.3587L6.18182 18.2417L6.0533 18.1411L5.93597 18.052L5.82418 17.9685L5.718 17.8959L5.51135 17.7734ZM1.90188 7.39589L1.85753 7.60834L1.81876 7.81487L1.77997 8.01059L1.74116 8.19486L1.70235 8.37365L1.6691 8.54119L1.60254 8.85417L1.53592 9.13344L1.4805 9.38494L1.43058 9.61396L1.38621 9.81502L1.34181 9.99951L1.30856 10.1615L1.28089 10.3123L1.25319 10.4465L1.2366 10.5749L1.22006 10.6922L1.21479 10.9156L1.22069 11.139L1.23757 11.2562L1.25452 11.3846L1.2826 11.5186L1.31071 11.6693L1.34443 11.8369L1.38934 12.0155L1.43429 12.2222L1.48485 12.4455L1.541 12.7023L1.60841 12.9814L1.67586 13.294L1.70958 13.4616L1.7489 13.6345L1.78823 13.8244L1.82758 14.0198L1.86694 14.2209L1.9119 14.4385L1.90092 14.5782L1.85646 14.7123L1.7952 14.8298L1.71162 14.9304L1.61125 15.0198L1.48855 15.0815L1.36022 15.1208L1.22069 15.1378L1.0811 15.1212L0.947077 15.0822L0.829784 15.0209L0.723577 14.9318L0.639709 14.8315L0.578119 14.7141L0.53886 14.5802L0.521896 14.4405L0.566243 14.2227L0.605025 14.0215L0.643816 13.826L0.682614 13.636L0.721436 13.463L0.754677 13.2953L0.821244 12.9825L0.887806 12.7033L0.943275 12.4463L0.993203 12.2228L1.03757 12.016L1.08197 11.8372L1.11521 11.6696L1.14289 11.5188L1.17064 11.3848L1.18717 11.2563L1.20377 11.139L1.21463 10.9156L1.20313 10.6922L1.1862 10.575L1.1693 10.4466L1.14117 10.3125L1.11307 10.1618L1.07936 9.99988L1.03444 9.81552L0.989493 9.61459L0.938922 9.38571L0.88273 9.13437L0.815374 8.85529L0.747917 8.5425L0.714199 8.37505L0.674877 8.19638L0.635546 8.01222L0.5962 7.81661L0.556838 7.61019L0.511879 7.39786L0.528446 7.25836L0.567324 7.12415L0.62858 7.00684L0.712162 6.90623L0.818115 6.81661L0.935233 6.75514L1.06915 6.71575L1.20868 6.69883L1.34827 6.71536L1.4767 6.75437L1.59959 6.8155L1.7002 6.90482L1.78407 7.0052L1.84566 7.12233L1.89051 7.25642L1.90188 7.39589ZM5.4807 4.04546L2.46991 6.45131L2.3416 6.50725L2.20208 6.53546L2.0681 6.53012L1.93969 6.50783L1.81123 6.45225L1.69946 6.37971L1.60441 6.27935L1.52611 6.16224L1.47014 6.03387L1.44205 5.89421L1.44745 5.76021L1.46957 5.63172L1.51963 5.5032L1.59761 5.39135L1.69238 5.29626L1.80947 5.21786L2.03265 5.14506L2.24467 5.07776L2.4511 5.01601L2.64635 4.95427L2.83049 4.89825L3.00905 4.84756L3.17642 4.7971L3.33263 4.74666L3.62834 4.66252L3.89617 4.5839L4.13607 4.51107L4.34809 4.44931L4.54335 4.39307L4.71632 4.3426L4.87252 4.29215L5.01201 4.24173L5.14032 4.19681L5.26305 4.14642L5.4807 4.04546Z"/>
<path fill-rule="evenodd" clip-rule="evenodd" d="M2.13916 5.48005L2.34569 5.49078L2.5411 5.50174L2.72534 5.51271L2.90398 5.52349L3.23333 5.55098L3.5292 5.57282L3.79716 5.58916L4.03719 5.61129L4.25491 5.62771L4.45029 5.64969L4.62334 5.66068L4.77963 5.67169L4.91921 5.68252L5.0476 5.68804L5.1648 5.68787L5.27641 5.68201L5.4829 5.665L5.28204 5.71002L5.176 5.73813L5.05885 5.77728L4.9417 5.81664L4.80781 5.8726L4.66274 5.92877L4.50097 5.996L4.32245 6.06874L4.12164 6.15275L3.89849 6.24802L3.64745 6.34908L3.37408 6.4612L3.06725 6.5844L2.90548 6.65163L2.73254 6.71908L2.54842 6.79183L2.35872 6.86479L2.21358 6.87054L2.07959 6.85401L1.95114 6.80945L1.83943 6.74261L1.7388 6.6478L1.65493 6.54173L1.59333 6.41905L1.55965 6.27941L1.55385 6.13419L1.57043 6.00017L1.62049 5.87164L1.68729 5.75981L1.77646 5.65919L1.88242 5.57511L2.00513 5.51363L2.13916 5.48005ZM10.9292 4.46211L11.119 4.53453L11.3034 4.60676L11.4709 4.67921L11.6386 4.74597L11.94 4.86851L12.2137 4.97965L12.4651 5.08548L12.6829 5.18013L12.884 5.26356L13.0628 5.34154L13.2247 5.40831L13.3699 5.46407L13.5039 5.51965L13.6214 5.56421L13.7331 5.59755L13.8391 5.6309L14.0457 5.67534L13.8279 5.65318L13.5935 5.64249L13.3368 5.63716L13.0688 5.64323L12.5163 5.67182L12.2373 5.68894L11.9693 5.71179L11.7183 5.73441L11.4783 5.75723L11.266 5.77979L11.0764 5.80233L10.9982 5.81367L10.9256 5.81932L10.8586 5.82511L10.8085 5.83621L10.7638 5.84197L10.736 5.84201L10.7135 5.84758L10.708 5.84758L10.574 5.80879L10.451 5.75299L10.3448 5.66942L10.2554 5.56905L10.1883 5.45193L10.1434 5.32354L10.1208 5.18942L10.1318 5.04417L10.1708 4.91012L10.2263 4.78707L10.3098 4.68097L10.4102 4.59136L10.5274 4.52419L10.6557 4.47379L10.7896 4.45687L10.9292 4.46211ZM14.0456 5.67529L14.2522 5.69726L14.3639 5.70264L14.4811 5.69693L14.6094 5.69675L14.749 5.68532L14.9052 5.67407L15.0783 5.66259L15.2736 5.64558L15.4914 5.62855L15.7314 5.61149L15.9991 5.58884L16.2951 5.56595L16.6243 5.54876L16.7974 5.53728L16.9872 5.52598L17.1768 5.51447L17.3834 5.50294L17.5174 5.54195L17.6403 5.59754L17.7466 5.68111L17.8359 5.78168L17.9031 5.89881L17.948 6.0272L17.9706 6.16116L17.9596 6.30641L17.9206 6.44062L17.8651 6.56346L17.7815 6.67531L17.6812 6.76492L17.564 6.83209L17.4356 6.877L17.3017 6.89392L17.1621 6.88842L14.0456 5.67529ZM5.483 5.65951L5.68951 5.61448L5.7955 5.58637L5.90711 5.54723L6.02985 5.50807L6.16374 5.4519L6.30881 5.39594L6.47057 5.32871L6.6491 5.25576L6.84991 5.17175L7.07306 5.07648L7.31845 4.97558L7.59736 4.86345L7.89861 4.74006L8.06596 4.67282L8.23896 4.60558L8.42297 4.53262L8.61267 4.45987L8.75227 4.45413L8.88621 4.47066L9.01467 4.5207L9.13192 4.58753L9.23248 4.67665L9.31651 4.78272L9.37242 4.90561L9.41157 5.03955L9.41747 5.18477L9.40095 5.31879L9.35094 5.44732L9.28394 5.56463L9.19487 5.66547L9.08886 5.74934L8.96626 5.81097L8.82669 5.84467L8.62021 5.83373L8.43039 5.82276L8.24073 5.812L8.06762 5.80101L7.73827 5.77352L7.4424 5.75168L7.17443 5.72959L6.93441 5.71321L6.71668 5.69125L6.52131 5.67481L6.34825 5.65833L6.19196 5.64732L6.05239 5.64198L5.91841 5.63663L5.80121 5.63679L5.68959 5.63695L5.483 5.65951Z"/>
<path fill-rule="evenodd" clip-rule="evenodd" d="M10.4469 2.8152L10.2852 2.94943L10.1123 3.09491L9.93942 3.24038L9.7555 3.3748L10.4597 3.92112L10.4486 4.06062L10.4041 4.19483L10.3429 4.31214L10.2593 4.41824L10.159 4.50232L10.0362 4.56949L9.90788 4.60866L9.7685 4.62558L9.62888 4.61475L9.49489 4.57021L9.37745 4.50892L9.2714 4.42534L9.18759 4.32497L9.12024 4.20209L9.0811 4.07369L9.06418 3.93403L9.75555 3.37464L9.6606 3.34128L9.57686 3.29666L9.50982 3.24079L9.43708 3.17959L9.36453 3.107L9.28053 3.0234L9.17996 2.92858L9.05143 2.82257L9.06246 2.68307L9.10687 2.54896L9.16813 2.43165L9.25166 2.33104L9.35197 2.24143L9.47478 2.17979L9.60311 2.14063L9.74249 2.1237L9.88765 2.13473L10.0161 2.17908L10.1391 2.24036L10.2396 2.32389L10.3291 2.42446L10.3905 2.54714L10.4299 2.67554L10.4469 2.8152ZM4.16439 12.598L4.33715 12.4023L4.49876 12.2233L4.65478 12.0444L4.80522 11.8767L4.95015 11.72L5.08949 11.5691L5.21768 11.4292L5.34028 11.2951L5.4573 11.1665L5.57433 11.0433L5.78059 10.8196L5.96452 10.6239L6.13731 10.4449L6.28223 10.2828L6.42157 10.1318L6.53859 9.99752L6.65003 9.8746L6.74476 9.75704L6.83392 9.64518L6.98434 9.42725L6.86743 9.6341L6.75056 9.86322L6.62812 10.1146L6.5057 10.3774L6.26648 10.9251L6.03841 11.4895L5.92717 11.7576L5.82706 12.0259L5.73252 12.2775L5.64354 12.512L5.5657 12.7243L5.49342 12.9089L5.46564 12.9926L5.43786 13.0709L5.41561 13.1379L5.39333 13.1937L9.76503 13.8968L10.0273 13.8909L10.3121 13.8738L10.6133 13.8511L10.9315 13.8171L11.2551 13.772L11.5845 13.7267L12.2428 13.6253L12.561 13.5689L12.8679 13.5127L13.1526 13.4563L13.4148 13.4057L13.6548 13.3552L13.7609 13.3327L13.8613 13.3159L13.9505 13.2933L14.0344 13.2764L14.1013 13.2596L14.1627 13.2485L12.5496 9.40815L12.4097 9.19063L12.2475 8.9617L12.0631 8.72752L11.8617 8.48213L11.4368 7.99113L11.2187 7.75125L11.0008 7.51712L10.7884 7.29401L10.5871 7.08211L10.3914 6.89248L10.2181 6.71953L10.1398 6.63592L10.0673 6.56903L10.0002 6.50213L9.93869 6.44076L9.88843 6.39061L9.84366 6.34594L9.80464 6.31249L9.77666 6.28457L6.98461 9.42741L7.11825 9.19826L7.17949 9.06972L7.24072 8.93548L7.30752 8.78467L7.37424 8.61708L7.45212 8.43254L7.52996 8.22574L7.61895 7.99666L7.71907 7.73961L7.83028 7.45473L7.89149 7.30372L7.95269 7.14168L8.0194 6.96839L8.09169 6.78956L8.16956 6.59969L8.24742 6.40392L8.3308 6.19732L8.41991 5.97926L8.51448 5.75018L8.61458 5.50985L8.70363 5.39799L8.80415 5.30858L8.92121 5.24121L9.04954 5.20204L9.18343 5.18513L9.31751 5.19048L9.45149 5.22948L9.57996 5.2906L9.686 5.37438L9.77002 5.46922L9.85909 5.37413L9.9651 5.29005L10.0934 5.22857L10.2217 5.19489L10.3556 5.18346L10.4896 5.19999L10.618 5.24454L10.7355 5.31137L10.836 5.40049L10.9254 5.5121L11.0264 5.75214L11.1214 5.97542L11.2056 6.19323L11.2896 6.39959L11.3735 6.59513L11.4465 6.78479L11.5191 6.96341L11.5863 7.13097L11.648 7.29284L11.7096 7.44916L11.8217 7.72818L11.9225 7.98495L12.0065 8.21378L12.0905 8.41481L12.1634 8.59892L12.2306 8.76632L12.2977 8.91146L12.3594 9.05106L12.421 9.17394L12.5552 9.40271L12.7064 9.62021L12.7902 9.73182L12.8853 9.84911L12.9914 9.97172L13.1087 10.1056L13.243 10.2507L13.3939 10.4125L13.5617 10.591L13.7461 10.7917L13.9529 11.0093L14.0648 11.1319L14.1821 11.2602L14.3107 11.394L14.4393 11.5336L14.5734 11.6843L14.7188 11.8403L14.8699 12.0078L15.0263 12.1805L15.1884 12.3647L15.3618 12.5544L15.4234 12.6828L15.4625 12.811L15.4684 12.9451L15.4519 13.0791L15.4129 13.2076L15.3461 13.325L15.2568 13.4258L15.1455 13.5152L15.0282 13.5713L14.9056 13.6105L14.9391 13.6831L14.9615 13.7611L14.9728 13.8394L14.9785 13.9231L14.962 14.0628L14.9232 14.1913L14.862 14.3144L14.7727 14.415L14.6724 14.4988L14.5496 14.5605L14.4214 14.6054L14.2763 14.6166L14.0027 14.5725L13.7401 14.5281L13.489 14.4893L13.2489 14.4451L13.0256 14.4062L12.8077 14.373L12.6013 14.3343L12.4114 14.3011L12.2271 14.2679L12.0484 14.2346L11.881 14.2069L11.7246 14.1792L11.4343 14.1238L11.1774 14.0795L10.9431 14.0351L10.731 13.9964L10.5411 13.9687L10.368 13.941L10.2061 13.9245L10.0498 13.908L9.76519 13.8971L9.48043 13.9032L9.32983 13.9202L9.16799 13.9371L8.98924 13.9597L8.79963 13.9879L8.58741 14.0217L8.35316 14.061L8.09087 14.1061L7.8007 14.1567L7.64446 14.1849L7.47705 14.2131L7.30405 14.2413L7.1143 14.2751L6.92453 14.3032L6.71806 14.337L6.50042 14.3765L6.27159 14.4103L6.03719 14.4496L5.78607 14.4892L5.51818 14.5285L5.2447 14.5681L5.10512 14.5516L4.97668 14.5126L4.8538 14.4513L4.75318 14.3622L4.66932 14.2618L4.60773 14.1445L4.56288 14.0105L4.5515 13.8709L4.56251 13.7536L4.59025 13.6474L4.48412 13.614L4.38355 13.5584L4.27182 13.4749L4.18235 13.3688L4.12076 13.2517L4.07592 13.1233L4.05902 12.9893L4.07001 12.8551L4.1033 12.7266L4.16439 12.598Z"/>
<path fill-rule="evenodd" clip-rule="evenodd" d="M2.2419 7.06043L2.24191 7.06597L2.24194 7.08823L2.24757 7.11618L2.24763 7.16092L2.25329 7.21113L2.25897 7.27258L2.26461 7.34511L2.27031 7.42882L2.28734 7.61323L2.3044 7.81989L2.32703 8.04881L2.35532 8.29445L2.41742 8.8027L2.45684 9.05386L2.50186 9.30522L2.54684 9.53411L2.59181 9.75197L2.64791 9.94159L2.67592 10.0255L2.70397 10.1035L4.45468 12.6311L4.49394 12.7652L4.50532 12.9047L4.48874 13.0389L4.44427 13.1674L4.38306 13.2847L4.29384 13.3853L4.18793 13.4692L4.06523 13.5366L3.92573 13.5758L3.79177 13.5872L3.65783 13.5706L3.52934 13.5316L3.41204 13.4648L3.30584 13.3812L3.22196 13.2696L3.15482 13.1467L2.70397 10.1035L2.62 9.92491L2.51923 9.7296L2.40168 9.52877L2.27301 9.32227L1.98216 8.89827L1.83118 8.69185L1.68017 8.49661L1.53475 8.30685L1.40053 8.13385L1.27751 7.97761L1.16571 7.84378L1.11537 7.78239L1.07064 7.73218L1.0371 7.68749L1.00357 7.64855L0.975575 7.61509L0.95883 7.59285L0.947637 7.58163L0.94204 7.57594L0.902773 7.43652L0.896994 7.30253L0.913569 7.1683L0.952455 7.03979L1.0193 6.92248L1.10287 6.81616L1.20878 6.73229L1.33707 6.66511L1.47098 6.62588L1.61054 6.61999L1.74453 6.63652L1.86738 6.67559L1.98468 6.74237L2.09088 6.82599L2.17476 6.93207L2.2419 7.06043Z"/>
<path fill-rule="evenodd" clip-rule="evenodd" d="M18.5753 7.59564L18.4694 7.74672L18.3637 7.8921L18.1742 8.16031L17.9959 8.40075L17.8344 8.61891L17.6895 8.81457L17.5559 8.99349L17.4387 9.15007L17.333 9.29545L17.2383 9.41834L17.149 9.53569L17.0767 9.64199L17.0099 9.73704L16.9541 9.83208L16.904 9.91587L16.8261 10.0892L16.7649 10.268L16.7428 10.363L16.7207 10.469L16.6984 10.5865L16.6819 10.7149L16.6598 10.8544L16.6433 11.0109L16.6211 11.1896L16.5992 11.3851L16.5715 11.6031L16.5441 11.8433L16.5108 12.1113L16.4722 12.4075L16.428 12.737L16.4004 12.9103L16.3728 13.0945L16.306 13.2231L16.2223 13.3294L16.1165 13.4188L15.9994 13.4804L15.8711 13.5253L15.737 13.5423L15.5976 13.5312L15.4635 13.4924L15.3407 13.4256L15.2344 13.3363L15.1451 13.2302L15.0835 13.1131L15.0441 12.9847L15.0272 12.8507L15.0383 12.711L15.077 12.577L15.1829 12.4261L15.2889 12.2807L15.4781 12.0123L15.6564 11.7718L15.818 11.5539L15.9628 11.358L16.0967 11.1849L16.2136 11.0227L16.3195 10.8829L16.4143 10.7543L16.4978 10.6424L16.5758 10.5364L16.6369 10.4413L16.6982 10.3463L16.7483 10.2625L16.8262 10.0892L16.8874 9.91035L16.9095 9.81536L16.9318 9.70914L16.9484 9.5919L16.9704 9.46341L16.987 9.32369L17.0092 9.1674L17.0257 8.98865L17.0532 8.79295L17.0753 8.5752L17.1084 8.32948L17.1415 8.06128L17.1801 7.76528L17.2243 7.43561L17.252 7.26238L17.2797 7.07812L17.3465 6.95505L17.43 6.84895L17.5303 6.75934L17.6474 6.69787L17.7757 6.65849L17.9098 6.64158L18.0492 6.65262L18.1833 6.69141L18.3061 6.75824L18.4124 6.84202L18.5017 6.94238L18.5633 7.05952L18.6082 7.18791L18.6251 7.32188L18.6141 7.46159L18.5753 7.59564ZM16.5912 13.7198L16.6475 13.9431L16.7092 14.172L16.827 14.6409L17.7309 14.3325L17.8481 14.4105L17.9432 14.5109L18.016 14.6225L18.0663 14.7509L18.0943 14.8793L18.0945 15.0133L18.0669 15.1531L18.0112 15.2816L17.9331 15.3989L17.8328 15.494L17.7213 15.5669L17.5987 15.6173L17.4703 15.6454L17.3362 15.6456L17.1968 15.6178L17.0683 15.5621L16.827 14.6409L16.7768 14.6577L16.7377 14.6745L16.6707 14.697L16.615 14.7138L16.5591 14.7362L16.5202 14.7475L16.4755 14.7643L16.4198 14.7811L16.3526 14.8034L16.2747 14.826L16.1798 14.8596L16.0625 14.8988L15.9287 14.9437L15.8114 14.8656L15.7164 14.7653L15.6435 14.6537L15.5932 14.5308L15.5652 14.3968L15.565 14.2628L15.5926 14.1286L15.6484 14.0001L15.7264 13.8827L15.8267 13.7876L15.9383 13.715L16.0609 13.6646L16.1949 13.6365L16.3288 13.6363L16.4628 13.664L16.5912 13.7198Z"/>
<path fill-rule="evenodd" clip-rule="evenodd" d="M15.1531 15.0734L15.1475 15.0789L15.1308 15.0902L15.1029 15.107L15.0638 15.1293L15.0136 15.1628L14.958 15.1964L14.8911 15.2412L14.8185 15.2861L14.6568 15.3925L14.4671 15.5155L14.2665 15.6555L14.0489 15.8011L13.6084 16.1033L13.3908 16.2599L13.1847 16.4111L12.9951 16.5566L12.8222 16.6964L12.6772 16.8195L12.6159 16.8811L12.5658 16.9314L12.6884 16.7748L12.7497 16.6854L12.8109 16.5904L12.8721 16.4841L12.9334 16.3668L13.0059 16.2327L13.0836 16.0874L13.1673 15.9196L13.2617 15.7352L13.3676 15.5339L13.4844 15.3048L13.6181 15.0532L13.7629 14.7793L13.8463 14.6285L13.9298 14.4776L14.019 14.3099L14.1134 14.1422L14.2194 14.0471L14.3365 13.98L14.4593 13.935L14.5932 13.9126L14.7273 13.9179L14.8557 13.9513L14.9842 14.007L15.0957 14.0906L15.1908 14.1965L15.2636 14.3138L15.3085 14.4365L15.3309 14.5706L15.3256 14.7046L15.2923 14.8331L15.2365 14.9616L15.1531 15.0734ZM3.59841 14.9836L3.50346 14.9503L3.42529 14.9224L3.28564 14.8613L3.16837 14.8167L3.07341 14.7721L2.98963 14.7388L2.90587 14.7109L2.81093 14.6888L2.70484 14.6777L2.47728 15.5995L2.34897 15.6557L2.21509 15.6838L2.08112 15.684L1.94711 15.6563L1.82425 15.6062L1.71248 15.5337L1.61185 15.4389L1.53355 15.3218L1.47753 15.1934L1.45498 15.0537L1.45479 14.9197L1.47696 14.7912L1.52702 14.6627L1.59941 14.5509L1.69417 14.4502L1.81126 14.3718L2.70479 14.6778L2.71589 14.6275L2.72142 14.5828L2.73252 14.527L2.74362 14.4768L2.76031 14.4208L2.77144 14.3873L2.78255 14.3425L2.79365 14.2867L2.81586 14.2197L2.8325 14.136L2.86024 14.0297L2.89355 13.9067L2.92682 13.7614L3.05512 13.7055L3.19465 13.683L3.32862 13.6828L3.46263 13.7049L3.58549 13.7549L3.69721 13.8275L3.79784 13.9221L3.87614 14.0394L3.9321 14.1678L3.96024 14.3017L3.96043 14.4357L3.93268 14.5699L3.88261 14.6928L3.81022 14.8046L3.71546 14.9052L3.59841 14.9836ZM8.56753 19.7295L8.47239 19.5621L8.38274 19.4003L8.29331 19.244L8.21491 19.0934L8.06383 18.8199L7.9295 18.5687L7.80639 18.3455L7.70002 18.1389L7.60486 17.9603L7.5209 17.7929L7.44256 17.6478L7.36982 17.5139L7.30264 17.3966L7.24106 17.2907L7.17951 17.1958L7.11796 17.1122L6.99495 16.956L7.13471 17.0955L7.21294 17.1623L7.30236 17.2347L7.40295 17.3072L7.51468 17.3853L7.63759 17.4689L7.77728 17.5579L7.92811 17.6639L8.10131 17.7754L8.29684 17.9036L8.50909 18.0428L8.74383 18.1988L9.00084 18.3772L9.14038 18.472L9.28567 18.5723L9.43667 18.6782L9.59869 18.7897L9.68252 18.9013L9.73843 19.0297L9.7723 19.1581L9.77803 19.2921L9.75597 19.4261L9.71144 19.5547L9.64465 19.6722L9.5499 19.7783L9.43835 19.8622L9.31005 19.9183L9.18171 19.952L9.0478 19.9577L8.91369 19.9357L8.79094 19.8911L8.67349 19.8243L8.56753 19.7295ZM6.995 16.956L6.85524 16.8165L6.777 16.7441L6.68759 16.6772L6.587 16.6047L6.47527 16.5266L6.35235 16.4375L6.21266 16.3482L6.05625 16.248L5.88863 16.131L5.69311 16.0028L5.4808 15.8634L5.24612 15.7073L4.98351 15.529L4.84381 15.4342L4.69852 15.3339L4.54763 15.228L4.38561 15.1167L4.30173 15.005L4.24571 14.8767L4.21205 14.7483L4.20627 14.6141L4.22843 14.4801L4.27292 14.3571L4.33971 14.2397L4.43446 14.1336L4.54596 14.0495L4.67425 13.988L4.80259 13.9544L4.94214 13.9485L5.07055 13.9708L5.20459 14.0151L5.32189 14.0819L5.4281 14.1767L5.52324 14.3443L5.6128 14.5116L5.70232 14.6622L5.78068 14.813L5.9318 15.0865L6.06613 15.3375L6.18366 15.5665L6.29003 15.7674L6.39078 15.9516L6.47474 16.1135L6.55309 16.2641L6.62028 16.3924L6.68741 16.5096L6.74898 16.6157L6.81054 16.7105L6.87209 16.7997L6.995 16.956ZM12.5657 16.9313L11.0179 19.7148L10.9119 19.8099L10.7949 19.8827L10.672 19.9276L10.5381 19.9501L10.4042 19.9447L10.2758 19.9112L10.1473 19.8556L10.0355 19.7721L9.94048 19.666L9.86766 19.5489L9.82298 19.426L9.80033 19.292L9.80583 19.158L9.83913 19.0295L9.89468 18.901L9.97819 18.7891L10.1344 18.6772L10.2848 18.5708L10.4298 18.4646L10.5693 18.3694L10.8258 18.1903L11.0601 18.0336L11.272 17.8881L11.4671 17.7593L11.6344 17.6474L11.7905 17.5411L11.93 17.4515L12.0526 17.3676L12.1642 17.2892L12.2589 17.2108L12.3483 17.1437L12.4261 17.0711L12.5657 16.9313Z"/>
<path fill-rule="evenodd" clip-rule="evenodd" d="M9.76752 3.93318L9.87914 3.93872L9.98514 3.95534L10.0856 3.97746L10.1863 4.01631L10.2755 4.06091L10.365 4.11101L10.4488 4.1724L10.5213 4.23924L10.5941 4.31737L10.6557 4.39552L10.706 4.48492L10.7508 4.57406L10.7845 4.67451L10.8123 4.77518L10.8292 4.88114L10.8351 4.98732L10.8296 5.09906L10.8129 5.20507L10.7854 5.30581L10.752 5.40636L10.7074 5.49563L10.6574 5.58517L10.596 5.66898L10.5235 5.74183L10.4511 5.81442L10.3675 5.87599L10.2782 5.92639L10.189 5.97126L10.0884 6.00485L9.9881 6.033L9.88214 6.04987L9.77054 6.05557L9.6644 6.05018L9.55819 6.03361L9.45776 6.00574L9.35728 5.97244L9.26779 5.92783L9.17851 5.87768L9.10029 5.81634L9.022 5.74396L8.95493 5.67131L8.89339 5.58768L8.84302 5.49828L8.79824 5.40914L8.75908 5.30869L8.73668 5.20802L8.71961 5.10206L8.71391 4.99034L8.7193 4.88414L8.73607 4.77813L8.75818 4.67739L8.79705 4.57684L8.84158 4.48757L8.8917 4.39803L8.95301 4.31971L9.01986 4.24138L9.09795 4.17432L9.176 4.1127L9.26514 4.06235L9.35449 4.01749L9.45488 3.97836L9.55523 3.95595L9.66139 3.93903L9.76752 3.93318Z"/>
<path fill-rule="evenodd" clip-rule="evenodd" d="M9.76752 3.93314L9.76732 3.79361L9.88996 3.79897L10.0129 3.81557L10.1246 3.84337L10.2363 3.8822L10.1863 4.01627L10.1305 4.1448L10.0468 4.11717L9.95734 4.09483L9.86263 4.08394L9.76772 4.07832L9.76752 3.93314Z"/>
<path fill-rule="evenodd" clip-rule="evenodd" d="M10.1863 4.01623L10.2363 3.88217L10.3423 3.93229L10.443 3.9936L10.5378 4.06047L10.6218 4.13858L10.5213 4.23917L10.421 4.34002L10.354 4.27866L10.287 4.22848L10.1305 4.14477L10.1863 4.01623Z"/>
<path fill-rule="evenodd" clip-rule="evenodd" d="M10.5213 4.23922L10.6218 4.13864L10.6999 4.22225L10.7727 4.31161L10.8343 4.41197L10.8847 4.51814L10.7508 4.57404L10.6225 4.6302L10.5329 4.4794L10.4826 4.40698L10.421 4.34007L10.5213 4.23922Z"/>
<path fill-rule="evenodd" clip-rule="evenodd" d="M10.7508 4.57403L10.8847 4.51813L10.9238 4.62976L10.952 4.74694L10.9744 4.86418L10.9802 4.98709L10.8351 4.98729L10.6955 4.98749L10.6899 4.89254L10.6785 4.80309L10.6225 4.63019L10.7508 4.57403Z"/>
<path fill-rule="evenodd" clip-rule="evenodd" d="M10.8351 4.9873L10.9802 4.98709L10.9747 5.10986L10.9526 5.23286L10.9248 5.35012L10.886 5.45636L10.752 5.40633L10.6236 5.35055L10.6512 5.26678L10.679 5.17748L10.6901 5.08246L10.6955 4.9875L10.8351 4.9873Z"/>
<path fill-rule="evenodd" clip-rule="evenodd" d="M10.752 5.40636L10.886 5.4564L10.8359 5.56245L10.7746 5.66325L10.7021 5.75831L10.6243 5.84214L10.5235 5.74184L10.4229 5.64127L10.4843 5.57419L10.5344 5.50712L10.6236 5.35058L10.752 5.40636Z"/>
<path fill-rule="evenodd" clip-rule="evenodd" d="M10.5235 5.7418L10.6243 5.8421L10.5405 5.92045L10.4458 5.99312L10.3453 6.05472L10.2394 6.1051L10.189 5.97122L10.1329 5.8428L10.2892 5.75316L10.3561 5.70279L10.4229 5.64123L10.5235 5.7418Z"/>
<path fill-rule="evenodd" clip-rule="evenodd" d="M10.189 5.97126L10.2394 6.10513L10.1334 6.14432L10.0162 6.17245L9.89337 6.19509L9.77074 6.20075L9.77054 6.05558L9.77034 5.91588L9.86523 5.91021L9.95991 5.89884L10.0493 5.87075L10.1329 5.84283L10.189 5.97126Z"/>
<path fill-rule="evenodd" clip-rule="evenodd" d="M9.77054 6.05554L9.77074 6.20072L9.64784 6.19541L9.53065 6.1731L9.41325 6.14531L9.30174 6.10643L9.35728 5.97241L9.41282 5.84382L9.58599 5.89934L9.67538 5.91045L9.77034 5.91585L9.77054 6.05554Z"/>
<path fill-rule="evenodd" clip-rule="evenodd" d="M9.35727 5.9724L9.30173 6.10642L9.19553 6.05635L9.09501 5.99503L9.00548 5.92262L8.9217 5.84451L9.022 5.74392L9.12229 5.64307L9.18949 5.70444L9.26206 5.75461L9.41282 5.84381L9.35727 5.9724Z"/>
<path fill-rule="evenodd" clip-rule="evenodd" d="M9.022 5.74398L8.9217 5.84457L8.8434 5.76096L8.7763 5.66609L8.71473 5.56547L8.66439 5.45956L8.79824 5.40915L8.92654 5.353L9.01044 5.50929L9.06093 5.57622L9.12229 5.64313L9.022 5.74398Z"/>
<path fill-rule="evenodd" clip-rule="evenodd" d="M8.79823 5.40911L8.66439 5.45952L8.62521 5.34785L8.59711 5.23621L8.58022 5.11326L8.5743 4.99051L8.71391 4.99031L8.85906 4.99011L8.86468 5.08505L8.87604 5.18005L8.89863 5.26928L8.92654 5.35296L8.79823 5.40911Z"/>
<path fill-rule="evenodd" clip-rule="evenodd" d="M8.71391 4.99027L8.5743 4.99047L8.57987 4.86754L8.59642 4.75025L8.6242 4.63299L8.66305 4.52125L8.79705 4.57677L8.92551 4.63256L8.89785 4.71632L8.87551 4.80561L8.86441 4.8951L8.85906 4.99006L8.71391 4.99027Z"/>
<path fill-rule="evenodd" clip-rule="evenodd" d="M8.79705 4.57677L8.66305 4.52126L8.7131 4.42048L8.77438 4.3199L8.84121 4.22484L8.91928 4.14101L9.01986 4.24131L9.12044 4.34187L9.05927 4.40896L9.00896 4.47603L8.96458 4.55427L8.92551 4.63256L8.79705 4.57677Z"/>
<path fill-rule="evenodd" clip-rule="evenodd" d="M9.01986 4.24138L8.91928 4.14108L9.00284 4.06272L9.0977 3.99559L9.198 3.93399L9.29857 3.88357L9.35449 4.01749L9.41041 4.14586L9.33248 4.18517L9.25436 4.23002L9.18747 4.28039L9.12044 4.34194L9.01986 4.24138Z"/>
<path fill-rule="evenodd" clip-rule="evenodd" d="M9.35449 4.01743L9.29857 3.88352L9.40998 3.84437L9.5273 3.81625L9.64443 3.7993L9.76732 3.79359L9.76752 3.93312L9.76772 4.0783L9.67278 4.08419L9.58343 4.09534L9.49425 4.11794L9.41041 4.14581L9.35449 4.01743Z"/>
<path fill-rule="evenodd" clip-rule="evenodd" d="M4.19257 12.8046L4.30419 12.8099L4.4103 12.8266L4.51082 12.8489L4.61132 12.8877L4.70069 12.9323L4.79008 12.9824L4.87389 13.0438L4.94659 13.1107L5.01924 13.1888L5.08073 13.2669L5.1311 13.3561L5.17588 13.4455L5.20951 13.5459L5.23759 13.6464L5.25446 13.7526L5.2602 13.8587L5.25477 13.9705L5.2382 14.0765L5.2104 14.177L5.17707 14.2778L5.13254 14.3671L5.08242 14.4566L5.02117 14.5404L4.94872 14.613L4.87623 14.6858L4.79259 14.7474L4.70335 14.7978L4.6141 14.8427L4.5137 14.8763L4.41325 14.9042L4.3072 14.9211L4.19559 14.927L4.0895 14.9214L3.98345 14.9048L3.88292 14.8772L3.78243 14.8439L3.693 14.7993L3.60367 14.7491L3.52539 14.6878L3.44715 14.6152L3.38009 14.5427L3.31855 14.4591L3.26818 14.3697L3.22339 14.2806L3.18418 14.1799L3.16174 14.0794L3.14482 13.9735L3.13907 13.8618L3.14451 13.7556L3.16112 13.6493L3.18328 13.5488L3.22221 13.4483L3.26674 13.3588L3.31686 13.2694L3.37817 13.1911L3.44502 13.1128L3.52306 13.0457L3.60116 12.9841L3.69035 12.9338L3.77965 12.8889L3.88003 12.8498L3.98049 12.8272L4.0865 12.8102L4.19257 12.8046Z"/>
<path fill-rule="evenodd" clip-rule="evenodd" d="M4.19257 12.8046L4.19237 12.6649L4.31517 12.6704L4.43799 12.687L4.5497 12.7148L4.66137 12.7537L4.61132 12.8877L4.55567 13.0163L4.4719 12.9886L4.38261 12.9663L4.28769 12.9552L4.19278 12.9498L4.19257 12.8046Z"/>
<path fill-rule="evenodd" clip-rule="evenodd" d="M4.61132 12.8878L4.66137 12.7537L4.76752 12.8038L4.86805 12.8652L4.96305 12.932L5.04689 13.0101L4.94659 13.1107L4.84624 13.2114L4.77914 13.1502L4.71211 13.0999L4.55567 13.0163L4.61132 12.8878Z"/>
<path fill-rule="evenodd" clip-rule="evenodd" d="M4.94659 13.1107L5.04689 13.0101L5.12514 13.0937L5.19787 13.1831L5.25938 13.2834L5.30978 13.3894L5.17589 13.4455L5.04758 13.5015L4.95806 13.3509L4.90776 13.2785L4.84624 13.2113L4.94659 13.1107Z"/>
<path fill-rule="evenodd" clip-rule="evenodd" d="M5.17589 13.4456L5.30978 13.3895L5.349 13.5011L5.37711 13.6185L5.39958 13.7357L5.40535 13.8586L5.2602 13.8588L5.12064 13.859L5.11497 13.7641L5.10366 13.6746L5.04758 13.5015L5.17589 13.4456Z"/>
<path fill-rule="evenodd" clip-rule="evenodd" d="M5.2602 13.8588L5.40535 13.8586L5.39994 13.9813L5.37781 14.1043L5.35003 14.2216L5.31111 14.3278L5.17707 14.2778L5.04861 14.222L5.07643 14.1383L5.1042 14.0488L5.11524 13.9539L5.12064 13.859L5.2602 13.8588Z"/>
<path fill-rule="evenodd" clip-rule="evenodd" d="M5.17707 14.2778L5.31111 14.3279L5.26102 14.4339L5.19979 14.5347L5.12732 14.6296L5.04931 14.7136L4.94872 14.6131L4.84809 14.5128L4.90942 14.4457L4.95952 14.3786L5.04861 14.2221L5.17707 14.2778Z"/>
<path fill-rule="evenodd" clip-rule="evenodd" d="M4.94872 14.6131L5.04931 14.7136L4.96569 14.7918L4.87089 14.8646L4.77054 14.9262L4.66453 14.9766L4.6141 14.8427L4.55808 14.7143L4.71428 14.6247L4.78117 14.5743L4.84809 14.5127L4.94872 14.6131Z"/>
<path fill-rule="evenodd" clip-rule="evenodd" d="M4.6141 14.8427L4.66454 14.9766L4.55851 15.0158L4.44135 15.0439L4.31858 15.0664L4.1958 15.0722L4.19559 14.9271L4.19539 14.7874L4.29029 14.7817L4.38517 14.7703L4.4744 14.7422L4.55808 14.7143L4.6141 14.8427Z"/>
<path fill-rule="evenodd" clip-rule="evenodd" d="M4.19559 14.927L4.1958 15.0722L4.073 15.0667L3.95571 15.0446L3.83846 15.0168L3.72679 14.9779L3.78243 14.8439L3.83803 14.7153L4.01115 14.7708L4.10048 14.7819L4.19539 14.7873L4.19559 14.927Z"/>
<path fill-rule="evenodd" clip-rule="evenodd" d="M3.78243 14.8439L3.72679 14.978L3.62064 14.9279L3.52011 14.8666L3.43069 14.794L3.34681 14.7161L3.44715 14.6153L3.5475 14.5146L3.61455 14.576L3.68722 14.6262L3.83803 14.7154L3.78243 14.8439Z"/>
<path fill-rule="evenodd" clip-rule="evenodd" d="M3.44715 14.6152L3.34681 14.716L3.26855 14.6322L3.20146 14.5375L3.13989 14.4369L3.08954 14.331L3.22339 14.2806L3.35175 14.2244L3.4357 14.3807L3.48598 14.4476L3.5475 14.5145L3.44715 14.6152Z"/>
<path fill-rule="evenodd" clip-rule="evenodd" d="M3.22339 14.2806L3.08954 14.331L3.05032 14.2193L3.02222 14.1077L3.00527 13.9847L2.99956 13.862L3.13907 13.8618L3.28422 13.8616L3.28994 13.9565L3.30126 14.0513L3.32368 14.1407L3.35175 14.2244L3.22339 14.2806Z"/>
<path fill-rule="evenodd" clip-rule="evenodd" d="M3.13907 13.8618L2.99956 13.862L3.00492 13.7391L3.02152 13.6218L3.0493 13.5043L3.08821 13.3926L3.22221 13.4483L3.35072 13.5039L3.3229 13.5879L3.30072 13.6772L3.28967 13.7666L3.28422 13.8616L3.13907 13.8618Z"/>
<path fill-rule="evenodd" clip-rule="evenodd" d="M3.22221 13.4483L3.08821 13.3926L3.13826 13.292L3.19954 13.1914L3.26637 13.0964L3.34438 13.0125L3.44502 13.1129L3.54565 13.2132L3.48432 13.2805L3.43423 13.3476L3.38968 13.4258L3.35072 13.5039L3.22221 13.4483Z"/>
<path fill-rule="evenodd" clip-rule="evenodd" d="M3.44502 13.1128L3.34438 13.0125L3.42805 12.9341L3.5228 12.867L3.62321 12.8054L3.72363 12.755L3.77965 12.8889L3.83562 13.0173L3.75754 13.0566L3.67946 13.1013L3.61252 13.1518L3.54565 13.2131L3.44502 13.1128Z"/>
<path fill-rule="evenodd" clip-rule="evenodd" d="M3.77965 12.8889L3.72363 12.755L3.83519 12.7159L3.95235 12.6878L4.06959 12.6708L4.19237 12.6649L4.19257 12.8046L4.19278 12.9498L4.09788 12.9555L4.00859 12.9669L3.9193 12.9895L3.83562 13.0173L3.77965 12.8889Z"/>
<path fill-rule="evenodd" clip-rule="evenodd" d="M15.3229 12.7608L15.4346 12.7663L15.5405 12.7829L15.641 12.805L15.7416 12.8441L15.8309 12.8885L15.9204 12.9386L16.0041 13L16.0767 13.0669L16.1495 13.145L16.211 13.2232L16.2614 13.3125L16.3062 13.4017L16.3398 13.5021L16.3677 13.6028L16.3846 13.7088L16.3904 13.815L16.3849 13.9267L16.3684 14.0327L16.3407 14.1334L16.3074 14.2339L16.2628 14.3233L16.2127 14.4128L16.1514 14.4966L16.0788 14.5694L16.0065 14.642L15.9229 14.7036L15.8335 14.754L15.7444 14.7988L15.6439 14.8325L15.5435 14.8606L15.4376 14.8775L15.3259 14.8832L15.2198 14.8778L15.1136 14.8612L15.0131 14.8334L14.9126 14.8L14.8232 14.7554L14.7339 14.7053L14.6556 14.644L14.5774 14.5715L14.5103 14.4989L14.4488 14.4153L14.3984 14.3259L14.3536 14.2367L14.3144 14.1363L14.292 14.0357L14.2752 13.9297L14.2693 13.818L14.2749 13.7118L14.2914 13.6057L14.3135 13.505L14.3524 13.4045L14.397 13.3151L14.4471 13.2257L14.5084 13.1473L14.5752 13.069L14.6533 13.0019L14.7314 12.9403L14.8205 12.89L14.9099 12.8453L15.0102 12.8059L15.1106 12.7835L15.2168 12.7667L15.3229 12.7608Z"/>
<path fill-rule="evenodd" clip-rule="evenodd" d="M15.3229 12.7608L15.3227 12.6213L15.4454 12.6267L15.5682 12.6432L15.68 12.6711L15.7917 12.7099L15.7416 12.8441L15.6859 12.9727L15.6022 12.9448L15.5128 12.9225L15.418 12.9116L15.3231 12.906L15.3229 12.7608Z"/>
<path fill-rule="evenodd" clip-rule="evenodd" d="M15.7416 12.8442L15.7917 12.7099L15.8977 12.76L15.9984 12.8214L16.0932 12.8882L16.1772 12.9663L16.0767 13.0669L15.9764 13.1678L15.9094 13.1064L15.8424 13.0563L15.6859 12.9728L15.7416 12.8442Z"/>
<path fill-rule="evenodd" clip-rule="evenodd" d="M16.0767 13.0669L16.1772 12.9663L16.2555 13.05L16.3281 13.1393L16.3896 13.2397L16.44 13.3458L16.3062 13.4017L16.1779 13.4579L16.0883 13.3071L16.038 13.2346L15.9764 13.1678L16.0767 13.0669Z"/>
<path fill-rule="evenodd" clip-rule="evenodd" d="M16.3062 13.4017L16.44 13.3457L16.4792 13.4574L16.5073 13.5746L16.5297 13.6918L16.5356 13.8147L16.3905 13.8149L16.2508 13.8151L16.2452 13.7202L16.2339 13.6307L16.1779 13.4578L16.3062 13.4017Z"/>
<path fill-rule="evenodd" clip-rule="evenodd" d="M16.3905 13.815L16.5356 13.8148L16.5301 13.9377L16.508 14.0605L16.4802 14.1778L16.4414 14.2841L16.3074 14.234L16.1789 14.1782L16.2066 14.0944L16.2344 14.0051L16.2455 13.9102L16.2508 13.8152L16.3905 13.815Z"/>
<path fill-rule="evenodd" clip-rule="evenodd" d="M16.3074 14.2339L16.4414 14.284L16.3913 14.3903L16.33 14.4908L16.2577 14.5859L16.1796 14.6697L16.0788 14.5694L15.9783 14.4689L16.0396 14.4018L16.0897 14.3347L16.1789 14.1781L16.3074 14.2339Z"/>
<path fill-rule="evenodd" clip-rule="evenodd" d="M16.0788 14.5695L16.1796 14.6698L16.0958 14.7482L16.0012 14.8208L15.9007 14.8824L15.7948 14.9328L15.7444 14.7989L15.6883 14.6705L15.8445 14.5808L15.9114 14.5305L15.9783 14.469L16.0788 14.5695Z"/>
<path fill-rule="evenodd" clip-rule="evenodd" d="M15.7444 14.7989L15.7948 14.9328L15.6887 14.9722L15.5716 15.0001L15.4488 15.0228L15.3261 15.0284L15.3259 14.8832L15.3257 14.7435L15.4206 14.7379L15.5153 14.7265L15.6046 14.6986L15.6883 14.6705L15.7444 14.7989Z"/>
<path fill-rule="evenodd" clip-rule="evenodd" d="M15.3259 14.8832L15.3261 15.0284L15.2032 15.0231L15.086 15.0008L14.9686 14.9732L14.8571 14.9341L14.9126 14.8001L14.9682 14.6715L15.1414 14.727L15.2308 14.7382L15.3257 14.7435L15.3259 14.8832Z"/>
<path fill-rule="evenodd" clip-rule="evenodd" d="M14.9126 14.8001L14.8571 14.9342L14.7509 14.884L14.6504 14.8227L14.5609 14.7504L14.4771 14.6722L14.5774 14.5716L14.6777 14.4708L14.7449 14.5322L14.8174 14.5823L14.9682 14.6715L14.9126 14.8001Z"/>
<path fill-rule="evenodd" clip-rule="evenodd" d="M14.5774 14.5715L14.4771 14.6722L14.3988 14.5886L14.3317 14.4937L14.2701 14.3933L14.2197 14.2872L14.3536 14.2367L14.4819 14.1806L14.566 14.3369L14.6163 14.4038L14.6776 14.4707L14.5774 14.5715Z"/>
<path fill-rule="evenodd" clip-rule="evenodd" d="M14.3536 14.2367L14.2197 14.2872L14.1806 14.1755L14.1525 14.0638L14.1356 13.9411L14.1299 13.8182L14.2693 13.818L14.4144 13.8178L14.4202 13.9127L14.4314 14.0077L14.454 14.0969L14.4819 14.1806L14.3536 14.2367Z"/>
<path fill-rule="evenodd" clip-rule="evenodd" d="M14.2693 13.818L14.1299 13.8182L14.1352 13.6952L14.1518 13.578L14.1796 13.4607L14.2184 13.3489L14.3524 13.4045L14.4809 13.4603L14.4532 13.544L14.4309 13.6333L14.42 13.7228L14.4144 13.8178L14.2693 13.818Z"/>
<path fill-rule="evenodd" clip-rule="evenodd" d="M14.3524 13.4045L14.2184 13.3489L14.2685 13.2484L14.3298 13.1476L14.3966 13.0526L14.4746 12.9687L14.5752 13.069L14.6758 13.1696L14.6146 13.2366L14.5645 13.3037L14.5199 13.382L14.4809 13.4603L14.3524 13.4045Z"/>
<path fill-rule="evenodd" clip-rule="evenodd" d="M14.5752 13.0691L14.4746 12.9687L14.5583 12.8904L14.6531 12.8233L14.7534 12.7616L14.8539 12.7113L14.9099 12.8453L14.9658 12.9738L14.8878 13.0129L14.8097 13.0577L14.7428 13.108L14.6758 13.1696L14.5752 13.0691Z"/>
<path fill-rule="evenodd" clip-rule="evenodd" d="M14.9099 12.8453L14.8539 12.7112L14.9653 12.6721L15.0827 12.6439L15.1998 12.627L15.3227 12.6213L15.3229 12.7608L15.3231 12.906L15.2282 12.9119L15.1388 12.923L15.0496 12.9456L14.9658 12.9737L14.9099 12.8453Z"/>
<path fill-rule="evenodd" clip-rule="evenodd" d="M18.3097 5.29509L18.4214 5.30042L18.5273 5.31704L18.6278 5.33916L18.7285 5.37821L18.8177 5.42261L18.9072 5.47292L18.991 5.5341L19.0636 5.60115L19.1363 5.67907L19.1979 5.75722L19.2482 5.84662L19.293 5.93581L19.3266 6.03642L19.3546 6.13687L19.3717 6.24283L19.3773 6.34902L19.372 6.46076L19.3552 6.56698L19.3275 6.66751L19.2942 6.76806L19.2497 6.85754L19.1996 6.94687L19.1383 7.03073L19.0657 7.10353L18.9933 7.17611L18.9097 7.23774L18.8204 7.28809L18.7312 7.33295L18.6307 7.3666L18.5303 7.3947L18.4244 7.41163L18.3127 7.41727L18.2066 7.41194L18.1006 7.39531L18 7.36749L17.8995 7.33414L17.8102 7.28953L17.7208 7.23944L17.6425 7.17804L17.5642 7.10566L17.4971 7.03306L17.4356 6.94938L17.3853 6.86019L17.3404 6.77084L17.3013 6.67039L17.2789 6.56993L17.262 6.46376L17.2562 6.35204L17.2617 6.24584L17.2783 6.13983L17.3004 6.0393L17.3392 5.93859L17.3838 5.84927L17.4339 5.75973L17.4952 5.68141L17.5621 5.60329L17.6401 5.53602L17.7182 5.47461L17.8075 5.42405L17.8967 5.3794L17.9971 5.34006L18.0977 5.31765L18.2036 5.30073L18.3097 5.29509Z"/>
<path fill-rule="evenodd" clip-rule="evenodd" d="M18.3097 5.29506L18.3095 5.15537L18.4322 5.16069L18.5551 5.17729L18.6668 5.20509L18.7785 5.24397L18.7285 5.37819L18.6728 5.50672L18.589 5.47888L18.4996 5.45675L18.4048 5.44564L18.3099 5.44024L18.3097 5.29506Z"/>
<path fill-rule="evenodd" clip-rule="evenodd" d="M18.7285 5.37815L18.7785 5.24393L18.8845 5.29421L18.9852 5.35532L19.0802 5.42218L19.164 5.5003L19.0636 5.60109L18.9633 5.70173L18.8962 5.64037L18.8292 5.59024L18.6728 5.50669L18.7285 5.37815Z"/>
<path fill-rule="evenodd" clip-rule="evenodd" d="M19.0636 5.60119L19.164 5.50039L19.2423 5.58421L19.3149 5.67337L19.3765 5.77377L19.4269 5.8799L19.293 5.93585L19.1647 5.99195L19.0751 5.8412L19.0248 5.76873L18.9633 5.70182L19.0636 5.60119Z"/>
<path fill-rule="evenodd" clip-rule="evenodd" d="M19.293 5.93582L19.4269 5.87987L19.466 5.9915L19.4942 6.10873L19.5168 6.22592L19.5224 6.34882L19.3773 6.34903L19.2377 6.34923L19.2321 6.25428L19.2207 6.16504L19.1647 5.99192L19.293 5.93582Z"/>
<path fill-rule="evenodd" clip-rule="evenodd" d="M19.3773 6.349L19.5224 6.34879L19.5171 6.47177L19.4948 6.59456L19.4671 6.71203L19.4282 6.81807L19.2942 6.76803L19.1658 6.71245L19.1934 6.62849L19.2212 6.53919L19.2323 6.44421L19.2377 6.3492L19.3773 6.349Z"/>
<path fill-rule="evenodd" clip-rule="evenodd" d="M19.2942 6.76806L19.4282 6.8181L19.3782 6.92436L19.3168 7.02494L19.2445 7.12L19.1664 7.20389L19.0657 7.10353L18.9651 7.00318L19.0265 6.93589L19.0766 6.86887L19.1657 6.71248L19.2942 6.76806Z"/>
<path fill-rule="evenodd" clip-rule="evenodd" d="M19.0657 7.10349L19.1664 7.20384L19.0829 7.28214L18.9881 7.35481L18.8875 7.41641L18.7817 7.46679L18.7312 7.33292L18.6752 7.20454L18.8314 7.11485L18.8983 7.06453L18.9651 7.00313L19.0657 7.10349Z"/>
<path fill-rule="evenodd" clip-rule="evenodd" d="M18.7312 7.33292L18.7817 7.4668L18.6756 7.50619L18.5584 7.53411L18.4356 7.55676L18.3129 7.56247L18.3127 7.41724L18.3125 7.27776L18.4074 7.27187L18.5022 7.26056L18.5915 7.23263L18.6752 7.20455L18.7312 7.33292Z"/>
<path fill-rule="evenodd" clip-rule="evenodd" d="M18.3127 7.41725L18.3129 7.56248L18.1901 7.55712L18.0728 7.53481L17.9557 7.50723L17.8439 7.46814L17.8995 7.33412L17.9552 7.20558L18.1282 7.2611L18.2176 7.27216L18.3125 7.27777L18.3127 7.41725Z"/>
<path fill-rule="evenodd" clip-rule="evenodd" d="M17.8995 7.33411L17.8439 7.46813L17.7377 7.41806L17.6372 7.35675L17.5477 7.28434L17.464 7.20628L17.5642 7.10564L17.6647 7.005L17.7317 7.0662L17.8043 7.11632L17.9552 7.20558L17.8995 7.33411Z"/>
<path fill-rule="evenodd" clip-rule="evenodd" d="M17.5642 7.1057L17.4639 7.20634L17.3856 7.12268L17.3185 7.02782L17.257 6.92741L17.2066 6.82129L17.3404 6.77088L17.4687 6.71493L17.5528 6.87107L17.6032 6.93794L17.6647 7.00506L17.5642 7.1057Z"/>
<path fill-rule="evenodd" clip-rule="evenodd" d="M17.3404 6.7708L17.2066 6.82122L17.1675 6.70959L17.1393 6.5979L17.1224 6.47516L17.1167 6.3522L17.2562 6.35201L17.4013 6.3518L17.4071 6.4468L17.4183 6.54174L17.4409 6.63097L17.4687 6.71486L17.3404 6.7708Z"/>
<path fill-rule="evenodd" clip-rule="evenodd" d="M17.2562 6.352L17.1167 6.3522L17.1221 6.22927L17.1386 6.11203L17.1664 5.99472L17.2052 5.88298L17.3392 5.93855L17.4677 5.99429L17.4401 6.0781L17.4178 6.16755L17.4069 6.25683L17.4013 6.35179L17.2562 6.352Z"/>
<path fill-rule="evenodd" clip-rule="evenodd" d="M17.3392 5.93862L17.2052 5.88305L17.2554 5.78248L17.3166 5.68169L17.3835 5.58684L17.4615 5.5028L17.5621 5.60331L17.6628 5.70367L17.6015 5.77075L17.5514 5.83782L17.5068 5.91612L17.4677 5.99436L17.3392 5.93862Z"/>
<path fill-rule="evenodd" clip-rule="evenodd" d="M17.5621 5.60328L17.4615 5.50277L17.5451 5.42442L17.6399 5.35729L17.7402 5.2959L17.8408 5.24532L17.8967 5.3794L17.9528 5.50777L17.8747 5.54692L17.7966 5.59177L17.7297 5.64208L17.6628 5.70364L17.5621 5.60328Z"/>
<path fill-rule="evenodd" clip-rule="evenodd" d="M17.8967 5.37937L17.8408 5.24529L17.9524 5.2061L18.0695 5.17797L18.1867 5.16103L18.3095 5.15537L18.3097 5.29506L18.3099 5.44024L18.215 5.44591L18.1256 5.45727L18.0364 5.47966L17.9528 5.50774L17.8967 5.37937Z"/>
<path fill-rule="evenodd" clip-rule="evenodd" d="M1.20112 5.27466L1.31274 5.28005L1.41885 5.29662L1.51937 5.31895L1.61987 5.35779L1.70924 5.4024L1.79863 5.45249L1.88244 5.51388L1.95514 5.58078L2.0278 5.65886L2.08933 5.73679L2.13965 5.82619L2.18444 5.9156L2.21811 6.01599L2.24614 6.11645L2.26301 6.22262L2.26875 6.32865L2.26332 6.44034L2.24676 6.54655L2.21901 6.64709L2.18562 6.74763L2.14109 6.83717L2.09102 6.9265L2.02972 7.01052L1.95727 7.0831L1.88478 7.1559L1.80114 7.21732L1.7119 7.26767L1.62265 7.31253L1.52226 7.34617L1.4218 7.37428L1.31575 7.3912L1.20414 7.39685L1.0981 7.39151L0.992 7.37489L0.891469 7.34707L0.790982 7.31372L0.701605 7.26911L0.612219 7.21901L0.533995 7.15782L0.455755 7.08524L0.388641 7.01285L0.327098 6.92901L0.276778 6.83982L0.231994 6.75041L0.192783 6.64997L0.170285 6.54951L0.15342 6.44334L0.147673 6.33167L0.153111 6.22562L0.169673 6.1194L0.191885 6.01888L0.23081 5.91838L0.27534 5.82884L0.325406 5.7393L0.386718 5.66119L0.453619 5.58291L0.53166 5.51581L0.609709 5.45418L0.698952 5.40383L0.788202 5.35897L0.888586 5.31984L0.989045 5.29723L1.0951 5.28035L1.20112 5.27466Z"/>
<path fill-rule="evenodd" clip-rule="evenodd" d="M1.20112 5.27465L1.20092 5.13496L1.32372 5.14027L1.44654 5.15687L1.55825 5.18467L1.66992 5.22376L1.61987 5.35777L1.56427 5.48631L1.4805 5.45847L1.39116 5.43633L1.29624 5.42523L1.20133 5.41988L1.20112 5.27465Z"/>
<path fill-rule="evenodd" clip-rule="evenodd" d="M1.61986 5.35779L1.66992 5.22378L1.77607 5.27385L1.8766 5.33516L1.9716 5.40202L2.05543 5.48014L1.95514 5.58078L1.85479 5.68137L1.78774 5.62L1.72066 5.56988L1.56427 5.48633L1.61986 5.35779Z"/>
<path fill-rule="evenodd" clip-rule="evenodd" d="M1.95514 5.58076L2.05543 5.48012L2.13374 5.56373L2.20641 5.65288L2.26793 5.7535L2.31833 5.85941L2.18443 5.91558L2.05613 5.97152L1.9666 5.82088L1.91631 5.74825L1.85479 5.68134L1.95514 5.58076Z"/>
<path fill-rule="evenodd" clip-rule="evenodd" d="M2.18444 5.91566L2.31833 5.8595L2.35755 5.97117L2.38566 6.08835L2.40813 6.20575L2.4139 6.3285L2.26875 6.32871L2.12924 6.32891L2.12352 6.2339L2.11221 6.14471L2.05613 5.9716L2.18444 5.91566Z"/>
<path fill-rule="evenodd" clip-rule="evenodd" d="M2.26875 6.32866L2.41389 6.32845L2.40848 6.45138L2.38635 6.57417L2.35858 6.69164L2.31966 6.79768L2.18562 6.74764L2.05716 6.69207L2.08493 6.6083L2.11274 6.5188L2.12379 6.42382L2.12924 6.32886L2.26875 6.32866Z"/>
<path fill-rule="evenodd" clip-rule="evenodd" d="M2.18562 6.7477L2.31966 6.79773L2.26957 6.90404L2.20834 7.00457L2.13593 7.09963L2.05786 7.18352L1.95728 7.08316L1.85664 6.98281L1.91797 6.91573L1.96807 6.8485L2.05716 6.69212L2.18562 6.7477Z"/>
<path fill-rule="evenodd" clip-rule="evenodd" d="M1.95727 7.08314L2.05785 7.1835L1.97424 7.26185L1.87944 7.33468L1.77909 7.39607L1.67308 7.44665L1.62265 7.31257L1.56668 7.1842L1.72283 7.09471L1.78977 7.0444L1.85664 6.98279L1.95727 7.08314Z"/>
<path fill-rule="evenodd" clip-rule="evenodd" d="M1.62265 7.31254L1.67308 7.44662L1.56711 7.48581L1.44989 7.51394L1.32713 7.53637L1.20434 7.54209L1.20414 7.39686L1.20394 7.25737L1.29883 7.25154L1.39372 7.24038L1.483 7.21224L1.56668 7.18416L1.62265 7.31254Z"/>
<path fill-rule="evenodd" clip-rule="evenodd" d="M1.20414 7.3969L1.20435 7.54213L1.08154 7.53677L0.964307 7.51467L0.84701 7.48688L0.735338 7.448L0.790981 7.31377L0.846581 7.18523L1.01975 7.24096L1.10903 7.25186L1.20394 7.25742L1.20414 7.3969Z"/>
<path fill-rule="evenodd" clip-rule="evenodd" d="M0.79098 7.31378L0.735337 7.44801L0.629185 7.39773L0.528659 7.33662L0.439242 7.26405L0.355406 7.18594L0.455754 7.0853L0.55605 6.98466L0.623149 7.04607L0.695768 7.09619L0.84658 7.18524L0.79098 7.31378Z"/>
<path fill-rule="evenodd" clip-rule="evenodd" d="M0.455754 7.08528L0.355406 7.18592L0.27715 7.10226L0.210003 7.0074L0.14849 6.90704L0.0980931 6.80087L0.231993 6.75045L0.360296 6.69451L0.444243 6.85065L0.494584 6.91773L0.55605 6.98464L0.455754 7.08528Z"/>
<path fill-rule="evenodd" clip-rule="evenodd" d="M0.231994 6.75046L0.098095 6.80088L0.0588678 6.68925L0.0307657 6.57756L0.0138773 6.45482L0.00811386 6.33191L0.147673 6.33172L0.292769 6.33151L0.298493 6.42646L0.309805 6.5214L0.332287 6.61084L0.360297 6.69452L0.231994 6.75046Z"/>
<path fill-rule="evenodd" clip-rule="evenodd" d="M0.147671 6.33164L0.00811166 6.33184L0.0135257 6.20907L0.0300724 6.09162L0.0578489 5.97436L0.0967583 5.86257L0.230809 5.91835L0.35927 5.97393L0.331498 6.05769L0.309271 6.14719L0.298221 6.23642L0.292767 6.33143L0.147671 6.33164Z"/>
<path fill-rule="evenodd" clip-rule="evenodd" d="M0.230811 5.91834L0.09676 5.86256L0.146863 5.762L0.20809 5.66141L0.274967 5.56636L0.352984 5.48253L0.453619 5.58288L0.5542 5.68318L0.492925 5.75027L0.442775 5.81734L0.398229 5.89563L0.359272 5.97392L0.230811 5.91834Z"/>
<path fill-rule="evenodd" clip-rule="evenodd" d="M0.453619 5.58291L0.352985 5.48256L0.436599 5.4042L0.531406 5.33707L0.631757 5.27547L0.732177 5.2251L0.788202 5.35897L0.844167 5.48734L0.766086 5.52649L0.688013 5.57134L0.621125 5.62166L0.554201 5.68321L0.453619 5.58291Z"/>
<path fill-rule="evenodd" clip-rule="evenodd" d="M0.788202 5.35902L0.732177 5.22515L0.843738 5.18575L0.960955 5.15762L1.07814 5.14068L1.20092 5.13502L1.20112 5.27471L1.20133 5.41994L1.10643 5.42556L1.01719 5.43692L0.927852 5.45931L0.844167 5.48739L0.788202 5.35902Z"/>
<path fill-rule="evenodd" clip-rule="evenodd" d="M1.21415 14.4342L1.32577 14.4395L1.43188 14.4561L1.5324 14.4784L1.63289 14.5173L1.72227 14.5619L1.81166 14.612L1.89547 14.6734L1.96816 14.7402L2.04082 14.8183L2.10236 14.8965L2.15268 14.9857L2.19746 15.075L2.23114 15.1755L2.25917 15.2759L2.27604 15.3821L2.28178 15.4881L2.27635 15.5998L2.25978 15.706L2.23204 15.8066L2.19865 15.9071L2.15412 15.9966L2.10405 16.0859L2.04275 16.17L1.9703 16.2426L1.8978 16.3154L1.81417 16.3768L1.72492 16.4274L1.63567 16.472L1.53528 16.5057L1.43483 16.5338L1.32877 16.5506L1.21717 16.5565L1.11113 16.5509L1.00503 16.5344L0.904496 16.5066L0.804009 16.4732L0.714632 16.4288L0.625247 16.3785L0.547023 16.3173L0.468783 16.2447L0.401668 16.1723L0.340126 16.0884L0.289805 15.9993L0.245021 15.9099L0.20581 15.8095L0.183312 15.709L0.166448 15.6028L0.1607 15.4911L0.166138 15.3851L0.182701 15.2789L0.204912 15.1784L0.243838 15.0778L0.288367 14.9883L0.338434 14.899L0.399745 14.8207L0.466646 14.7423L0.544687 14.6753L0.622736 14.6137L0.711979 14.5633L0.801229 14.5185L0.901613 14.4793L1.00207 14.4567L1.10813 14.4398L1.21415 14.4342Z"/>
<path fill-rule="evenodd" clip-rule="evenodd" d="M1.21415 14.4341L1.21395 14.2945L1.33675 14.3L1.45957 14.3166L1.57128 14.3442L1.68295 14.3832L1.63289 14.5173L1.57729 14.6458L1.49353 14.618L1.40418 14.5958L1.30926 14.5847L1.21435 14.5793L1.21415 14.4341Z"/>
<path fill-rule="evenodd" clip-rule="evenodd" d="M1.63289 14.5173L1.68295 14.3832L1.7891 14.4334L1.88962 14.4947L1.98462 14.5615L2.06846 14.6397L1.96816 14.7402L1.86782 14.8409L1.80077 14.7795L1.73369 14.7294L1.57729 14.6458L1.63289 14.5173Z"/>
<path fill-rule="evenodd" clip-rule="evenodd" d="M1.96816 14.7403L2.06846 14.6397L2.14677 14.7233L2.21944 14.8124L2.28096 14.913L2.33135 15.019L2.19746 15.0751L2.06916 15.131L1.97963 14.9804L1.92933 14.9078L1.86781 14.8409L1.96816 14.7403Z"/>
<path fill-rule="evenodd" clip-rule="evenodd" d="M2.19746 15.075L2.33135 15.0189L2.37058 15.1306L2.39869 15.2479L2.42116 15.3652L2.42692 15.4879L2.28178 15.4881L2.14227 15.4883L2.13655 15.3936L2.12524 15.3041L2.06916 15.131L2.19746 15.075Z"/>
<path fill-rule="evenodd" clip-rule="evenodd" d="M2.28178 15.4881L2.42693 15.4879L2.42151 15.6109L2.39938 15.7339L2.37161 15.8511L2.33269 15.9574L2.19865 15.9071L2.07019 15.8515L2.09796 15.7678L2.12577 15.6783L2.13682 15.5833L2.14227 15.4883L2.28178 15.4881Z"/>
<path fill-rule="evenodd" clip-rule="evenodd" d="M2.19865 15.9071L2.33269 15.9573L2.28259 16.0634L2.22136 16.164L2.14895 16.259L2.07088 16.3429L1.9703 16.2426L1.86967 16.1422L1.93099 16.0751L1.98109 16.0081L2.07018 15.8515L2.19865 15.9071Z"/>
<path fill-rule="evenodd" clip-rule="evenodd" d="M1.9703 16.2426L2.07088 16.3429L1.98727 16.4212L1.89247 16.4941L1.79212 16.5557L1.68611 16.6061L1.63567 16.472L1.57971 16.3436L1.73585 16.2541L1.80279 16.2038L1.86967 16.1422L1.9703 16.2426Z"/>
<path fill-rule="evenodd" clip-rule="evenodd" d="M1.63567 16.472L1.68611 16.6061L1.58014 16.6453L1.46292 16.6734L1.34016 16.6959L1.21737 16.7017L1.21717 16.5565L1.21697 16.4169L1.31186 16.4112L1.40675 16.3998L1.49602 16.3717L1.57971 16.3436L1.63567 16.472Z"/>
<path fill-rule="evenodd" clip-rule="evenodd" d="M1.21717 16.5566L1.21737 16.7018L1.09457 16.6963L0.977334 16.6742L0.860037 16.6464L0.748365 16.6075L0.804009 16.4733L0.859608 16.3447L1.03278 16.4004L1.12206 16.4115L1.21697 16.4169L1.21717 16.5566Z"/>
<path fill-rule="evenodd" clip-rule="evenodd" d="M0.80401 16.4732L0.748366 16.6075L0.642215 16.5574L0.541689 16.4961L0.452271 16.4235L0.368435 16.3454L0.468783 16.2448L0.569079 16.1441L0.636178 16.2055L0.708797 16.2556L0.859609 16.3447L0.80401 16.4732Z"/>
<path fill-rule="evenodd" clip-rule="evenodd" d="M0.468783 16.2448L0.368435 16.3454L0.290179 16.2618L0.223032 16.1669L0.161519 16.0665L0.111122 15.9606L0.245022 15.91L0.373325 15.854L0.457272 16.0103L0.507613 16.0772L0.569079 16.1441L0.468783 16.2448Z"/>
<path fill-rule="evenodd" clip-rule="evenodd" d="M0.24502 15.91L0.111121 15.9606L0.0718934 15.8489L0.0437913 15.7373L0.0269027 15.6143L0.0211391 15.4914L0.160699 15.4912L0.305795 15.491L0.311519 15.586L0.322831 15.6809L0.345313 15.7703L0.373323 15.854L0.24502 15.91Z"/>
<path fill-rule="evenodd" clip-rule="evenodd" d="M0.1607 15.4911L0.0211407 15.4913L0.0265548 15.3686L0.0431017 15.2513L0.0708779 15.1339L0.109787 15.0221L0.243838 15.0779L0.372299 15.1334L0.344528 15.2172L0.3223 15.3067L0.31125 15.3962L0.305796 15.4909L0.1607 15.4911Z"/>
<path fill-rule="evenodd" clip-rule="evenodd" d="M0.243836 15.0779L0.109785 15.0221L0.159888 14.9216L0.221116 14.821L0.287992 14.7259L0.36601 14.6421L0.466644 14.7424L0.567226 14.8427L0.50595 14.9098L0.4558 14.9771L0.411254 15.0552L0.372297 15.1334L0.243836 15.0779Z"/>
<path fill-rule="evenodd" clip-rule="evenodd" d="M0.466646 14.7424L0.366012 14.6421L0.449626 14.5637L0.544433 14.4966L0.644785 14.435L0.745204 14.3846L0.801229 14.5185L0.857194 14.6469L0.779113 14.6862L0.70104 14.7309L0.634152 14.7812L0.567228 14.8427L0.466646 14.7424Z"/>
<path fill-rule="evenodd" clip-rule="evenodd" d="M0.801229 14.5185L0.745204 14.3846L0.856765 14.3452L0.973983 14.3173L1.09116 14.3003L1.21395 14.2945L1.21415 14.4342L1.21435 14.5793L1.11946 14.585L1.03021 14.5964L0.94088 14.6188L0.857194 14.6468L0.801229 14.5185Z"/>
<path fill-rule="evenodd" clip-rule="evenodd" d="M18.3226 14.3875L18.4343 14.3929L18.5403 14.4095L18.6407 14.4316L18.7414 14.4707L18.8307 14.5153L18.9202 14.5654L19.0039 14.6265L19.0765 14.6936L19.1493 14.7715L19.2108 14.8497L19.2612 14.9391L19.306 15.0283L19.3396 15.1289L19.3675 15.2293L19.3846 15.3353L19.3903 15.4415L19.3849 15.5532L19.3681 15.6594L19.3405 15.76L19.3071 15.8605L19.2626 15.95L19.2125 16.0393L19.1512 16.1232L19.0786 16.196L19.0063 16.2686L18.9227 16.3301L18.8333 16.3805L18.7442 16.4254L18.6436 16.459L18.5432 16.4871L18.4373 16.504L18.3257 16.5097L18.2195 16.5043L18.1136 16.4878L18.0129 16.4599L17.9124 16.4266L17.8231 16.382L17.7337 16.3318L17.6554 16.2705L17.5771 16.1981L17.5101 16.1255L17.4485 16.0418L17.3982 15.9526L17.3534 15.8633L17.3142 15.7628L17.2918 15.6624L17.2749 15.5562L17.2691 15.4445L17.2746 15.3383L17.2912 15.2323L17.3133 15.1317L17.3522 15.031L17.3968 14.9417L17.4468 14.8522L17.5081 14.7739L17.575 14.6957L17.6531 14.6285L17.7312 14.5671L17.8205 14.5167L17.9096 14.4718L18.01 14.4325L18.1106 14.4101L18.2165 14.3932L18.3226 14.3875Z"/>
<path fill-rule="evenodd" clip-rule="evenodd" d="M18.3226 14.3876L18.3224 14.2479L18.4451 14.2532L18.568 14.2698L18.6797 14.2976L18.7914 14.3365L18.7414 14.4707L18.6857 14.5993L18.6019 14.5714L18.5125 14.5493L18.4178 14.5382L18.3229 14.5328L18.3226 14.3876Z"/>
<path fill-rule="evenodd" clip-rule="evenodd" d="M18.7414 14.4707L18.7914 14.3365L18.8974 14.3867L18.9982 14.4479L19.0932 14.5149L19.177 14.5928L19.0765 14.6936L18.9762 14.7943L18.9092 14.7329L18.8421 14.6827L18.6857 14.5992L18.7414 14.4707Z"/>
<path fill-rule="evenodd" clip-rule="evenodd" d="M19.0765 14.6937L19.177 14.5929L19.2553 14.6767L19.3278 14.7659L19.3895 14.8663L19.4398 14.9724L19.306 15.0283L19.1777 15.0844L19.0881 14.9336L19.0377 14.8612L18.9762 14.7943L19.0765 14.6937Z"/>
<path fill-rule="evenodd" clip-rule="evenodd" d="M19.306 15.0283L19.4398 14.9724L19.479 15.084L19.5071 15.2012L19.5297 15.3184L19.5354 15.4413L19.3903 15.4415L19.2507 15.4417L19.245 15.3468L19.2336 15.2575L19.1777 15.0844L19.306 15.0283Z"/>
<path fill-rule="evenodd" clip-rule="evenodd" d="M19.3903 15.4415L19.5354 15.4413L19.5301 15.5642L19.5078 15.687L19.48 15.8045L19.4411 15.9105L19.3071 15.8605L19.1787 15.8049L19.2063 15.721L19.2342 15.6317L19.2453 15.5367L19.2507 15.4417L19.3903 15.4415Z"/>
<path fill-rule="evenodd" clip-rule="evenodd" d="M19.3071 15.8606L19.4411 15.9106L19.3911 16.0169L19.3298 16.1175L19.2575 16.2125L19.1794 16.2964L19.0786 16.1961L18.9781 16.0957L19.0394 16.0284L19.0895 15.9614L19.1787 15.805L19.3071 15.8606Z"/>
<path fill-rule="evenodd" clip-rule="evenodd" d="M19.0786 16.196L19.1794 16.2964L19.0958 16.3747L19.001 16.4474L18.9005 16.509L18.7946 16.5593L18.7442 16.4255L18.6881 16.2971L18.8443 16.2074L18.9112 16.1571L18.9781 16.0957L19.0786 16.196Z"/>
<path fill-rule="evenodd" clip-rule="evenodd" d="M18.7442 16.4254L18.7946 16.5593L18.6885 16.5987L18.5714 16.6266L18.4486 16.6492L18.3259 16.655L18.3257 16.5097L18.3255 16.3702L18.4204 16.3644L18.5151 16.353L18.6044 16.3251L18.6881 16.297L18.7442 16.4254Z"/>
<path fill-rule="evenodd" clip-rule="evenodd" d="M18.3257 16.5098L18.3259 16.655L18.203 16.6496L18.0858 16.6273L17.9686 16.5998L17.8569 16.5607L17.9124 16.4267L17.9682 16.2981L18.1411 16.3536L18.2306 16.3647L18.3255 16.3703L18.3257 16.5098Z"/>
<path fill-rule="evenodd" clip-rule="evenodd" d="M17.9124 16.4267L17.8569 16.5607L17.7507 16.5106L17.6501 16.4493L17.5607 16.3769L17.4769 16.2988L17.5771 16.1982L17.6776 16.0975L17.7447 16.1588L17.8172 16.2089L17.9682 16.2981L17.9124 16.4267Z"/>
<path fill-rule="evenodd" clip-rule="evenodd" d="M17.5771 16.1981L17.4769 16.2988L17.3986 16.2151L17.3315 16.1203L17.2699 16.0199L17.2195 15.9137L17.3534 15.8633L17.4817 15.8074L17.5658 15.9635L17.6161 16.0304L17.6776 16.0975L17.5771 16.1981Z"/>
<path fill-rule="evenodd" clip-rule="evenodd" d="M17.3534 15.8633L17.2195 15.9137L17.1804 15.8021L17.1522 15.6904L17.1354 15.5677L17.1296 15.4447L17.2691 15.4445L17.4142 15.4443L17.4201 15.5393L17.4312 15.6343L17.4538 15.7235L17.4817 15.8074L17.3534 15.8633Z"/>
<path fill-rule="evenodd" clip-rule="evenodd" d="M17.2691 15.4445L17.1296 15.4447L17.135 15.3218L17.1515 15.2045L17.1794 15.0872L17.2182 14.9755L17.3522 15.0311L17.4806 15.0868L17.453 15.1706L17.4307 15.2601L17.4198 15.3493L17.4142 15.4443L17.2691 15.4445Z"/>
<path fill-rule="evenodd" clip-rule="evenodd" d="M17.3522 15.0311L17.2182 14.9755L17.2683 14.8749L17.3296 14.7741L17.3964 14.6793L17.4745 14.5953L17.575 14.6958L17.6758 14.7961L17.6145 14.8632L17.5643 14.9303L17.5197 15.0086L17.4806 15.0868L17.3522 15.0311Z"/>
<path fill-rule="evenodd" clip-rule="evenodd" d="M17.575 14.6957L17.4745 14.5952L17.558 14.5171L17.6528 14.4498L17.7532 14.3884L17.8537 14.3378L17.9096 14.4719L17.9657 14.6002L17.8876 14.6394L17.8095 14.6842L17.7427 14.7345L17.6758 14.7961L17.575 14.6957Z"/>
<path fill-rule="evenodd" clip-rule="evenodd" d="M17.9096 14.4719L17.8537 14.3378L17.9653 14.2986L18.0824 14.2705L18.1996 14.2536L18.3224 14.2479L18.3226 14.3876L18.3229 14.5328L18.228 14.5384L18.1386 14.5498L18.0494 14.5722L17.9657 14.6003L17.9096 14.4719Z"/>
<path fill-rule="evenodd" clip-rule="evenodd" d="M9.78892 18.9794L9.90054 18.9848L10.0065 19.0014L10.107 19.0235L10.2077 19.0626L10.2969 19.1072L10.3864 19.1573L10.4702 19.2186L10.5427 19.2855L10.6155 19.3637L10.6771 19.4416L10.7274 19.531L10.7722 19.6202L10.8059 19.7208L10.8337 19.8212L10.8507 19.9274L10.8565 20.0334L10.851 20.1451L10.8343 20.2514L10.8068 20.3519L10.7734 20.4524L10.7288 20.5419L10.6788 20.6313L10.6174 20.7151L10.5449 20.7879L10.4725 20.8605L10.3889 20.9221L10.2996 20.9724L10.2104 21.0173L10.1098 21.0509L10.0095 21.079L9.90355 21.096L9.79194 21.1016L9.6858 21.0963L9.57959 21.0796L9.47916 21.0518L9.37868 21.0185L9.28919 20.9739L9.19991 20.9238L9.12169 20.8624L9.0434 20.79L8.97633 20.7174L8.91479 20.6338L8.86442 20.5446L8.81964 20.4552L8.78048 20.3547L8.75808 20.2543L8.74101 20.1481L8.73531 20.0364L8.7407 19.9304L8.75747 19.8242L8.77958 19.7237L8.81845 19.6229L8.86298 19.5336L8.9131 19.4441L8.97441 19.366L9.04126 19.2877L9.11935 19.2206L9.1974 19.159L9.28654 19.1086L9.3759 19.0637L9.47628 19.0244L9.57663 19.002L9.68279 18.9851L9.78892 18.9794Z"/>
<path fill-rule="evenodd" clip-rule="evenodd" d="M9.78892 18.9794L9.78872 18.8397L9.91136 18.8451L10.0343 18.8617L10.146 18.8895L10.2577 18.9285L10.2077 19.0626L10.1519 19.1912L10.0682 19.1633L9.97874 19.1411L9.88403 19.13L9.78912 19.1247L9.78892 18.9794Z"/>
<path fill-rule="evenodd" clip-rule="evenodd" d="M10.2077 19.0626L10.2577 18.9286L10.3637 18.9786L10.4644 19.0398L10.5592 19.1068L10.6432 19.1847L10.5427 19.2856L10.4424 19.3862L10.3754 19.3248L10.3084 19.2747L10.1519 19.1912L10.2077 19.0626Z"/>
<path fill-rule="evenodd" clip-rule="evenodd" d="M10.5427 19.2855L10.6432 19.1847L10.7213 19.2685L10.7941 19.3576L10.8557 19.458L10.9061 19.5642L10.7722 19.6201L10.6439 19.6763L10.5543 19.5257L10.504 19.453L10.4424 19.3862L10.5427 19.2855Z"/>
<path fill-rule="evenodd" clip-rule="evenodd" d="M10.7722 19.6201L10.9061 19.5642L10.9452 19.6759L10.9734 19.793L10.9958 19.9102L11.0016 20.0332L10.8565 20.0334L10.7169 20.0336L10.7113 19.9387L10.6999 19.8494L10.6439 19.6763L10.7722 19.6201Z"/>
<path fill-rule="evenodd" clip-rule="evenodd" d="M10.8565 20.0334L11.0016 20.0332L10.9961 20.1561L10.974 20.2789L10.9462 20.3964L10.9074 20.5025L10.7734 20.4524L10.645 20.3968L10.6726 20.3128L10.7004 20.2235L10.7115 20.1286L10.7169 20.0336L10.8565 20.0334Z"/>
<path fill-rule="evenodd" clip-rule="evenodd" d="M10.7734 20.4524L10.9074 20.5025L10.8573 20.6087L10.796 20.7092L10.7235 20.8044L10.6457 20.8882L10.5449 20.7878L10.4443 20.6875L10.5057 20.6205L10.5558 20.5532L10.645 20.3968L10.7734 20.4524Z"/>
<path fill-rule="evenodd" clip-rule="evenodd" d="M10.5449 20.7879L10.6457 20.8882L10.5619 20.9666L10.4672 21.0394L10.3667 21.1008L10.2608 21.1512L10.2104 21.0173L10.1543 20.8889L10.3106 20.7994L10.3775 20.7489L10.4443 20.6875L10.5449 20.7879Z"/>
<path fill-rule="evenodd" clip-rule="evenodd" d="M10.2104 21.0173L10.2608 21.1512L10.1548 21.1906L10.0376 21.2187L9.91477 21.2411L9.79214 21.2469L9.79194 21.1016L9.79174 20.9621L9.88663 20.9563L9.98131 20.9451L10.0707 20.917L10.1543 20.8889L10.2104 21.0173Z"/>
<path fill-rule="evenodd" clip-rule="evenodd" d="M9.79194 21.1016L9.79214 21.2468L9.66924 21.2415L9.55206 21.2194L9.43465 21.1916L9.32314 21.1525L9.37868 21.0185L9.43422 20.8899L9.6074 20.9457L9.69678 20.9566L9.79174 20.9621L9.79194 21.1016Z"/>
<path fill-rule="evenodd" clip-rule="evenodd" d="M9.37868 21.0185L9.32314 21.1526L9.21693 21.1025L9.11641 21.0414L9.02689 20.9688L8.9431 20.8907L9.0434 20.7901L9.14369 20.6894L9.2109 20.7506L9.28346 20.8009L9.43422 20.89L9.37868 21.0185Z"/>
<path fill-rule="evenodd" clip-rule="evenodd" d="M9.0434 20.79L8.9431 20.8907L8.86479 20.8071L8.7977 20.7122L8.73613 20.6118L8.68579 20.5057L8.81964 20.4552L8.94794 20.3993L9.03183 20.5554L9.08233 20.6225L9.14369 20.6894L9.0434 20.79Z"/>
<path fill-rule="evenodd" clip-rule="evenodd" d="M8.81964 20.4552L8.68579 20.5057L8.64661 20.394L8.61851 20.2823L8.60162 20.1595L8.5957 20.0366L8.73531 20.0364L8.88046 20.0362L8.88608 20.1312L8.89745 20.2261L8.92003 20.3154L8.94794 20.3992L8.81964 20.4552Z"/>
<path fill-rule="evenodd" clip-rule="evenodd" d="M8.73531 20.0365L8.5957 20.0367L8.60127 19.9137L8.61782 19.7965L8.6456 19.6792L8.68445 19.5674L8.81845 19.623L8.94691 19.6788L8.91925 19.7625L8.89691 19.852L8.88581 19.9413L8.88046 20.0363L8.73531 20.0365Z"/>
<path fill-rule="evenodd" clip-rule="evenodd" d="M8.81845 19.623L8.68445 19.5674L8.7345 19.4668L8.79579 19.3663L8.86261 19.2712L8.94068 19.1871L9.04126 19.2877L9.14184 19.3881L9.08067 19.4551L9.03037 19.5222L8.98598 19.6005L8.94691 19.6787L8.81845 19.623Z"/>
<path fill-rule="evenodd" clip-rule="evenodd" d="M9.04126 19.2877L8.94068 19.1871L9.02424 19.109L9.1191 19.0417L9.2194 18.9802L9.31997 18.9299L9.37589 19.0637L9.43181 19.1922L9.35388 19.2313L9.27576 19.2761L9.20887 19.3264L9.14184 19.388L9.04126 19.2877Z"/>
<path fill-rule="evenodd" clip-rule="evenodd" d="M9.37589 19.0638L9.31997 18.9299L9.43138 18.8905L9.5487 18.8624L9.66583 18.8455L9.78872 18.8398L9.78892 18.9795L9.78912 19.1247L9.69418 19.1303L9.60483 19.1417L9.51565 19.1641L9.43181 19.1922L9.37589 19.0638Z"/>
<path fill-rule="evenodd" clip-rule="evenodd" d="M9.69067 0.614519L9.80234 0.6199L9.90829 0.636473L10.0088 0.658593L10.1094 0.697645L10.1987 0.742253L10.2882 0.7924L10.3719 0.853739L10.4445 0.920634L10.5173 0.998712L10.5788 1.07665L10.6291 1.16605L10.674 1.25524L10.7076 1.35585L10.7355 1.45631L10.7524 1.56248L10.7583 1.6685L10.7527 1.78019L10.7361 1.88641L10.7085 1.98694L10.6752 2.08749L10.6306 2.17702L10.5805 2.26635L10.5192 2.35016L10.4467 2.42296L10.3743 2.49555L10.2907 2.55718L10.2013 2.60753L10.1122 2.65239L10.0116 2.68603L9.91125 2.71413L9.80535 2.73106L9.69369 2.7367L9.58755 2.73137L9.48139 2.71474L9.38091 2.68693L9.28042 2.65357L9.19099 2.60896L9.10171 2.55887L9.02344 2.49747L8.94515 2.42509L8.87808 2.3525L8.81654 2.26886L8.76622 2.17967L8.72138 2.09027L8.68222 1.98983L8.65983 1.88936L8.64276 1.78319L8.63706 1.67152L8.64245 1.56548L8.65922 1.45926L8.68133 1.35873L8.7202 1.25802L8.76478 1.1687L8.81485 1.07916L8.87616 1.00105L8.94301 0.922769L9.0211 0.85566L9.0992 0.794091L9.18834 0.74369L9.27764 0.698828L9.37803 0.65949L9.47843 0.637084L9.58454 0.62021L9.69067 0.614519Z"/>
</g>
<defs>
<clipPath id="clip0">
<rect width="19.5143" height="20.6325" transform="translate(0 0.628296) rotate(-0.0814943)"/>
</clipPath>
</defs>
</svg>
