<svg width="115" height="130" viewBox="0 0 115 130" fill="none" xmlns="http://www.w3.org/2000/svg">
<path d="M94.2682 115.692H21.8242C15.1972 115.692 9.82422 110.319 9.82422 103.692C9.82422 97.0651 15.1972 91.6921 21.8242 91.6921H94.2682" stroke="#2462BC" stroke-width="5" stroke-miterlimit="10" stroke-linecap="round" stroke-linejoin="round"/>
<path d="M93.8242 115.692C100.452 115.692 105.824 110.32 105.824 103.692C105.824 97.0647 100.452 91.6921 93.8242 91.6921C87.1968 91.6921 81.8242 97.0647 81.8242 103.692C81.8242 110.32 87.1968 115.692 93.8242 115.692Z" stroke="#2462BC" stroke-width="5" stroke-miterlimit="10" stroke-linecap="round" stroke-linejoin="round"/>
<path d="M39.6025 91.6921C39.6025 70.5011 39.6025 22.3582 39.6025 22.3582C49.3895 27.8072 62.7565 32.8162 72.1005 23.3472C75.7215 19.6782 78.6825 16.0772 83.8245 14.5802C101.381 9.46915 105.381 22.3582 105.381 22.3582C105.381 22.3582 105.381 79.6551 105.381 99.2471" stroke="#2462BC" stroke-width="5" stroke-miterlimit="10" stroke-linecap="round" stroke-linejoin="round"/>
<path d="M93.8245 105.914C95.0517 105.914 96.0465 104.919 96.0465 103.692C96.0465 102.465 95.0517 101.47 93.8245 101.47C92.5974 101.47 91.6025 102.465 91.6025 103.692C91.6025 104.919 92.5974 105.914 93.8245 105.914Z" stroke="#2462BC" stroke-width="5" stroke-miterlimit="10" stroke-linecap="round" stroke-linejoin="round"/>
<path d="M66.7132 71.2471C65.1182 71.2471 63.8242 72.5401 63.8242 74.1361C63.8242 75.7311 65.1172 77.0251 66.7132 77.0251C68.3092 77.0251 69.6022 75.7321 69.6022 74.1361C69.6022 72.5411 68.3082 71.2471 66.7132 71.2471Z" fill="#2462BC"/>
<path d="M87.1576 63.4702C85.5616 63.4702 84.2686 64.7632 84.2686 66.3592C84.2686 67.9552 85.5616 69.2482 87.1576 69.2482C88.7526 69.2482 90.0466 67.9552 90.0466 66.3592C90.0466 64.7632 88.7536 63.4702 87.1576 63.4702Z" fill="#2462BC"/>
<path d="M61.6019 55.4702C60.0059 55.4702 58.7129 56.7632 58.7129 58.3592C58.7129 59.9552 60.0059 61.2482 61.6019 61.2482C63.1969 61.2482 64.4909 59.9552 64.4909 58.3592C64.4909 56.7632 63.1969 55.4702 61.6019 55.4702Z" fill="#2462BC"/>
<path d="M82.0462 47.6921C80.4512 47.6921 79.1572 48.9851 79.1572 50.5811C79.1572 52.1771 80.4502 53.4701 82.0462 53.4701C83.6422 53.4701 84.9352 52.1771 84.9352 50.5811C84.9352 48.9851 83.6422 47.6921 82.0462 47.6921Z" fill="#2462BC"/>
</svg>
