<svg width="115" height="130" viewBox="0 0 115 130" fill="none" xmlns="http://www.w3.org/2000/svg">
<path d="M51.231 3.80451V31.32H27.0645V3.56348C18.5916 7.88325 12.7852 16.6848 12.7852 26.8487C12.7852 41.2787 24.4828 52.9763 38.9128 52.9763C53.3429 52.9763 65.0405 41.2787 65.0405 26.8487C65.0405 16.8731 59.4487 8.20714 51.231 3.80451Z" stroke="#2462BC" stroke-width="5" stroke-miterlimit="10" stroke-linejoin="round"/>
<path d="M37.7357 66.6285C37.7357 70.0087 34.9959 72.7485 31.6157 72.7485H13.0985C9.71839 72.7485 6.97852 70.0087 6.97852 66.6285C6.97852 63.2484 9.71839 60.5085 13.0985 60.5085H31.6157C34.9959 60.5085 37.7357 63.2484 37.7357 66.6285Z" stroke="#2462BC" stroke-width="5" stroke-miterlimit="10" stroke-linejoin="round"/>
<path d="M37.7357 78.8685C37.7357 82.2487 34.9959 84.9885 31.6157 84.9885H13.0985C9.71839 84.9885 6.97852 82.2487 6.97852 78.8685C6.97852 75.4884 9.71839 72.7485 13.0985 72.7485H31.6157C34.9959 72.7485 37.7357 75.4884 37.7357 78.8685Z" stroke="#2462BC" stroke-width="5" stroke-miterlimit="10" stroke-linejoin="round"/>
<path d="M37.7357 91.1085C37.7357 94.4886 34.9959 97.2285 31.6157 97.2285H13.0985C9.71839 97.2285 6.97852 94.4886 6.97852 91.1085C6.97852 87.7284 9.71839 84.9885 13.0985 84.9885H31.6157C34.9959 84.9885 37.7357 87.7284 37.7357 91.1085Z" stroke="#2462BC" stroke-width="5" stroke-miterlimit="10" stroke-linejoin="round"/>
<path d="M37.7357 103.349C37.7357 106.729 34.9959 109.469 31.6157 109.469H13.0985C9.71839 109.469 6.97852 106.729 6.97852 103.349C6.97852 99.9684 9.71839 97.2285 13.0985 97.2285H31.6157C34.9959 97.2285 37.7357 99.9684 37.7357 103.349Z" stroke="#2462BC" stroke-width="5" stroke-miterlimit="10" stroke-linejoin="round"/>
<path d="M55.6249 89.3828C55.6249 100.076 55.6249 109.311 55.6249 109.311C55.6249 118.758 47.9674 126.416 38.52 126.416C29.0726 126.416 21.415 118.759 21.415 109.311C21.415 109.311 21.415 109.261 21.415 109.165" stroke="#2462BC" stroke-width="5" stroke-miterlimit="10" stroke-linecap="round" stroke-linejoin="round"/>
<path d="M23.6123 59.5671V49.5237" stroke="#2462BC" stroke-width="5" stroke-miterlimit="10" stroke-linecap="round" stroke-linejoin="round"/>
<path d="M56.252 111.979H80.7319" stroke="#2462BC" stroke-width="5" stroke-miterlimit="10" stroke-linecap="round" stroke-linejoin="round"/>
<path d="M63.0873 64.9291C60.0828 68.2518 56.1811 72.5669 56.1811 72.5669C53.7981 75.2023 49.7297 75.4075 47.0934 73.0235C44.458 70.6405 44.2527 66.5721 46.6367 63.9358L56.9513 52.5291C59.2194 50.0208 63.0129 49.7148 65.6464 51.7438" stroke="#2462BC" stroke-width="5" stroke-miterlimit="10" stroke-linecap="round" stroke-linejoin="round"/>
<path d="M66.6094 52.6619L87.3232 73.6902" stroke="#2462BC" stroke-width="5" stroke-miterlimit="10" stroke-linecap="round" stroke-linejoin="round"/>
<path d="M108.037 116.687C108.037 118.247 106.773 119.511 105.212 119.511H90.4623C88.9022 119.511 87.6377 118.247 87.6377 116.687V67.2558C87.6377 65.6956 88.9022 64.4312 90.4623 64.4312H105.213C106.774 64.4312 108.038 65.6956 108.038 67.2558V116.687H108.037Z" stroke="#2462BC" stroke-width="5" stroke-miterlimit="10" stroke-linecap="round" stroke-linejoin="round"/>
</svg>
