<svg width="114" height="129" viewBox="0 0 114 129" fill="none" xmlns="http://www.w3.org/2000/svg">
<path d="M46.7495 27.125C52.8246 27.125 57.7495 22.2001 57.7495 16.125C57.7495 10.0499 52.8246 5.125 46.7495 5.125C40.6744 5.125 35.7495 10.0499 35.7495 16.125C35.7495 22.2001 40.6744 27.125 46.7495 27.125Z" stroke="#2462BC" stroke-width="5" stroke-miterlimit="10"/>
<path d="M31.7495 54.625V123.875H60.4995" stroke="#2462BC" stroke-width="5" stroke-miterlimit="10" stroke-linecap="round" stroke-linejoin="round"/>
<path d="M46.4165 122.792V90.792" stroke="#2462BC" stroke-width="5" stroke-miterlimit="10" stroke-linecap="round" stroke-linejoin="round"/>
<path d="M60.4995 115.625V123.875" stroke="#2462BC" stroke-width="5" stroke-miterlimit="10" stroke-linecap="round" stroke-linejoin="round"/>
<path d="M72.4995 56.625V49.792C72.4995 49.792 71.9995 43.125 67.9995 39.125C65.9195 37.045 58.6665 31.958 58.6665 31.958L46.4165 38.958L34.2495 31.958C34.2495 31.958 26.9965 37.044 24.9165 39.125C20.9165 43.125 20.4165 49.792 20.4165 49.792V78.625L30.4165 84.458" stroke="#2462BC" stroke-width="5" stroke-miterlimit="10" stroke-linecap="round" stroke-linejoin="round"/>
<path d="M93.5825 71.625H57.2495V104.625H93.5825V71.625Z" stroke="#2462BC" stroke-width="5" stroke-miterlimit="10" stroke-linecap="round" stroke-linejoin="round"/>
<path d="M57.9165 85.292H93.5835" stroke="#2462BC" stroke-width="5" stroke-miterlimit="10" stroke-linecap="round" stroke-linejoin="round"/>
<path d="M65.9165 69.625V64.292H84.2495V69.958" stroke="#2462BC" stroke-width="5" stroke-miterlimit="10" stroke-linecap="round" stroke-linejoin="round"/>
<path d="M75.2495 86.292V92.292" stroke="#2462BC" stroke-width="5" stroke-miterlimit="10" stroke-linejoin="round"/>
</svg>
