<svg width="114" height="129" viewBox="0 0 114 129" fill="none" xmlns="http://www.w3.org/2000/svg">
<path d="M57.2915 27.125C63.3666 27.125 68.2915 22.2001 68.2915 16.125C68.2915 10.0499 63.3666 5.125 57.2915 5.125C51.2164 5.125 46.2915 10.0499 46.2915 16.125C46.2915 22.2001 51.2164 27.125 57.2915 27.125Z" stroke="#2462BC" stroke-width="5" stroke-miterlimit="10"/>
<path d="M42.2915 54.625V123.875H71.0415" stroke="#2462BC" stroke-width="5" stroke-miterlimit="10" stroke-linecap="round" stroke-linejoin="round"/>
<path d="M56.9585 122.792V90.792" stroke="#2462BC" stroke-width="5" stroke-miterlimit="10" stroke-linecap="round" stroke-linejoin="round"/>
<path d="M71.0415 54.625V123.875" stroke="#2462BC" stroke-width="5" stroke-miterlimit="10" stroke-linecap="round" stroke-linejoin="round"/>
<path d="M73.0415 84.458L83.0415 78.625V49.792C83.0415 49.792 82.5415 43.125 78.5415 39.125C76.4615 37.045 69.2085 31.958 69.2085 31.958L56.9585 38.958L44.7915 31.958C44.7915 31.958 37.5385 37.044 35.4585 39.125C31.4585 43.125 30.9585 49.792 30.9585 49.792V78.625L40.9585 84.458" stroke="#2462BC" stroke-width="5" stroke-miterlimit="10" stroke-linecap="round" stroke-linejoin="round"/>
</svg>
