<svg width="48" height="47" viewBox="0 0 48 47" fill="none" xmlns="http://www.w3.org/2000/svg">
<path d="M39.8182 42.8652C32.1309 45.7026 21.8915 43.1372 13.6361 35.7905C4.18485 27.3796 0.815592 15.3893 5.02854 7.21551L8.65268 3.76989C10.2642 2.2006 12.8545 2.22416 14.4376 3.82138L19.0237 8.45078C20.6068 10.048 20.5829 12.6155 18.9714 14.1848C18.9714 14.1848 15.3697 17.6914 12.5713 20.4142L12.5592 20.399C13.9869 22.9284 15.8287 25.4341 18.0552 27.7856C20.7802 30.6611 23.8864 33.418 26.9097 35.1163C29.6103 32.3311 33.0083 28.8253 33.0083 28.8253C34.5734 27.2104 37.1634 27.1593 38.7926 28.7105L43.5116 33.2053C45.1408 34.7565 45.1922 37.3237 43.627 38.9386C43.627 38.9369 41.8335 40.7869 39.8182 42.8652Z" stroke="#2462BC" stroke-width="5" stroke-miterlimit="10" stroke-linejoin="round"/>
</svg>
