<?xml version="1.0" encoding="utf-8"?>
<svg version="1.1" id="Слой_1" xmlns="http://www.w3.org/2000/svg" xmlns:xlink="http://www.w3.org/1999/xlink" x="0px" y="0px"
	 viewBox="0 0 48 47" style="enable-background:new 0 0 48 47;" xml:space="preserve">
<g>
	<path class="st0" d="M33.3,46.5c-7.1,0-14.9-3.1-21.3-8.8C1.9,28.7-2,15.4,2.8,6.1c0.1-0.2,0.3-0.5,0.5-0.7L6.9,2
		c2.6-2.5,6.7-2.5,9.3,0.1l4.6,4.6c1.2,1.2,1.9,2.9,1.9,4.7c0,1.8-0.7,3.4-2,4.6l-5,4.8c1.2,1.8,2.6,3.6,4.1,5.2
		c2.3,2.5,4.6,4.5,6.7,5.9l4.7-4.8c2.5-2.6,6.7-2.7,9.3-0.2l4.7,4.5c1.3,1.2,2,2.8,2,4.6c0,1.8-0.6,3.4-1.8,4.7c0,0,0,0,0,0
		c-0.1,0.1-0.7,0.7-1.6,1.6l-2.2,2.3c-0.3,0.3-0.6,0.5-0.9,0.6C38.4,46.1,35.9,46.5,33.3,46.5z M7.1,8.7C3.6,16,7,26.5,15.3,33.9
		c7.2,6.4,16.2,9,23.1,6.8l1.8-1.8c0.7-0.7,1.2-1.2,1.6-1.6l0,0c0.3-0.3,0.4-0.7,0.4-1.1c0-0.4-0.2-0.8-0.5-1.1l-4.7-4.5
		c-0.6-0.6-1.7-0.6-2.3,0l-6.1,6.3c-0.8,0.8-2,1-3,0.4c-2.9-1.6-6.1-4.3-9.4-7.8c-2.3-2.4-4.3-5.1-5.9-7.9c-0.6-1.1-0.3-2.5,0.7-3.2
		l6.2-6c0.3-0.3,0.5-0.7,0.5-1.1c0-0.4-0.2-0.8-0.4-1.1l-4.6-4.6C12,5,11,4.9,10.4,5.6L7.1,8.7z"/>
</g>
</svg>
