<svg width="115" height="130" viewBox="0 0 115 130" fill="none" xmlns="http://www.w3.org/2000/svg">
<path d="M29.877 90.4459C29.877 80.0809 29.877 20.4709 29.877 20.4709C29.877 13.2143 35.7596 7.3316 43.0163 7.3316C50.273 7.3316 56.1556 13.2143 56.1556 20.4709" stroke="#2462BC" stroke-width="5" stroke-miterlimit="10" stroke-linecap="round" stroke-linejoin="round"/>
<path d="M3.29297 91.0572C3.29297 98.3139 9.17563 104.197 16.4323 104.197C23.689 104.197 29.5717 98.3139 29.5717 91.0572" stroke="#2462BC" stroke-width="5" stroke-miterlimit="10" stroke-linecap="round" stroke-linejoin="round"/>
<path d="M98.9355 7.3316C106.192 7.3316 112.075 13.2143 112.075 20.4709" stroke="#2462BC" stroke-width="5" stroke-miterlimit="10" stroke-linecap="round" stroke-linejoin="round"/>
<path d="M56.4619 21.2346H111.464" stroke="#2462BC" stroke-width="5" stroke-miterlimit="10" stroke-linecap="round" stroke-linejoin="round"/>
<path d="M98.9353 7.3316H45.0029" stroke="#2462BC" stroke-width="5" stroke-miterlimit="10" stroke-linecap="round" stroke-linejoin="round"/>
<path d="M3.52246 90.4459H28.7309" stroke="#2462BC" stroke-width="5" stroke-miterlimit="10" stroke-linecap="round" stroke-linejoin="round"/>
<path d="M104.652 80.6668C104.652 55.085 104.652 48.7124 104.652 22.1647" stroke="#2462BC" stroke-width="5" stroke-miterlimit="10" stroke-linecap="round" stroke-linejoin="round"/>
<path d="M17.0439 104.425C17.0439 104.425 29.9529 104.425 46.9895 104.425" stroke="#2462BC" stroke-width="5" stroke-miterlimit="10" stroke-linecap="round" stroke-linejoin="round"/>
<path d="M82.6644 123.246C97.3045 123.246 109.173 111.378 109.173 96.7377C109.173 82.0976 97.3045 70.2295 82.6644 70.2295C68.0244 70.2295 56.1562 82.0976 56.1562 96.7377C56.1562 111.378 68.0244 123.246 82.6644 123.246Z" stroke="#2462BC" stroke-width="5" stroke-miterlimit="10" stroke-linecap="round" stroke-linejoin="round"/>
<path d="M85.3281 87.3076H79.8574V97.0969H85.3281C88.032 97.0969 90.2233 94.9056 90.2233 92.2018C90.2224 89.4989 88.0311 87.3076 85.3281 87.3076Z" stroke="#2462BC" stroke-width="5" stroke-miterlimit="10" stroke-linecap="round" stroke-linejoin="round"/>
<path d="M79.8574 94.7938V107.679" stroke="#2462BC" stroke-width="5" stroke-miterlimit="10" stroke-linecap="round" stroke-linejoin="round"/>
<path d="M77.5527 102.713H87.9186" stroke="#2462BC" stroke-width="5" stroke-miterlimit="10" stroke-linecap="round" stroke-linejoin="round"/>
<path d="M46.217 45.6991C48.7995 45.6991 50.8931 43.6056 50.8931 41.0231C50.8931 38.4406 48.7995 36.347 46.217 36.347C43.6345 36.347 41.541 38.4406 41.541 41.0231C41.541 43.6056 43.6345 45.6991 46.217 45.6991Z" stroke="#2462BC" stroke-width="5" stroke-miterlimit="10" stroke-linecap="round" stroke-linejoin="round"/>
<path d="M40.418 65.5262L65.8568 38.9653" stroke="#2462BC" stroke-width="5" stroke-miterlimit="10" stroke-linecap="round" stroke-linejoin="round"/>
<path d="M61.179 66.6481C63.7615 66.6481 65.855 64.5546 65.855 61.9721C65.855 59.3896 63.7615 57.2961 61.179 57.2961C58.5965 57.2961 56.5029 59.3896 56.5029 61.9721C56.5029 64.5546 58.5965 66.6481 61.179 66.6481Z" stroke="#2462BC" stroke-width="5" stroke-miterlimit="10" stroke-linecap="round" stroke-linejoin="round"/>
</svg>
