<svg width="115" height="130" viewBox="0 0 115 130" fill="none" xmlns="http://www.w3.org/2000/svg">
<path d="M22.6822 18.7345C26.3079 18.7345 29.2472 15.7952 29.2472 12.1695C29.2472 8.54374 26.3079 5.60449 22.6822 5.60449C19.0564 5.60449 16.1172 8.54374 16.1172 12.1695C16.1172 15.7952 19.0564 18.7345 22.6822 18.7345Z" stroke="#2462BC" stroke-width="5" stroke-miterlimit="10"/>
<path d="M13.7305 37.1465V78.4745H30.8885" stroke="#2462BC" stroke-width="5" stroke-miterlimit="10" stroke-linecap="round" stroke-linejoin="round"/>
<path d="M22.4834 77.8275V58.7305" stroke="#2462BC" stroke-width="5" stroke-miterlimit="10" stroke-linecap="round" stroke-linejoin="round"/>
<path d="M30.8887 37.1465V78.4745" stroke="#2462BC" stroke-width="5" stroke-miterlimit="10" stroke-linecap="round" stroke-linejoin="round"/>
<path d="M32.0813 54.9504L38.0493 51.4694V34.2614C38.0493 34.2614 37.7513 30.2824 35.3633 27.8954C34.1223 26.6544 29.7933 23.6184 29.7933 23.6184L22.4823 27.7964L15.2213 23.6184C15.2213 23.6184 10.8923 26.6544 9.65131 27.8954C7.26431 30.2824 6.96631 34.2614 6.96631 34.2614V51.4694L12.9343 54.9504" stroke="#2462BC" stroke-width="5" stroke-miterlimit="10" stroke-linecap="round" stroke-linejoin="round"/>
<path d="M92.6656 64.6776C96.2913 64.6776 99.2306 61.7384 99.2306 58.1126C99.2306 54.4869 96.2913 51.5476 92.6656 51.5476C89.0398 51.5476 86.1006 54.4869 86.1006 58.1126C86.1006 61.7384 89.0398 64.6776 92.6656 64.6776Z" stroke="#2462BC" stroke-width="5" stroke-miterlimit="10"/>
<path d="M83.7129 83.0896V124.418H100.871" stroke="#2462BC" stroke-width="5" stroke-miterlimit="10" stroke-linecap="round" stroke-linejoin="round"/>
<path d="M92.4658 123.772V104.674" stroke="#2462BC" stroke-width="5" stroke-miterlimit="10" stroke-linecap="round" stroke-linejoin="round"/>
<path d="M100.871 83.0896V124.418" stroke="#2462BC" stroke-width="5" stroke-miterlimit="10" stroke-linecap="round" stroke-linejoin="round"/>
<path d="M102.065 100.894L108.033 97.4125V80.2045C108.033 80.2045 107.735 76.2255 105.347 73.8385C104.106 72.5975 99.7772 69.5615 99.7772 69.5615L92.4662 73.7395L85.2052 69.5615C85.2052 69.5615 80.8762 72.5975 79.6352 73.8385C77.2482 76.2255 76.9492 80.2045 76.9492 80.2045V97.4125L82.9172 100.894" stroke="#2462BC" stroke-width="5" stroke-miterlimit="10" stroke-linecap="round" stroke-linejoin="round"/>
<path d="M71.1674 107.178C67.0394 108.641 62.5964 109.438 57.9664 109.438C44.0754 109.438 31.8594 102.268 24.8174 91.4275" stroke="#2462BC" stroke-width="5" stroke-miterlimit="10" stroke-linecap="round"/>
<path d="M22.2725 98.4234L21.9995 90.9284L30.4935 90.6184" stroke="#2462BC" stroke-width="5" stroke-miterlimit="10" stroke-linecap="round"/>
<path d="M45.332 20.5444C49.46 19.0814 53.903 18.2844 58.533 18.2844C72.424 18.2844 84.64 25.4544 91.682 36.2954" stroke="#2462BC" stroke-width="5" stroke-miterlimit="10" stroke-linecap="round"/>
<path d="M94.2269 29.2993L94.4999 36.7943L86.0059 37.1043" stroke="#2462BC" stroke-width="5" stroke-miterlimit="10" stroke-linecap="round"/>
</svg>
