<svg width="115" height="130" viewBox="0 0 115 130" fill="none" xmlns="http://www.w3.org/2000/svg">
<path d="M87.2249 119.848C87.2249 121.358 86.0009 122.581 84.4909 122.581H16.1539C14.6439 122.581 13.4209 121.357 13.4209 119.848V22.0492C13.4209 20.5392 14.6449 19.3162 16.1539 19.3162H84.4909C86.0009 19.3162 87.2249 20.5402 87.2249 22.0492V119.848Z" stroke="#2462BC" stroke-width="5" stroke-miterlimit="10" stroke-linecap="round" stroke-linejoin="round"/>
<path d="M63.839 110.432C72.0581 110.432 78.721 103.769 78.721 95.5502C78.721 87.3311 72.0581 80.6682 63.839 80.6682C55.6199 80.6682 48.957 87.3311 48.957 95.5502C48.957 103.769 55.6199 110.432 63.839 110.432Z" stroke="#2462BC" stroke-width="5" stroke-miterlimit="10" stroke-linecap="round" stroke-linejoin="round"/>
<path d="M60.6904 95.9492L62.8044 98.0632L68.0904 92.7772" stroke="#2462BC" stroke-width="5" stroke-miterlimit="10" stroke-linecap="round" stroke-linejoin="round"/>
<path d="M25.2656 38.1472H65.6606" stroke="#2462BC" stroke-width="5" stroke-miterlimit="10" stroke-linecap="round" stroke-linejoin="round"/>
<path d="M25.2656 48.1702H65.6606" stroke="#2462BC" stroke-width="5" stroke-miterlimit="10" stroke-linecap="round" stroke-linejoin="round"/>
<path d="M25.2656 59.1042H48.3486" stroke="#2462BC" stroke-width="5" stroke-miterlimit="10" stroke-linecap="round" stroke-linejoin="round"/>
<path d="M25.2656 69.1262H48.3486" stroke="#2462BC" stroke-width="5" stroke-miterlimit="10" stroke-linecap="round" stroke-linejoin="round"/>
<path d="M28 17.4942C28 13.4882 28 11.1162 28 11.1162C28 9.60618 29.224 8.38318 30.733 8.38318H99.071C100.581 8.38318 101.804 9.60718 101.804 11.1162V108.915C101.804 110.425 100.58 111.648 99.071 111.648C99.071 111.648 98.995 111.648 94.515 111.648" stroke="#2462BC" stroke-width="5" stroke-miterlimit="10" stroke-linecap="round" stroke-linejoin="round"/>
</svg>
