<svg width="115" height="130" viewBox="0 0 115 130" fill="none" xmlns="http://www.w3.org/2000/svg">
<path d="M33.7048 91.4042C33.7048 91.4042 20.0327 86.6192 15.0767 77.0482C6.72775 60.9272 15.2487 44.5772 15.2487 44.5772C15.2487 44.5772 19.5407 48.4122 20.6627 49.4112C22.1597 46.6552 22.3647 42.9712 23.6167 40.0292C24.8797 37.0602 26.6647 34.1262 29.5647 32.5142C31.7587 31.2952 34.4167 30.2792 35.3717 27.7352C36.1047 25.7822 35.6837 23.3342 35.5427 21.3082C35.3037 17.8702 34.0467 11.0812 34.0467 11.0812C34.0467 11.0812 45.3258 15.8662 50.4528 24.0692C55.2018 31.6672 55.9218 42.1842 55.9218 42.1842L65.4918 32.7852C65.4918 32.7852 71.9858 35.6902 71.6438 56.8822" stroke="#2462BC" stroke-width="5" stroke-miterlimit="10" stroke-linecap="round" stroke-linejoin="round"/>
<path d="M51.4783 66.9652C46.5223 56.7112 42.2493 57.5662 42.2493 57.5662C42.2493 57.5662 38.6603 60.9842 35.2423 71.7512C32.6913 79.7872 33.7043 91.4042 33.7043 91.4042" stroke="#2462BC" stroke-width="5" stroke-miterlimit="10" stroke-linecap="round" stroke-linejoin="round"/>
<path d="M72.7558 118.747C89.4619 118.747 103.005 105.204 103.005 88.4981C103.005 71.7921 89.4619 58.2491 72.7558 58.2491C56.0498 58.2491 42.5068 71.7921 42.5068 88.4981C42.5068 105.204 56.0498 118.747 72.7558 118.747Z" stroke="#2462BC" stroke-width="5" stroke-miterlimit="10" stroke-linecap="round" stroke-linejoin="round"/>
<path d="M72.4995 109.775C72.4995 109.775 69.7655 109.86 64.6385 106.272C60.6855 103.505 59.8535 97.3852 59.8535 97.3852V72.4342" stroke="#2462BC" stroke-width="5" stroke-miterlimit="10" stroke-linecap="round" stroke-linejoin="round"/>
<path d="M73.2889 71.1282C72.8659 74.3462 70.1129 76.8302 66.7799 76.8302C63.5859 76.8302 60.9239 74.5492 60.3359 71.5262" stroke="#2462BC" stroke-width="5" stroke-miterlimit="10" stroke-linecap="round" stroke-linejoin="round"/>
<path d="M73.5244 109.775C73.5244 109.775 76.7714 109.86 81.8984 106.272C85.8514 103.505 86.6834 97.3852 86.6834 97.3852V72.4342" stroke="#2462BC" stroke-width="5" stroke-miterlimit="10" stroke-linecap="round" stroke-linejoin="round"/>
<path d="M73.248 71.1282C73.671 74.3462 76.424 76.8302 79.757 76.8302C82.951 76.8302 85.613 74.5492 86.201 71.5262" stroke="#2462BC" stroke-width="5" stroke-miterlimit="10" stroke-linecap="round" stroke-linejoin="round"/>
</svg>
