<svg width="32" height="32" viewBox="0 0 32 32" fill="none" xmlns="http://www.w3.org/2000/svg">
<path fill-rule="evenodd" clip-rule="evenodd" d="M16.2377 0.820068C7.94806 0.820068 1.22762 7.54051 1.22762 15.8312C1.22762 18.6671 2.01461 21.3196 3.38134 23.5821L0.671997 31.6354L8.98258 28.9749C11.1333 30.1639 13.6063 30.8421 16.2377 30.8421C24.5288 30.8421 31.2488 24.1208 31.2488 15.8312C31.249 7.54051 24.5288 0.820068 16.2377 0.820068ZM16.2377 28.327C13.7 28.327 11.3364 27.5657 9.36302 26.261L4.56094 27.7981L6.12177 23.1579C4.6259 21.0974 3.74205 18.5662 3.74205 15.8312C3.74205 8.94033 9.34768 3.33431 16.2375 3.33431C23.1286 3.33431 28.734 8.94033 28.734 15.8312C28.7342 22.7214 23.1288 28.327 16.2377 28.327ZM23.276 19.2418C22.8996 19.0357 21.0514 18.0381 20.7046 17.8972C20.358 17.7565 20.1051 17.6832 19.8349 18.0572C19.5651 18.4303 18.7982 19.2659 18.5658 19.5132C18.3325 19.7608 18.1079 19.7839 17.7314 19.5772C17.3561 19.3717 16.1363 18.9206 14.7215 17.5608C13.6208 16.5026 12.8988 15.2193 12.6894 14.8277C12.4799 14.4357 12.6878 14.2359 12.8869 14.0523C13.0656 13.8867 13.287 13.6187 13.4869 13.4024C13.6864 13.1862 13.7568 13.029 13.8939 12.7778C14.031 12.5269 13.9758 12.3007 13.8869 12.1054C13.798 11.9107 13.1025 9.99596 12.8119 9.21714C12.5214 8.43832 12.1977 8.5541 11.9741 8.54533C11.7505 8.53756 11.4964 8.49551 11.2407 8.48615C10.9852 8.47638 10.5663 8.55689 10.201 8.92697C9.83554 9.29725 8.81079 10.1869 8.74024 12.0728C8.66969 13.9574 9.97424 15.831 10.156 16.0932C10.3381 16.3563 12.6471 20.4429 16.4842 22.1235C20.3224 23.8038 20.3425 23.2916 21.0466 23.2539C21.7511 23.2168 23.3482 22.4115 23.7013 21.5293C24.0543 20.647 24.0826 19.8797 23.9929 19.7163C23.9036 19.5533 23.6521 19.4473 23.276 19.2418Z" fill="#0154B2"/>
</svg>
