<svg width="358" height="435" viewBox="0 0 358 435" fill="none" xmlns="http://www.w3.org/2000/svg">
<path fill-rule="evenodd" clip-rule="evenodd" d="M191.299 -21.5501L191.203 -21.4597L190.915 -21.0125L190.527 -20.2906L189.857 -19.3032L188.994 -18.1409L188.127 -16.7944L187.069 -15.085L185.911 -13.288L184.566 -11.3159L183.122 -9.06901L180.04 -4.21609L176.759 1.18113L173.185 7.02281L169.516 13.1419L165.838 19.4399L158.745 32.5074L155.434 38.8179L152.493 44.9556L149.927 50.9241L147.838 56.2671L149.377 50.906L150.019 47.9959L150.569 44.9877L151.13 41.6128L151.617 37.7811L152.202 33.6747L152.803 29.0199L153.327 23.9039L153.964 18.1499L154.799 11.8517L155.663 4.64023L156.147 0.804987L156.637 -3.2127L157.229 -7.50074L157.824 -11.974L158.425 -16.6287L159.128 -21.5548L159.835 -26.6667L160.641 -32.0474L162.014 -34.9363L163.837 -37.5391L166.192 -39.5704L168.898 -41.2279L171.777 -42.3276L174.817 -42.8761L178.024 -42.8662L181.208 -42.1263L184.098 -40.7517L186.789 -38.8336L188.918 -36.5679L190.487 -33.952L191.592 -31.0753L192.045 -27.9438L192.036 -24.7368L191.299 -21.5501ZM382.455 -86.2917L376.944 -85.9187L371.802 -85.5272L366.84 -85.1361L362.058 -84.7333L357.471 -84.5122L353.248 -84.2762L349.115 -83.9508L345.261 -83.7032L338.1 -83.3786L331.581 -82.9438L325.799 -82.6668L320.661 -82.463L315.977 -82.1515L311.754 -81.9155L307.983 -81.5787L304.497 -81.3195L301.366 -80.8683L298.416 -80.4113L292.886 -79.3048L287.607 -77.5439L284.734 -76.4439L281.766 -75.2534L278.694 -73.7918L275.252 -72.1566L271.436 -70.3531L267.247 -68.1925L262.685 -65.8627L257.475 -63.2746L251.704 -60.3431L245.278 -57.1535L241.833 -55.3348L238.202 -53.5281L234.295 -51.6331L230.289 -49.6511L226.013 -47.5842L221.452 -45.4388L216.708 -43.1147L211.781 -40.793L208.557 -40.2546L205.444 -40.3525L202.347 -40.9995L199.457 -42.3741L197.037 -44.1894L194.814 -46.3671L193.068 -49.1731L191.969 -52.2305L191.429 -55.4548L191.524 -58.569L192.261 -61.5687L193.63 -64.4611L195.36 -66.9708L197.624 -69.0984L200.426 -70.8463L203.398 -72.0332L208.819 -72.5026L214.053 -72.7968L219.012 -73.1906L223.79 -73.5901L228.291 -73.9108L232.517 -74.1433L236.736 -74.376L240.594 -74.62L247.665 -75.0409L254.271 -75.3829L259.965 -75.7536L265.199 -76.0478L269.875 -76.1752L274.011 -76.504L277.869 -76.748L281.268 -77.1L284.486 -77.4584L287.432 -77.9121L292.879 -79.1147L298.158 -80.8756L301.03 -81.9756L303.999 -83.1661L307.07 -84.6277L310.512 -86.2621L314.324 -88.0691L318.516 -90.2262L323.078 -92.5559L328.289 -95.144L334.06 -98.0755L340.486 -101.265L343.93 -103.084L347.562 -104.891L351.468 -106.786L355.471 -108.771L359.75 -110.835L364.308 -112.984L369.055 -115.305L373.982 -117.627L377.206 -118.165L380.407 -117.973L383.504 -117.326L386.306 -116.045L388.811 -114.132L391.036 -111.957L392.695 -109.245L393.794 -106.187L394.334 -102.963L394.326 -99.7561L393.593 -96.7528L392.308 -93.7703L390.491 -91.3542L388.317 -89.1303L385.512 -87.385L382.455 -86.2917ZM517.808 38.6623L515.193 34.3643L512.656 30.3441L510.213 26.4169L507.945 22.6829L505.856 19.1321L503.854 15.6809L500.103 9.42039L496.707 3.72402L493.658 -1.40913L491.054 -6.07548L488.615 -10.187L486.347 -13.9209L484.433 -17.2784L482.598 -20.178L480.846 -22.8032L479.182 -25.3287L477.509 -27.4892L474.237 -31.3456L470.501 -34.9482L468.449 -36.7518L466.119 -38.4776L463.61 -40.3865L460.74 -42.4945L457.508 -44.614L454.01 -47.0171L450.061 -49.7053L445.474 -52.6915L440.629 -55.9602L435.155 -59.7048L429.142 -63.8352L425.82 -66.051L422.409 -68.3536L418.82 -70.853L415.053 -73.5355L411.201 -76.315L407.074 -79.1924L405.137 -81.8199L403.671 -84.708L402.841 -87.6669L402.669 -90.8796L403.038 -93.8909L404.042 -96.7913L405.686 -99.5842L407.778 -102.082L410.404 -104.017L413.291 -105.482L416.252 -106.307L419.281 -106.487L422.473 -106.112L425.377 -105.103L428.168 -103.459L430.67 -101.363L433.285 -97.0648L435.819 -93.0472L438.262 -89.12L440.533 -85.3826L442.619 -81.8353L444.717 -78.4686L448.465 -72.2107L451.768 -66.4264L454.725 -61.3836L457.517 -56.7113L459.954 -52.6024L462.041 -48.8733L464.048 -45.603L465.974 -42.607L467.63 -39.8974L469.301 -37.5526L470.881 -35.305L474.336 -31.4394L477.889 -27.846L480.034 -26.1295L482.357 -24.223L484.961 -22.3986L487.741 -20.3868L490.88 -18.1803L494.559 -15.7723L498.511 -13.0814L502.909 -10.1012L507.846 -6.74218L513.413 -3.08544L519.428 1.04755L522.655 3.34779L526.069 5.65389L529.655 8.14979L533.422 10.8323L537.277 13.6145L541.404 16.4919L543.341 19.1194L544.807 22.0075L545.631 24.9654L545.719 28.0819L545.442 31.1905L544.434 34.0942L542.789 36.881L540.694 39.3818L538.071 41.3137L535.185 42.7846L532.227 43.6067L529.108 43.6895L525.999 43.4109L523.101 42.4021L520.31 40.7588L517.808 38.6623ZM467.258 230.359L469.879 225.583L472.497 220.989L474.918 216.759L477.247 212.619L479.474 208.744L481.609 204.963L483.641 201.455L485.577 198.03L489.252 191.912L492.537 186.335L495.35 181.384L498.053 176.888L500.377 172.929L502.414 169.233L504.347 165.993L506.003 162.838L507.463 160.042L508.646 157.331L510.642 152.082L512.181 146.721L512.824 143.81L513.469 140.713L513.942 137.246L514.423 133.594L514.915 129.394L515.517 124.738L516.228 119.63L516.862 113.878L517.611 107.484L518.377 100.36L518.864 96.5284L519.354 92.5116L519.942 88.22L520.543 83.7478L521.145 79.0922L521.844 74.1644L522.464 68.9587L523.27 63.578L524.554 60.5955L526.471 57.9047L528.826 55.8734L531.35 54.2103L534.407 53.1135L537.45 52.5686L540.651 52.7601L543.836 53.4999L546.819 54.7866L549.511 56.7047L551.543 59.0608L553.208 61.5864L554.313 64.4631L554.766 67.5945L554.758 70.8015L554.02 73.9856L551.396 78.7586L548.784 83.3519L546.359 87.5823L544.032 91.7249L541.808 95.5964L539.671 99.3796L537.639 102.888L535.613 106.216L532.033 112.428L528.837 117.922L525.846 122.865L523.227 127.458L520.904 131.416L518.775 135.015L516.936 138.349L515.373 141.416L513.909 144.209L512.636 147.011L510.644 152.082L509.104 157.437L508.465 160.352L507.907 163.542L507.347 166.916L506.773 170.655L506.275 174.855L505.672 179.51L505.149 184.626L504.513 190.379L503.767 196.771L502.813 203.889L502.329 207.724L501.84 211.741L501.248 216.029L500.654 220.502L500.052 225.157L499.348 230.085L498.732 235.287L497.922 240.671L496.641 243.657L494.818 246.255L492.369 248.379L489.845 250.043L486.969 251.139L483.841 251.594L480.634 251.584L477.447 250.841L474.46 249.557L471.774 247.64L469.737 245.284L468.075 242.762L466.883 239.792L466.43 236.661L466.526 233.548L467.258 230.359ZM276.818 295.671L282.243 295.203L287.476 294.909L292.436 294.515L297.214 294.115L301.618 293.885L305.938 293.565L309.979 293.325L313.833 293.078L320.997 292.57L327.423 292.222L333.205 291.945L338.438 291.652L343.121 291.341L347.256 291.013L351.114 290.769L354.517 290.42L357.644 289.966L360.593 289.51L366.13 288.216L360.852 289.975L357.978 291.077L355.096 292.36L351.939 293.728L348.586 295.454L344.679 297.349L340.584 299.422L335.927 301.841L330.804 304.521L325.031 307.455L318.698 310.74L315.16 312.458L311.531 314.27L307.807 316.169L303.712 318.242L299.433 320.306L295.059 322.459L290.313 324.785L285.383 327.103L282.161 327.646L279.048 327.548L275.952 326.9L273.057 325.524L270.638 323.707L268.413 321.527L266.668 318.724L265.572 315.665L265.031 312.441L265.035 309.231L265.772 306.231L267.053 303.245L268.783 300.735L271.047 298.608L273.848 296.861L276.818 295.671ZM366.127 288.215L371.495 286.552L374.188 285.446L377.156 284.256L380.321 282.706L383.667 281.161L387.479 279.355L391.671 277.198L396.234 274.867L401.357 272.187L407.13 269.253L413.462 265.969L416.997 264.247L420.626 262.436L424.445 260.447L428.448 258.467L432.725 256.401L437.101 254.246L441.844 251.922L446.775 249.604L449.998 249.065L453.112 249.163L456.209 249.81L459.098 251.185L461.608 252.909L463.74 255.178L465.483 257.98L466.675 260.95L467.219 264.177L467.123 267.291L466.478 270.381L465.108 273.273L463.379 275.783L461.112 277.913L458.313 279.658L455.341 280.845L449.917 281.317L444.776 281.707L439.813 282.099L435.036 282.498L430.537 282.817L426.315 283.052L422.18 283.38L418.323 283.624L411.165 283.95L404.827 284.392L398.951 284.756L393.812 284.961L389.129 285.272L384.907 285.507L381.136 285.844L377.736 286.197L374.518 286.555L371.569 287.011L366.127 288.215ZM140.394 169.766L143.013 174.067L145.633 178.179L148.081 182.108L150.347 185.843L152.526 189.486L154.62 192.85L158.458 199.205L161.76 204.99L164.812 210.128L167.599 214.797L170.038 218.905L172.212 222.733L174.219 226.004L176.142 228.995L177.802 231.707L179.559 234.145L181.139 236.393L184.594 240.259L188.238 243.948L190.383 245.665L192.707 247.57L195.307 249.393L198.173 251.498L201.403 253.801L204.998 256.114L209.036 258.899L213.435 261.879L218.46 265.336L224.029 268.992L230.129 273.215L233.359 275.517L236.768 277.822L240.445 280.412L244.211 283.096L248.068 285.877L252.282 288.849L254.312 291.388L255.686 294.364L256.513 297.325L256.694 300.354L256.412 303.46L255.313 306.45L253.764 309.153L251.67 311.653L249.045 313.587L246.157 315.053L243.199 315.876L239.987 316.052L236.975 315.683L234.07 314.673L231.281 313.028L228.778 310.932L226.074 306.541L223.539 302.519L221.095 298.594L218.738 294.762L216.65 291.216L214.553 287.85L210.719 281.498L207.416 275.714L204.278 270.483L201.578 265.907L199.05 261.702L196.965 257.971L194.868 254.604L192.945 251.613L191.289 248.903L189.53 246.465L187.952 244.217L184.591 240.262L180.853 236.662L178.707 234.946L176.384 233.039L173.78 231.215L170.914 229.11L167.775 226.903L164.09 224.494L160.141 221.805L155.654 218.732L150.716 215.368L145.148 211.711L139.044 207.485L135.817 205.185L132.317 202.783L128.73 200.289L124.961 197.602L121.02 194.731L116.89 191.849L114.958 189.224L113.487 186.335L112.663 183.377L112.483 180.348L112.855 177.15L113.863 174.251L115.505 171.46L117.599 168.96L120.225 167.026L123.018 165.649L126.069 164.734L129.189 164.651L132.201 165.02L135.102 166.026L137.989 167.585L140.394 169.766ZM147.84 56.2671L135.027 144.762L133.742 147.745L131.828 150.436L129.474 152.47L126.946 154.13L123.89 155.227L120.847 155.772L117.645 155.58L114.462 154.839L111.478 153.554L108.787 151.635L106.753 149.28L105.089 146.754L103.898 143.784L103.444 140.653L103.54 137.54L104.279 134.355L106.903 129.582L109.425 125.079L111.94 120.759L114.267 116.616L116.496 112.747L118.715 109.056L120.749 105.547L122.593 102.215L126.265 96.0991L129.553 90.5194L132.459 85.4808L135.07 81.0719L137.483 77.022L139.611 73.4237L141.456 70.0918L143.018 67.0254L144.478 64.2293L145.756 61.4293L147.84 56.2671Z" fill="white"/>
<path fill-rule="evenodd" clip-rule="evenodd" d="M114.02 133.564L117.687 130.469L121.17 127.555L124.463 124.818L127.659 122.167L133.671 117.408L139.027 113.084L143.823 109.11L148.238 105.677L152.185 102.502L155.842 99.7746L158.946 97.2154L161.767 94.9227L164.302 92.8919L166.563 90.9486L168.545 89.0866L170.342 87.217L173.568 83.6532L170.881 87.6018L169.532 89.7599L168.17 92.2812L166.81 94.806L165.431 97.8772L163.866 101.13L162.193 104.834L160.325 108.898L158.257 113.505L155.99 118.658L153.343 124.352L150.493 130.587L147.252 137.54L145.58 141.244L143.722 145.13L141.758 149.282L139.704 153.527L137.338 155.926L134.807 157.772L131.925 159.055L128.973 159.696L125.766 159.687L122.663 159.221L119.674 158.121L116.889 156.291L114.487 153.924L112.641 151.392L111.45 148.422L110.807 145.469L110.721 142.351L111.181 139.246L112.284 136.259L114.02 133.564ZM246.701 -23.1093L251.063 -24.8931L255.331 -26.5959L259.316 -28.0262L263.214 -29.5553L270.261 -32.2623L276.658 -34.7222L282.594 -36.9187L287.782 -38.7701L292.511 -40.5483L296.775 -42.0634L300.576 -43.502L303.92 -44.8616L307.07 -46.0464L309.765 -47.1545L312.185 -48.3622L314.509 -49.4786L318.712 -52.004L314.672 -48.9237L310.535 -45.3877L306.103 -41.4048L301.662 -37.0508L292.761 -27.8023L288.309 -23.0868L284.135 -18.4491L280.243 -14.0838L276.541 -9.89014L273.306 -6.14142L270.453 -2.75201L269.309 -1.31981L268.169 -0.0719055L267.127 1.08821L266.453 2.07209L265.788 2.87872L265.318 3.32016L265.026 3.77066L264.933 3.85861L262.049 5.32699L259.082 6.33309L255.957 6.6036L252.852 6.32162L249.857 5.40337L247.061 3.94164L244.55 2.03008L242.432 -0.604004L240.966 -3.49206L239.954 -6.4567L239.685 -9.57809L239.962 -12.6866L240.882 -15.684L242.255 -18.5728L244.254 -20.9832L246.701 -23.1093ZM318.711 -52.004L322.557 -54.9094L324.533 -56.5899L326.426 -58.5447L328.597 -60.5844L330.779 -62.9924L333.245 -65.6599L335.993 -68.5999L339.03 -71.9861L342.447 -75.7291L346.241 -79.8256L350.415 -84.4564L355.063 -89.5388L360.364 -95.0526L363.113 -97.9925L366.147 -101.194L369.175 -104.397L372.489 -107.869L375.377 -109.334L378.341 -110.344L381.465 -110.614L384.574 -110.329L387.568 -109.41L390.365 -107.949L392.873 -106.04L394.991 -103.406L396.46 -100.515L397.468 -97.5539L397.828 -94.3353L397.551 -91.2268L396.631 -88.2294L395.171 -85.4333L393.172 -83.023L390.721 -80.9013L318.711 -52.004ZM173.483 83.5587L176.265 79.5205L177.614 77.3633L178.882 74.93L180.339 72.3199L181.715 69.2451L183.284 65.9962L184.956 62.2918L186.822 58.2248L188.889 53.6169L191.156 48.464L193.71 42.8629L196.654 36.5401L199.797 29.6721L201.564 25.8789L203.426 21.9961L205.385 17.8419L207.442 13.6008L209.715 11.2891L212.245 9.44431L215.214 8.25386L218.259 7.5255L221.376 7.43909L224.481 7.90204L227.377 9.0959L230.165 10.7426L232.568 13.1078L234.414 15.6391L235.606 18.6085L236.333 21.6577L236.425 24.7778L235.96 27.8796L234.862 30.8679L233.033 33.6524L229.364 36.7426L225.976 39.5681L222.594 42.3946L219.489 44.9545L213.476 49.7136L208.12 54.0371L203.233 57.914L198.909 61.4441L194.874 64.5263L191.306 67.3469L188.114 69.8133L185.293 72.106L182.845 74.2296L180.492 76.2643L178.51 78.1264L176.623 79.8996L173.483 83.5587Z" fill="white"/>
<path fill-rule="evenodd" clip-rule="evenodd" d="M212.409 -43.341L211.801 -38.5038L211.181 -33.2982L210.562 -28.0925L209.58 -22.8992L230.169 -24.8194L232.195 -22.2825L233.57 -19.3039L234.394 -16.346L234.663 -13.2246L234.298 -10.2097L233.284 -7.12436L231.733 -4.42553L229.641 -1.92803L227.106 0.103554L224.13 1.47473L221.17 2.30009L218.049 2.56729L215.037 2.19735L211.948 1.18521L209.248 -0.367804L206.746 -2.46429L209.578 -22.9026L207.441 -21.9613L205.316 -21.3884L203.294 -21.271L201.092 -21.1533L198.712 -21.2316L195.964 -21.3145L192.757 -21.3244L188.899 -21.0804L186.873 -23.6173L185.498 -26.5925L184.674 -29.5504L184.492 -32.579L184.769 -35.6875L185.871 -38.6792L187.422 -41.3781L189.513 -43.8756L192.146 -45.9916L195.024 -47.2783L198.079 -48.1917L201.106 -48.3718L204.217 -48.0896L207.203 -46.9864L209.906 -45.4367L212.409 -43.341ZM261.223 221.955L261.044 215.901L260.941 210.307L260.744 204.802L260.631 199.576L260.6 194.625L260.565 189.859L260.517 185.458L260.464 181.241L260.405 177.207L260.433 173.266L260.377 166.206L260.387 159.975L260.473 154.204L260.354 149.159L260.32 144.393L260.17 140.263L260.107 136.414L259.846 132.921L259.581 129.612L258.671 123.536L259.973 128.893L261.629 134.627L263.543 140.825L265.64 147.217L270.277 160.285L275.369 173.459L277.739 179.763L280.3 185.894L282.689 191.653L284.904 197.036L286.954 201.865L288.657 206.136L289.515 207.995L290.287 209.76L290.973 211.248L291.481 212.546L376.653 155.102L381.001 150.842L385.55 146.035L390.29 140.872L395.139 135.25L399.902 129.35L404.762 123.36L414.299 111.2L418.791 105.197L423.096 99.3771L427.022 93.9066L430.659 88.8902L433.92 84.2272L435.361 82.1647L436.794 80.2862L437.945 78.4889L439.098 76.8736L439.964 75.527L440.828 74.3647L352.596 34.9302L346.777 33.467L340.399 32.1636L333.561 31.1246L326.259 30.1644L311.277 28.5905L303.778 27.9894L296.374 27.4823L289.239 27.0736L282.469 26.6798L276.149 26.572L270.47 26.3935L267.818 26.2201L265.529 26.2381L263.332 26.1691L261.317 26.1057L259.671 26.054L258.204 26.0079L257.013 26.0605L256.096 26.0316L258.678 123.535L257.306 117.535L256.304 114.387L255.211 111.143L253.95 107.53L252.421 103.634L250.812 99.2742L248.849 94.538L246.722 89.2477L244.34 83.3071L241.704 76.7197L240.345 73.1918L238.81 69.4775L237.191 65.4853L235.578 61.3106L233.885 56.8606L232.097 52.3108L230.232 47.4902L228.281 42.3847L226.249 37.0056L224.131 31.3487L223.864 28.0421L224.148 24.9338L225.061 21.9362L226.613 19.2373L228.612 16.827L230.967 14.7906L233.854 13.3257L236.998 12.3226L240.123 12.059L243.05 12.3319L243.05 9.30902L243.511 6.20372L244.708 3.12756L246.346 0.521497L248.432 -1.79608L250.962 -3.6409L253.844 -4.92413L256.893 -5.65582L260.009 -5.74222L263.293 -5.27025L268.81 -2.80795L273.961 -0.534714L278.841 1.81749L283.537 3.9795L288.06 5.9586L292.303 8.01292L296.368 9.88413L300.163 11.6551L303.775 13.4177L307.298 15.0867L313.622 18.0331L319.402 20.7815L324.454 23.3235L329.065 25.3954L333.22 27.356L337.013 29.1243L340.452 30.5162L343.71 31.9024L346.703 33.0058L352.604 34.7496L358.614 36.0344L361.804 36.5944L365.274 37.0722L369.015 37.4651L373.125 37.8696L377.702 38.1978L382.822 38.5432L388.495 38.9033L394.801 39.3769L401.756 39.7799L405.595 40.0815L409.616 40.3923L413.916 40.6184L418.306 40.9408L422.968 41.3652L427.905 41.7014L433.119 42.1397L438.508 42.5835L444.175 43.1304L450.119 43.5917L453.198 44.7879L455.895 46.3374L458.122 48.5153L459.968 51.0465L461.347 53.8409L462.077 56.8868L462.165 60.0102L461.698 63.2903L460.603 66.1012L459.148 68.7096L460.869 69.4069L462.485 70.3727L463.917 71.5171L465.341 72.8448L467.278 75.4724L468.66 78.2634L469.575 81.3185L469.66 84.4384L469.291 87.4497L468.19 90.4414L466.733 93.2341L464.454 95.7266L459.122 99.3193L453.972 102.733L449.104 106.06L444.338 109.12L439.939 112.005L435.725 114.899L431.616 117.518L427.874 119.967L424.225 122.329L420.673 124.601L417.398 126.787L414.311 128.798L408.517 132.466L403.465 135.789L398.792 138.755L394.587 141.465L390.934 144.008L387.563 146.285L384.56 148.574L381.651 150.774L376.661 155.105L371.937 159.726L369.655 162.401L367.184 165.256L364.515 168.473L361.752 171.958L358.695 175.897L355.353 180.279L351.627 185.203L347.518 190.664L345.319 193.619L342.932 196.752L340.451 199.974L337.773 203.556L335.006 207.041L332.046 210.889L328.988 215.01L325.65 219.213L322.305 223.597L318.68 228.25L314.769 233.166L310.767 238.175L308.141 240.109L305.348 241.486L302.295 242.398L299.178 242.485L296.165 242.116L293.261 241.106L290.377 239.55L287.969 237.365L286.296 235.206L285.08 232.967L282.754 234.086L280.169 234.739L276.952 235.097L273.755 234.72L270.854 233.714L268.058 232.252L265.646 230.252L263.704 227.806L262.229 225.102L261.223 221.955Z" fill="white"/>
<path fill-rule="evenodd" clip-rule="evenodd" d="M140.83 158.693L140.918 158.787L141.272 159.163L141.81 159.547L142.521 160.303L143.413 161.064L144.484 162.014L145.73 163.153L147.155 164.48L150.368 167.332L153.936 170.56L157.95 174.077L162.326 177.787L171.439 185.408L176.091 189.035L180.841 192.577L185.233 195.738L189.45 198.714L193.408 201.034L195.213 202.01L196.925 202.886L266.663 217.91L269.455 219.558L271.861 221.739L273.708 224.274L274.994 227.156L275.819 230.113L275.904 233.232L275.441 236.332L274.433 239.419L272.693 242.296L270.607 244.615L268.076 246.459L265.281 247.836L262.235 248.566L259.111 248.835L255.92 248.276L252.835 247.261L196.925 202.886L192.671 201.195L187.867 199.486L182.691 197.951L177.236 196.495L165.586 193.93L159.755 192.83L154.101 191.92L148.629 191.014L143.612 190.214L139.051 189.52L135.035 189.028L133.209 188.787L131.655 188.646L130.378 188.422L129.193 188.294L128.188 188.172L127.552 188.061L127.184 188.049L126.999 188.041L124.122 186.303L121.899 184.126L120.051 181.591L118.67 178.798L117.941 175.751L117.67 172.626L118.132 169.525L119.239 166.353L120.884 163.564L123.153 161.251L125.684 159.405L128.384 158.118L131.429 157.388L134.554 157.119L137.657 157.585L140.83 158.693Z" fill="white"/>
<path fill-rule="evenodd" clip-rule="evenodd" d="M425.867 -91.3442L426.47 -87.1061L426.986 -82.9676L428.033 -75.4216L428.829 -68.5224L429.554 -62.266L430.205 -56.6551L430.78 -51.5054L431.281 -46.9961L431.797 -42.8575L432.143 -39.2741L432.493 -35.8714L432.955 -32.9249L433.332 -30.2555L433.894 -27.7612L434.376 -25.5481L435.805 -21.3775L437.606 -17.3795L438.739 -15.4204L440.046 -13.2748L441.532 -10.9324L443.29 -8.49487L445.13 -5.78289L447.332 -2.87255L449.792 0.50637L452.521 4.16475L455.511 8.29356L458.857 12.7963L462.544 17.8621L466.59 23.4888L471.068 29.7697L473.35 33.1396L475.804 36.6984L476.713 39.9343L476.982 43.0625L476.609 46.2546L475.604 49.155L474.144 51.9511L472.143 54.3639L469.607 56.3887L466.721 57.8595L463.582 58.6759L460.366 58.8492L457.17 58.4709L454.269 57.4647L451.566 55.915L449.155 53.9148L447.125 51.3744L445.655 48.4896L445.055 44.255L444.543 40.1132L443.489 32.5662L442.694 25.6669L441.972 19.4141L441.317 13.7997L440.836 8.74465L440.244 4.14497L439.819 0.0967904L439.383 -3.58296L439.023 -6.80158L438.661 -9.83583L438.189 -12.4148L437.719 -14.9962L437.237 -17.2093L435.808 -21.38L434.007 -25.3779L432.875 -27.337L431.567 -29.4894L429.988 -31.737L428.323 -34.2626L426.386 -36.8901L424.284 -39.8891L421.727 -43.1767L419.088 -46.9266L416.009 -50.9647L412.672 -55.6507L408.978 -60.7167L404.935 -66.3399L400.454 -72.6234L398.175 -75.9958L395.721 -79.5547L394.9 -82.6977L394.631 -85.8191L394.908 -88.9276L395.915 -91.8254L397.463 -94.5278L399.464 -96.9406L402 -98.9653L404.886 -100.436L408.025 -101.253L411.153 -101.52L414.258 -101.238L417.159 -100.231L419.956 -98.7696L422.367 -96.7694L424.397 -94.229L425.867 -91.3442ZM489.421 43.8198L493.916 46.7087L498.592 49.6042L508.026 55.6756L518.436 36.1152L521.66 35.5768L524.861 35.7683L527.865 36.5034L530.754 37.878L533.265 39.6086L535.394 41.8743L537.143 44.6778L538.238 47.7385L538.778 50.9627L538.589 54.1641L537.855 57.1673L536.579 59.9657L534.852 62.4781L532.585 64.6082L529.784 66.3501L526.724 67.4434L508.025 55.6755L507.442 56.7557L507.045 57.6608L506.27 59.1046L505.593 60.2728L505.001 61.5379L504.521 62.3469L504.03 63.34L503.354 64.5082L502.572 65.9517L501.61 67.5706L500.538 69.6447L499.173 72.1685L497.619 75.0525L494.395 75.5909L491.194 75.3993L488.19 74.6643L485.388 73.3825L482.789 71.5582L480.66 69.2925L478.999 66.5828L477.904 63.522L477.364 60.2977L477.553 57.0964L478.29 54.0967L479.567 51.2983L481.39 48.6955L483.654 46.5679L486.363 44.913L489.421 43.8198Z" fill="white"/>
<path fill-rule="evenodd" clip-rule="evenodd" d="M486.545 89.5522L486.539 89.7338L486.435 90.1894L486.228 90.916L485.92 91.9148L485.603 93.2787L485.193 94.7305L484.771 96.5507L484.254 98.4614L483.204 102.829L481.945 107.92L480.767 113.473L479.392 119.389L476.73 131.494L475.529 137.596L474.438 143.427L473.536 148.898L472.825 154.006L472.324 158.392L472.262 160.407L472.211 162.053L471.804 157.456L471.425 154.971L470.952 152.392L470.304 149.62L469.48 146.663L468.58 143.243L467.591 139.548L466.346 135.381L465.02 130.761L463.619 125.674L461.963 119.941L460.235 113.56L458.341 106.626L457.362 102.748L456.382 98.8706L455.23 94.6153L454.171 90.2787L454.457 86.987L455.373 83.9929L456.74 81.284L458.651 78.7799L461.006 76.7435L463.709 75.2703L466.769 74.1771L469.984 73.8219L473.272 74.1063L476.367 74.9376L479.073 76.303L481.58 78.2179L483.616 80.5715L485.09 83.2755L486.185 86.3362L486.545 89.5522ZM289.484 271.325L287.347 272.267L285.582 273.035L282.248 274.216L279.556 275.322L277.24 276.073L275.292 276.837L273.433 277.694L271.474 278.825L269.502 280.321L280.272 299.538L278.991 302.524L277.17 305.125L274.905 307.253L272.196 308.909L269.321 310.01L266.278 310.555L263.07 310.546L259.887 309.806L256.902 308.521L254.305 306.514L252.176 304.248L250.513 301.721L249.322 298.751L248.774 295.709L248.782 292.502L249.521 289.317L269.502 280.322L268.893 279.296L268.277 278.45L267.58 277.33L266.971 276.303L266.365 275.09L266.022 274.346L265.5 273.412L264.803 272.292L264.116 270.805L263.07 269.123L261.854 266.884L260.467 264.273L258.725 261.285L260.01 258.303L262.016 255.709L264.282 253.581L266.901 251.829L269.775 250.727L272.817 250.183L276.021 250.189L279.208 250.933L282.192 252.219L284.794 254.04L286.922 256.306L288.581 259.018L289.682 261.892L290.23 264.934L290.222 268.141L289.484 271.325ZM448.902 272.854L444.637 271.529L440.552 270.211L436.558 268.984L432.842 267.678L425.946 265.444L419.686 263.321L414.06 261.494L408.983 259.685L404.539 258.17L400.462 256.668L396.833 255.454L393.478 254.341L390.479 253.42L387.757 252.604L385.21 251.974L382.841 251.534L378.28 250.84L382.859 250.985L385.244 250.876L387.906 250.683L390.76 250.316L393.89 249.865L397.297 249.33L401.075 248.622L405.31 248.024L410.011 247.164L415.355 246.233L421.156 245.222L427.607 244.141L434.788 243.084L438.653 242.475L442.704 241.868L446.942 241.267L451.454 240.585L454.644 241.145L457.627 242.432L460.237 244.068L462.46 246.246L464.212 248.865L465.497 251.748L466.231 254.797L466.31 258.097L465.752 261.287L464.47 264.273L462.831 266.879L460.655 269.1L458.034 270.854L455.249 272.046L452.2 272.778L448.902 272.854ZM378.281 250.839L373.701 250.694L371.229 250.71L368.654 250.996L365.8 251.364L362.67 251.814L359.175 252.256L355.394 252.96L351.155 253.743L346.461 254.422L341.118 255.353L335.312 256.361L328.862 257.441L321.587 258.587L317.718 259.199L313.667 259.805L309.432 260.405L304.923 261.09L301.732 260.531L298.747 259.246L296.14 257.606L293.914 255.427L292.164 252.806L290.965 250.017L290.235 246.971L290.156 243.671L290.71 240.479L291.907 237.403L293.545 234.797L295.815 232.483L298.342 230.823L301.315 229.448L304.361 228.719L307.664 228.639L311.932 229.966L316.103 231.379L320.008 232.509L323.727 233.819L330.624 236.052L336.88 238.172L342.503 240.184L347.489 241.898L352.119 243.42L356.107 244.828L359.823 246.135L362.997 247.242L365.991 248.161L368.717 248.98L371.264 249.61L373.721 250.144L378.281 250.839ZM472.209 162.054L490.157 233.734L489.871 237.026L489.045 240.116L487.678 242.825L485.767 245.329L483.415 247.363L480.708 248.833L477.652 249.929L474.433 250.288L471.142 250L468.051 249.172L465.345 247.8L462.836 245.891L460.804 243.535L459.329 240.831L458.23 237.773L457.87 234.555L458.738 230.182L459.598 225.993L460.369 221.895L461.221 218.072L462.723 210.97L464.203 204.6L465.481 198.775L466.744 193.5L467.799 188.951L468.759 184.675L469.698 180.944L470.442 177.579L471.088 174.483L471.449 171.652L471.897 169.099L472.064 166.634L472.209 162.054Z" fill="white"/>
<path fill-rule="evenodd" clip-rule="evenodd" d="M218.641 -13.6365L220.618 -15.3134L222.677 -16.7134L224.728 -17.9318L227.049 -18.8716L229.268 -19.5325L231.578 -20.1039L233.97 -20.3932L236.259 -20.4121L238.73 -20.2435L241.012 -19.8974L243.283 -19.182L245.456 -18.3839L247.619 -17.2165L249.687 -15.9543L251.655 -14.4286L253.438 -12.7234L255.117 -10.7437L256.517 -8.68531L257.648 -6.54188L258.679 -4.31071L259.34 -2.09199L259.913 0.218262L260.203 2.61055L260.131 4.99486L260.057 7.37141L259.619 9.73993L258.906 12.0106L258.108 14.1843L256.937 16.3489L255.685 18.4174L254.159 20.3838L252.359 22.2507L250.477 23.8432L248.416 25.2474L246.273 26.3686L244.044 27.3988L241.821 28.063L239.514 28.6302L237.216 28.8324L234.742 28.849L232.455 28.6827L230.086 28.2429L227.815 27.5283L225.642 26.7294L223.386 25.65L221.41 24.3007L219.44 22.7775L217.571 20.9762L215.978 19.0926L214.58 17.0317L213.357 14.9754L212.42 12.6562L211.757 10.4384L211.186 8.12727L210.981 5.82859L210.871 3.44195L211.129 1.06779L211.473 -1.21366L212.184 -3.48015L212.985 -5.65716L214.064 -7.91206L215.408 -9.88337L216.936 -11.854L218.641 -13.6365Z" fill="white"/>
<path fill-rule="evenodd" clip-rule="evenodd" d="M258.679 -4.31065L261.741 -5.58904L262.575 -2.99871L263.136 -0.320063L263.416 2.4398L263.428 5.0943L260.13 4.99492L256.832 4.8878L256.807 2.77829L256.592 0.847985L255.619 -3.21741L258.679 -4.31065Z" fill="white"/>
<path fill-rule="evenodd" clip-rule="evenodd" d="M260.13 4.99498L263.428 5.09435L263.253 7.74984L262.803 10.4816L262.078 13.119L261.084 15.6518L258.108 14.1844L255.12 12.9002L256.344 8.90388L256.677 6.99001L256.832 4.88785L260.13 4.99498Z" fill="white"/>
<path fill-rule="evenodd" clip-rule="evenodd" d="M258.108 14.1845L261.084 15.6519L259.91 17.9981L258.373 20.3321L256.652 22.6646L254.666 24.7057L252.359 22.2509L250.14 19.8889L251.657 18.2875L253.079 16.5931L254.147 14.6997L255.12 12.9003L258.108 14.1845Z" fill="white"/>
<path fill-rule="evenodd" clip-rule="evenodd" d="M252.359 22.2506L254.666 24.7054L252.5 26.5651L250.163 28.0464L247.734 29.4381L245.229 30.5488L244.043 27.3986L242.944 24.3403L246.757 22.5332L248.446 21.3035L250.14 19.8886L252.359 22.2506Z" fill="white"/>
<path fill-rule="evenodd" clip-rule="evenodd" d="M244.043 27.3989L245.229 30.5491L242.637 31.3861L239.962 31.9426L237.298 32.1367L234.64 32.1432L234.742 28.8491L234.841 25.5505L236.952 25.5235L238.977 25.2218L242.944 24.3406L244.043 27.3989Z" fill="white"/>
<path fill-rule="evenodd" clip-rule="evenodd" d="M234.742 28.849L234.64 32.1431L231.988 31.9697L229.347 31.4279L226.708 30.7009L224.176 29.7062L225.642 26.7294L226.924 23.7434L230.824 25.0589L232.74 25.391L234.841 25.5505L234.742 28.849Z" fill="white"/>
<path fill-rule="evenodd" clip-rule="evenodd" d="M225.642 26.7295L224.176 29.7064L221.741 28.4369L219.494 26.9925L217.258 25.1788L215.211 23.1943L217.571 20.9763L220.026 18.6703L221.627 20.1888L223.326 21.6169L225.124 22.7693L226.924 23.7435L225.642 26.7295Z" fill="white"/>
<path fill-rule="evenodd" clip-rule="evenodd" d="M217.571 20.9762L215.211 23.1942L213.355 21.0245L211.775 18.7761L210.385 16.3501L209.27 13.8419L212.42 12.6562L215.48 11.563L216.34 13.4201L217.378 15.2862L218.61 16.9774L220.026 18.6702L217.571 20.9762Z" fill="white"/>
<path fill-rule="evenodd" clip-rule="evenodd" d="M212.419 12.6564L209.27 13.842L208.519 11.3418L207.961 8.66665L207.584 5.99725L207.576 3.33943L210.87 3.44212L214.169 3.54924L214.197 5.65544L214.409 7.58904L214.899 9.61798L215.479 11.5632L212.419 12.6564Z" fill="white"/>
<path fill-rule="evenodd" clip-rule="evenodd" d="M210.871 3.44205L207.576 3.33935L207.748 0.687174L208.29 -1.95423L209.011 -4.58829L209.914 -7.03737L212.985 -5.65705L215.968 -4.3704L215.272 -2.46877L214.661 -0.470172L214.327 1.44372L214.169 3.54917L210.871 3.44205Z" fill="white"/>
<path fill-rule="evenodd" clip-rule="evenodd" d="M264.978 225.006L266.953 223.326L269.013 221.924L271.069 220.708L273.387 219.771L275.608 219.109L277.916 218.539L280.309 218.249L282.6 218.227L285.07 218.398L287.35 218.745L289.618 219.456L291.794 220.259L293.956 221.426L296.025 222.682L297.995 224.212L299.777 225.919L301.457 227.897L302.858 229.954L303.983 232.097L305.016 234.332L305.679 236.55L306.25 238.861L306.543 241.252L306.468 243.631L306.396 246.013L305.956 248.383L305.245 250.652L304.446 252.827L303.279 254.988L302.021 257.055L300.494 259.024L298.697 260.894L296.813 262.483L294.754 263.883L292.613 265.01L290.383 266.04L288.161 266.703L285.853 267.271L283.555 267.474L281.079 267.487L278.794 267.324L276.425 266.884L274.154 266.169L271.982 265.371L269.721 264.288L267.748 262.943L265.78 261.418L263.911 259.617L262.318 257.733L260.915 255.671L259.695 253.617L258.759 251.297L258.094 249.076L257.525 246.768L257.321 244.47L257.21 242.083L257.468 239.71L257.813 237.427L258.524 235.16L259.324 232.984L260.403 230.729L261.745 228.753L263.272 226.784L264.978 225.006Z" fill="white"/>
<path fill-rule="evenodd" clip-rule="evenodd" d="M264.978 225.006L262.759 222.644L264.926 220.79L267.269 219.123L269.601 217.821L272.108 216.707L273.387 219.771L274.484 222.83L272.627 223.691L270.761 224.729L268.978 226.047L267.285 227.461L264.978 225.006Z" fill="white"/>
<path fill-rule="evenodd" clip-rule="evenodd" d="M273.387 219.771L272.108 216.707L274.7 215.872L277.375 215.316L280.044 214.941L282.702 214.933L282.6 218.227L282.497 221.523L280.391 221.552L278.458 221.763L274.484 222.83L273.387 219.771Z" fill="white"/>
<path fill-rule="evenodd" clip-rule="evenodd" d="M282.6 218.227L282.702 214.933L285.354 215.108L288.003 215.467L290.636 216.19L293.17 217.185L291.794 220.259L290.509 223.241L286.604 222.112L284.604 221.684L282.497 221.523L282.6 218.227Z" fill="white"/>
<path fill-rule="evenodd" clip-rule="evenodd" d="M291.794 220.259L293.171 217.185L295.605 218.453L297.944 219.995L300.184 221.623L302.231 223.613L299.777 225.919L297.417 228.136L295.815 226.618L294.204 225.283L290.509 223.242L291.794 220.259Z" fill="white"/>
<path fill-rule="evenodd" clip-rule="evenodd" d="M299.777 225.919L302.231 223.613L304.087 225.777L305.663 228.211L307.053 230.637L308.08 233.053L305.016 234.332L301.956 235.426L301.099 233.566L300.149 231.61L298.832 229.83L297.417 228.136L299.777 225.919Z" fill="white"/>
<path fill-rule="evenodd" clip-rule="evenodd" d="M305.016 234.332L308.08 233.053L308.914 235.643L309.476 238.321L309.754 241.077L309.766 243.737L306.468 243.631L303.173 243.528L303.147 241.419L302.931 239.489L301.956 235.425L305.016 234.332Z" fill="white"/>
<path fill-rule="evenodd" clip-rule="evenodd" d="M306.469 243.631L309.766 243.737L309.59 246.387L309.141 249.124L308.419 251.759L307.423 254.294L304.446 252.827L301.46 251.541L302.683 247.546L303.016 245.632L303.173 243.528L306.469 243.631Z" fill="white"/>
<path fill-rule="evenodd" clip-rule="evenodd" d="M304.445 252.827L307.423 254.294L306.25 256.639L304.712 258.974L302.989 261.301L301.004 263.348L298.697 260.894L296.478 258.531L297.994 256.93L299.421 255.232L300.486 253.341L301.46 251.541L304.445 252.827Z" fill="white"/>
<path fill-rule="evenodd" clip-rule="evenodd" d="M298.697 260.894L301.004 263.348L298.837 265.203L296.5 266.689L294.074 268.079L291.567 269.192L290.383 266.04L289.285 262.981L293.096 261.175L294.785 259.946L296.478 258.532L298.697 260.894Z" fill="white"/>
<path fill-rule="evenodd" clip-rule="evenodd" d="M290.383 266.04L291.567 269.192L288.975 270.028L286.301 270.584L283.635 270.773L280.979 270.785L281.079 267.487L281.181 264.191L283.29 264.166L285.316 263.863L289.285 262.981L290.383 266.04Z" fill="white"/>
<path fill-rule="evenodd" clip-rule="evenodd" d="M281.079 267.487L280.979 270.785L278.324 270.608L275.686 270.069L273.048 269.342L270.515 268.348L271.982 265.371L273.264 262.384L277.165 263.699L279.078 264.034L281.181 264.191L281.079 267.487Z" fill="white"/>
<path fill-rule="evenodd" clip-rule="evenodd" d="M271.982 265.371L270.515 268.347L268.08 267.079L265.833 265.634L263.596 263.822L261.552 261.834L263.911 259.617L266.365 257.311L267.968 258.828L269.663 260.254L271.462 261.412L273.264 262.384L271.982 265.371Z" fill="white"/>
<path fill-rule="evenodd" clip-rule="evenodd" d="M263.911 259.618L261.552 261.834L259.693 259.668L258.113 257.418L256.72 254.989L255.606 252.48L258.759 251.298L261.817 250.2L262.679 252.064L263.719 253.927L264.951 255.617L266.365 257.312L263.911 259.618Z" fill="white"/>
<path fill-rule="evenodd" clip-rule="evenodd" d="M258.759 251.298L255.606 252.48L254.858 249.983L254.3 247.308L253.924 244.638L253.915 241.981L257.21 242.083L260.506 242.186L260.535 244.298L260.751 246.229L261.238 248.26L261.817 250.2L258.759 251.298Z" fill="white"/>
<path fill-rule="evenodd" clip-rule="evenodd" d="M257.21 242.083L253.915 241.981L254.089 239.328L254.628 236.688L255.351 234.052L256.252 231.606L259.324 232.984L262.308 234.27L261.61 236.174L260.997 238.169L260.665 240.087L260.506 242.186L257.21 242.083Z" fill="white"/>
<path fill-rule="evenodd" clip-rule="evenodd" d="M259.324 232.984L256.252 231.605L257.519 229.173L259.057 226.838L260.773 224.692L262.759 222.644L264.978 225.006L267.285 227.461L265.768 229.063L264.436 230.672L263.283 232.471L262.308 234.27L259.324 232.984Z" fill="white"/>
<path fill-rule="evenodd" clip-rule="evenodd" d="M94.8802 144.967L96.8555 143.288L98.9149 141.885L100.971 140.668L103.289 139.732L105.51 139.069L107.818 138.5L110.211 138.21L112.503 138.189L114.971 138.358L117.25 138.702L119.52 139.417L121.696 140.221L123.859 141.386L125.927 142.642L127.897 144.172L129.676 145.877L131.356 147.854L132.76 149.915L133.885 152.057L134.915 154.289L135.581 156.512L136.151 158.818L136.446 161.213L136.37 163.592L136.298 165.974L135.856 168.341L135.144 170.609L134.344 172.784L133.178 174.946L131.923 177.016L130.396 178.985L128.596 180.851L126.716 182.442L124.656 183.844L122.512 184.968L120.282 185.997L118.061 186.66L115.753 187.229L113.458 187.434L110.981 187.447L108.697 187.285L106.325 186.842L104.058 186.13L101.881 185.327L99.6243 184.248L97.6497 182.904L95.68 181.374L93.8112 179.575L92.2211 177.693L90.8166 175.632L89.5979 173.577L88.6628 171.258L87.9964 169.036L87.4237 166.726L87.2227 164.431L87.1137 162.044L87.3705 159.67L87.7145 157.388L88.4268 155.12L89.2263 152.945L90.3052 150.69L91.6474 148.713L93.1754 146.745L94.8802 144.967Z" fill="white"/>
<path fill-rule="evenodd" clip-rule="evenodd" d="M94.8802 144.967L92.6609 142.605L94.8244 140.747L97.1672 139.08L99.4996 137.779L102.01 136.669L103.289 139.732L104.386 142.79L102.526 143.648L100.663 144.69L98.8794 146.008L97.1875 147.423L94.8802 144.967Z" fill="white"/>
<path fill-rule="evenodd" clip-rule="evenodd" d="M103.289 139.732L102.01 136.669L104.602 135.833L107.277 135.276L109.946 134.902L112.604 134.894L112.503 138.189L112.399 141.484L110.291 141.509L108.36 141.724L104.386 142.79L103.289 139.732Z" fill="white"/>
<path fill-rule="evenodd" clip-rule="evenodd" d="M112.503 138.189L112.604 134.894L115.256 135.068L117.901 135.424L120.539 136.152L123.072 137.146L121.696 140.221L120.411 143.203L116.506 142.073L114.502 141.641L112.399 141.484L112.503 138.189Z" fill="white"/>
<path fill-rule="evenodd" clip-rule="evenodd" d="M121.696 140.221L123.072 137.146L125.508 138.414L127.843 139.953L130.086 141.584L132.13 143.571L129.676 145.877L127.317 148.093L125.713 146.575L124.107 145.245L120.411 143.203L121.696 140.221Z" fill="white"/>
<path fill-rule="evenodd" clip-rule="evenodd" d="M129.676 145.877L132.13 143.571L133.989 145.738L135.562 148.168L136.955 150.598L137.978 153.01L134.915 154.289L131.858 155.386L131 153.528L130.051 151.571L128.731 149.788L127.317 148.093L129.676 145.877Z" fill="white"/>
<path fill-rule="evenodd" clip-rule="evenodd" d="M134.915 154.29L137.978 153.01L138.817 155.605L139.375 158.279L139.656 161.037L139.665 163.695L136.37 163.592L133.075 163.489L133.049 161.38L132.831 159.447L131.858 155.386L134.915 154.29Z" fill="white"/>
<path fill-rule="evenodd" clip-rule="evenodd" d="M136.37 163.592L139.665 163.695L139.492 166.348L139.043 169.085L138.317 171.717L137.325 174.255L134.344 172.784L131.36 171.499L132.584 167.507L132.92 165.593L133.075 163.489L136.37 163.592Z" fill="white"/>
<path fill-rule="evenodd" clip-rule="evenodd" d="M134.344 172.785L137.325 174.255L136.152 176.599L134.614 178.935L132.891 181.262L130.903 183.307L128.596 180.851L126.38 178.493L127.894 176.889L129.323 175.194L130.389 173.302L131.36 171.499L134.344 172.785Z" fill="white"/>
<path fill-rule="evenodd" clip-rule="evenodd" d="M128.596 180.851L130.903 183.307L128.739 185.164L126.403 186.65L123.976 188.04L121.469 189.153L120.282 185.997L119.184 182.939L123 181.136L124.685 179.904L126.38 178.493L128.596 180.851Z" fill="white"/>
<path fill-rule="evenodd" clip-rule="evenodd" d="M120.282 185.997L121.469 189.153L118.874 189.985L116.202 190.545L113.537 190.735L110.879 190.743L110.981 187.447L111.083 184.152L113.193 184.127L115.218 183.824L119.184 182.939L120.282 185.997Z" fill="white"/>
<path fill-rule="evenodd" clip-rule="evenodd" d="M110.981 187.447L110.879 190.742L108.227 190.567L105.585 190.026L102.952 189.303L100.414 188.305L101.881 185.327L103.166 182.345L107.065 183.657L108.981 183.994L111.083 184.152L110.981 187.447Z" fill="white"/>
<path fill-rule="evenodd" clip-rule="evenodd" d="M101.881 185.327L100.414 188.305L97.9791 187.037L95.7315 185.592L93.4986 183.782L91.4513 181.792L93.8111 179.575L96.2645 177.27L97.8676 178.786L99.5652 180.214L101.365 181.372L103.166 182.345L101.881 185.327Z" fill="white"/>
<path fill-rule="evenodd" clip-rule="evenodd" d="M93.8112 179.575L91.4514 181.792L89.5956 179.627L88.0126 177.376L86.6228 174.95L85.5082 172.44L88.6628 171.258L91.7194 170.162L92.5779 172.02L93.6214 173.888L94.8496 175.574L96.2646 177.27L93.8112 179.575Z" fill="white"/>
<path fill-rule="evenodd" clip-rule="evenodd" d="M88.6627 171.258L85.5082 172.44L84.7612 169.943L84.2023 167.268L83.8268 164.598L83.8179 161.941L87.1137 162.044L90.4078 162.147L90.4345 164.255L90.6493 166.186L91.1371 168.218L91.7194 170.162L88.6627 171.258Z" fill="white"/>
<path fill-rule="evenodd" clip-rule="evenodd" d="M87.1137 162.044L83.8179 161.941L83.9907 159.288L84.531 156.648L85.2529 154.013L86.1542 151.567L89.2263 152.945L92.2103 154.231L91.5093 156.132L90.8988 158.13L90.5645 160.043L90.4078 162.147L87.1137 162.044Z" fill="white"/>
<path fill-rule="evenodd" clip-rule="evenodd" d="M89.2263 152.945L86.1542 151.567L87.418 149.13L88.9565 146.794L90.6718 144.649L92.6609 142.605L94.8802 144.967L97.1875 147.423L95.67 149.023L94.3392 150.631L93.1818 152.428L92.2103 154.231L89.2263 152.945Z" fill="white"/>
<path fill-rule="evenodd" clip-rule="evenodd" d="M240.399 299.844L242.373 298.163L244.434 296.762L246.49 295.545L248.807 294.609L251.028 293.946L253.336 293.376L255.729 293.086L258.021 293.065L260.49 293.235L262.772 293.582L265.038 294.294L267.214 295.096L269.378 296.263L271.446 297.519L273.416 299.049L275.194 300.752L276.875 302.731L278.279 304.792L279.404 306.934L280.434 309.166L281.099 311.387L281.669 313.694L281.963 316.089L281.889 318.468L281.816 320.851L281.375 323.218L280.666 325.489L279.863 327.661L278.697 329.823L277.442 331.892L275.914 333.861L274.118 335.731L272.234 337.318L270.174 338.721L268.031 339.845L265.8 340.874L263.583 341.54L261.271 342.106L258.976 342.311L256.5 342.323L254.215 342.161L251.843 341.718L249.576 341.006L247.4 340.204L245.143 339.125L243.168 337.781L241.199 336.251L239.329 334.45L237.74 332.57L236.335 330.508L235.117 328.454L234.181 326.134L233.515 323.913L232.946 321.606L232.741 319.307L232.632 316.92L232.889 314.546L233.233 312.265L233.945 309.997L234.745 307.821L235.824 305.567L237.166 303.59L238.693 301.621L240.399 299.844Z" fill="white"/>
<path fill-rule="evenodd" clip-rule="evenodd" d="M240.399 299.844L238.18 297.482L240.346 295.627L242.689 293.96L245.018 292.655L247.528 291.545L248.807 294.609L249.905 297.667L248.045 298.524L246.181 299.567L244.398 300.885L242.705 302.299L240.399 299.844Z" fill="white"/>
<path fill-rule="evenodd" clip-rule="evenodd" d="M248.807 294.609L247.528 291.545L250.121 290.709L252.795 290.153L255.464 289.778L258.123 289.771L258.021 293.065L257.918 296.361L255.809 296.385L253.878 296.601L249.905 297.667L248.807 294.609Z" fill="white"/>
<path fill-rule="evenodd" clip-rule="evenodd" d="M258.021 293.065L258.123 289.771L260.775 289.944L263.42 290.301L266.057 291.028L268.591 292.022L267.214 295.096L265.929 298.079L262.025 296.949L260.021 296.518L257.918 296.361L258.021 293.065Z" fill="white"/>
<path fill-rule="evenodd" clip-rule="evenodd" d="M267.214 295.096L268.591 292.022L271.026 293.29L273.364 294.832L275.604 296.46L277.648 298.446L275.194 300.752L272.835 302.969L271.235 301.455L269.625 300.12L265.929 298.079L267.214 295.096Z" fill="white"/>
<path fill-rule="evenodd" clip-rule="evenodd" d="M275.194 300.753L277.648 298.447L279.507 300.615L281.084 303.048L282.474 305.474L283.5 307.89L280.434 309.166L277.377 310.263L276.518 308.404L275.57 306.447L274.25 304.664L272.835 302.969L275.194 300.753Z" fill="white"/>
<path fill-rule="evenodd" clip-rule="evenodd" d="M280.434 309.166L283.5 307.89L284.334 310.481L284.893 313.155L285.175 315.913L285.184 318.572L281.889 318.468L278.593 318.366L278.567 316.257L278.352 314.327L277.377 310.263L280.434 309.166Z" fill="white"/>
<path fill-rule="evenodd" clip-rule="evenodd" d="M281.889 318.468L285.184 318.572L285.01 321.224L284.561 323.962L283.839 326.597L282.844 329.131L279.863 327.661L276.879 326.375L278.103 322.383L278.437 320.469L278.593 318.366L281.889 318.468Z" fill="white"/>
<path fill-rule="evenodd" clip-rule="evenodd" d="M279.863 327.661L282.844 329.131L281.671 331.476L280.133 333.811L278.41 336.139L276.424 338.186L274.118 335.731L271.898 333.369L273.415 331.768L274.841 330.07L275.907 328.178L276.879 326.375L279.863 327.661Z" fill="white"/>
<path fill-rule="evenodd" clip-rule="evenodd" d="M274.118 335.731L276.424 338.186L274.257 340.04L271.922 341.526L269.495 342.916L266.988 344.029L265.8 340.874L264.703 337.816L268.518 336.011L270.206 334.783L271.898 333.369L274.118 335.731Z" fill="white"/>
<path fill-rule="evenodd" clip-rule="evenodd" d="M265.8 340.874L266.988 344.029L264.396 344.865L261.721 345.422L259.055 345.611L256.398 345.619L256.5 342.323L256.602 339.028L258.711 339.003L260.737 338.7L264.703 337.816L265.8 340.874Z" fill="white"/>
<path fill-rule="evenodd" clip-rule="evenodd" d="M256.5 342.323L256.398 345.619L253.746 345.444L251.104 344.903L248.47 344.179L245.936 343.185L247.4 340.204L248.685 337.221L252.586 338.536L254.5 338.87L256.602 339.028L256.5 342.323Z" fill="white"/>
<path fill-rule="evenodd" clip-rule="evenodd" d="M247.4 340.204L245.936 343.185L243.5 341.916L241.254 340.472L239.017 338.658L236.969 336.668L239.329 334.45L241.782 332.145L243.386 333.663L245.084 335.091L246.883 336.249L248.685 337.221L247.4 340.204Z" fill="white"/>
<path fill-rule="evenodd" clip-rule="evenodd" d="M239.329 334.45L236.969 336.668L235.114 334.504L233.534 332.255L232.141 329.826L231.027 327.317L234.181 326.134L237.237 325.037L238.097 326.897L239.139 328.764L240.372 330.454L241.782 332.145L239.329 334.45Z" fill="white"/>
<path fill-rule="evenodd" clip-rule="evenodd" d="M234.181 326.134L231.027 327.317L230.28 324.819L229.721 322.145L229.345 319.475L229.337 316.818L232.632 316.92L235.926 317.023L235.953 319.131L236.171 321.066L236.656 323.095L237.237 325.037L234.181 326.134Z" fill="white"/>
<path fill-rule="evenodd" clip-rule="evenodd" d="M232.632 316.92L229.337 316.818L229.509 314.165L230.05 311.524L230.772 308.89L231.672 306.443L234.745 307.822L237.729 309.107L237.03 311.011L236.417 313.007L236.083 314.92L235.926 317.023L232.632 316.92Z" fill="white"/>
<path fill-rule="evenodd" clip-rule="evenodd" d="M234.745 307.821L231.672 306.443L232.937 304.007L234.478 301.675L236.194 299.529L238.18 297.482L240.399 299.844L242.705 302.299L241.189 303.9L239.858 305.508L238.7 307.304L237.729 309.107L234.745 307.821Z" fill="white"/>
</svg>
