<svg width="904" height="745" viewBox="0 0 904 745" fill="none" xmlns="http://www.w3.org/2000/svg">
<path fill-rule="evenodd" clip-rule="evenodd" d="M476.679 -394.487L476.438 -394.261L475.718 -393.144L474.75 -391.34L473.076 -388.874L470.919 -385.971L468.755 -382.607L466.112 -378.337L463.219 -373.848L459.86 -368.922L456.253 -363.309L448.553 -351.187L440.357 -337.704L431.43 -323.112L422.265 -307.827L413.076 -292.094L395.36 -259.452L387.089 -243.689L379.742 -228.357L373.331 -213.448L368.114 -200.101L371.959 -213.493L373.561 -220.762L374.937 -228.277L376.337 -236.707L377.553 -246.278L379.014 -256.536L380.516 -268.164L381.825 -280.944L383.415 -295.317L385.501 -311.05L387.661 -329.064L388.87 -338.644L390.094 -348.68L391.573 -359.392L393.057 -370.566L394.56 -382.193L396.315 -394.498L398.082 -407.268L400.095 -420.709L403.525 -427.925L408.078 -434.427L413.961 -439.501L420.721 -443.641L427.913 -446.388L435.506 -447.758L443.517 -447.734L451.472 -445.886L458.69 -442.452L465.414 -437.66L470.731 -432.001L474.649 -425.466L477.409 -418.28L478.541 -410.458L478.52 -402.447L476.679 -394.487ZM954.182 -556.21L940.416 -555.278L927.57 -554.3L915.175 -553.323L903.232 -552.317L891.772 -551.765L881.223 -551.175L870.9 -550.362L861.272 -549.744L843.383 -548.933L827.1 -547.847L812.656 -547.155L799.821 -546.646L788.121 -545.868L777.572 -545.278L768.153 -544.437L759.444 -543.789L751.623 -542.662L744.255 -541.521L730.441 -538.757L717.253 -534.358L710.078 -531.61L702.662 -528.636L694.99 -524.985L686.392 -520.901L676.859 -516.395L666.396 -510.998L655 -505.179L641.984 -498.714L627.568 -491.391L611.516 -483.423L602.912 -478.88L593.84 -474.367L584.082 -469.633L574.076 -464.682L563.392 -459.519L552 -454.16L540.15 -448.354L527.843 -442.555L519.79 -441.21L512.013 -441.454L504.276 -443.071L497.058 -446.505L491.011 -451.039L485.46 -456.479L481.096 -463.488L478.352 -471.126L477.003 -479.18L477.241 -486.959L479.081 -494.452L482.502 -501.677L486.821 -507.947L492.478 -513.261L499.478 -517.628L506.902 -520.592L520.442 -521.765L533.517 -522.5L545.905 -523.483L557.84 -524.481L569.083 -525.283L579.64 -525.863L590.18 -526.444L599.817 -527.054L617.479 -528.105L633.981 -528.96L648.205 -529.886L661.28 -530.621L672.96 -530.939L683.291 -531.76L692.928 -532.37L701.418 -533.249L709.458 -534.144L716.817 -535.278L730.422 -538.282L743.61 -542.681L750.785 -545.428L758.201 -548.402L765.873 -552.053L774.469 -556.136L783.993 -560.65L794.465 -566.038L805.861 -571.858L818.876 -578.323L833.292 -585.645L849.345 -593.613L857.948 -598.156L867.02 -602.669L876.778 -607.403L886.776 -612.363L897.466 -617.519L908.85 -622.887L920.708 -628.684L933.016 -634.484L941.069 -635.828L949.066 -635.35L956.802 -633.734L963.802 -630.532L970.06 -625.755L975.618 -620.321L979.762 -613.546L982.506 -605.909L983.855 -597.854L983.835 -589.843L982.003 -582.341L978.794 -574.891L974.255 -568.856L968.824 -563.301L961.818 -558.941L954.182 -556.21ZM1292.29 -244.077L1285.76 -254.814L1279.42 -264.856L1273.32 -274.666L1267.65 -283.993L1262.44 -292.863L1257.43 -301.484L1248.06 -317.123L1239.58 -331.352L1231.96 -344.175L1225.46 -355.831L1219.37 -366.102L1213.7 -375.429L1208.92 -383.816L1204.34 -391.059L1199.96 -397.617L1195.8 -403.926L1191.63 -409.322L1183.45 -418.956L1174.12 -427.955L1168.99 -432.46L1163.17 -436.771L1156.91 -441.539L1149.74 -446.805L1141.66 -452.1L1132.92 -458.103L1123.06 -464.818L1111.6 -472.277L1099.5 -480.442L1085.82 -489.796L1070.81 -500.114L1062.51 -505.649L1053.99 -511.401L1045.02 -517.644L1035.61 -524.345L1025.99 -531.288L1015.68 -538.476L1010.84 -545.039L1007.18 -552.254L1005.11 -559.645L1004.68 -567.67L1005.6 -575.192L1008.11 -582.438L1012.21 -589.414L1017.44 -595.653L1024 -600.487L1031.21 -604.146L1038.61 -606.208L1046.17 -606.658L1054.15 -605.721L1061.4 -603.199L1068.37 -599.094L1074.62 -593.857L1081.15 -583.121L1087.48 -573.085L1093.59 -563.275L1099.26 -553.939L1104.47 -545.078L1109.71 -536.668L1119.07 -521.036L1127.32 -506.586L1134.71 -493.99L1141.69 -482.318L1147.77 -472.055L1152.99 -462.739L1158 -454.57L1162.81 -447.086L1166.95 -440.318L1171.12 -434.46L1175.07 -428.846L1183.7 -419.19L1192.57 -410.214L1197.93 -405.926L1203.74 -401.163L1210.24 -396.606L1217.18 -391.581L1225.03 -386.069L1234.22 -380.054L1244.09 -373.332L1255.07 -365.888L1267.41 -357.497L1281.31 -348.362L1296.34 -338.038L1304.4 -332.292L1312.93 -326.532L1321.88 -320.297L1331.3 -313.596L1340.92 -306.646L1351.23 -299.459L1356.07 -292.895L1359.73 -285.681L1361.79 -278.292L1362.01 -270.507L1361.32 -262.742L1358.8 -255.488L1354.69 -248.527L1349.46 -242.28L1342.91 -237.454L1335.7 -233.78L1328.31 -231.726L1320.52 -231.519L1312.75 -232.216L1305.51 -234.735L1298.54 -238.84L1292.29 -244.077ZM1166.02 234.777L1172.57 222.845L1179.11 211.372L1185.15 200.804L1190.97 190.463L1196.53 180.784L1201.87 171.339L1206.94 162.575L1211.78 154.021L1220.96 138.738L1229.16 124.806L1236.19 112.438L1242.94 101.207L1248.75 91.3189L1253.84 82.0856L1258.67 73.9921L1262.8 66.1105L1266.45 59.1261L1269.41 52.3555L1274.39 39.2436L1278.23 25.8518L1279.84 18.5782L1281.45 10.8421L1282.63 2.18208L1283.84 -6.93999L1285.06 -17.4323L1286.57 -29.0619L1288.34 -41.8227L1289.93 -56.1896L1291.8 -72.1627L1293.71 -89.9575L1294.93 -99.529L1296.15 -109.563L1297.62 -120.283L1299.12 -131.455L1300.63 -143.084L1302.37 -155.394L1303.92 -168.397L1305.93 -181.838L1309.14 -189.289L1313.93 -196.01L1319.81 -201.084L1326.12 -205.239L1333.75 -207.979L1341.36 -209.34L1349.35 -208.861L1357.31 -207.013L1364.76 -203.799L1371.48 -199.008L1376.56 -193.122L1380.72 -186.813L1383.48 -179.628L1384.61 -171.805L1384.59 -163.794L1382.75 -155.841L1376.19 -143.918L1369.67 -132.444L1363.61 -121.876L1357.8 -111.528L1352.24 -101.857L1346.9 -92.4067L1341.83 -83.6421L1336.77 -75.3289L1327.82 -59.8117L1319.84 -46.0893L1312.37 -33.7411L1305.83 -22.2678L1300.02 -12.3799L1294.71 -3.38932L1290.11 4.9385L1286.21 12.6004L1282.55 19.576L1279.37 26.5751L1274.39 39.2438L1270.55 52.6185L1268.95 59.9009L1267.56 67.8687L1266.16 76.2971L1264.73 85.6369L1263.48 96.1285L1261.98 107.758L1260.67 120.536L1259.08 134.909L1257.22 150.874L1254.83 168.656L1253.62 178.236L1252.4 188.27L1250.92 198.982L1249.44 210.154L1247.94 221.783L1246.18 234.092L1244.64 247.088L1242.62 260.537L1239.42 267.996L1234.86 274.485L1228.75 279.792L1222.44 283.946L1215.26 286.685L1207.44 287.821L1199.43 287.796L1191.47 285.94L1184.01 282.734L1177.3 277.945L1172.21 272.059L1168.06 265.759L1165.08 258.342L1163.95 250.519L1164.19 242.742L1166.02 234.777ZM690.303 397.925L703.854 396.755L716.926 396.022L729.317 395.037L741.251 394.039L752.254 393.464L763.045 392.663L773.138 392.066L782.766 391.447L800.66 390.178L816.712 389.31L831.156 388.618L844.229 387.885L855.927 387.109L866.256 386.29L875.893 385.68L884.394 384.808L892.205 383.674L899.571 382.534L913.402 379.302L900.218 383.696L893.039 386.448L885.841 389.654L877.953 393.071L869.577 397.383L859.819 402.117L849.589 407.294L837.955 413.338L825.159 420.033L810.737 427.362L794.919 435.566L786.081 439.859L777.015 444.384L767.713 449.13L757.483 454.307L746.793 459.463L735.868 464.842L724.014 470.651L711.698 476.442L703.651 477.798L695.874 477.553L688.139 475.935L680.909 472.496L674.866 467.958L669.306 462.513L664.949 455.511L662.21 447.869L660.858 439.817L660.87 431.797L662.71 424.304L665.911 416.845L670.231 410.576L675.887 405.261L682.885 400.897L690.303 397.925ZM913.395 379.299L926.805 375.145L933.53 372.383L940.946 369.41L948.852 365.539L957.21 361.68L966.732 357.168L977.204 351.78L988.602 345.958L1001.4 339.263L1015.82 331.934L1031.64 323.73L1040.47 319.428L1049.53 314.904L1059.07 309.936L1069.07 304.991L1079.75 299.828L1090.69 294.446L1102.53 288.64L1114.85 282.85L1122.9 281.505L1130.68 281.749L1138.42 283.366L1145.64 286.799L1151.91 291.107L1157.23 296.774L1161.58 303.774L1164.56 311.192L1165.92 319.255L1165.68 327.032L1164.07 334.751L1160.65 341.976L1156.33 348.245L1150.67 353.566L1143.67 357.924L1136.25 360.889L1122.7 362.069L1109.86 363.043L1097.46 364.022L1085.53 365.02L1074.29 365.815L1063.74 366.402L1053.42 367.222L1043.78 367.831L1025.9 368.647L1010.07 369.749L995.388 370.661L982.552 371.172L970.853 371.948L960.307 372.535L950.887 373.377L942.394 374.258L934.355 375.153L926.99 376.293L913.395 379.299ZM349.518 83.4166L356.06 94.1596L362.605 104.431L368.719 114.246L374.38 123.578L379.823 132.677L385.056 141.08L394.643 156.955L402.892 171.407L410.513 184.24L417.477 195.904L423.568 206.166L429.001 215.728L434.014 223.898L438.817 231.371L442.963 238.144L447.353 244.235L451.299 249.849L459.929 259.507L469.031 268.722L474.389 273.01L480.195 277.77L486.691 282.323L493.851 287.582L501.918 293.335L510.897 299.112L520.986 306.07L531.975 313.512L544.527 322.15L558.436 331.282L573.675 341.829L581.743 347.582L590.258 353.338L599.445 359.809L608.852 366.514L618.485 373.46L629.011 380.883L634.083 387.227L637.515 394.659L639.58 402.057L640.032 409.624L639.33 417.382L636.583 424.851L632.716 431.602L627.485 437.847L620.926 442.679L613.712 446.34L606.322 448.396L598.3 448.835L590.775 447.913L583.52 445.391L576.552 441.282L570.3 436.047L563.546 425.079L557.214 415.032L551.107 405.226L545.22 395.654L540.006 386.797L534.766 378.387L525.188 362.521L516.937 348.072L509.1 335.005L502.356 323.574L496.039 313.072L490.832 303.751L485.593 295.341L480.79 287.868L476.652 281.099L472.26 275.01L468.317 269.394L459.922 259.514L450.584 250.521L445.224 246.235L439.42 241.473L432.916 236.915L425.756 231.656L417.915 226.144L408.71 220.127L398.847 213.409L387.638 205.733L375.302 197.329L361.395 188.195L346.147 177.639L338.086 171.893L329.343 165.894L320.382 159.663L310.966 152.95L301.122 145.779L290.807 138.58L285.98 132.023L282.306 124.807L280.248 117.418L279.796 109.85L280.726 101.862L283.244 94.6209L287.347 87.6487L292.578 81.4037L299.137 76.5716L306.115 73.1321L313.734 70.8482L321.529 70.6391L329.054 71.5612L336.3 74.0747L343.51 77.9687L349.518 83.4166ZM368.118 -200.101L336.112 20.9581L332.903 28.4084L328.12 35.13L322.241 40.2128L315.927 44.3586L308.291 47.0983L300.69 48.4595L292.693 47.9811L284.741 46.1308L277.287 42.9189L270.565 38.1255L265.483 32.244L261.327 25.9332L258.352 18.5135L257.218 10.6932L257.458 2.91615L259.304 -5.03964L265.858 -16.9625L272.158 -28.21L278.442 -39.0017L284.254 -49.3499L289.822 -59.016L295.365 -68.2351L300.445 -77.0018L305.053 -85.3249L314.225 -100.601L322.438 -114.539L329.698 -127.126L336.218 -138.139L342.248 -148.255L347.564 -157.244L352.171 -165.567L356.073 -173.227L359.72 -180.211L362.913 -187.206L368.118 -200.101Z" fill="white"/>
<path fill-rule="evenodd" clip-rule="evenodd" d="M283.637 -7.01431L292.798 -14.7444L301.496 -22.0242L309.723 -28.8604L317.706 -35.4837L332.725 -47.3718L346.104 -58.1718L358.085 -68.099L369.114 -76.6744L378.972 -84.6075L388.107 -91.4194L395.861 -97.8121L402.908 -103.539L409.24 -108.612L414.889 -113.466L419.839 -118.118L424.328 -122.788L432.387 -131.69L425.676 -121.827L422.304 -116.436L418.901 -110.138L415.506 -103.831L412.06 -96.1589L408.151 -88.0345L403.973 -78.781L399.305 -68.6304L394.141 -57.1201L388.478 -44.2481L381.865 -30.0263L374.746 -14.4517L366.651 2.91735L362.473 12.1708L357.831 21.8767L352.927 32.2491L347.795 42.8521L341.884 48.8464L335.561 53.4568L328.363 56.6623L320.99 58.262L312.977 58.2393L305.226 57.0767L297.76 54.3292L290.802 49.7576L284.803 43.8451L280.193 37.5201L277.218 30.1003L275.612 22.7236L275.396 14.9344L276.545 7.17949L279.299 -0.282911L283.637 -7.01431ZM615.071 -398.381L625.966 -402.837L636.628 -407.09L646.584 -410.663L656.32 -414.483L673.925 -421.245L689.904 -427.389L704.732 -432.876L717.691 -437.501L729.505 -441.943L740.154 -445.728L749.65 -449.321L758.002 -452.718L765.871 -455.677L772.604 -458.445L778.65 -461.462L784.453 -464.251L794.954 -470.559L784.862 -462.865L774.528 -454.032L763.457 -444.082L752.364 -433.206L730.129 -410.104L719.007 -398.324L708.58 -386.74L698.858 -375.835L689.611 -365.36L681.529 -355.995L674.402 -347.529L671.545 -343.951L668.697 -340.834L666.094 -337.936L664.412 -335.478L662.75 -333.463L661.576 -332.36L660.847 -331.235L660.613 -331.015L653.41 -327.347L645.997 -324.834L638.192 -324.158L630.436 -324.863L622.956 -327.157L615.969 -330.808L609.697 -335.583L604.407 -342.163L600.744 -349.377L598.218 -356.783L597.546 -364.58L598.238 -372.345L600.536 -379.832L603.966 -387.049L608.958 -393.07L615.071 -398.381ZM794.949 -470.559L804.558 -477.817L809.495 -482.014L814.223 -486.898L819.646 -491.993L825.097 -498.008L831.255 -504.671L838.12 -512.015L845.708 -520.474L854.243 -529.824L863.719 -540.057L874.146 -551.624L885.756 -564.32L899 -578.093L905.865 -585.437L913.444 -593.436L921.009 -601.437L929.288 -610.109L936.5 -613.768L943.904 -616.29L951.709 -616.966L959.474 -616.253L966.954 -613.959L973.94 -610.308L980.207 -605.539L985.496 -598.959L989.165 -591.739L991.683 -584.342L992.583 -576.302L991.891 -568.537L989.593 -561.049L985.946 -554.065L980.953 -548.044L974.83 -542.744L794.949 -470.559ZM432.174 -131.926L439.123 -142.014L442.492 -147.402L445.662 -153.481L449.301 -160.001L452.738 -167.681L456.656 -175.797L460.834 -185.05L465.494 -195.21L470.658 -206.72L476.321 -219.592L482.702 -233.583L490.055 -249.378L497.906 -266.534L502.32 -276.009L506.972 -285.708L511.864 -296.085L517.004 -306.68L522.681 -312.454L529.001 -317.062L536.417 -320.036L544.024 -321.856L551.809 -322.071L559.566 -320.915L566.8 -317.933L573.764 -313.819L579.768 -307.911L584.379 -301.588L587.357 -294.17L589.172 -286.554L589.401 -278.76L588.24 -271.012L585.497 -263.547L580.93 -256.591L571.763 -248.872L563.3 -241.814L554.852 -234.753L547.095 -228.359L532.076 -216.471L518.697 -205.671L506.488 -195.986L495.688 -187.168L485.609 -179.469L476.695 -172.423L468.722 -166.262L461.675 -160.535L455.561 -155.23L449.682 -150.148L444.732 -145.496L440.018 -141.067L432.174 -131.926Z" fill="white"/>
<path fill-rule="evenodd" clip-rule="evenodd" d="M529.41 -448.919L527.891 -436.836L526.344 -423.832L524.796 -410.829L522.344 -397.856L573.774 -402.653L578.835 -396.315L582.271 -388.875L584.328 -381.486L585 -373.689L584.089 -366.158L581.557 -358.451L577.681 -351.709L572.457 -345.47L566.122 -340.396L558.691 -336.97L551.294 -334.909L543.498 -334.241L535.975 -335.165L528.258 -337.694L521.515 -341.573L515.265 -346.81L522.34 -397.864L517.002 -395.513L511.692 -394.082L506.643 -393.789L501.141 -393.495L495.196 -393.69L488.331 -393.897L480.32 -393.922L470.683 -393.313L465.622 -399.65L462.186 -407.082L460.129 -414.471L459.674 -422.036L460.366 -429.801L463.118 -437.274L466.993 -444.016L472.218 -450.254L478.795 -455.54L485.984 -458.754L493.614 -461.036L501.175 -461.486L508.948 -460.781L516.406 -458.025L523.158 -454.154L529.41 -448.919ZM651.347 213.783L650.899 198.661L650.642 184.688L650.15 170.937L649.867 157.882L649.791 145.515L649.704 133.611L649.583 122.615L649.452 112.083L649.304 102.005L649.375 92.1602L649.233 74.5257L649.258 58.9594L649.473 44.543L649.177 31.942L649.09 20.0374L648.717 9.71975L648.559 0.105071L647.908 -8.62116L647.246 -16.885L644.972 -32.063L648.225 -18.6815L652.36 -4.35965L657.143 11.1243L662.381 27.0917L673.965 59.734L686.684 92.6433L692.603 108.39L699 123.704L704.97 138.09L710.501 151.537L715.621 163.6L719.876 174.269L722.02 178.912L723.947 183.323L725.662 187.04L726.931 190.282L939.69 46.7883L950.549 36.1447L961.913 24.1374L973.754 11.2411L985.867 -2.80345L997.765 -17.5402L1009.9 -32.5029L1033.73 -62.8795L1044.95 -77.8732L1055.7 -92.4125L1065.51 -106.077L1074.59 -118.608L1082.74 -130.256L1086.34 -135.409L1089.92 -140.101L1092.79 -144.59L1095.67 -148.626L1097.84 -151.989L1100 -154.893L879.595 -253.399L865.058 -257.054L849.127 -260.31L832.047 -262.906L813.805 -265.304L776.38 -269.236L757.648 -270.737L739.154 -272.004L721.33 -273.025L704.419 -274.009L688.631 -274.278L674.447 -274.724L667.822 -275.157L662.103 -275.112L656.616 -275.284L651.583 -275.443L647.469 -275.572L643.806 -275.687L640.83 -275.556L638.541 -275.628L644.99 -32.0667L641.562 -47.054L639.059 -54.9173L636.329 -63.0212L633.178 -72.0466L629.359 -81.7786L625.34 -92.6693L620.438 -104.5L615.124 -117.715L609.173 -132.555L602.588 -149.01L599.193 -157.823L595.36 -167.101L591.315 -177.073L587.286 -187.502L583.056 -198.618L578.591 -209.983L573.931 -222.025L569.06 -234.778L563.982 -248.215L558.692 -262.346L558.026 -270.606L558.735 -278.37L561.016 -285.858L564.891 -292.6L569.884 -298.621L575.767 -303.708L582.979 -307.367L590.834 -309.873L598.639 -310.531L605.951 -309.849L605.95 -317.4L607.102 -325.157L610.092 -332.842L614.185 -339.352L619.396 -345.141L625.716 -349.749L632.914 -352.955L640.53 -354.782L648.314 -354.998L656.517 -353.819L670.3 -347.668L683.166 -341.99L695.357 -336.114L707.086 -330.714L718.385 -325.77L728.984 -320.638L739.137 -315.964L748.619 -311.54L757.641 -307.137L766.442 -302.968L782.238 -295.608L796.676 -288.743L809.297 -282.393L820.814 -277.217L831.193 -272.319L840.669 -267.902L849.26 -264.425L857.399 -260.963L864.873 -258.206L879.616 -253.851L894.627 -250.641L902.596 -249.242L911.264 -248.049L920.61 -247.067L930.876 -246.057L942.309 -245.237L955.099 -244.374L969.269 -243.474L985.022 -242.292L1002.4 -241.285L1011.98 -240.531L1022.03 -239.755L1032.77 -239.19L1043.74 -238.385L1055.38 -237.325L1067.72 -236.485L1080.74 -235.39L1094.2 -234.281L1108.36 -232.915L1123.2 -231.763L1130.9 -228.775L1137.63 -224.904L1143.2 -219.464L1147.81 -213.141L1151.25 -206.161L1153.08 -198.552L1153.3 -190.75L1152.13 -182.556L1149.39 -175.535L1145.76 -169.019L1150.06 -167.277L1154.09 -164.865L1157.67 -162.006L1161.23 -158.69L1166.07 -152.126L1169.52 -145.154L1171.81 -137.522L1172.02 -129.729L1171.1 -122.207L1168.35 -114.734L1164.71 -107.757L1159.01 -101.531L1145.69 -92.5566L1132.83 -84.0283L1120.67 -75.7198L1108.76 -68.0738L1097.78 -60.8681L1087.25 -53.6394L1076.98 -47.0964L1067.64 -40.9788L1058.52 -35.0788L1049.65 -29.4047L1041.47 -23.9423L1033.76 -18.9193L1019.28 -9.75598L1006.66 -1.45559L994.992 5.95352L984.488 12.7224L975.361 19.0741L966.94 24.7624L959.44 30.4797L952.174 35.9773L939.709 46.7953L927.907 58.3369L922.208 65.0212L916.035 72.1512L909.367 80.1867L902.467 88.894L894.831 98.7328L886.481 109.678L877.175 121.979L866.909 135.619L861.418 143.002L855.455 150.828L849.256 158.877L842.568 167.824L835.654 176.531L828.261 186.142L820.621 196.437L812.284 206.935L803.928 217.886L794.874 229.51L785.104 241.79L775.106 254.301L768.548 259.133L761.57 262.573L753.944 264.85L746.157 265.068L738.632 264.146L731.378 261.623L724.174 257.736L718.158 252.279L713.978 246.884L710.942 241.292L705.132 244.087L698.674 245.72L690.637 246.613L682.651 245.673L675.404 243.159L668.42 239.506L662.396 234.509L657.545 228.399L653.861 221.645L651.347 213.783Z" fill="white"/>
<path fill-rule="evenodd" clip-rule="evenodd" d="M350.607 55.7572L350.827 55.9911L351.711 56.9315L353.056 57.8906L354.832 59.7801L357.061 61.6796L359.736 64.0537L362.848 66.8978L366.407 70.2122L374.434 77.3366L383.345 85.4014L393.373 94.1867L404.303 103.455L427.069 122.49L438.689 131.55L450.553 140.398L461.526 148.296L472.061 155.729L481.947 161.525L486.456 163.964L490.733 166.15L664.935 203.68L671.91 207.796L677.919 213.246L682.535 219.578L685.747 226.776L687.806 234.162L688.02 241.954L686.864 249.698L684.345 257.409L679.999 264.597L674.787 270.388L668.465 274.994L661.484 278.436L653.875 280.257L646.072 280.931L638.101 279.534L630.393 276.998L490.733 166.15L480.106 161.926L468.104 157.658L455.175 153.822L441.55 150.187L412.448 143.78L397.883 141.032L383.759 138.759L370.089 136.495L357.557 134.497L346.163 132.763L336.131 131.533L331.57 130.931L327.689 130.58L324.499 130.019L321.538 129.701L319.028 129.395L317.439 129.118L316.521 129.087L316.058 129.068L308.873 124.727L303.319 119.289L298.701 112.956L295.253 105.979L293.432 98.3689L292.754 90.5608L293.91 82.8168L296.674 74.892L300.783 67.9263L306.452 62.1472L312.774 57.5368L319.518 54.3213L327.125 52.4976L334.931 51.8261L342.681 52.9888L350.607 55.7572Z" fill="white"/>
<path fill-rule="evenodd" clip-rule="evenodd" d="M1214.2 -116.955L1214.18 -116.501L1213.92 -115.363L1213.4 -113.548L1212.63 -111.053L1211.84 -107.646L1210.82 -104.02L1209.77 -99.4729L1208.47 -94.7001L1205.85 -83.7911L1202.7 -71.0735L1199.76 -57.2011L1196.33 -42.4233L1189.68 -12.1858L1186.68 3.05786L1183.95 17.6224L1181.7 31.2892L1179.92 44.05L1178.67 55.0042L1178.52 60.0377L1178.39 64.1509L1177.37 52.667L1176.43 46.4592L1175.25 40.017L1173.63 33.0941L1171.57 25.7053L1169.32 17.1623L1166.85 7.93338L1163.74 -2.47681L1160.43 -14.0158L1156.93 -26.7238L1152.79 -41.0436L1148.47 -56.9842L1143.74 -74.3045L1141.3 -83.9911L1138.85 -93.6779L1135.97 -104.308L1133.33 -115.14L1134.04 -123.363L1136.33 -130.842L1139.75 -137.609L1144.52 -143.864L1150.4 -148.951L1157.15 -152.631L1164.8 -155.362L1172.83 -156.249L1181.04 -155.539L1188.77 -153.462L1195.53 -150.051L1201.79 -145.268L1206.88 -139.389L1210.56 -132.634L1213.3 -124.989L1214.2 -116.955ZM721.943 337.11L716.605 339.462L712.195 341.381L703.867 344.331L697.141 347.093L691.358 348.97L686.492 350.877L681.846 353.019L676.954 355.845L672.027 359.58L698.931 407.586L695.73 415.045L691.183 421.54L685.524 426.857L678.756 430.993L671.576 433.745L663.975 435.106L655.962 435.083L648.009 433.233L640.553 430.023L634.065 425.01L628.747 419.351L624.594 413.038L621.618 405.618L620.248 398.019L620.268 390.008L622.114 382.053L672.027 359.585L670.506 357.02L668.967 354.908L667.226 352.11L665.705 349.545L664.192 346.515L663.335 344.657L662.031 342.324L660.291 339.525L658.574 335.81L655.959 331.608L652.923 326.016L649.457 319.493L645.108 312.031L648.317 304.58L653.328 298.101L658.987 292.785L665.529 288.408L672.709 285.656L680.308 284.297L688.313 284.311L696.273 286.17L703.727 289.382L710.225 293.933L715.543 299.592L719.687 306.368L722.436 313.547L723.806 321.145L723.786 329.156L721.943 337.11ZM1120.17 340.928L1109.51 337.62L1099.31 334.328L1089.33 331.261L1080.05 327.998L1062.82 322.418L1047.18 317.116L1033.13 312.552L1020.45 308.032L1009.35 304.249L999.162 300.497L990.099 297.464L981.717 294.683L974.226 292.383L967.425 290.344L961.063 288.771L955.146 287.672L943.752 285.939L955.19 286.3L961.149 286.029L967.798 285.546L974.928 284.629L982.747 283.504L991.256 282.167L1000.69 280.398L1011.27 278.904L1023.02 276.756L1036.36 274.429L1050.86 271.905L1066.97 269.205L1084.91 266.564L1094.56 265.043L1104.68 263.527L1115.27 262.026L1126.54 260.322L1134.51 261.72L1141.96 264.934L1148.48 269.023L1154.03 274.463L1158.41 281.006L1161.62 288.206L1163.45 295.823L1163.65 304.066L1162.25 312.034L1159.05 319.493L1154.96 326.003L1149.52 331.551L1142.98 335.932L1136.02 338.912L1128.4 340.739L1120.17 340.928ZM943.754 285.937L932.315 285.575L926.138 285.614L919.707 286.329L912.578 287.246L904.759 288.372L896.03 289.475L886.584 291.234L875.995 293.191L864.27 294.886L850.922 297.212L836.419 299.73L820.308 302.428L802.134 305.29L792.471 306.818L782.352 308.334L771.771 309.83L760.508 311.543L752.538 310.147L745.081 306.937L738.569 302.84L733.009 297.395L728.636 290.849L725.642 283.882L723.818 276.274L723.621 268.031L725.004 260.056L727.994 252.372L732.087 245.862L737.756 240.083L744.07 235.937L751.496 232.501L759.105 230.68L767.354 230.481L778.016 233.796L788.436 237.326L798.19 240.147L807.48 243.421L824.708 248.999L840.336 254.293L854.381 259.321L866.838 263.601L878.402 267.402L888.366 270.92L897.647 274.185L905.576 276.952L913.056 279.246L919.865 281.293L926.228 282.866L932.364 284.199L943.754 285.937ZM1178.38 64.1529L1223.22 243.208L1222.5 251.43L1220.44 259.15L1217.03 265.917L1212.25 272.172L1206.38 277.253L1199.62 280.924L1191.98 283.664L1183.94 284.559L1175.72 283.84L1168 281.772L1161.24 278.344L1154.97 273.576L1149.89 267.69L1146.21 260.936L1143.47 253.298L1142.57 245.258L1144.74 234.335L1146.88 223.872L1148.81 213.635L1150.94 204.084L1154.69 186.345L1158.39 170.431L1161.58 155.881L1164.73 142.703L1167.37 131.34L1169.77 120.66L1172.11 111.34L1173.97 102.935L1175.58 95.199L1176.49 88.1283L1177.61 81.7499L1178.02 75.5935L1178.38 64.1529Z" fill="white"/>
<path fill-rule="evenodd" clip-rule="evenodd" d="M660.727 221.407L665.66 217.209L670.806 213.708L675.942 210.669L681.732 208.329L687.28 206.674L693.045 205.251L699.023 204.527L704.746 204.473L710.915 204.898L716.612 205.767L722.276 207.543L727.711 209.548L733.114 212.464L738.282 215.6L743.203 219.422L747.653 223.685L751.851 228.627L755.351 233.766L758.159 239.12L760.742 244.702L762.396 250.243L763.824 256.016L764.555 261.987L764.369 267.93L764.187 273.882L763.09 279.8L761.313 285.468L759.316 290.903L756.401 296.301L753.26 301.464L749.445 306.382L744.956 311.052L740.25 315.021L735.106 318.521L729.758 321.334L724.188 323.908L718.638 325.565L712.873 326.984L707.131 327.491L700.946 327.521L695.239 327.115L689.322 326.016L683.649 324.231L678.222 322.236L672.576 319.533L667.645 316.173L662.731 312.362L658.061 307.864L654.083 303.157L650.576 298.006L647.53 292.876L645.192 287.081L643.53 281.532L642.11 275.768L641.599 270.026L641.323 264.064L641.966 258.136L642.828 252.434L644.605 246.771L646.604 241.335L649.299 235.702L652.652 230.765L656.465 225.848L660.727 221.407Z" fill="white"/>
<path fill-rule="evenodd" clip-rule="evenodd" d="M660.727 221.407L655.184 215.506L660.596 210.874L666.448 206.709L672.275 203.458L678.536 200.676L681.732 208.329L684.471 215.971L679.834 218.122L675.172 220.715L670.717 224.006L666.489 227.539L660.727 221.407Z" fill="white"/>
<path fill-rule="evenodd" clip-rule="evenodd" d="M681.732 208.329L678.536 200.676L685.012 198.589L691.694 197.199L698.361 196.263L705.002 196.244L704.746 204.473L704.49 212.706L699.228 212.778L694.399 213.305L684.471 215.971L681.732 208.329Z" fill="white"/>
<path fill-rule="evenodd" clip-rule="evenodd" d="M704.746 204.473L705.002 196.244L711.625 196.68L718.242 197.577L724.82 199.385L731.151 201.869L727.711 209.548L724.502 216.998L714.748 214.176L709.751 213.107L704.49 212.706L704.746 204.473Z" fill="white"/>
<path fill-rule="evenodd" clip-rule="evenodd" d="M727.711 209.548L731.151 201.869L737.233 205.036L743.074 208.887L748.67 212.955L753.784 217.925L747.653 223.685L741.758 229.224L737.756 225.433L733.733 222.098L724.502 216.998L727.711 209.548Z" fill="white"/>
<path fill-rule="evenodd" clip-rule="evenodd" d="M747.653 223.685L753.784 217.925L758.42 223.332L762.358 229.411L765.829 235.471L768.394 241.507L760.742 244.702L753.098 247.433L750.956 242.788L748.583 237.902L745.293 233.454L741.758 229.224L747.653 223.685Z" fill="white"/>
<path fill-rule="evenodd" clip-rule="evenodd" d="M760.742 244.702L768.393 241.507L770.477 247.977L771.882 254.666L772.575 261.55L772.606 268.196L764.369 267.93L756.136 267.674L756.072 262.406L755.533 257.584L753.098 247.433L760.742 244.702Z" fill="white"/>
<path fill-rule="evenodd" clip-rule="evenodd" d="M764.369 267.93L772.606 268.196L772.166 274.814L771.045 281.653L769.241 288.235L766.754 294.566L759.316 290.903L751.857 287.69L754.912 277.71L755.745 272.929L756.136 267.674L764.369 267.93Z" fill="white"/>
<path fill-rule="evenodd" clip-rule="evenodd" d="M759.316 290.902L766.754 294.566L763.822 300.425L759.981 306.257L755.678 312.071L750.718 317.184L744.956 311.052L739.412 305.152L743.201 301.152L746.764 296.911L749.424 292.187L751.857 287.69L759.316 290.902Z" fill="white"/>
<path fill-rule="evenodd" clip-rule="evenodd" d="M744.956 311.052L750.718 317.184L745.305 321.817L739.469 325.53L733.409 329L727.145 331.781L724.188 323.908L721.444 316.266L730.966 311.754L735.184 308.684L739.413 305.152L744.956 311.052Z" fill="white"/>
<path fill-rule="evenodd" clip-rule="evenodd" d="M724.188 323.908L727.145 331.781L720.672 333.87L713.99 335.26L707.331 335.732L700.696 335.761L700.946 327.521L701.202 319.289L706.469 319.227L711.531 318.469L721.444 316.266L724.188 323.908Z" fill="white"/>
<path fill-rule="evenodd" clip-rule="evenodd" d="M700.946 327.521L700.696 335.761L694.065 335.317L687.476 333.972L680.885 332.156L674.559 329.672L678.222 322.236L681.426 314.775L691.17 318.059L695.949 318.896L701.202 319.289L700.946 327.521Z" fill="white"/>
<path fill-rule="evenodd" clip-rule="evenodd" d="M678.222 322.236L674.559 329.672L668.475 326.503L662.862 322.895L657.274 318.366L652.168 313.401L658.061 307.864L664.192 302.104L668.196 305.893L672.431 309.453L676.923 312.347L681.426 314.774L678.222 322.236Z" fill="white"/>
<path fill-rule="evenodd" clip-rule="evenodd" d="M658.061 307.864L652.168 313.401L647.524 307.989L643.578 302.371L640.098 296.302L637.316 290.034L645.192 287.081L652.83 284.34L654.983 288.996L657.581 293.649L660.659 297.871L664.192 302.104L658.061 307.864Z" fill="white"/>
<path fill-rule="evenodd" clip-rule="evenodd" d="M645.192 287.081L637.316 290.034L635.448 283.797L634.054 277.115L633.114 270.447L633.092 263.809L641.323 264.064L649.555 264.321L649.628 269.597L650.167 274.419L651.383 279.493L652.83 284.339L645.192 287.081Z" fill="white"/>
<path fill-rule="evenodd" clip-rule="evenodd" d="M641.323 264.064L633.092 263.81L633.526 257.18L634.873 250.586L636.679 244.002L638.928 237.891L646.604 241.335L654.058 244.547L652.313 249.303L650.782 254.287L649.953 259.076L649.555 264.321L641.323 264.064Z" fill="white"/>
<path fill-rule="evenodd" clip-rule="evenodd" d="M646.604 241.335L638.928 237.891L642.095 231.815L645.936 225.982L650.223 220.62L655.184 215.506L660.727 221.407L666.489 227.539L662.7 231.539L659.374 235.558L656.493 240.052L654.058 244.547L646.604 241.335Z" fill="white"/>
<path fill-rule="evenodd" clip-rule="evenodd" d="M235.826 21.4706L240.76 17.275L245.904 13.7715L251.041 10.7325L256.83 8.39324L262.378 6.73825L268.144 5.31503L274.121 4.59039L279.846 4.53903L286.013 4.96212L291.704 5.82009L297.375 7.60712L302.812 9.61389L308.214 12.5257L313.381 15.6636L318.301 19.4857L322.745 23.7426L326.941 28.6815L330.45 33.8302L333.26 39.1818L335.832 44.7573L337.496 50.3086L338.919 56.0707L339.655 62.0534L339.468 67.9941L339.286 73.9458L338.182 79.8577L336.403 85.5235L334.406 90.9575L331.493 96.3584L328.358 101.527L324.543 106.446L320.047 111.107L315.35 115.083L310.204 118.585L304.85 121.392L299.278 123.963L293.73 125.618L287.965 127.041L282.232 127.553L276.047 127.583L270.339 127.181L264.414 126.074L258.752 124.295L253.315 122.289L247.676 119.594L242.744 116.237L237.824 112.415L233.155 107.919L229.183 103.219L225.675 98.0701L222.631 92.9382L220.295 87.1452L218.63 81.5939L217.2 75.8229L216.698 70.0897L216.425 64.1281L217.067 58.1973L217.926 52.4983L219.705 46.8326L221.703 41.3986L224.398 35.7658L227.75 30.8286L231.567 25.9124L235.826 21.4706Z" fill="white"/>
<path fill-rule="evenodd" clip-rule="evenodd" d="M235.826 21.4706L230.282 15.5703L235.687 10.9289L241.539 6.76431L247.365 3.51358L253.637 0.741737L256.83 8.39324L259.572 16.0327L254.926 18.1745L250.27 20.7786L245.816 24.0703L241.59 27.6049L235.826 21.4706Z" fill="white"/>
<path fill-rule="evenodd" clip-rule="evenodd" d="M256.83 8.3934L253.637 0.741907L260.111 -1.34669L266.792 -2.73686L273.459 -3.6733L280.101 -3.69159L279.847 4.53917L279.588 12.7698L274.321 12.8313L269.497 13.3694L259.572 16.0329L256.83 8.3934Z" fill="white"/>
<path fill-rule="evenodd" clip-rule="evenodd" d="M279.847 4.53914L280.101 -3.69162L286.726 -3.25842L293.332 -2.36737L299.921 -0.549335L306.249 1.93316L302.812 9.614L299.602 17.0642L289.846 14.2405L284.841 13.162L279.588 12.7698L279.847 4.53914Z" fill="white"/>
<path fill-rule="evenodd" clip-rule="evenodd" d="M302.812 9.61385L306.249 1.93302L312.334 5.1019L318.166 8.94406L323.768 13.0189L328.876 17.9822L322.745 23.7426L316.853 29.279L312.846 25.4878L308.834 22.1634L299.602 17.0641L302.812 9.61385Z" fill="white"/>
<path fill-rule="evenodd" clip-rule="evenodd" d="M322.745 23.7425L328.876 17.9822L333.518 23.3957L337.448 29.4658L340.928 35.5347L343.484 41.5617L335.832 44.7572L328.196 47.4969L326.052 42.8538L323.682 37.9659L320.385 33.5115L316.853 29.279L322.745 23.7425Z" fill="white"/>
<path fill-rule="evenodd" clip-rule="evenodd" d="M335.832 44.7574L343.484 41.5619L345.578 48.0435L346.972 54.7216L347.676 61.6116L347.698 68.2529L339.468 67.9942L331.235 67.7375L331.17 62.4701L330.625 57.6416L328.196 47.4971L335.832 44.7574Z" fill="white"/>
<path fill-rule="evenodd" clip-rule="evenodd" d="M339.468 67.9945L347.698 68.2532L347.267 74.8803L346.143 81.7171L344.331 88.2901L341.852 94.6301L334.406 90.9578L326.952 87.7459L330.01 77.7739L330.848 72.9932L331.235 67.7378L339.468 67.9945Z" fill="white"/>
<path fill-rule="evenodd" clip-rule="evenodd" d="M334.406 90.9577L341.852 94.63L338.923 100.487L335.08 106.321L330.777 112.135L325.81 117.242L320.047 111.107L314.511 105.216L318.294 101.209L321.864 96.977L324.525 92.2494L326.952 87.7457L334.406 90.9577Z" fill="white"/>
<path fill-rule="evenodd" clip-rule="evenodd" d="M320.047 111.108L325.81 117.242L320.404 121.881L314.57 125.592L308.508 129.065L302.244 131.845L299.278 123.963L296.537 116.324L306.069 111.818L310.277 108.742L314.511 105.216L320.047 111.108Z" fill="white"/>
<path fill-rule="evenodd" clip-rule="evenodd" d="M299.278 123.963L302.244 131.845L295.762 133.925L289.089 135.324L282.431 135.798L275.79 135.816L276.047 127.583L276.301 119.353L281.572 119.291L286.63 118.533L296.537 116.324L299.278 123.963Z" fill="white"/>
<path fill-rule="evenodd" clip-rule="evenodd" d="M276.047 127.583L275.79 135.816L269.165 135.379L262.566 134.027L255.988 132.22L249.649 129.727L253.315 122.289L256.525 114.839L266.262 118.116L271.05 118.958L276.301 119.353L276.047 127.583Z" fill="white"/>
<path fill-rule="evenodd" clip-rule="evenodd" d="M253.315 122.289L249.649 129.727L243.567 126.56L237.953 122.95L232.375 118.428L227.261 113.458L233.155 107.919L239.284 102.161L243.289 105.95L247.529 109.517L252.024 112.409L256.525 114.839L253.315 122.289Z" fill="white"/>
<path fill-rule="evenodd" clip-rule="evenodd" d="M233.155 107.919L227.261 113.458L222.625 108.051L218.671 102.428L215.199 96.3676L212.415 90.0978L220.295 87.1452L227.93 84.4055L230.075 89.0485L232.681 93.7147L235.75 97.9263L239.284 102.161L233.155 107.919Z" fill="white"/>
<path fill-rule="evenodd" clip-rule="evenodd" d="M220.295 87.1451L212.415 90.0978L210.549 83.859L209.153 77.1787L208.215 70.5085L208.193 63.8714L216.425 64.128L224.654 64.3846L224.721 69.65L225.257 74.4738L226.476 79.5505L227.93 84.4054L220.295 87.1451Z" fill="white"/>
<path fill-rule="evenodd" clip-rule="evenodd" d="M216.425 64.1281L208.193 63.8714L208.624 57.2443L209.974 50.6481L211.777 44.0663L214.029 37.9569L221.703 41.3986L229.157 44.6105L227.406 49.3603L225.881 54.3507L225.045 59.1293L224.654 64.3846L216.425 64.1281Z" fill="white"/>
<path fill-rule="evenodd" clip-rule="evenodd" d="M221.703 41.3986L214.029 37.957L217.186 31.8697L221.029 26.0353L225.313 20.6753L230.282 15.5704L235.826 21.4707L241.59 27.6049L237.799 31.603L234.475 35.62L231.583 40.1069L229.157 44.6105L221.703 41.3986Z" fill="white"/>
<path fill-rule="evenodd" clip-rule="evenodd" d="M599.329 408.349L604.261 404.151L609.407 400.65L614.543 397.611L620.333 395.272L625.881 393.616L631.646 392.193L637.624 391.469L643.347 391.415L649.516 391.84L655.215 392.707L660.878 394.485L666.312 396.49L671.717 399.404L676.883 402.542L681.804 406.364L686.246 410.619L690.444 415.56L693.952 420.708L696.763 426.06L699.335 431.636L700.997 437.185L702.419 442.947L703.156 448.929L702.97 454.872L702.789 460.824L701.685 466.736L699.914 472.411L697.909 477.836L694.996 483.237L691.861 488.406L688.044 493.322L683.558 497.994L678.851 501.959L673.707 505.463L668.353 508.27L662.781 510.841L657.241 512.505L651.467 513.919L645.734 514.431L639.549 514.461L633.84 514.057L627.915 512.95L622.252 511.171L616.818 509.167L611.179 506.473L606.247 503.115L601.326 499.293L596.656 494.795L592.686 490.097L589.178 484.948L586.133 479.816L583.795 474.021L582.133 468.472L580.711 462.71L580.2 456.968L579.926 451.004L580.569 445.076L581.429 439.377L583.208 433.711L585.205 428.277L587.9 422.644L591.253 417.707L595.068 412.788L599.329 408.349Z" fill="white"/>
<path fill-rule="evenodd" clip-rule="evenodd" d="M599.329 408.349L593.785 402.449L599.197 397.816L605.05 393.652L610.868 390.392L617.138 387.618L620.333 395.272L623.075 402.911L618.429 405.053L613.773 407.657L609.318 410.949L605.09 414.481L599.329 408.349Z" fill="white"/>
<path fill-rule="evenodd" clip-rule="evenodd" d="M620.333 395.272L617.138 387.618L623.613 385.532L630.295 384.141L636.962 383.205L643.603 383.187L643.347 391.415L643.091 399.648L637.824 399.709L633 400.248L623.075 402.911L620.333 395.272Z" fill="white"/>
<path fill-rule="evenodd" clip-rule="evenodd" d="M643.347 391.415L643.603 383.186L650.228 383.62L656.835 384.511L663.422 386.327L669.752 388.811L666.312 396.49L663.103 403.94L653.349 401.119L648.344 400.04L643.091 399.648L643.347 391.415Z" fill="white"/>
<path fill-rule="evenodd" clip-rule="evenodd" d="M666.312 396.49L669.752 388.811L675.834 391.978L681.675 395.829L687.271 399.897L692.377 404.858L686.246 410.619L680.353 416.155L676.357 412.375L672.334 409.04L663.103 403.94L666.312 396.49Z" fill="white"/>
<path fill-rule="evenodd" clip-rule="evenodd" d="M686.246 410.619L692.377 404.859L697.021 410.274L700.959 416.353L704.43 422.413L706.995 428.449L699.335 431.636L691.699 434.375L689.555 429.732L687.184 424.844L683.888 420.39L680.353 416.155L686.246 410.619Z" fill="white"/>
<path fill-rule="evenodd" clip-rule="evenodd" d="M699.335 431.636L706.995 428.449L709.078 434.92L710.475 441.6L711.179 448.49L711.201 455.131L702.97 454.873L694.737 454.616L694.673 449.348L694.134 444.527L691.699 434.375L699.335 431.636Z" fill="white"/>
<path fill-rule="evenodd" clip-rule="evenodd" d="M702.97 454.872L711.201 455.131L710.767 461.756L709.646 468.595L707.842 475.177L705.355 481.508L697.909 477.836L690.455 474.624L693.513 464.652L694.348 459.869L694.737 454.616L702.97 454.872Z" fill="white"/>
<path fill-rule="evenodd" clip-rule="evenodd" d="M697.909 477.836L705.355 481.508L702.426 487.365L698.583 493.199L694.28 499.013L689.319 504.126L683.558 497.994L678.014 492.094L681.802 488.094L685.365 483.853L688.028 479.127L690.455 474.624L697.909 477.836Z" fill="white"/>
<path fill-rule="evenodd" clip-rule="evenodd" d="M683.558 497.994L689.319 504.126L683.906 508.759L678.072 512.47L672.01 515.943L665.746 518.723L662.781 510.841L660.039 503.202L669.569 498.694L673.785 495.626L678.014 492.094L683.558 497.994Z" fill="white"/>
<path fill-rule="evenodd" clip-rule="evenodd" d="M662.781 510.841L665.746 518.723L659.273 520.812L652.591 522.202L645.932 522.674L639.293 522.694L639.549 514.462L639.803 506.231L645.073 506.167L650.132 505.412L660.039 503.202L662.781 510.841Z" fill="white"/>
<path fill-rule="evenodd" clip-rule="evenodd" d="M639.549 514.461L639.293 522.694L632.668 522.257L626.069 520.905L619.489 519.096L613.16 516.614L616.818 509.167L620.027 501.717L629.771 505.001L634.552 505.836L639.803 506.231L639.549 514.461Z" fill="white"/>
<path fill-rule="evenodd" clip-rule="evenodd" d="M616.818 509.167L613.16 516.614L607.076 513.445L601.464 509.837L595.877 505.306L590.761 500.334L596.656 494.795L602.785 489.037L606.791 492.828L611.032 496.396L615.527 499.287L620.027 501.717L616.818 509.167Z" fill="white"/>
<path fill-rule="evenodd" clip-rule="evenodd" d="M596.656 494.795L590.761 500.334L586.128 494.929L582.18 489.312L578.7 483.244L575.918 476.976L583.795 474.021L591.431 471.281L593.577 475.927L596.182 480.591L599.26 484.813L602.784 489.037L596.656 494.795Z" fill="white"/>
<path fill-rule="evenodd" clip-rule="evenodd" d="M583.795 474.021L575.918 476.976L574.052 470.737L572.655 464.057L571.717 457.387L571.695 450.75L579.926 451.004L588.157 451.263L588.223 456.528L588.768 461.361L589.978 466.429L591.431 471.282L583.795 474.021Z" fill="white"/>
<path fill-rule="evenodd" clip-rule="evenodd" d="M579.926 451.004L571.695 450.75L572.127 444.123L573.477 437.527L575.28 430.945L577.529 424.833L585.205 428.277L592.659 431.489L590.914 436.245L589.383 441.229L588.548 446.008L588.157 451.263L579.926 451.004Z" fill="white"/>
<path fill-rule="evenodd" clip-rule="evenodd" d="M585.205 428.277L577.529 424.833L580.688 418.748L584.54 412.922L588.824 407.562L593.785 402.449L599.329 408.349L605.09 414.481L601.301 418.481L597.977 422.498L595.086 426.985L592.659 431.489L585.205 428.277Z" fill="white"/>
</svg>
