<svg viewBox="0 0 116 49" fill="none" xmlns="http://www.w3.org/2000/svg">
<g clip-path="url(#clip0)">
<path fill-rule="evenodd" clip-rule="evenodd" d="M21.3535 5.37491H21.3402L21.2882 5.38807L21.21 5.41475L21.0927 5.44144L20.9491 5.46763L20.7927 5.50734L20.5971 5.56071L20.3882 5.61358L20.1534 5.66646L19.8925 5.73286L19.3315 5.87881L18.7184 6.05145L18.0532 6.23675L17.3618 6.43608L16.6575 6.64806L15.2356 7.12577L14.5573 7.36444L13.9181 7.61614L13.3181 7.8815L12.7963 8.1337L13.279 7.84166L13.5268 7.66951L13.7747 7.48372L14.0486 7.27123L14.3486 7.01953L14.6747 6.75418L15.0399 6.44911L15.4313 6.1042L15.8748 5.71958L16.3705 5.30827L16.9313 4.83093L17.2314 4.57873L17.5444 4.31338L17.8836 4.03499L18.2358 3.74296L18.601 3.43789L18.9923 3.11966L19.3968 2.78791L19.8271 2.443L20.1271 2.32372L20.4404 2.25732L20.7534 2.27085L21.0663 2.33688L21.3535 2.45665L21.6145 2.62879L21.8492 2.85431L22.0319 3.13269L22.1492 3.43776L22.2145 3.76952V4.08774L22.1492 4.39281L22.0319 4.68485L21.8492 4.9502L21.6274 5.18887L21.3535 5.37491ZM39.8504 13.9435L39.4202 13.5851L39.0157 13.2538L38.6245 12.9352L38.2457 12.6302L37.8937 12.3251L37.5675 12.0467L37.2417 11.7814L36.9417 11.5297L36.3936 11.052L35.8851 10.6275L35.4416 10.2429L35.0504 9.89796L34.6851 9.59289L34.3588 9.3145L34.0588 9.07534L33.785 8.85032L33.524 8.66453L33.276 8.49188L32.7938 8.18681L32.2848 7.94815L31.9981 7.82887L31.6981 7.7096L31.3718 7.60336L31.0064 7.48409L30.6019 7.35116L30.1454 7.21873L29.6498 7.07278L29.0888 6.90063L28.463 6.71484L27.7713 6.50236L27.3931 6.39661L27.0019 6.27684L26.5844 6.14441L26.1537 6.01149L25.6972 5.86591L25.2145 5.7063L24.706 5.54718L24.1842 5.37504L23.9104 5.18924L23.6886 4.96373L23.5059 4.69838L23.3886 4.39331L23.3361 4.08824L23.3232 3.77001L23.3885 3.43826L23.5187 3.13319L23.7014 2.8548L23.9232 2.62917L24.1842 2.45702L24.4842 2.33725L24.7842 2.27122H25.0972L25.4234 2.33725L25.7234 2.45702L26.1537 2.80193L26.5582 3.14684L26.9494 3.46507L27.3276 3.77014L27.6802 4.06168L28.0064 4.34056L28.3322 4.61894L28.6322 4.87114L29.1802 5.33532L29.6887 5.77282L30.1323 6.14429L30.5368 6.4892L30.8888 6.80743L31.2151 7.07278L31.5151 7.32498L31.7889 7.53696L32.0498 7.73579L32.2974 7.90843L32.7801 8.20047L33.2891 8.43914L33.5758 8.55841L33.8758 8.67768L34.2021 8.78392L34.5674 8.90319L34.9719 9.03562L35.4284 9.16855L35.924 9.3145L36.4849 9.48665L37.1107 9.67245L37.8024 9.88493L38.1807 9.99067L38.5719 10.1104L38.9893 10.2429L39.4201 10.3753L39.8766 10.5213L40.3593 10.6804L40.8678 10.84L41.3896 11.0121L41.6634 11.1979L41.8852 11.4366L42.0679 11.7019L42.1852 11.994L42.2372 12.3122L42.2505 12.6304L42.1852 12.949L42.0549 13.2541L41.8722 13.5325L41.6504 13.7711L41.3895 13.9438L41.0895 14.0762L40.7894 14.1291L40.4765 14.1426L40.1502 14.0762L39.8504 13.9435ZM41.1679 32.7517L41.2724 32.2478L41.3635 31.7701L41.455 31.3059L41.5461 30.8684L41.6376 30.4571L41.7287 30.0593L41.8852 29.3294L42.0287 28.6664L42.1589 28.0698L42.2897 27.5392L42.3941 27.0615L42.4852 26.624L42.5762 26.2394L42.6415 25.8945L42.694 25.5759L42.746 25.2708L42.7723 24.9924L42.798 24.4754L42.7723 23.9448L42.746 23.6664L42.694 23.3744L42.6415 23.0562L42.5762 22.6977L42.4852 22.3131L42.3941 21.8886L42.2897 21.4113L42.1589 20.8671L42.0287 20.2836L41.8852 19.6206L41.7287 18.8911L41.6376 18.4929L41.5461 18.0821L41.455 17.6441L41.3635 17.1799L41.2724 16.7026L41.1679 16.1987L41.207 15.8669L41.2985 15.5487L41.4417 15.2698L41.6507 15.0181L41.8854 14.8193L42.1592 14.6733L42.4725 14.5802L42.7983 14.5405L43.1245 14.5802L43.4375 14.6733L43.7118 14.8193L43.9465 15.0181L44.1549 15.2698L44.2985 15.5487L44.39 15.8669L44.4291 16.1987L44.3246 16.7026L44.2336 17.1799L44.142 17.6441L44.051 18.0821L43.9594 18.4929L43.8812 18.8911L43.7247 19.6206L43.5682 20.2836L43.4375 20.8671L43.3202 21.4113L43.2157 21.8886L43.1117 22.3131L43.0335 22.6977L42.9682 23.0562L42.9029 23.3744L42.8638 23.6664L42.8248 23.9448L42.8118 24.4754L42.8248 24.9924L42.8638 25.2708L42.9029 25.5759L42.9682 25.8945L43.0335 26.2394L43.1117 26.624L43.2157 27.0615L43.3202 27.5392L43.4375 28.0698L43.5682 28.6664L43.7247 29.3294L43.8812 30.0593L43.9594 30.4571L44.051 30.8684L44.142 31.3059L44.2336 31.7701L44.3246 32.2478L44.4291 32.7517L44.39 33.0835L44.2985 33.4017L44.1549 33.6801L43.9465 33.9188L43.7118 34.1312L43.4375 34.2772L43.1245 34.3698L42.7983 34.4095L42.4725 34.3698L42.1592 34.2772L41.8854 34.1312L41.6507 33.9188L41.4417 33.6801L41.2985 33.4017L41.207 33.0835L41.1679 32.7517ZM24.2362 43.5088L24.758 43.3362L25.2669 43.1771L25.7364 43.0311L26.1929 42.8855L26.6236 42.7526L27.0411 42.6202L27.4323 42.5009L27.8105 42.3811L28.5022 42.1823L29.128 41.9965L29.676 41.8244L30.1845 41.6784L30.6281 41.546L31.0326 41.4131L31.3979 41.3068L31.7371 41.1875L32.0371 41.0813L32.3109 40.962L32.8194 40.7103L33.3021 40.4183L33.5502 40.2462L33.8111 40.0604L34.0849 39.8348L34.3721 39.5962L34.6979 39.3173L35.0632 39.0122L35.4677 38.681L35.9109 38.2963L36.4069 37.8719L36.9545 37.3942L37.2545 37.1425L37.5675 36.8771L37.9067 36.5982L38.2592 36.3067L38.6245 36.0016L39.0157 35.683L39.4202 35.3381L39.8504 34.9932L40.1505 34.8608L40.4767 34.7944L40.7897 34.8079L41.0897 34.8608L41.3897 34.9932L41.6507 35.1658L41.8725 35.4045L42.0552 35.6829L42.1854 35.988L42.2507 36.3197L42.2374 36.6379L42.1854 36.943L42.0681 37.2351L41.8854 37.5004L41.6636 37.7391L41.3898 37.9249L40.868 38.097L40.3596 38.2566L39.8897 38.4022L39.4333 38.5482L39.003 38.6811L38.5852 38.8135L38.194 38.9328L37.8157 39.039L37.1245 39.2515L36.5111 39.4373L35.9506 39.5964L35.4416 39.7555L34.998 39.888L34.5935 40.0072L34.2286 40.127L33.9023 40.2463L33.6023 40.352L33.3156 40.4718L32.8195 40.7105L32.3373 41.002L32.0893 41.1746L31.8283 41.3735L31.5545 41.586L31.2545 41.8246L30.9282 42.103L30.5629 42.4081L30.1717 42.753L29.7282 43.1376L29.2326 43.5621L28.6716 44.0263L28.3716 44.2785L28.0587 44.5438L27.7195 44.8222L27.3674 45.1142L27.0021 45.4193L26.6106 45.7375L26.2065 46.0824L25.7758 46.4273L25.4758 46.5603L25.1628 46.6263L24.8366 46.6131L24.5365 46.5603L24.2498 46.4405L23.9889 46.2552L23.7542 46.0297L23.5714 45.7508L23.4407 45.4457L23.3758 45.1145L23.3887 44.7959L23.4407 44.4913L23.558 44.1862L23.7407 43.9209L23.9625 43.6954L24.2362 43.5088ZM5.75241 35.0329L6.18291 35.3782L6.58729 35.7231L6.97861 36.0413L7.35686 36.3464L7.69606 36.6379L8.03526 36.9168L8.34834 37.1822L8.64836 37.4339L9.20922 37.8981L9.7049 38.3225L10.1485 38.7072L10.5528 39.0521L10.918 39.3571L11.2442 39.6225L11.5442 39.8747L11.8181 40.0872L12.0789 40.2725L12.3268 40.4451L12.8225 40.7366L12.3138 40.498L12.0268 40.3787L11.7268 40.2725L11.4007 40.1532L11.0355 40.047L10.618 39.9145L10.1745 39.7821L9.66572 39.6361L9.10486 39.477L8.4787 39.2912L7.78736 39.0924L7.40911 38.9726L7.01779 38.8534L6.61341 38.7341L6.16985 38.6017L5.71335 38.4557L5.24379 38.3097L4.73506 38.1506L4.21326 37.978L3.93936 37.7927L3.71758 37.5672L3.53498 37.3018L3.41744 36.9963L3.3652 36.6912L3.35214 36.3726L3.41744 36.0412L3.54792 35.7361L3.73052 35.4578L3.9523 35.2186L4.21326 35.0464L4.51328 34.9135L4.8133 34.8475H5.12625L5.45239 34.9135L5.75241 35.0329ZM12.8224 40.7364L13.3311 40.9886L13.605 41.0948L13.905 41.2141L14.2442 41.3204L14.5964 41.4396L15.0008 41.5721L15.4573 41.705L15.9529 41.8509L16.5138 42.01L17.1399 42.1958L17.8313 42.3947L18.2095 42.5139L18.6009 42.6332L19.0183 42.7525L19.4487 42.8854L19.9052 43.031L20.375 43.177L20.8835 43.3361L21.4053 43.5087L21.679 43.6945L21.9008 43.92L22.0835 44.1854L22.2008 44.4904L22.2661 44.795V45.1136L22.2008 45.4449L22.0835 45.7499L21.9008 46.0288L21.679 46.2543L21.4186 46.4396L21.1186 46.5594L20.8185 46.6254H20.5052L20.1794 46.5594L19.8794 46.4396L19.4487 46.0947L19.0444 45.7635L18.6531 45.4449L18.2748 45.1398L17.9227 44.8483L17.5966 44.5699L17.2704 44.3045L16.9704 44.0523L16.4225 43.575L15.9268 43.1637L15.4703 42.779L15.079 42.4341L14.7138 42.1291L14.3877 41.8507L14.0876 41.6115L13.8137 41.3995L13.5528 41.2007L13.3049 41.0281L12.8224 40.7364ZM4.42186 16.0787L4.3175 16.583L4.2262 17.0734L4.1349 17.5381L4.0436 17.9756L3.9523 18.4001L3.87406 18.7978L3.71746 19.5409L3.56086 20.2039L3.4305 20.801L3.31308 21.3448L3.20872 21.8221L3.10436 22.2601L3.02612 22.6447L2.96094 23.0027L2.89576 23.3213L2.85658 23.6263L2.81752 23.9047L2.80446 24.4353L2.81752 24.9659L2.85658 25.2443L2.89576 25.5493L2.96094 25.8676L3.02612 26.2255L3.10436 26.6237L3.20872 27.0481L3.31308 27.539L3.4305 28.0696L3.56086 28.6797L3.71746 29.3427L3.87406 30.0853L3.9523 30.4834L4.0436 30.8943L4.1349 31.3453L4.2262 31.8095L4.3175 32.2872L4.42186 32.8042L4.39574 33.136L4.29138 33.4542L4.14784 33.7331L3.95218 33.9718L3.71734 34.1837L3.43038 34.3297L3.13036 34.4228L2.80422 34.4625L2.47808 34.4228L2.165 34.3297L1.8911 34.1837L1.6432 33.9718L1.44754 33.7331L1.304 33.4542L1.2127 33.136L1.17352 32.8042L1.27788 32.2872L1.36918 31.8095L1.46048 31.3453L1.55178 30.8943L1.64308 30.4834L1.72132 30.0853L1.87792 29.3427L2.0344 28.6797L2.16488 28.0696L2.2823 27.539L2.38666 27.0481L2.49102 26.6237L2.56926 26.2255L2.63444 25.8676L2.69974 25.5493L2.7388 25.2443L2.77798 24.9659L2.8041 24.4353L2.77798 23.9047L2.7388 23.6263L2.69974 23.3213L2.63444 23.0027L2.56926 22.6447L2.49102 22.2601L2.38666 21.8221L2.2823 21.3448L2.16488 20.801L2.0344 20.2039L1.87792 19.5409L1.72132 18.7978L1.64308 18.4001L1.55178 17.9756L1.46048 17.5381L1.36918 17.0734L1.27788 16.583L1.17352 16.0787L1.2127 15.7474L1.304 15.4288L1.44754 15.1504L1.6432 14.9117L1.8911 14.6993L2.165 14.5537L2.47808 14.4606L2.80422 14.4209L3.13036 14.4606L3.43038 14.5537L3.71734 14.6993L3.95218 14.9117L4.14784 15.1504L4.29138 15.4288L4.39574 15.7474L4.42186 16.0787ZM12.7964 8.13382L5.75241 13.8373L5.45239 13.9697L5.12625 14.0363L4.81317 14.0231L4.51315 13.9697L4.21314 13.8373L3.95218 13.6647L3.7304 13.426L3.5478 13.1476L3.41744 12.8425L3.35226 12.5108L3.36532 12.1926L3.41744 11.8875L3.53486 11.5824L3.71746 11.3171L3.93924 11.0916L4.21314 10.9058L4.73493 10.7336L5.23061 10.5745L5.71323 10.4285L6.16973 10.2826L6.60023 10.1502L7.01767 10.0304L7.40898 9.91112L7.77418 9.79184L8.46552 9.59301L9.09168 9.40722L9.65253 9.23507L10.1482 9.08912L10.6047 8.95619L11.0091 8.83692L11.3743 8.71765L11.7004 8.59837L12.0004 8.49213L12.2874 8.37286L12.7964 8.13382Z" fill="#9D9E9E"/>
<path fill-rule="evenodd" clip-rule="evenodd" d="M4.98271 11.5296L5.46533 11.5558L5.92195 11.5825L6.35245 11.6092L6.76989 11.6353L7.53946 11.7017L8.2308 11.7546L8.85696 11.7943L9.41782 11.8477L9.92655 11.8874L10.3831 11.9403L10.7874 11.967L11.1526 11.9937L11.4788 12.0198L11.7788 12.0334H12.0527L12.3135 12.0198L12.7961 11.9801L12.3266 12.0864L12.0787 12.1528L11.8048 12.2454L11.5309 12.3384L11.2178 12.4709L10.8786 12.6038L10.5003 12.7629L10.0829 12.935L9.61335 13.1339L9.09155 13.3594L8.50458 13.5986L7.86536 13.8639L7.1479 14.1555L6.76964 14.3146L6.36526 14.4742L5.93477 14.6463L5.49121 14.819L5.15201 14.8321L4.83893 14.7924L4.53891 14.6862L4.27807 14.527L4.04323 14.3015L3.84757 14.0493L3.70403 13.7578L3.62579 13.426L3.61273 13.0811L3.65191 12.7629L3.76933 12.4578L3.92581 12.1925L4.13453 11.9538L4.38243 11.7545L4.66939 11.6089L4.98271 11.5296ZM25.5278 9.14179L25.971 9.31443L26.4017 9.48658L26.7929 9.65922L27.1845 9.81833L27.8885 10.1104L28.5277 10.3752L29.1149 10.6274L29.6234 10.8529L30.0932 11.0518L30.5107 11.2376L30.8889 11.3967L31.2281 11.5296L31.5411 11.662L31.8154 11.7683L32.0763 11.8478L32.3239 11.9274L32.8066 12.0336L32.2976 11.9803L31.7501 11.9541L31.15 11.9405L30.5237 11.9541L29.2325 12.0201L28.5805 12.0598L27.9542 12.1132L27.3674 12.166L26.8065 12.2194L26.3104 12.2723L25.8672 12.3252L25.6845 12.3518L25.5147 12.365L25.3582 12.3785L25.2409 12.4047L25.1365 12.4182H25.0715L25.019 12.4314H25.0061L24.6931 12.3388L24.4059 12.2059L24.1579 12.0071L23.9494 11.7684L23.793 11.49L23.6885 11.1849L23.636 10.8663L23.6622 10.5214L23.7538 10.2032L23.884 9.91117L24.0796 9.65947L24.3143 9.44698L24.5885 9.28787L24.8886 9.1686L25.2015 9.12888L25.5278 9.14179ZM32.8065 12.0335L33.2892 12.0864L33.5502 12.0995L33.8239 12.0864H34.124L34.4502 12.0597L34.8152 12.0335L35.2197 12.0068L35.6762 11.9671L36.1852 11.9274L36.7461 11.8877L37.3719 11.8348L38.0636 11.7814L38.8331 11.7417L39.2376 11.715L39.6811 11.6888L40.1243 11.6621L40.6071 11.6355L40.92 11.7285L41.2072 11.861L41.4553 12.0598L41.6637 12.299L41.8202 12.5774L41.9247 12.8824L41.9772 13.2007L41.9509 13.5456L41.8594 13.8642L41.7292 14.1557L41.5336 14.4211L41.2989 14.6335L41.0246 14.7926L40.7246 14.8989L40.4117 14.9386L40.0854 14.9251L32.8065 12.0335ZM12.7964 11.9671L13.2791 11.8609L13.5269 11.7945L13.7879 11.7019L14.0748 11.6093L14.3879 11.4764L14.7271 11.3439L15.1054 11.1848L15.5228 11.0122L15.9924 10.8133L16.5142 10.5878L17.0879 10.349L17.7401 10.0837L18.4445 9.79164L18.8358 9.63253L19.2403 9.47342L19.6706 9.30078L20.1141 9.12863L20.4404 9.11548L20.7534 9.15519L21.0534 9.27447L21.3271 9.43358L21.5619 9.64556L21.7579 9.89776L21.8881 10.1898L21.9792 10.508L21.9925 10.8529L21.9534 11.1712L21.8361 11.4762L21.6792 11.7546L21.4707 11.9938L21.2227 12.1926L20.936 12.3386L20.6097 12.4181L20.1272 12.3914L19.6836 12.3648L19.2404 12.3386L18.8359 12.3119L18.0664 12.2455L17.375 12.1926L16.7489 12.1392L16.188 12.0995L15.6793 12.0466L15.2228 12.0069L14.8184 11.9672L14.4532 11.9405L14.1271 11.9274L13.814 11.9142H13.5401H13.2792L12.7964 11.9671Z" fill="#9D9E9E"/>
<path fill-rule="evenodd" clip-rule="evenodd" d="M24.4059 5.22909L24.0277 5.54732L23.6232 5.89223L23.2187 6.23714L22.7884 6.55573L24.4322 7.85557L24.4059 8.18682L24.3014 8.50542L24.1579 8.78381L23.9624 9.03551L23.7276 9.23483L23.4404 9.39395L23.1404 9.48653L22.8146 9.52625L22.4884 9.50006L22.1754 9.39382L21.9012 9.24787L21.6536 9.04904L21.4581 8.81037L21.3011 8.51833L21.2101 8.21326L21.171 7.88151L22.7885 6.55536L22.5667 6.47581L22.3712 6.36956L22.2147 6.23664L22.0449 6.09106L21.8757 5.91841L21.6796 5.71959L21.4449 5.49407L21.1449 5.24188L21.1711 4.91062L21.2754 4.59227L21.4189 4.31388L21.6144 4.07521L21.8492 3.86273L22.1364 3.71678L22.4364 3.62419L22.7622 3.58447L23.1014 3.61116L23.4014 3.7169L23.6886 3.86286L23.9232 4.06156L24.1321 4.30073L24.2752 4.59227L24.3667 4.89734L24.4059 5.22909ZM9.69181 28.4409L10.0962 27.9767L10.4744 27.5523L10.8396 27.1278L11.1918 26.73L11.531 26.3586L11.8571 26.0006L12.1571 25.6689L12.4441 25.3506L12.718 25.0456L12.9919 24.7535L13.4746 24.2229L13.9051 23.7588L14.3095 23.3343L14.6487 22.9497L14.9749 22.5917L15.2487 22.2731L15.5096 21.9816L15.7314 21.7027L15.9401 21.4374L16.2923 20.9203L16.0184 21.4112L15.7445 21.9549L15.4576 22.5515L15.1706 23.1753L14.6098 24.4751L14.0749 25.8148L13.8141 26.4511L13.5792 27.088L13.3575 27.6851L13.1487 28.2418L12.9661 28.7457L12.7966 29.1837L12.7314 29.3826L12.6662 29.5684L12.614 29.7275L12.5618 29.8599L22.7757 31.5445L23.3887 31.5313L24.0541 31.4916L24.7582 31.4387L25.5019 31.3592L26.2584 31.2529L27.0282 31.1467L28.567 30.908L29.3107 30.7751L30.0282 30.6427L30.6936 30.5098L31.3066 30.3905L31.8676 30.2712L32.1156 30.2183L32.3503 30.1786L32.5588 30.1253L32.7548 30.0855L32.9113 30.0458L33.0548 30.0196L29.298 20.8937L28.9717 20.3767L28.5935 19.8325L28.1632 19.2757L27.6934 18.6922L26.7022 17.5247L26.1932 16.9543L25.6847 16.3975L25.1892 15.8669L24.7194 15.363L24.2629 14.912L23.8584 14.5007L23.6756 14.3019L23.5063 14.1428L23.3499 13.9836L23.2063 13.8377L23.089 13.7184L22.9845 13.6122L22.8935 13.5326L22.8282 13.4662L16.293 20.9207L16.606 20.3769L16.7496 20.0719L16.8931 19.7533L17.0497 19.3953L17.2062 18.9975L17.3888 18.5596L17.5714 18.0687L17.7801 17.525L18.015 16.9148L18.2758 16.2386L18.4193 15.8802L18.5629 15.4956L18.7193 15.0843L18.8889 14.6598L19.0715 14.2092L19.2541 13.7445L19.4496 13.2541L19.6586 12.7366L19.8804 12.1928L20.1151 11.6224L20.3236 11.357L20.5588 11.1451L20.8325 10.9854L21.1326 10.8929L21.4455 10.8531L21.7588 10.8663L22.0718 10.9594L22.3718 11.105L22.6193 11.3043L22.8154 11.5298L23.0239 11.3043L23.2719 11.105L23.5719 10.9594L23.8719 10.8798L24.1849 10.8531L24.4978 10.8929L24.7978 10.9991L25.0721 11.1582L25.3068 11.3702L25.5153 11.6355L25.7505 12.206L25.9718 12.7366L26.1678 13.2541L26.3634 13.7445L26.5589 14.2092L26.7287 14.6598L26.898 15.0843L27.0545 15.4824L27.198 15.8671L27.3415 16.2385L27.6025 16.9015L27.8372 17.5117L28.0328 18.0554L28.2283 18.5331L28.3981 18.9706L28.5545 19.3684L28.711 19.7133L28.8546 20.0451L28.9981 20.3371L29.3111 20.8808L29.6636 21.3979L29.8591 21.6632L30.0809 21.9421L30.3284 22.2337L30.6022 22.5519L30.9155 22.8972L31.2675 23.2818L31.6591 23.7063L32.0893 24.1836L32.5721 24.7012L32.8331 24.9927L33.1068 25.2978L33.4068 25.616L33.7069 25.9477L34.0198 26.3062L34.359 26.6773L34.7115 27.0754L35.0765 27.4862L35.4547 27.9242L35.8592 28.3753L36.0028 28.6803L36.0938 28.9849L36.1071 29.3035L36.0681 29.6217L35.9765 29.9268L35.8201 30.2052L35.6111 30.4444L35.3506 30.6563L35.0764 30.7893L34.7896 30.8819L34.8679 31.0545L34.9199 31.2398L34.9461 31.4256L34.9591 31.6244L34.92 31.9562L34.8289 32.2612L34.6854 32.5533L34.4764 32.7919L34.2417 32.9908L33.9545 33.1367L33.655 33.243L33.3158 33.2692L32.6766 33.1634L32.0631 33.0572L31.4764 32.9641L30.9154 32.8583L30.3936 32.7653L29.8846 32.6857L29.4024 32.5931L28.9588 32.5136L28.5281 32.434L28.1106 32.3544L27.7194 32.288L27.3541 32.2216L26.6758 32.0892L26.0758 31.983L25.5282 31.8767L25.0327 31.7841L24.5891 31.7177L24.1846 31.6514L23.8064 31.6116L23.441 31.5719L22.7761 31.5452L22.1106 31.5588L21.7586 31.5985L21.3803 31.6382L20.9625 31.6911L20.5193 31.7575L20.0233 31.837L19.4757 31.9296L18.8626 32.0359L18.1844 32.1551L17.8192 32.2215L17.4279 32.2879L17.0235 32.3543L16.5799 32.4339L16.1364 32.4999L15.6537 32.5795L15.145 32.6725L14.6101 32.7521L14.0622 32.8447L13.4752 32.9378L12.8491 33.0304L12.2099 33.1235L11.8837 33.0837L11.5837 32.9907L11.2968 32.8447L11.0619 32.6327L10.8663 32.394L10.7227 32.1152L10.6184 31.7969L10.5922 31.4652L10.6184 31.1868L10.6835 30.9346L10.4356 30.855L10.2008 30.7226L9.93995 30.5238L9.73123 30.2716L9.58769 29.9932L9.48333 29.6881L9.44427 29.3699L9.4704 29.0513L9.54863 28.7462L9.69181 28.4409Z" fill="#9D9E9E"/>
<path fill-rule="evenodd" clip-rule="evenodd" d="M5.21758 15.2832V15.2964V15.3493L5.23064 15.4157V15.5219L5.2437 15.6412L5.25676 15.7871L5.2697 15.9594L5.28276 16.1582L5.32194 16.5962L5.36112 17.0871L5.41324 17.6308L5.47854 18.2143L5.62196 19.4215L5.71326 20.0181L5.81762 20.6153L5.92198 21.159L6.02634 21.6765L6.15682 22.1271L6.222 22.3264L6.2873 22.5117L10.3701 28.5204L10.4614 28.839L10.4876 29.1704L10.4484 29.489L10.344 29.794L10.2006 30.0724L9.99176 30.3111L9.74399 30.5099L9.45703 30.6695L9.13089 30.7622L8.81781 30.7889L8.50485 30.7491L8.20471 30.656L7.93081 30.4969L7.68291 30.298L7.48725 30.0327L7.33077 29.7407L6.2873 22.5117L6.09164 22.0874L5.8568 21.6232L5.58278 21.1458L5.28276 20.655L4.60448 19.6471L4.25235 19.1563L3.90009 18.6921L3.56089 18.241L3.24781 17.8297L2.96085 17.4582L2.70001 17.14L2.58259 16.994L2.47823 16.8746L2.39999 16.7684L2.32175 16.6758L2.25645 16.5962L2.21739 16.5434L2.19127 16.5167L2.17821 16.5031L2.08691 16.1719L2.07385 15.8537L2.11303 15.5349L2.20433 15.2299L2.36093 14.9515L2.55659 14.6993L2.80437 14.5005L3.10439 14.3413L3.41747 14.2486L3.74361 14.2351L4.05669 14.2748L4.34365 14.368L4.61754 14.527L4.86544 14.726L5.0611 14.9782L5.21758 15.2832Z" fill="#9D9E9E"/>
<path fill-rule="evenodd" clip-rule="evenodd" d="M43.3855 16.6093L43.1375 16.9678L42.8899 17.3127L42.4464 17.949L42.0289 18.5194L41.6507 19.037L41.3115 19.5012L40.9985 19.9256L40.7243 20.2971L40.4767 20.642L40.2549 20.9336L40.046 21.2119L39.8767 21.4641L39.7202 21.6897L39.5895 21.9152L39.4722 22.114L39.2895 22.5253L39.1459 22.9498L39.0939 23.1753L39.0419 23.427L38.9894 23.7059L38.9504 24.0109L38.8984 24.3422L38.8593 24.7137L38.8068 25.1381L38.7549 25.6023L38.6895 26.1199L38.6246 26.6903L38.5459 27.3266L38.4548 28.03L38.3504 28.8124L38.2854 29.2237L38.2201 29.6612L38.0636 29.9662L37.8676 30.2184L37.6201 30.4304L37.3463 30.5764L37.0463 30.6826L36.733 30.7223L36.4072 30.6957L36.0939 30.6031L35.8071 30.444L35.5591 30.2315L35.3506 29.9793L35.2071 29.7009L35.1156 29.3958L35.0765 29.0776L35.1027 28.7458L35.1938 28.4276L35.4418 28.0697L35.6898 27.7248L36.133 27.0879L36.5505 26.5175L36.9287 26.0005L37.2679 25.5358L37.5813 25.125L37.855 24.7403L38.1031 24.4086L38.3248 24.1035L38.5204 23.8382L38.7031 23.5865L38.8463 23.361L38.9898 23.1354L39.1071 22.9366L39.2898 22.5253L39.4334 22.1008L39.4854 21.8753L39.5379 21.6231L39.5769 21.3447L39.6289 21.0397L39.668 20.7079L39.7205 20.3368L39.7595 19.9124L39.8244 19.4477L39.8769 18.9306L39.9552 18.3472L40.0334 17.7104L40.1245 17.0075L40.2289 16.2247L40.2942 15.8134L40.3595 15.3759L40.516 15.0839L40.7116 14.8322L40.9463 14.6197L41.2201 14.4741L41.5201 14.381L41.8334 14.3413L42.1592 14.368L42.4725 14.4606L42.7592 14.6197L43.0072 14.819L43.2157 15.0577L43.3592 15.3361L43.4637 15.6411L43.5028 15.9594L43.4765 16.2911L43.3855 16.6093ZM38.7285 31.1468L38.8592 31.6774L39.0028 32.2211L39.2765 33.3353L41.3897 32.6057L41.6635 32.7915L41.8853 33.0302L42.0551 33.2956L42.1724 33.6006L42.2373 33.9057V34.2239L42.1724 34.5557L42.0416 34.8608L41.8589 35.1391L41.6242 35.3647L41.3632 35.5373L41.0765 35.6566L40.7765 35.723H40.4632L40.1374 35.6566L39.8374 35.5236L39.2764 33.3352L39.1591 33.3749L39.0676 33.4146L38.9111 33.468L38.7809 33.5077L38.6501 33.5605L38.5591 33.5872L38.4546 33.6269L38.3244 33.6667L38.1674 33.7195L37.9852 33.7729L37.7634 33.8525L37.4891 33.9451L37.1762 34.0513L36.9024 33.8655L36.6806 33.6268L36.5108 33.3615L36.3935 33.0694L36.3286 32.7512V32.433L36.3935 32.1144L36.5242 31.8093L36.707 31.5309L36.9417 31.3054L37.2026 31.1333L37.4893 31.014L37.8027 30.9476H38.1156L38.4286 31.014L38.7285 31.1468Z" fill="#9D9E9E"/>
<path fill-rule="evenodd" clip-rule="evenodd" d="M35.3633 34.3568L35.3503 34.3699L35.3113 34.3966L35.246 34.4363L35.1544 34.4892L35.0371 34.5687L34.9069 34.6483L34.7504 34.7545L34.5806 34.8608L34.2024 35.113L33.7588 35.4045L33.2894 35.7363L32.7804 36.0812L31.7501 36.7976L31.2411 37.1687L30.7589 37.5271L30.3153 37.872L29.9108 38.2033L29.5716 38.4953L29.4281 38.6413L29.3108 38.7605L29.598 38.3891L29.7415 38.1771L29.8847 37.9516L30.0282 37.6994L30.1718 37.421L30.3415 37.1028L30.5238 36.7579L30.7198 36.3597L30.9411 35.9222L31.1891 35.4445L31.4629 34.9007L31.7762 34.3036L32.1154 33.6537L32.3109 33.2957L32.5065 32.9378L32.7154 32.5396L32.9367 32.1418L33.1848 31.9163L33.4585 31.7572L33.7457 31.651L34.0587 31.5981L34.372 31.6113L34.672 31.6908L34.9721 31.8237L35.2325 32.0226L35.4543 32.2743L35.6241 32.5532L35.7286 32.8447L35.7806 33.1633L35.7676 33.4815L35.6894 33.7866L35.5587 34.0917L35.3633 34.3568ZM8.36132 34.1046L8.13954 34.025L7.95694 33.9586L7.6308 33.813L7.3569 33.7068L7.13512 33.6005L6.93946 33.521L6.7438 33.4546L6.52202 33.4017L6.27412 33.375L5.73926 35.5635L5.43924 35.6964L5.12629 35.7628H4.81321L4.50013 35.6964L4.21317 35.5772L3.95221 35.4045L3.71737 35.179L3.53477 34.9006L3.40429 34.5956L3.35205 34.2638V33.9456L3.40429 33.6405L3.52171 33.3354L3.69125 33.0701L3.91303 32.8314L4.18693 32.6456L6.274 33.3752L6.30012 33.2559L6.31318 33.1496L6.3393 33.0172L6.36542 32.8979L6.4046 32.765L6.43072 32.6855L6.45684 32.5792L6.48296 32.4468L6.53508 32.2877L6.57426 32.0888L6.63944 31.8367L6.71768 31.5446L6.79592 31.1997L7.09594 31.0673L7.42208 31.0144H7.73516L8.04824 31.0673L8.3352 31.1865L8.59603 31.3592L8.83087 31.5842L9.01347 31.8631L9.14383 32.1682L9.20913 32.4864V32.8046L9.14383 33.1232L9.02641 33.4147L8.85687 33.6801L8.63509 33.9188L8.36132 34.1046ZM19.9579 45.3923L19.7362 44.9945L19.5272 44.6098L19.3187 44.2384L19.136 43.8804L18.7839 43.2305L18.4708 42.6334L18.1838 42.1028L17.9359 41.6119L17.7141 41.1874L17.5185 40.7897L17.3359 40.4447L17.1663 40.1265L17.0097 39.8476L16.8662 39.5959L16.7227 39.3704L16.5791 39.1716L16.2922 38.8001L16.6183 39.1319L16.8009 39.291L17.0096 39.4631L17.2445 39.6358L17.5053 39.8216L17.7923 40.0204L18.1184 40.2324L18.4705 40.4846L18.8749 40.7499L19.3314 41.055L19.827 41.3863L20.375 41.7577L20.975 42.1822L21.3008 42.4077L21.64 42.6464L21.9925 42.8986L22.3708 43.1639L22.5663 43.4293L22.6966 43.7344L22.7753 44.0394L22.7882 44.3577L22.7362 44.6759L22.6317 44.9809L22.4753 45.2598L22.2535 45.5115L21.9925 45.7104L21.6925 45.8433L21.3925 45.9228L21.0795 45.936L20.7662 45.8831L20.4795 45.7769L20.2052 45.6178L19.9579 45.3923ZM16.2923 38.8001L15.9661 38.4684L15.7835 38.2962L15.5748 38.1371L15.34 37.9645L15.0792 37.7787L14.7922 37.5667L14.4661 37.3542L14.1009 37.1155L13.7095 36.8372L13.253 36.5321L12.7574 36.2003L12.2094 35.8289L11.5963 35.4044L11.2702 35.1789L10.931 34.9402L10.5787 34.688L10.2005 34.4232L10.0048 34.1578L9.87435 33.8527L9.79611 33.5477L9.78305 33.2291L9.83529 32.9108L9.93965 32.6188L10.0961 32.3404L10.3179 32.0887L10.5787 31.8894L10.8788 31.7438L11.1788 31.6643L11.5049 31.6507L11.8049 31.7041L12.118 31.8098L12.3919 31.969L12.6398 32.1945L12.8616 32.5926L13.0703 32.9904L13.279 33.3483L13.4616 33.7068L13.8139 34.3568L14.127 34.9534L14.4009 35.4976L14.6488 35.9749L14.8836 36.4129L15.0793 36.7976L15.2619 37.1555L15.4185 37.4606L15.5749 37.739L15.7185 37.9912L15.862 38.2167L16.0056 38.4287L16.2923 38.8001ZM29.3105 38.7604L25.6843 45.3656L25.4363 45.5911L25.1625 45.7637L24.8753 45.87L24.5623 45.9228L24.2494 45.9097L23.9494 45.8296L23.6493 45.6972L23.3884 45.4984L23.1666 45.2462L22.9968 44.9678L22.8928 44.6758L22.8403 44.3575L22.8536 44.0393L22.9319 43.7342L23.0621 43.4292L23.2577 43.1638L23.623 42.8985L23.975 42.6463L24.3142 42.3946L24.6404 42.169L25.2405 41.7446L25.7885 41.3731L26.2841 41.0282L26.7406 40.7231L27.1318 40.4578L27.4971 40.2061L27.8234 39.9936L28.1101 39.7948L28.371 39.609L28.5928 39.4232L28.8018 39.2641L28.984 39.0919L29.3105 38.7604Z" fill="#9D9E9E"/>
<path fill-rule="evenodd" clip-rule="evenodd" d="M22.8147 7.88159L23.0755 7.89512L23.3232 7.93496L23.5578 7.98783L23.793 8.08042L24.0015 8.18666L24.2104 8.30593L24.406 8.45201L24.5753 8.611L24.745 8.7968L24.8887 8.9826L25.006 9.19508L25.1105 9.40694L25.1887 9.64561L25.2535 9.88477L25.2927 10.1365L25.306 10.3887L25.2927 10.654L25.2535 10.9057L25.1887 11.1449L25.1105 11.3836L25.006 11.5954L24.8887 11.8079L24.745 12.0067L24.5753 12.1795L24.406 12.3516L24.2104 12.4976L24.0015 12.617L23.793 12.7232L23.5578 12.8027L23.3232 12.8692L23.0755 12.9089L22.8147 12.9221L22.5667 12.9089L22.3185 12.8692L22.0839 12.8027L21.8492 12.7232L21.6403 12.617L21.4318 12.4976L21.2492 12.3516L21.0665 12.1795L20.91 12.0067L20.7664 11.8079L20.649 11.5954L20.5447 11.3836L20.4535 11.1449L20.4015 10.9057L20.3619 10.654L20.349 10.3887L20.3619 10.1365L20.4015 9.88477L20.4535 9.64561L20.5447 9.40694L20.649 9.19508L20.7664 8.9826L20.91 8.7968L21.0665 8.611L21.2492 8.45201L21.4318 8.30593L21.6403 8.18666L21.8492 8.08042L22.0839 7.98783L22.3185 7.93496L22.5667 7.89512L22.8147 7.88159Z" fill="#9D9E9E"/>
<path fill-rule="evenodd" clip-rule="evenodd" d="M22.8147 7.88167V7.55029L23.1013 7.56345L23.3885 7.60329L23.6495 7.66969L23.9103 7.76228L23.793 8.0805L23.6623 8.38557L23.4667 8.31967L23.2578 8.2663L23.0365 8.24011L22.8147 8.22646V7.88167Z" fill="#9D9E9E"/>
<path fill-rule="evenodd" clip-rule="evenodd" d="M23.793 8.08043L23.9103 7.76221L24.1579 7.8816L24.393 8.02756L24.6144 8.18667L24.8104 8.37247L24.5752 8.61101L24.3405 8.85018L24.1842 8.70422L24.0277 8.58483L23.6622 8.3855L23.793 8.08043Z" fill="#9D9E9E"/>
<path fill-rule="evenodd" clip-rule="evenodd" d="M24.5752 8.6111L24.8104 8.37256L24.9927 8.57139L25.1625 8.78387L25.306 9.02241L25.4234 9.27473L25.1105 9.40704L24.8104 9.53996L24.6015 9.18153L24.4842 9.00938L24.3405 8.85027L24.5752 8.6111Z" fill="#9D9E9E"/>
<path fill-rule="evenodd" clip-rule="evenodd" d="M25.1104 9.40696L25.4234 9.27466L25.5145 9.53989L25.5799 9.81827L25.6319 10.0968L25.6452 10.3887H25.306H24.9797L24.9669 10.1632L24.9407 9.9507L24.8104 9.53989L25.1104 9.40696Z" fill="#9D9E9E"/>
<path fill-rule="evenodd" clip-rule="evenodd" d="M25.306 10.3887H25.6452L25.6319 10.6802L25.5799 10.9723L25.5145 11.2506L25.4234 11.5028L25.1104 11.3836L24.8104 11.2506L24.8752 11.0518L24.9407 10.8398L24.9669 10.6142L24.9797 10.3887H25.306Z" fill="#9D9E9E"/>
<path fill-rule="evenodd" clip-rule="evenodd" d="M25.1105 11.3837L25.4234 11.5029L25.306 11.7546L25.1625 11.9938L24.9927 12.2193L24.8104 12.4181L24.5752 12.1796L24.3405 11.9404L24.4842 11.7813L24.6015 11.6222L24.8104 11.2507L25.1105 11.3837Z" fill="#9D9E9E"/>
<path fill-rule="evenodd" clip-rule="evenodd" d="M24.5752 12.1796L24.8104 12.4181L24.6144 12.6039L24.393 12.7762L24.1579 12.9222L23.9103 13.0414L23.793 12.7233L23.6622 12.4181L24.0277 12.2058L24.1842 12.0864L24.3405 11.9404L24.5752 12.1796Z" fill="#9D9E9E"/>
<path fill-rule="evenodd" clip-rule="evenodd" d="M23.793 12.7234L23.9103 13.0415L23.6623 13.1342L23.3885 13.2006L23.1013 13.254L22.8147 13.267V12.9222V12.5905L23.0365 12.5773L23.2578 12.5506L23.4667 12.4842L23.6623 12.4182L23.793 12.7234Z" fill="#9D9E9E"/>
<path fill-rule="evenodd" clip-rule="evenodd" d="M22.8146 12.9222V13.267L22.5274 13.254L22.2537 13.2006L21.9794 13.1342L21.7189 13.0415L21.8492 12.7234L21.9794 12.4182L22.3839 12.5506L22.5927 12.5773L22.8146 12.5905V12.9222Z" fill="#9D9E9E"/>
<path fill-rule="evenodd" clip-rule="evenodd" d="M21.8492 12.7233L21.719 13.0414L21.4709 12.9222L21.2362 12.7762L21.0273 12.6039L20.8317 12.4181L21.0664 12.1796L21.3012 11.9404L21.458 12.0864L21.6274 12.2058L21.9794 12.4181L21.8492 12.7233Z" fill="#9D9E9E"/>
<path fill-rule="evenodd" clip-rule="evenodd" d="M21.0664 12.1796L20.8317 12.4181L20.649 12.2193L20.4925 11.9938L20.349 11.7546L20.2317 11.5029L20.5446 11.3837L20.8447 11.2507L21.0402 11.6222L21.158 11.7813L21.3012 11.9404L21.0664 12.1796Z" fill="#9D9E9E"/>
<path fill-rule="evenodd" clip-rule="evenodd" d="M20.5446 11.3836L20.2317 11.5028L20.1405 11.2375L20.0752 10.9723L20.0361 10.6802L20.0227 10.3887H20.349H20.6882L20.701 10.6142L20.7272 10.8398L20.7797 11.0518L20.8446 11.2506L20.5446 11.3836Z" fill="#9D9E9E"/>
<path fill-rule="evenodd" clip-rule="evenodd" d="M20.349 10.3887H20.0227L20.0361 10.0968L20.0752 9.81827L20.1405 9.53989L20.2317 9.27466L20.5446 9.40696L20.8446 9.53989L20.7797 9.73872L20.7272 9.9507L20.701 10.1632L20.6882 10.3887H20.349Z" fill="#9D9E9E"/>
<path fill-rule="evenodd" clip-rule="evenodd" d="M20.5446 9.40704L20.2317 9.27473L20.349 9.03557L20.4925 8.7969L20.649 8.57139L20.8317 8.37256L21.0664 8.6111L21.3012 8.85027L21.158 9.00938L21.0402 9.16849L20.9362 9.35417L20.8447 9.53996L20.5446 9.40704Z" fill="#9D9E9E"/>
<path fill-rule="evenodd" clip-rule="evenodd" d="M21.0664 8.61101L20.8317 8.37247L21.0273 8.18667L21.2492 8.02756L21.4838 7.8816L21.719 7.76221L21.8492 8.08043L21.9794 8.3855L21.7972 8.47859L21.6145 8.58483L21.458 8.70422L21.3012 8.85018L21.0664 8.61101Z" fill="#9D9E9E"/>
<path fill-rule="evenodd" clip-rule="evenodd" d="M21.8492 8.0805L21.7189 7.76228L21.9794 7.66969L22.2537 7.60329L22.5274 7.56345L22.8146 7.55029V7.88167V8.22646L22.5927 8.24011L22.3839 8.2663L22.1754 8.31967L21.9794 8.38557L21.8492 8.0805Z" fill="#9D9E9E"/>
<path fill-rule="evenodd" clip-rule="evenodd" d="M9.75702 28.9316L10.0179 28.9447L10.2658 28.9845L10.5006 29.0379L10.7353 29.1305L10.944 29.2367L11.1528 29.356L11.3484 29.5021L11.5181 29.6611L11.6876 29.8468L11.831 30.0326L11.9484 30.2446L12.0528 30.457L12.131 30.6957L12.1963 30.9343L12.2354 31.1865L12.2485 31.4387L12.2354 31.7041L12.1963 31.9558L12.131 32.1944L12.0528 32.4336L11.9484 32.6455L11.831 32.858L11.6876 33.0568L11.5181 33.229L11.3484 33.4017L11.1528 33.5476L10.944 33.667L10.7353 33.7733L10.5006 33.8527L10.2658 33.9187L10.0179 33.9586L9.75702 33.9721L9.50912 33.9586L9.26134 33.9187L9.0265 33.8527L8.79178 33.7733L8.58294 33.667L8.37434 33.5476L8.19162 33.4017L8.00902 33.229L7.85254 33.0568L7.709 32.858L7.59158 32.6455L7.48722 32.4336L7.39592 32.1944L7.34381 31.9558L7.30462 31.7041L7.29156 31.4387L7.30462 31.1865L7.34381 30.9343L7.39592 30.6957L7.48722 30.457L7.59158 30.2446L7.709 30.0326L7.85254 29.8468L8.00902 29.6611L8.19162 29.5021L8.37434 29.356L8.58294 29.2367L8.79178 29.1305L9.0265 29.0379L9.26134 28.9845L9.50912 28.9447L9.75702 28.9316Z" fill="#9D9E9E"/>
<path fill-rule="evenodd" clip-rule="evenodd" d="M9.75702 28.9316V28.5999L10.044 28.6134L10.3309 28.6532L10.5919 28.7196L10.8527 28.8122L10.7353 29.1304L10.6048 29.4355L10.4092 29.3696L10.2006 29.3162L9.9788 29.2895L9.75702 29.2764V28.9316Z" fill="#9D9E9E"/>
<path fill-rule="evenodd" clip-rule="evenodd" d="M10.7353 29.1305L10.8528 28.8123L11.1007 28.9317L11.3354 29.0776L11.5572 29.2367L11.7528 29.4225L11.5181 29.6611L11.2833 29.8997L11.1267 29.7543L10.9702 29.6345L10.6049 29.4356L10.7353 29.1305Z" fill="#9D9E9E"/>
<path fill-rule="evenodd" clip-rule="evenodd" d="M11.5181 29.6612L11.7528 29.4226L11.9354 29.6214L12.1051 29.8339L12.2485 30.0725L12.3659 30.3243L12.0528 30.4571L11.7528 30.5895L11.5441 30.2316L11.4268 30.0594L11.2833 29.8998L11.5181 29.6612Z" fill="#9D9E9E"/>
<path fill-rule="evenodd" clip-rule="evenodd" d="M12.0528 30.457L12.3659 30.3242L12.4572 30.5894L12.5225 30.8683L12.5746 31.1468L12.5877 31.4388H12.2485H11.9223L11.9094 31.2132L11.8833 31.0008L11.7528 30.5894L12.0528 30.457Z" fill="#9D9E9E"/>
<path fill-rule="evenodd" clip-rule="evenodd" d="M12.2485 31.4387H12.5877L12.5746 31.7303L12.5225 32.0223L12.4572 32.3007L12.3659 32.5529L12.0528 32.4336L11.7528 32.3007L11.8181 32.1019L11.8833 31.8894L11.9094 31.6642L11.9223 31.4387H12.2485Z" fill="#9D9E9E"/>
<path fill-rule="evenodd" clip-rule="evenodd" d="M12.0528 32.4337L12.3659 32.553L12.2485 32.8047L12.1051 33.0438L11.9354 33.2689L11.7528 33.4682L11.5181 33.2291L11.2833 32.9905L11.4268 32.8314L11.5441 32.6723L11.7528 32.3008L12.0528 32.4337Z" fill="#9D9E9E"/>
<path fill-rule="evenodd" clip-rule="evenodd" d="M11.5181 33.2291L11.7528 33.4682L11.5572 33.6535L11.3354 33.8263L11.1007 33.9722L10.8528 34.0915L10.7353 33.7734L10.6049 33.4682L10.9702 33.2558L11.1267 33.1364L11.2833 32.9905L11.5181 33.2291Z" fill="#9D9E9E"/>
<path fill-rule="evenodd" clip-rule="evenodd" d="M10.7353 33.7735L10.8527 34.0916L10.6048 34.1843L10.3309 34.2507L10.044 34.3035L9.75702 34.3171V33.9723V33.6405L9.9788 33.6274L10.2006 33.6007L10.4092 33.5343L10.6048 33.4683L10.7353 33.7735Z" fill="#9D9E9E"/>
<path fill-rule="evenodd" clip-rule="evenodd" d="M9.75703 33.9723V34.3171L9.47007 34.3035L9.19605 34.2507L8.92215 34.1843L8.66132 34.0916L8.7918 33.7735L8.92215 33.4683L9.32653 33.6007L9.53525 33.6274L9.75703 33.6405V33.9723Z" fill="#9D9E9E"/>
<path fill-rule="evenodd" clip-rule="evenodd" d="M8.79177 33.7734L8.66129 34.0915L8.41339 33.9722L8.17867 33.8263L7.96995 33.6535L7.77417 33.4682L8.00901 33.2291L8.24385 32.9905L8.40033 33.1364L8.56999 33.2558L8.92213 33.4682L8.79177 33.7734Z" fill="#9D9E9E"/>
<path fill-rule="evenodd" clip-rule="evenodd" d="M8.00901 33.2291L7.77417 33.4682L7.59157 33.2689L7.43509 33.0438L7.29155 32.8047L7.17426 32.553L7.48721 32.4337L7.78735 32.3008L7.98301 32.6723L8.10031 32.8314L8.24385 32.9905L8.00901 33.2291Z" fill="#9D9E9E"/>
<path fill-rule="evenodd" clip-rule="evenodd" d="M7.48719 32.4336L7.17423 32.5529L7.08293 32.2875L7.01763 32.0223L6.97845 31.7303L6.96552 31.4387H7.29153H7.63073L7.64379 31.6642L7.66991 31.8894L7.72203 32.1019L7.78733 32.3007L7.48719 32.4336Z" fill="#9D9E9E"/>
<path fill-rule="evenodd" clip-rule="evenodd" d="M7.29153 31.4388H6.96552L6.97845 31.1468L7.01763 30.8683L7.08293 30.5894L7.17423 30.3242L7.48719 30.457L7.78733 30.5894L7.72203 30.7889L7.66991 31.0008L7.64379 31.2132L7.63073 31.4388H7.29153Z" fill="#9D9E9E"/>
<path fill-rule="evenodd" clip-rule="evenodd" d="M7.48721 30.4571L7.17426 30.3243L7.29155 30.0856L7.43509 29.8469L7.59157 29.6214L7.77417 29.4226L8.00901 29.6612L8.24385 29.8998L8.10031 30.0594L7.98301 30.2185L7.87865 30.4042L7.78735 30.5895L7.48721 30.4571Z" fill="#9D9E9E"/>
<path fill-rule="evenodd" clip-rule="evenodd" d="M8.00901 29.6611L7.77417 29.4225L7.96995 29.2367L8.19161 29.0776L8.42645 28.9317L8.66129 28.8123L8.79177 29.1305L8.92213 29.4356L8.73953 29.5286L8.55693 29.6345L8.40033 29.7543L8.24385 29.8997L8.00901 29.6611Z" fill="#9D9E9E"/>
<path fill-rule="evenodd" clip-rule="evenodd" d="M8.7918 29.1304L8.66132 28.8122L8.92215 28.7196L9.19605 28.6532L9.47007 28.6134L9.75703 28.5999V28.9316V29.2764L9.53525 29.2895L9.32653 29.3162L9.11781 29.3696L8.92215 29.4355L8.7918 29.1304Z" fill="#9D9E9E"/>
<path fill-rule="evenodd" clip-rule="evenodd" d="M35.7677 28.8652L36.0287 28.8789L36.2762 28.9186L36.5109 28.9715L36.746 29.0646L36.9545 29.1704L37.1634 29.2897L37.359 29.4357L37.5283 29.5948L37.6982 29.7806L37.8417 29.9664L37.959 30.1787L38.0635 30.3907L38.1417 30.6294L38.2067 30.8684L38.2457 31.1202L38.259 31.3724L38.2457 31.6378L38.2067 31.8895L38.1417 32.1285L38.0635 32.3672L37.959 32.5792L37.8417 32.7917L37.6982 32.9905L37.5283 33.1631L37.359 33.3354L37.1634 33.4814L36.9545 33.6006L36.746 33.7069L36.5109 33.7864L36.2762 33.8528L36.0287 33.8927L35.7677 33.9057L35.5197 33.8927L35.2717 33.8528L35.0369 33.7864L34.8022 33.7069L34.5933 33.6006L34.3849 33.4814L34.2022 33.3354L34.0195 33.1631L33.863 32.9905L33.7194 32.7917L33.6021 32.5792L33.4977 32.3672L33.4065 32.1285L33.3545 31.8895L33.3154 31.6378L33.302 31.3724L33.3154 31.1202L33.3545 30.8684L33.4065 30.6294L33.4977 30.3907L33.6021 30.1787L33.7194 29.9664L33.863 29.7806L34.0195 29.5948L34.2022 29.4357L34.3849 29.2897L34.5933 29.1704L34.8022 29.0646L35.0369 28.9715L35.2717 28.9186L35.5197 28.8789L35.7677 28.8652Z" fill="#9D9E9E"/>
<path fill-rule="evenodd" clip-rule="evenodd" d="M35.7677 28.8652V28.5339L36.0544 28.5471L36.3415 28.5868L36.6025 28.6533L36.8634 28.7459L36.746 29.0645L36.6153 29.3697L36.4198 29.3032L36.2109 29.2498L35.9895 29.2236L35.7677 29.2101V28.8652Z" fill="#9D9E9E"/>
<path fill-rule="evenodd" clip-rule="evenodd" d="M36.746 29.0644L36.8634 28.7458L37.111 28.8651L37.3461 29.0112L37.5675 29.1703L37.7635 29.356L37.5283 29.5947L37.2937 29.8338L37.1372 29.6877L36.9807 29.5685L36.6153 29.3696L36.746 29.0644Z" fill="#9D9E9E"/>
<path fill-rule="evenodd" clip-rule="evenodd" d="M37.5283 29.5946L37.7635 29.356L37.9462 29.5549L38.1155 29.7673L38.2591 30.0059L38.3765 30.2581L38.0635 30.3906L37.7635 30.5235L37.5545 30.165L37.4372 29.9928L37.2937 29.8338L37.5283 29.5946Z" fill="#9D9E9E"/>
<path fill-rule="evenodd" clip-rule="evenodd" d="M38.0635 30.3907L38.3765 30.2583L38.4675 30.5237L38.5329 30.802L38.5849 31.0804L38.5982 31.3725H38.259H37.9328L37.92 31.1469L37.8937 30.9345L37.7635 30.5237L38.0635 30.3907Z" fill="#9D9E9E"/>
<path fill-rule="evenodd" clip-rule="evenodd" d="M38.259 31.3723H38.5982L38.5849 31.6642L38.5329 31.9558L38.4675 32.2342L38.3765 32.4865L38.0635 32.3671L37.7635 32.2342L37.8284 32.0353L37.8937 31.8233L37.92 31.5978L37.9328 31.3723H38.259Z" fill="#9D9E9E"/>
<path fill-rule="evenodd" clip-rule="evenodd" d="M38.0635 32.3671L38.3765 32.4864L38.2591 32.7386L38.1155 32.9772L37.9462 33.2028L37.7635 33.4017L37.5283 33.163L37.2937 32.9239L37.4372 32.7648L37.5545 32.6057L37.7635 32.2341L38.0635 32.3671Z" fill="#9D9E9E"/>
<path fill-rule="evenodd" clip-rule="evenodd" d="M37.5283 33.1631L37.7635 33.4018L37.5675 33.5876L37.3461 33.7597L37.111 33.9057L36.8634 34.0251L36.746 33.7068L36.6153 33.4018L36.9807 33.1893L37.1372 33.07L37.2937 32.9241L37.5283 33.1631Z" fill="#9D9E9E"/>
<path fill-rule="evenodd" clip-rule="evenodd" d="M36.746 33.7067L36.8634 34.0249L36.6153 34.118L36.3415 34.184L36.0544 34.2374L35.7677 34.2504V33.9055V33.5738L35.9895 33.5607L36.2109 33.534L36.4198 33.468L36.6153 33.4016L36.746 33.7067Z" fill="#9D9E9E"/>
<path fill-rule="evenodd" clip-rule="evenodd" d="M35.7677 33.9055V34.2504L35.4805 34.2374L35.2067 34.184L34.9325 34.118L34.672 34.0249L34.8022 33.7067L34.9325 33.4016L35.337 33.534L35.5459 33.5607L35.7677 33.5738V33.9055Z" fill="#9D9E9E"/>
<path fill-rule="evenodd" clip-rule="evenodd" d="M34.8023 33.7068L34.672 34.0251L34.424 33.9057L34.1893 33.7597L33.9804 33.5876L33.7848 33.4018L34.0195 33.1631L34.2542 32.9241L34.4111 33.07L34.5805 33.1893L34.9325 33.4018L34.8023 33.7068Z" fill="#9D9E9E"/>
<path fill-rule="evenodd" clip-rule="evenodd" d="M34.0195 33.163L33.7848 33.4017L33.6022 33.2028L33.4457 32.9772L33.3021 32.7386L33.1848 32.4864L33.4977 32.3671L33.7977 32.2341L33.9938 32.6057L34.1111 32.7648L34.2542 32.9239L34.0195 33.163Z" fill="#9D9E9E"/>
<path fill-rule="evenodd" clip-rule="evenodd" d="M33.4977 32.3671L33.1847 32.4865L33.0937 32.2211L33.0283 31.9558L32.9892 31.6642L32.9763 31.3723H33.302H33.6412L33.6545 31.5978L33.6803 31.8233L33.7328 32.0353L33.7977 32.2342L33.4977 32.3671Z" fill="#9D9E9E"/>
<path fill-rule="evenodd" clip-rule="evenodd" d="M33.302 31.3725H32.9763L32.9892 31.0804L33.0283 30.802L33.0937 30.5237L33.1847 30.2583L33.4977 30.3907L33.7977 30.5237L33.7328 30.7225L33.6803 30.9345L33.6545 31.1469L33.6412 31.3725H33.302Z" fill="#9D9E9E"/>
<path fill-rule="evenodd" clip-rule="evenodd" d="M33.4977 30.3906L33.1848 30.2581L33.3021 30.0195L33.4457 29.7804L33.6022 29.5549L33.7848 29.356L34.0195 29.5946L34.2542 29.8338L34.1111 29.9928L33.9938 30.1519L33.8893 30.3377L33.7977 30.5235L33.4977 30.3906Z" fill="#9D9E9E"/>
<path fill-rule="evenodd" clip-rule="evenodd" d="M34.0195 29.5947L33.7848 29.356L33.9804 29.1703L34.2022 29.0112L34.4369 28.8651L34.672 28.7458L34.8023 29.0644L34.9325 29.3696L34.7503 29.4622L34.5675 29.5685L34.4111 29.6877L34.2542 29.8338L34.0195 29.5947Z" fill="#9D9E9E"/>
<path fill-rule="evenodd" clip-rule="evenodd" d="M34.8022 29.0645L34.672 28.7459L34.9325 28.6533L35.2067 28.5868L35.4805 28.5471L35.7677 28.5339V28.8652V29.2101L35.5459 29.2236L35.337 29.2498L35.1285 29.3032L34.9325 29.3697L34.8022 29.0645Z" fill="#9D9E9E"/>
<path fill-rule="evenodd" clip-rule="evenodd" d="M42.7725 11.145L43.0335 11.1581L43.281 11.1979L43.5157 11.2508L43.7508 11.3438L43.9593 11.4496L44.1683 11.5694L44.3638 11.7149L44.5332 11.8744L44.703 12.0597L44.8465 12.2455L44.9639 12.458L45.0683 12.67L45.1465 12.909L45.2115 13.1477L45.251 13.3994L45.264 13.6516L45.251 13.917L45.2115 14.1692L45.1465 14.4078L45.0683 14.6465L44.9639 14.8588L44.8465 15.0708L44.703 15.2698L44.5332 15.4424L44.3638 15.6146L44.1683 15.7607L43.9593 15.8799L43.7508 15.9862L43.5157 16.0657L43.281 16.1321L43.0335 16.172L42.7725 16.185L42.5245 16.172L42.277 16.1321L42.0418 16.0657L41.807 15.9862L41.5986 15.8799L41.3897 15.7607L41.207 15.6146L41.0243 15.4424L40.8678 15.2698L40.7243 15.0708L40.607 14.8588L40.5025 14.6465L40.4113 14.4078L40.3593 14.1692L40.3203 13.917L40.3069 13.6516L40.3203 13.3994L40.3593 13.1477L40.4113 12.909L40.5025 12.67L40.607 12.458L40.7243 12.2455L40.8678 12.0597L41.0243 11.8744L41.207 11.7149L41.3897 11.5694L41.5986 11.4496L41.807 11.3438L42.0418 11.2508L42.277 11.1979L42.5245 11.1581L42.7725 11.145Z" fill="#9D9E9E"/>
<path fill-rule="evenodd" clip-rule="evenodd" d="M42.7725 11.145V10.8132L43.0592 10.8263L43.3463 10.8661L43.6073 10.9325L43.8682 11.0252L43.7508 11.3438L43.6202 11.6489L43.4246 11.5825L43.2157 11.5296L42.9943 11.5029L42.7725 11.4898V11.145Z" fill="#9D9E9E"/>
<path fill-rule="evenodd" clip-rule="evenodd" d="M43.7508 11.3437L43.8682 11.0251L44.1158 11.1449L44.351 11.2904L44.5728 11.4495L44.7683 11.6353L44.5332 11.8743L44.2985 12.113L44.142 11.967L43.9855 11.8478L43.6202 11.6488L43.7508 11.3437Z" fill="#9D9E9E"/>
<path fill-rule="evenodd" clip-rule="evenodd" d="M44.5332 11.8743L44.7683 11.6353L44.951 11.8346L45.1203 12.0466L45.264 12.2852L45.3813 12.5374L45.0683 12.6699L44.7683 12.8027L44.5595 12.4443L44.442 12.2721L44.2985 12.113L44.5332 11.8743Z" fill="#9D9E9E"/>
<path fill-rule="evenodd" clip-rule="evenodd" d="M45.0683 12.67L45.3813 12.5376L45.4724 12.8028L45.5377 13.0813L45.5902 13.3597L45.603 13.6516H45.264H44.9377L44.9248 13.4261L44.8985 13.2141L44.7683 12.8028L45.0683 12.67Z" fill="#9D9E9E"/>
<path fill-rule="evenodd" clip-rule="evenodd" d="M45.264 13.6516H45.603L45.5902 13.9436L45.5377 14.2352L45.4724 14.5141L45.3813 14.7658L45.0683 14.6465L44.7683 14.5141L44.8332 14.3147L44.8985 14.1028L44.9248 13.8772L44.9377 13.6516H45.264Z" fill="#9D9E9E"/>
<path fill-rule="evenodd" clip-rule="evenodd" d="M45.0683 14.6463L45.3813 14.7656L45.264 15.0178L45.1203 15.2565L44.951 15.482L44.7683 15.6809L44.5332 15.4423L44.2985 15.2036L44.442 15.044L44.5595 14.885L44.7683 14.5139L45.0683 14.6463Z" fill="#9D9E9E"/>
<path fill-rule="evenodd" clip-rule="evenodd" d="M44.5332 15.4423L44.7683 15.681L44.5728 15.8666L44.351 16.0389L44.1158 16.1848L43.8682 16.3041L43.7508 15.986L43.6202 15.681L43.9855 15.4685L44.142 15.3492L44.2985 15.2036L44.5332 15.4423Z" fill="#9D9E9E"/>
<path fill-rule="evenodd" clip-rule="evenodd" d="M43.7508 15.986L43.8682 16.3041L43.6202 16.3973L43.3463 16.4632L43.0592 16.5166L42.7725 16.5297V16.1848V15.8535L42.9943 15.8399L43.2157 15.8133L43.4246 15.7473L43.6202 15.6809L43.7508 15.986Z" fill="#9D9E9E"/>
<path fill-rule="evenodd" clip-rule="evenodd" d="M42.7725 16.1848V16.5297L42.4855 16.5166L42.2116 16.4632L41.9378 16.3973L41.6768 16.3041L41.8071 15.986L41.9378 15.6809L42.3418 15.8133L42.5508 15.8399L42.7725 15.8535V16.1848Z" fill="#9D9E9E"/>
<path fill-rule="evenodd" clip-rule="evenodd" d="M41.807 15.986L41.6768 16.3041L41.4288 16.1848L41.1941 16.0389L40.9852 15.8666L40.7897 15.681L41.0243 15.4423L41.2595 15.2036L41.416 15.3492L41.5852 15.4685L41.9378 15.681L41.807 15.986Z" fill="#9D9E9E"/>
<path fill-rule="evenodd" clip-rule="evenodd" d="M41.0243 15.4423L40.7897 15.6809L40.607 15.482L40.4505 15.2565L40.3069 15.0178L40.1895 14.7656L40.5025 14.6463L40.8025 14.5139L40.9985 14.885L41.1159 15.044L41.2595 15.2036L41.0243 15.4423Z" fill="#9D9E9E"/>
<path fill-rule="evenodd" clip-rule="evenodd" d="M40.5025 14.6465L40.1895 14.7658L40.0985 14.5005L40.033 14.2352L39.994 13.9436L39.981 13.6516H40.3069H40.646L40.6595 13.8772L40.6852 14.1028L40.7377 14.3147L40.8025 14.5141L40.5025 14.6465Z" fill="#9D9E9E"/>
<path fill-rule="evenodd" clip-rule="evenodd" d="M40.3069 13.6516H39.981L39.994 13.3597L40.033 13.0813L40.0985 12.8028L40.1895 12.5376L40.5025 12.67L40.8025 12.8028L40.7377 13.0018L40.6852 13.2141L40.6595 13.4261L40.646 13.6516H40.3069Z" fill="#9D9E9E"/>
<path fill-rule="evenodd" clip-rule="evenodd" d="M40.5025 12.6699L40.1895 12.5374L40.3069 12.2988L40.4505 12.0596L40.607 11.8346L40.7897 11.6353L41.0243 11.8743L41.2595 12.113L41.1159 12.2721L40.9985 12.4312L40.894 12.617L40.8025 12.8027L40.5025 12.6699Z" fill="#9D9E9E"/>
<path fill-rule="evenodd" clip-rule="evenodd" d="M41.0243 11.8743L40.7897 11.6353L40.9852 11.4495L41.207 11.2904L41.4417 11.1449L41.6768 11.0251L41.807 11.3437L41.9378 11.6488L41.755 11.7415L41.5724 11.8478L41.416 11.967L41.2595 12.113L41.0243 11.8743Z" fill="#9D9E9E"/>
<path fill-rule="evenodd" clip-rule="evenodd" d="M41.8071 11.3438L41.6768 11.0252L41.9378 10.9325L42.2116 10.8661L42.4855 10.8263L42.7725 10.8132V11.145V11.4898L42.5508 11.5029L42.3418 11.5296L42.1333 11.5825L41.9378 11.6489L41.8071 11.3438Z" fill="#9D9E9E"/>
<path fill-rule="evenodd" clip-rule="evenodd" d="M2.79132 11.0388L3.05216 11.052L3.30006 11.0917L3.5349 11.1451L3.76961 11.2376L3.97833 11.3439L4.18705 11.4632L4.38271 11.6092L4.55237 11.7684L4.72191 11.954L4.86545 12.1393L4.98275 12.3518L5.08711 12.5643L5.16547 12.8028L5.23065 13.0415L5.26971 13.2937L5.28277 13.5455L5.26971 13.8108L5.23065 14.063L5.16547 14.3016L5.08711 14.5403L4.98275 14.7528L4.86545 14.9648L4.72191 15.1641L4.55237 15.3362L4.38271 15.5089L4.18705 15.6544L3.97833 15.7737L3.76961 15.88L3.5349 15.9595L3.30006 16.0259L3.05216 16.0658L2.79132 16.0788L2.54354 16.0658L2.29564 16.0259L2.0608 15.9595L1.82608 15.88L1.61736 15.7737L1.40864 15.6544L1.22605 15.5089L1.04345 15.3362L0.886846 15.1641L0.743305 14.9648L0.626008 14.7528L0.521648 14.5403L0.430348 14.3016L0.378108 14.063L0.339049 13.8108L0.325989 13.5455L0.339049 13.2937L0.378108 13.0415L0.430348 12.8028L0.521648 12.5643L0.626008 12.3518L0.743305 12.1393L0.886846 11.954L1.04345 11.7684L1.22605 11.6092L1.40864 11.4632L1.61736 11.3439L1.82608 11.2376L2.0608 11.1451L2.29564 11.0917L2.54354 11.052L2.79132 11.0388Z" fill="#9D9E9E"/>
<path fill-rule="evenodd" clip-rule="evenodd" d="M2.79126 11.0388V10.707L3.07822 10.7201L3.36518 10.7599L3.62614 10.8263L3.88697 10.9195L3.76955 11.2376L3.6392 11.5427L3.44354 11.4763L3.23482 11.4234L3.01304 11.3967L2.79126 11.3837V11.0388Z" fill="#9D9E9E"/>
<path fill-rule="evenodd" clip-rule="evenodd" d="M3.76958 11.2375L3.887 10.9194L4.1349 11.0387L4.36962 11.1847L4.5914 11.3438L4.78706 11.5296L4.55234 11.7682L4.3175 12.0068L4.16102 11.8608L4.00442 11.7416L3.63922 11.5426L3.76958 11.2375Z" fill="#9D9E9E"/>
<path fill-rule="evenodd" clip-rule="evenodd" d="M4.55234 11.7682L4.78706 11.5295L4.96978 11.7284L5.13932 11.9404L5.28274 12.1795L5.40016 12.4312L5.08708 12.5641L4.78706 12.6966L4.57834 12.3385L4.46105 12.1659L4.3175 12.0068L4.55234 11.7682Z" fill="#9D9E9E"/>
<path fill-rule="evenodd" clip-rule="evenodd" d="M5.08707 12.5643L5.40015 12.4314L5.49145 12.6967L5.55675 12.9751L5.60887 13.254L5.62193 13.5456H5.28273H4.95671L4.94365 13.3199L4.91753 13.1081L4.78705 12.6967L5.08707 12.5643Z" fill="#9D9E9E"/>
<path fill-rule="evenodd" clip-rule="evenodd" d="M5.28273 13.5454H5.62193L5.60887 13.8373L5.55675 14.1289L5.49145 14.4077L5.40015 14.6594L5.08707 14.5402L4.78705 14.4077L4.85223 14.2089L4.91753 13.9964L4.94365 13.7709L4.95671 13.5454H5.28273Z" fill="#9D9E9E"/>
<path fill-rule="evenodd" clip-rule="evenodd" d="M5.08708 14.5401L5.40016 14.6594L5.28274 14.9117L5.13932 15.1503L4.96978 15.3758L4.78706 15.5748L4.55234 15.3361L4.3175 15.0974L4.46105 14.9383L4.57834 14.7788L4.78706 14.4077L5.08708 14.5401Z" fill="#9D9E9E"/>
<path fill-rule="evenodd" clip-rule="evenodd" d="M4.55234 15.3361L4.78706 15.5747L4.5914 15.7605L4.36962 15.9332L4.1349 16.0786L3.887 16.1984L3.76958 15.8798L3.63922 15.5747L4.00442 15.3628L4.16102 15.2435L4.3175 15.0974L4.55234 15.3361Z" fill="#9D9E9E"/>
<path fill-rule="evenodd" clip-rule="evenodd" d="M3.76955 15.8798L3.88697 16.1984L3.6392 16.2911L3.36518 16.3575L3.07822 16.4104L2.79126 16.4235V16.0786V15.7473L3.01304 15.7338L3.23482 15.7076L3.44354 15.6411L3.6392 15.5747L3.76955 15.8798Z" fill="#9D9E9E"/>
<path fill-rule="evenodd" clip-rule="evenodd" d="M2.79127 16.0786V16.4235L2.50431 16.4104L2.23042 16.3575L1.95639 16.2911L1.69556 16.1984L1.82604 15.8798L1.95639 15.5747L2.3609 15.7076L2.56949 15.7338L2.79127 15.7473V16.0786Z" fill="#9D9E9E"/>
<path fill-rule="evenodd" clip-rule="evenodd" d="M1.82607 15.8798L1.69559 16.1984L1.44769 16.0786L1.21297 15.9332L1.00425 15.7605L0.808594 15.5747L1.04343 15.3361L1.27815 15.0974L1.43475 15.2435L1.60429 15.3628L1.95643 15.5747L1.82607 15.8798Z" fill="#9D9E9E"/>
<path fill-rule="evenodd" clip-rule="evenodd" d="M1.04343 15.3361L0.808595 15.5748L0.625996 15.3758L0.469395 15.1503L0.325977 14.9117L0.208557 14.6594L0.521636 14.5401L0.821655 14.4077L1.01731 14.7788L1.13473 14.9383L1.27815 15.0974L1.04343 15.3361Z" fill="#9D9E9E"/>
<path fill-rule="evenodd" clip-rule="evenodd" d="M0.521615 14.5402L0.208536 14.6594L0.117237 14.3942L0.0519357 14.1289L0.0128771 13.8373L-0.000183105 13.5454H0.325956H0.665034L0.678094 13.7709L0.704214 13.9964L0.756455 14.2089L0.821634 14.4077L0.521615 14.5402Z" fill="#9D9E9E"/>
<path fill-rule="evenodd" clip-rule="evenodd" d="M0.325956 13.5456H-0.000183105L0.0128771 13.254L0.0519357 12.9751L0.117237 12.6967L0.208536 12.4314L0.521615 12.5643L0.821634 12.6967L0.756455 12.8956L0.704214 13.1081L0.678094 13.3199L0.665034 13.5456H0.325956Z" fill="#9D9E9E"/>
<path fill-rule="evenodd" clip-rule="evenodd" d="M0.521636 12.5641L0.208557 12.4312L0.325977 12.1926L0.469395 11.9539L0.625996 11.7284L0.808595 11.5295L1.04343 11.7682L1.27815 12.0068L1.13473 12.1659L1.01731 12.325L0.912955 12.5108L0.821655 12.6966L0.521636 12.5641Z" fill="#9D9E9E"/>
<path fill-rule="evenodd" clip-rule="evenodd" d="M1.04343 11.7682L0.808594 11.5296L1.00425 11.3438L1.22603 11.1847L1.46075 11.0387L1.69559 10.9194L1.82607 11.2375L1.95643 11.5426L1.77383 11.6353L1.59123 11.7416L1.43475 11.8608L1.27815 12.0068L1.04343 11.7682Z" fill="#9D9E9E"/>
<path fill-rule="evenodd" clip-rule="evenodd" d="M1.82604 11.2376L1.69556 10.9195L1.95639 10.8263L2.23042 10.7599L2.50431 10.7201L2.79127 10.707V11.0388V11.3837L2.56949 11.3967L2.3609 11.4234L2.15205 11.4763L1.95639 11.5427L1.82604 11.2376Z" fill="#9D9E9E"/>
<path fill-rule="evenodd" clip-rule="evenodd" d="M2.79132 32.7915L3.05216 32.8045L3.30006 32.8444L3.5349 32.8977L3.76961 32.9903L3.97833 33.0966L4.18705 33.2158L4.38271 33.3619L4.55237 33.5209L4.72191 33.7067L4.86545 33.8925L4.98275 34.1045L5.08711 34.3168L5.16547 34.5555L5.23065 34.7942L5.26971 35.0464L5.28277 35.2981L5.26971 35.5634L5.23065 35.8156L5.16547 36.0543L5.08711 36.293L4.98275 36.5053L4.86545 36.7173L4.72191 36.9166L4.55237 37.0889L4.38271 37.2615L4.18705 37.4071L3.97833 37.5269L3.76961 37.6326L3.5349 37.7122L3.30006 37.7786L3.05216 37.8183L2.79132 37.832L2.54354 37.8183L2.29564 37.7786L2.0608 37.7122L1.82608 37.6326L1.61736 37.5269L1.40864 37.4071L1.22605 37.2615L1.04345 37.0889L0.886846 36.9166L0.743305 36.7173L0.626008 36.5053L0.521648 36.293L0.430348 36.0543L0.378108 35.8156L0.339049 35.5634L0.325989 35.2981L0.339049 35.0464L0.378108 34.7942L0.430348 34.5555L0.521648 34.3168L0.626008 34.1045L0.743305 33.8925L0.886846 33.7067L1.04345 33.5209L1.22605 33.3619L1.40864 33.2158L1.61736 33.0966L1.82608 32.9903L2.0608 32.8977L2.29564 32.8444L2.54354 32.8045L2.79132 32.7915Z" fill="#9D9E9E"/>
<path fill-rule="evenodd" clip-rule="evenodd" d="M2.79126 32.7917V32.46L3.07822 32.4735L3.36518 32.5133L3.62614 32.5792L3.88697 32.6723L3.76955 32.9905L3.6392 33.2956L3.44354 33.2292L3.23482 33.1763L3.01304 33.1497L2.79126 33.1365V32.7917Z" fill="#9D9E9E"/>
<path fill-rule="evenodd" clip-rule="evenodd" d="M3.76958 32.9903L3.887 32.6721L4.1349 32.7915L4.36962 32.9375L4.5914 33.0966L4.78706 33.2824L4.55234 33.5209L4.3175 33.7596L4.16102 33.6136L4.00442 33.4944L3.63922 33.2954L3.76958 32.9903Z" fill="#9D9E9E"/>
<path fill-rule="evenodd" clip-rule="evenodd" d="M4.55234 33.521L4.78706 33.2825L4.96978 33.4813L5.13932 33.6933L5.28274 33.9323L5.40016 34.1841L5.08708 34.3169L4.78706 34.4494L4.57834 34.0914L4.46105 33.9188L4.3175 33.7597L4.55234 33.521Z" fill="#9D9E9E"/>
<path fill-rule="evenodd" clip-rule="evenodd" d="M5.08707 34.3169L5.40015 34.1841L5.49145 34.4493L5.55675 34.7282L5.60887 35.0067L5.62193 35.2981H5.28273H4.95671L4.94365 35.0731L4.91753 34.8606L4.78705 34.4493L5.08707 34.3169Z" fill="#9D9E9E"/>
<path fill-rule="evenodd" clip-rule="evenodd" d="M5.28273 35.2981H5.62193L5.60887 35.5901L5.55675 35.8822L5.49145 36.1606L5.40015 36.4128L5.08707 36.293L4.78705 36.1606L4.85223 35.9617L4.91753 35.7492L4.94365 35.5237L4.95671 35.2981H5.28273Z" fill="#9D9E9E"/>
<path fill-rule="evenodd" clip-rule="evenodd" d="M5.08708 36.2931L5.40016 36.4128L5.28274 36.6645L5.13932 36.9032L4.96978 37.1287L4.78706 37.3277L4.55234 37.089L4.3175 36.8503L4.46105 36.6912L4.57834 36.5321L4.78706 36.1606L5.08708 36.2931Z" fill="#9D9E9E"/>
<path fill-rule="evenodd" clip-rule="evenodd" d="M4.55234 37.089L4.78706 37.3277L4.5914 37.5134L4.36962 37.6861L4.1349 37.8321L3.887 37.9514L3.76958 37.6328L3.63922 37.3277L4.00442 37.1157L4.16102 36.9963L4.3175 36.8503L4.55234 37.089Z" fill="#9D9E9E"/>
<path fill-rule="evenodd" clip-rule="evenodd" d="M3.76955 37.6327L3.88697 37.9513L3.6392 38.044L3.36518 38.1104L3.07822 38.1633L2.79126 38.1768V37.832V37.5003L3.01304 37.4871L3.23482 37.4604L3.44354 37.394L3.6392 37.3276L3.76955 37.6327Z" fill="#9D9E9E"/>
<path fill-rule="evenodd" clip-rule="evenodd" d="M2.79127 37.832V38.1768L2.50431 38.1633L2.23042 38.1104L1.95639 38.044L1.69556 37.9513L1.82604 37.6327L1.95639 37.3276L2.3609 37.4604L2.56949 37.4871L2.79127 37.5003V37.832Z" fill="#9D9E9E"/>
<path fill-rule="evenodd" clip-rule="evenodd" d="M1.82607 37.6328L1.69559 37.9514L1.44769 37.8321L1.21297 37.6861L1.00425 37.5134L0.808594 37.3277L1.04343 37.089L1.27815 36.8503L1.43475 36.9963L1.60429 37.1157L1.95643 37.3277L1.82607 37.6328Z" fill="#9D9E9E"/>
<path fill-rule="evenodd" clip-rule="evenodd" d="M1.04343 37.089L0.808595 37.3277L0.625996 37.1287L0.469395 36.9032L0.325977 36.6645L0.208557 36.4128L0.521636 36.2931L0.821655 36.1606L1.01731 36.5321L1.13473 36.6912L1.27815 36.8503L1.04343 37.089Z" fill="#9D9E9E"/>
<path fill-rule="evenodd" clip-rule="evenodd" d="M0.521615 36.293L0.208536 36.4128L0.117237 36.1474L0.0519357 35.8822L0.0128771 35.5901L-0.000183105 35.2981H0.325956H0.665034L0.678094 35.5237L0.704214 35.7492L0.756455 35.9617L0.821634 36.1606L0.521615 36.293Z" fill="#9D9E9E"/>
<path fill-rule="evenodd" clip-rule="evenodd" d="M0.325956 35.2981H-0.000183105L0.0128771 35.0067L0.0519357 34.7282L0.117237 34.4493L0.208536 34.1841L0.521615 34.3169L0.821634 34.4493L0.756455 34.6483L0.704214 34.8606L0.678094 35.0731L0.665034 35.2981H0.325956Z" fill="#9D9E9E"/>
<path fill-rule="evenodd" clip-rule="evenodd" d="M0.521636 34.3169L0.208557 34.1841L0.325977 33.9455L0.469395 33.7068L0.625996 33.4813L0.808595 33.2825L1.04343 33.521L1.27815 33.7597L1.13473 33.9188L1.01731 34.0784L0.912955 34.2637L0.821655 34.4494L0.521636 34.3169Z" fill="#9D9E9E"/>
<path fill-rule="evenodd" clip-rule="evenodd" d="M1.04343 33.5209L0.808594 33.2824L1.00425 33.0966L1.22603 32.9375L1.46075 32.7915L1.69559 32.6721L1.82607 32.9903L1.95643 33.2954L1.77383 33.3885L1.59123 33.4944L1.43475 33.6136L1.27815 33.7596L1.04343 33.5209Z" fill="#9D9E9E"/>
<path fill-rule="evenodd" clip-rule="evenodd" d="M1.82604 32.9905L1.69556 32.6723L1.95639 32.5792L2.23042 32.5133L2.50431 32.4735L2.79127 32.46V32.7917V33.1365L2.56949 33.1497L2.3609 33.1763L2.15205 33.2292L1.95639 33.2956L1.82604 32.9905Z" fill="#9D9E9E"/>
<path fill-rule="evenodd" clip-rule="evenodd" d="M42.7725 32.7388L43.0335 32.7518L43.281 32.7916L43.5157 32.8445L43.7508 32.9376L43.9593 33.0438L44.1683 33.1631L44.3638 33.3087L44.5332 33.4682L44.703 33.6535L44.8465 33.8393L44.9639 34.0518L45.0683 34.2637L45.1465 34.5028L45.2115 34.7415L45.251 34.9932L45.264 35.2454L45.251 35.5107L45.2115 35.7629L45.1465 36.0016L45.0683 36.2402L44.9639 36.4526L44.8465 36.6646L44.703 36.8635L44.5332 37.0362L44.3638 37.2083L44.1683 37.3543L43.9593 37.4737L43.7508 37.5799L43.5157 37.6595L43.281 37.7259L43.0335 37.7656L42.7725 37.7787L42.5245 37.7656L42.277 37.7259L42.0418 37.6595L41.807 37.5799L41.5986 37.4737L41.3897 37.3543L41.207 37.2083L41.0243 37.0362L40.8678 36.8635L40.7243 36.6646L40.607 36.4526L40.5025 36.2402L40.4113 36.0016L40.3593 35.7629L40.3203 35.5107L40.3069 35.2454L40.3203 34.9932L40.3593 34.7415L40.4113 34.5028L40.5025 34.2637L40.607 34.0518L40.7243 33.8393L40.8678 33.6535L41.0243 33.4682L41.207 33.3087L41.3897 33.1631L41.5986 33.0438L41.807 32.9376L42.0418 32.8445L42.277 32.7916L42.5245 32.7518L42.7725 32.7388Z" fill="#9D9E9E"/>
<path fill-rule="evenodd" clip-rule="evenodd" d="M42.7725 32.7387V32.407L43.0592 32.42L43.3463 32.4599L43.6073 32.5263L43.8682 32.619L43.7508 32.9376L43.6202 33.2426L43.4246 33.1762L43.2157 33.1234L42.9943 33.0967L42.7725 33.0835V32.7387Z" fill="#9D9E9E"/>
<path fill-rule="evenodd" clip-rule="evenodd" d="M43.7508 32.9375L43.8682 32.6189L44.1158 32.7387L44.351 32.8841L44.5728 33.0437L44.7683 33.229L44.5332 33.4681L44.2985 33.7067L44.142 33.5608L43.9855 33.4414L43.6202 33.2426L43.7508 32.9375Z" fill="#9D9E9E"/>
<path fill-rule="evenodd" clip-rule="evenodd" d="M44.5332 33.468L44.7683 33.229L44.951 33.4283L45.1203 33.6403L45.264 33.879L45.3813 34.1312L45.0683 34.2636L44.7683 34.3964L44.5595 34.038L44.442 33.8658L44.2985 33.7067L44.5332 33.468Z" fill="#9D9E9E"/>
<path fill-rule="evenodd" clip-rule="evenodd" d="M45.0683 34.2638L45.3813 34.1313L45.4724 34.3966L45.5377 34.6751L45.5902 34.9535L45.603 35.2454H45.264H44.9377L44.9248 35.0199L44.8985 34.8079L44.7683 34.3966L45.0683 34.2638Z" fill="#9D9E9E"/>
<path fill-rule="evenodd" clip-rule="evenodd" d="M45.264 35.2454H45.603L45.5902 35.5374L45.5377 35.8289L45.4724 36.1078L45.3813 36.3595L45.0683 36.2402L44.7683 36.1078L44.8332 35.9085L44.8985 35.6965L44.9248 35.471L44.9377 35.2454H45.264Z" fill="#9D9E9E"/>
<path fill-rule="evenodd" clip-rule="evenodd" d="M45.0683 36.2401L45.3813 36.3594L45.264 36.6116L45.1203 36.8502L44.951 37.0757L44.7683 37.2747L44.5332 37.036L44.2985 36.7974L44.442 36.6378L44.5595 36.4788L44.7683 36.1077L45.0683 36.2401Z" fill="#9D9E9E"/>
<path fill-rule="evenodd" clip-rule="evenodd" d="M44.5332 37.036L44.7683 37.2747L44.5728 37.4604L44.351 37.6326L44.1158 37.7786L43.8682 37.8979L43.7508 37.5798L43.6202 37.2747L43.9855 37.0622L44.142 36.9429L44.2985 36.7974L44.5332 37.036Z" fill="#9D9E9E"/>
<path fill-rule="evenodd" clip-rule="evenodd" d="M43.7508 37.58L43.8682 37.8981L43.6202 37.9913L43.3463 38.0572L43.0592 38.1106L42.7725 38.1237V37.7788V37.4475L42.9943 37.4339L43.2157 37.4073L43.4246 37.3413L43.6202 37.2749L43.7508 37.58Z" fill="#9D9E9E"/>
<path fill-rule="evenodd" clip-rule="evenodd" d="M42.7725 37.7788V38.1237L42.4855 38.1106L42.2116 38.0572L41.9378 37.9913L41.6768 37.8981L41.8071 37.58L41.9378 37.2749L42.3418 37.4073L42.5508 37.4339L42.7725 37.4475V37.7788Z" fill="#9D9E9E"/>
<path fill-rule="evenodd" clip-rule="evenodd" d="M41.807 37.5798L41.6768 37.8979L41.4288 37.7786L41.1941 37.6326L40.9852 37.4604L40.7897 37.2747L41.0243 37.036L41.2595 36.7974L41.416 36.9429L41.5852 37.0622L41.9378 37.2747L41.807 37.5798Z" fill="#9D9E9E"/>
<path fill-rule="evenodd" clip-rule="evenodd" d="M41.0243 37.036L40.7897 37.2747L40.607 37.0757L40.4505 36.8502L40.3069 36.6116L40.1895 36.3594L40.5025 36.2401L40.8025 36.1077L40.9985 36.4788L41.1159 36.6378L41.2595 36.7974L41.0243 37.036Z" fill="#9D9E9E"/>
<path fill-rule="evenodd" clip-rule="evenodd" d="M40.5025 36.2402L40.1895 36.3595L40.0985 36.0942L40.033 35.8289L39.994 35.5374L39.981 35.2454H40.3069H40.646L40.6595 35.471L40.6852 35.6965L40.7377 35.9085L40.8025 36.1078L40.5025 36.2402Z" fill="#9D9E9E"/>
<path fill-rule="evenodd" clip-rule="evenodd" d="M40.3069 35.2454H39.981L39.994 34.9535L40.033 34.6751L40.0985 34.3966L40.1895 34.1313L40.5025 34.2638L40.8025 34.3966L40.7377 34.5955L40.6852 34.8079L40.6595 35.0199L40.646 35.2454H40.3069Z" fill="#9D9E9E"/>
<path fill-rule="evenodd" clip-rule="evenodd" d="M40.5025 34.2636L40.1895 34.1312L40.3069 33.8925L40.4505 33.6533L40.607 33.4283L40.7897 33.229L41.0243 33.468L41.2595 33.7067L41.1159 33.8658L40.9985 34.0249L40.894 34.2107L40.8025 34.3964L40.5025 34.2636Z" fill="#9D9E9E"/>
<path fill-rule="evenodd" clip-rule="evenodd" d="M41.0243 33.4681L40.7897 33.229L40.9852 33.0437L41.207 32.8841L41.4417 32.7387L41.6768 32.6189L41.807 32.9375L41.9378 33.2426L41.755 33.3353L41.5724 33.4414L41.416 33.5608L41.2595 33.7067L41.0243 33.4681Z" fill="#9D9E9E"/>
<path fill-rule="evenodd" clip-rule="evenodd" d="M41.8071 32.9376L41.6768 32.619L41.9378 32.5263L42.2116 32.4599L42.4855 32.42L42.7725 32.407V32.7387V33.0835L42.5508 33.0967L42.3418 33.1234L42.1333 33.1762L41.9378 33.2426L41.8071 32.9376Z" fill="#9D9E9E"/>
<path fill-rule="evenodd" clip-rule="evenodd" d="M22.8147 43.615L23.0755 43.6281L23.3232 43.6679L23.5578 43.7207L23.793 43.8138L24.0015 43.9201L24.2104 44.0395L24.406 44.1854L24.5753 44.3445L24.745 44.5303L24.8887 44.7156L25.006 44.928L25.1105 45.14L25.1887 45.3791L25.2535 45.6177L25.2927 45.8699L25.306 46.1217L25.2927 46.3869L25.2535 46.6393L25.1887 46.8778L25.1105 47.1165L25.006 47.3289L24.8887 47.5409L24.745 47.7398L24.5753 47.9124L24.406 48.0847L24.2104 48.2306L24.0015 48.3499L23.793 48.4561L23.5578 48.5357L23.3232 48.6021L23.0755 48.6419L22.8147 48.655L22.5667 48.6419L22.3185 48.6021L22.0839 48.5357L21.8492 48.4561L21.6403 48.3499L21.4318 48.2306L21.2492 48.0847L21.0665 47.9124L20.91 47.7398L20.7664 47.5409L20.649 47.3289L20.5447 47.1165L20.4535 46.8778L20.4015 46.6393L20.3619 46.3869L20.349 46.1217L20.3619 45.8699L20.4015 45.6177L20.4535 45.3791L20.5447 45.14L20.649 44.928L20.7664 44.7156L20.91 44.5303L21.0665 44.3445L21.2492 44.1854L21.4318 44.0395L21.6403 43.9201L21.8492 43.8138L22.0839 43.7207L22.3185 43.6679L22.5667 43.6281L22.8147 43.615Z" fill="#9D9E9E"/>
<path fill-rule="evenodd" clip-rule="evenodd" d="M22.8147 43.6152V43.2834L23.1013 43.2966L23.3885 43.3363L23.6495 43.4027L23.9103 43.4959L23.793 43.814L23.6623 44.1192L23.4667 44.0527L23.2578 43.9998L23.0365 43.9731L22.8147 43.9601V43.6152Z" fill="#9D9E9E"/>
<path fill-rule="evenodd" clip-rule="evenodd" d="M23.793 43.8139L23.9103 43.4958L24.1579 43.6151L24.393 43.7607L24.6144 43.9202L24.8104 44.1055L24.5752 44.3447L24.3405 44.5833L24.1842 44.4372L24.0277 44.318L23.6622 44.1191L23.793 43.8139Z" fill="#9D9E9E"/>
<path fill-rule="evenodd" clip-rule="evenodd" d="M24.5752 44.3446L24.8104 44.1055L24.9927 44.3048L25.1625 44.5168L25.306 44.7555L25.4234 45.0077L25.1105 45.1401L24.8104 45.273L24.6015 44.9151L24.4842 44.7423L24.3405 44.5833L24.5752 44.3446Z" fill="#9D9E9E"/>
<path fill-rule="evenodd" clip-rule="evenodd" d="M25.1104 45.14L25.4234 45.0076L25.5145 45.2729L25.5799 45.5513L25.6319 45.8297L25.6452 46.1217H25.306H24.9797L24.9669 45.8962L24.9407 45.6842L24.8104 45.2729L25.1104 45.14Z" fill="#9D9E9E"/>
<path fill-rule="evenodd" clip-rule="evenodd" d="M25.306 46.1218H25.6452L25.6319 46.4137L25.5799 46.7053L25.5145 46.9842L25.4234 47.236L25.1104 47.1166L24.8104 46.9842L24.8752 46.7848L24.9407 46.5729L24.9669 46.3473L24.9797 46.1218H25.306Z" fill="#9D9E9E"/>
<path fill-rule="evenodd" clip-rule="evenodd" d="M25.1105 47.1166L25.4234 47.236L25.306 47.4882L25.1625 47.7267L24.9927 47.9523L24.8104 48.1512L24.5752 47.9125L24.3405 47.6738L24.4842 47.5148L24.6015 47.3552L24.8104 46.9841L25.1105 47.1166Z" fill="#9D9E9E"/>
<path fill-rule="evenodd" clip-rule="evenodd" d="M24.5752 47.9125L24.8104 48.1512L24.6144 48.337L24.393 48.5096L24.1579 48.6551L23.9103 48.7745L23.793 48.4562L23.6622 48.1512L24.0277 47.9392L24.1842 47.8194L24.3405 47.6738L24.5752 47.9125Z" fill="#9D9E9E"/>
<path fill-rule="evenodd" clip-rule="evenodd" d="M23.793 48.4562L23.9103 48.7744L23.6623 48.8675L23.3885 48.9339L23.1013 48.9868L22.8147 48.9999V48.655V48.3238L23.0365 48.3102L23.2578 48.284L23.4667 48.2175L23.6623 48.1511L23.793 48.4562Z" fill="#9D9E9E"/>
<path fill-rule="evenodd" clip-rule="evenodd" d="M22.8146 48.655V48.9999L22.5274 48.9868L22.2537 48.9339L21.9794 48.8675L21.7189 48.7744L21.8492 48.4562L21.9794 48.1511L22.3839 48.284L22.5927 48.3102L22.8146 48.3238V48.655Z" fill="#9D9E9E"/>
<path fill-rule="evenodd" clip-rule="evenodd" d="M21.8492 48.4562L21.719 48.7745L21.4709 48.6551L21.2362 48.5096L21.0273 48.337L20.8317 48.1512L21.0664 47.9125L21.3012 47.6738L21.458 47.8194L21.6274 47.9392L21.9794 48.1512L21.8492 48.4562Z" fill="#9D9E9E"/>
<path fill-rule="evenodd" clip-rule="evenodd" d="M21.0664 47.9125L20.8317 48.1512L20.649 47.9523L20.4925 47.7267L20.349 47.4882L20.2317 47.236L20.5446 47.1166L20.8447 46.9841L21.0402 47.3552L21.158 47.5148L21.3012 47.6738L21.0664 47.9125Z" fill="#9D9E9E"/>
<path fill-rule="evenodd" clip-rule="evenodd" d="M20.5446 47.1166L20.2317 47.236L20.1405 46.9706L20.0752 46.7053L20.0361 46.4137L20.0227 46.1218H20.349H20.6882L20.701 46.3473L20.7272 46.5729L20.7797 46.7848L20.8446 46.9842L20.5446 47.1166Z" fill="#9D9E9E"/>
<path fill-rule="evenodd" clip-rule="evenodd" d="M20.349 46.1217H20.0227L20.0361 45.8297L20.0752 45.5513L20.1405 45.2729L20.2317 45.0076L20.5446 45.14L20.8446 45.2729L20.7797 45.4718L20.7272 45.6842L20.701 45.8962L20.6882 46.1217H20.349Z" fill="#9D9E9E"/>
<path fill-rule="evenodd" clip-rule="evenodd" d="M20.5446 45.1401L20.2317 45.0077L20.349 44.769L20.4925 44.5304L20.649 44.3048L20.8317 44.1055L21.0664 44.3446L21.3012 44.5833L21.158 44.7423L21.0402 44.9014L20.9362 45.0872L20.8447 45.273L20.5446 45.1401Z" fill="#9D9E9E"/>
<path fill-rule="evenodd" clip-rule="evenodd" d="M21.0664 44.3447L20.8317 44.1055L21.0273 43.9202L21.2492 43.7607L21.4838 43.6151L21.719 43.4958L21.8492 43.8139L21.9794 44.1191L21.7972 44.2117L21.6145 44.318L21.458 44.4372L21.3012 44.5833L21.0664 44.3447Z" fill="#9D9E9E"/>
<path fill-rule="evenodd" clip-rule="evenodd" d="M21.8492 43.814L21.7189 43.4959L21.9794 43.4027L22.2537 43.3363L22.5274 43.2966L22.8146 43.2834V43.6152V43.9601L22.5927 43.9731L22.3839 43.9998L22.1754 44.0527L21.9794 44.1192L21.8492 43.814Z" fill="#9D9E9E"/>
<path fill-rule="evenodd" clip-rule="evenodd" d="M22.6461 0L22.9071 0.013156L23.1546 0.0528721L23.3893 0.105744L23.6244 0.198829L23.8329 0.305069L24.0418 0.424466L24.2374 0.570423L24.4068 0.729535L24.5766 0.915208L24.7201 1.10051L24.8374 1.31299L24.9419 1.52497L25.0201 1.76402L25.0851 2.00268L25.1241 2.25488L25.1376 2.50671L25.1241 2.77194L25.0851 3.02413L25.0201 3.2628L24.9419 3.50147L24.8374 3.71395L24.7201 3.92594L24.5766 4.12477L24.4068 4.29741L24.2374 4.46955L24.0418 4.61563L23.8329 4.7349L23.6244 4.84115L23.3893 4.9207L23.1546 4.9871L22.9071 5.02694L22.6461 5.03997L22.3981 5.02694L22.1501 4.9871L21.9154 4.9207L21.6806 4.84115L21.4718 4.7349L21.2633 4.61563L21.0806 4.46955L20.8979 4.29741L20.7414 4.12477L20.5979 3.92594L20.4806 3.71395L20.3761 3.50147L20.2849 3.2628L20.2329 3.02413L20.1934 2.77194L20.1804 2.50671L20.1934 2.25488L20.2329 2.00268L20.2849 1.76402L20.3761 1.52497L20.4806 1.31299L20.5979 1.10051L20.7414 0.915208L20.8979 0.729535L21.0806 0.570423L21.2633 0.424466L21.4718 0.305069L21.6806 0.198829L21.9154 0.105744L22.1501 0.0528721L22.3981 0.013156L22.6461 0Z" fill="#9D9E9E"/>
<path d="M59.992 17.5952V23.2378H61.5609C63.3362 23.2378 64.6282 22.917 65.4368 22.2754C66.2542 21.625 66.6629 20.5967 66.6629 19.1904C66.6629 17.7842 66.3333 16.7383 65.6741 16.0527C65.0237 15.3672 64.0306 15.0244 62.6946 15.0244C61.6048 15.0244 60.8797 15.1914 60.5193 15.5254C60.1678 15.8506 59.992 16.5405 59.992 17.5952ZM55.1141 17.3975C55.1141 16.5186 54.9691 15.9429 54.679 15.6704C54.3978 15.3979 53.7693 15.2178 52.7938 15.1299V13.7588H63.4197C66.2586 13.7588 68.3724 14.1982 69.761 15.0771C71.1497 15.9473 71.8441 17.27 71.8441 19.0454C71.8441 20.9878 71.1321 22.4072 69.7083 23.3037C68.2933 24.1914 66.0169 24.6353 62.8792 24.6353H59.992V29.8032C59.992 30.6821 60.1546 31.2578 60.4798 31.5303C60.805 31.8027 61.5609 31.9829 62.7474 32.0708V33.4419H52.7938V32.0708C53.7693 31.9829 54.3978 31.8027 54.679 31.5303C54.9691 31.2578 55.1141 30.6821 55.1141 29.8032V17.3975ZM80.0574 29.8032C80.0574 30.6821 80.2156 31.2578 80.532 31.5303C80.8484 31.8027 81.556 31.9829 82.6546 32.0708V33.4419H72.8592V32.0708C73.8348 31.9829 74.4632 31.8027 74.7444 31.5303C75.0345 31.2578 75.1795 30.6821 75.1795 29.8032V17.3975C75.1795 16.5186 75.0345 15.9429 74.7444 15.6704C74.4632 15.3979 73.8348 15.2178 72.8592 15.1299V13.7588H90.8021L91.1844 20.377H89.6946C89.3782 18.5752 88.6795 17.2524 87.5984 16.4087C86.5262 15.5562 85.0145 15.1299 83.0633 15.1299C81.824 15.1299 81.011 15.2661 80.6243 15.5386C80.2464 15.8022 80.0574 16.4219 80.0574 17.3975V22.5391H81.1649C82.3074 22.5391 83.1644 22.2271 83.7357 21.603C84.3157 20.979 84.6673 19.9858 84.7903 18.6235H86.1351V27.8784H84.7903C84.6673 26.5161 84.3157 25.5229 83.7357 24.8989C83.1644 24.2749 82.3074 23.9629 81.1649 23.9629H80.0574V29.8032ZM96.3128 15.1035H96.0623V29.8032C96.0623 30.7173 96.2161 31.3062 96.5237 31.5698C96.8314 31.8335 97.5521 32.0005 98.6859 32.0708V33.4419H91.804V32.0708C92.9378 32.0005 93.6541 31.8335 93.9529 31.5698C94.2606 31.3062 94.4144 30.7173 94.4144 29.8032V17.3975C94.4144 16.4834 94.2606 15.8945 93.9529 15.6309C93.6541 15.3672 92.9378 15.2002 91.804 15.1299V13.7588H100.387L104.711 26.9951L108.758 13.7588H117.42V15.1299C116.277 15.2002 115.552 15.3716 115.244 15.644C114.937 15.9077 114.783 16.4922 114.783 17.3975V29.8032C114.783 30.7085 114.937 31.2974 115.244 31.5698C115.561 31.8335 116.286 32.0005 117.42 32.0708V33.4419H107.466V32.0708C108.6 32.0005 109.316 31.8335 109.615 31.5698C109.923 31.3062 110.076 30.7173 110.076 29.8032V15.1035H109.866L104.276 33.4419H102.298L96.3128 15.1035Z" fill="#0154B2"/>
</g>
<defs>
<clipPath id="clip0">
<rect width="116" height="49" fill="white" transform="translate(-0.000183105)"/>
</clipPath>
</defs>
</svg>
