<!-- Generated by IcoMoon.io -->
<svg version="1.1" xmlns="http://www.w3.org/2000/svg" width="1964" height="1024" viewBox="0 0 1964 1024">
<title></title>
<g id="icomoon-ignore">
</g>
<path fill="#919397" d="M339.227 230.514h-0.2l-0.781 0.193-1.174 0.394-1.762 0.394-2.155 0.387-2.349 0.587-2.936 0.788-3.136 0.781-3.523 0.781-3.917 0.981-8.421 2.155-9.202 2.549-9.989 2.736-10.376 2.943-10.576 3.129-21.346 7.053-10.182 3.523-9.595 3.717-9.008 3.917-7.834 3.723 7.247-4.311 3.717-2.542 3.723-2.742 4.11-3.136 4.504-3.717 4.898-3.917 5.485-4.504 5.872-5.091 6.659-5.678 7.44-6.072 8.421-7.046 4.504-3.723 4.697-3.917 5.091-4.11 5.285-4.311 5.485-4.504 5.872-4.697 6.072-4.898 6.459-5.091 4.504-1.762 4.704-0.981 4.697 0.2 4.697 0.974 4.311 1.768 3.917 2.542 3.523 3.33 2.742 4.11 1.762 4.504 0.981 4.898v4.697l-0.981 4.504-1.762 4.311-2.742 3.917-3.33 3.523-4.103 2.742zM616.896 357.014l-6.459-5.292-6.072-4.891-5.872-4.704-5.685-4.504-5.285-4.504-4.898-4.11-4.891-3.917-4.504-3.717-8.227-7.053-7.633-6.266-6.659-5.678-5.872-5.091-5.485-4.504-4.898-4.11-4.504-3.53-4.11-3.323-3.917-2.742-3.723-2.549-7.24-4.504-7.64-3.523-4.304-1.762-4.504-1.762-16.455-5.292-6.853-1.955-7.44-2.155-8.421-2.542-9.395-2.742-10.383-3.136-5.678-1.561-5.872-1.768-6.266-1.955-6.466-1.962-6.853-2.148-7.247-2.356-7.633-2.349-7.834-2.542-4.11-2.742-3.33-3.33-2.742-3.917-1.762-4.504-0.788-4.504-0.193-4.697 0.981-4.898 1.955-4.504 2.742-4.11 3.33-3.33 3.917-2.542 4.504-1.768 4.504-0.974h4.697l4.898 0.974 4.504 1.768 6.459 5.091 6.072 5.091 5.872 4.697 5.678 4.504 5.292 4.304 9.789 8.227 4.504 3.723 8.227 6.853 7.633 6.459 6.659 5.485 6.072 5.091 5.285 4.697 4.898 3.917 4.504 3.723 4.11 3.129 3.917 2.936 3.717 2.549 7.247 4.311 7.64 3.523 4.304 1.762 4.504 1.762 16.455 5.285 6.853 1.962 7.44 2.155 8.421 2.542 9.395 2.742 10.383 3.136 5.678 1.561 5.872 1.768 6.266 1.955 6.466 1.955 6.853 2.155 7.247 2.349 7.633 2.356 7.834 2.542 4.11 2.742 3.33 3.523 2.742 3.917 1.762 4.311 0.781 4.697 0.2 4.697-0.981 4.704-1.955 4.504-2.742 4.11-3.33 3.523-3.917 2.549-4.504 1.955-4.504 0.781-4.697 0.2-4.898-0.981-4.504-1.955zM636.673 634.683l1.568-7.44 1.368-7.053 1.375-6.853 1.368-6.459 1.375-6.072 1.368-5.872 2.349-10.777 4.11-18.597 1.962-7.834 1.568-7.053 1.368-6.459 1.368-5.678 0.981-5.091 0.788-4.704 0.781-4.504 0.394-4.11 0.387-7.633-0.387-7.834-0.394-4.11-0.781-4.311-0.788-4.697-0.981-5.292-1.368-5.678-1.368-6.266-1.568-7.046-1.962-8.034-1.955-8.614-2.155-9.789-2.349-10.77-1.368-5.879-1.375-6.065-1.368-6.466-1.375-6.853-1.368-7.046-1.568-7.44 0.587-4.898 1.375-4.697 2.148-4.117 3.136-3.717 3.523-2.936 4.11-2.155 4.704-1.375 4.891-0.587 4.898 0.587 4.697 1.375 4.117 2.155 3.523 2.936 3.129 3.717 2.155 4.117 1.375 4.697 0.587 4.898-1.568 7.44-1.368 7.046-1.375 6.853-1.368 6.466-1.375 6.065-1.174 5.879-2.349 10.77-2.349 9.789-1.962 8.614-1.762 8.034-1.568 7.046-1.561 6.266-1.174 5.678-0.981 5.292-0.981 4.697-0.587 4.311-0.587 4.11-0.193 7.834 0.193 7.633 0.587 4.11 0.587 4.504 0.981 4.704 0.981 5.091 1.174 5.678 1.561 6.459 1.568 7.053 1.762 7.834 1.962 8.808 2.349 9.789 2.349 10.777 1.174 5.872 1.375 6.072 1.368 6.459 1.375 6.853 1.368 7.053 1.568 7.44-0.587 4.898-1.375 4.697-2.155 4.11-3.129 3.523-3.523 3.136-4.117 2.155-4.697 1.368-4.898 0.587-4.891-0.587-4.704-1.368-4.11-2.155-3.523-3.136-3.136-3.523-2.148-4.11-1.375-4.697-0.587-4.898zM382.499 793.492l7.834-2.549 14.687-4.504 6.853-2.148 6.466-1.962 6.266-1.955 5.872-1.762 5.678-1.768 10.383-2.936 9.395-2.742 8.227-2.542 7.633-2.155 6.659-1.955 6.072-1.962 5.485-1.568 9.595-3.33 4.11-1.762 7.633-3.717 7.247-4.311 3.723-2.542 3.917-2.742 4.11-3.33 4.311-3.523 4.891-4.117 5.485-4.504 6.072-4.891 6.652-5.678 7.447-6.266 8.221-7.053 4.504-3.717 4.697-3.917 5.091-4.117 5.292-4.304 5.485-4.504 5.872-4.704 6.072-5.091 6.459-5.091 4.504-1.955 4.898-0.981 4.697 0.2 4.504 0.781 4.504 1.955 3.917 2.549 3.33 3.523 2.742 4.11 1.955 4.504 0.981 4.898-0.2 4.697-0.781 4.504-1.762 4.311-2.742 3.917-3.33 3.523-4.11 2.742-7.834 2.542-7.633 2.356-7.053 2.148-6.853 2.155-6.459 1.962-6.273 1.955-5.872 1.762-5.678 1.568-10.376 3.136-9.208 2.742-8.414 2.349-7.64 2.349-6.659 1.955-6.072 1.762-5.478 1.768-4.898 1.762-4.504 1.561-4.304 1.768-7.447 3.523-7.24 4.304-3.723 2.549-3.917 2.936-4.11 3.136-4.504 3.523-4.898 4.11-5.485 4.504-5.872 5.091-6.659 5.678-7.44 6.266-8.421 6.853-4.504 3.723-4.697 3.917-5.091 4.11-5.285 4.311-5.485 4.504-5.879 4.697-6.065 5.091-6.466 5.091-4.504 1.962-4.697 0.974-4.898-0.193-4.504-0.781-4.304-1.768-3.917-2.736-3.523-3.33-2.742-4.117-1.962-4.504-0.974-4.891 0.193-4.704 0.781-4.497 1.762-4.504 2.742-3.917 3.33-3.33 4.11-2.742zM105.023 668.36l6.466 5.098 6.072 5.091 5.872 4.697 5.678 4.504 5.091 4.304 5.091 4.117 4.697 3.917 4.504 3.717 8.421 6.853 7.44 6.266 6.659 5.678 6.072 5.091 5.485 4.504 4.898 3.917 4.504 3.723 4.11 3.136 3.917 2.736 3.723 2.549 7.44 4.304-7.633-3.523-4.311-1.762-4.504-1.568-4.898-1.762-5.485-1.568-6.266-1.955-6.659-1.955-7.633-2.155-8.421-2.349-9.402-2.742-10.376-2.936-5.678-1.768-5.872-1.762-6.072-1.762-6.659-1.955-6.853-2.155-7.053-2.155-7.633-2.349-7.834-2.549-4.11-2.736-3.33-3.33-2.742-3.917-1.762-4.504-0.781-4.504-0.193-4.704 0.981-4.891 1.962-4.504 2.742-4.11 3.33-3.53 3.917-2.542 4.504-1.962 4.504-0.974h4.697l4.898 0.974 4.483 1.762zM211.159 752.562l7.64 3.723 4.11 1.568 4.504 1.762 5.091 1.568 5.285 1.762 6.072 1.955 6.853 1.962 7.44 2.155 8.421 2.349 9.402 2.742 10.376 2.936 5.678 1.762 5.872 1.762 6.266 1.762 6.459 1.962 6.853 2.148 7.053 2.155 7.633 2.349 7.834 2.549 4.11 2.742 3.33 3.33 2.742 3.917 1.762 4.504 0.981 4.497v4.704l-0.981 4.891-1.762 4.504-2.742 4.117-3.33 3.33-3.91 2.736-4.504 1.768-4.504 0.974h-4.704l-4.891-0.974-4.504-1.768-6.466-5.091-6.065-4.891-5.872-4.704-5.678-4.504-5.285-4.304-4.898-4.11-4.898-3.917-4.504-3.723-8.227-7.046-7.44-6.072-6.853-5.678-5.872-5.091-5.485-4.504-4.898-4.11-4.504-3.53-4.11-3.129-3.917-2.936-3.723-2.549-7.24-4.311zM85.052 388.536l-1.568 7.447-1.368 7.24-1.368 6.86-1.368 6.459-1.375 6.266-1.174 5.872-2.349 10.97-2.349 9.789-1.955 8.815-1.762 8.027-1.568 7.046-1.568 6.466-1.174 5.678-0.981 5.285-0.981 4.704-0.587 4.504-0.587 4.11-0.193 7.834 0.193 7.834 0.587 4.11 0.587 4.504 0.981 4.697 0.981 5.285 1.174 5.879 1.568 6.266 1.568 7.247 1.762 7.834 1.955 9.008 2.349 9.789 2.349 10.963 1.174 5.879 1.375 6.065 1.368 6.659 1.368 6.853 1.368 7.053 1.568 7.633-0.394 4.898-1.568 4.697-2.155 4.117-2.936 3.523-3.523 3.129-4.311 2.155-4.504 1.375-4.898 0.587-4.898-0.587-4.697-1.375-4.11-2.155-3.723-3.129-2.936-3.523-2.155-4.117-1.368-4.697-0.587-4.898 1.568-7.633 1.368-7.053 1.368-6.853 1.368-6.659 1.368-6.065 1.174-5.879 2.349-10.963 2.349-9.789 1.962-9.008 1.762-7.834 1.568-7.247 1.568-6.266 1.174-5.879 0.981-5.285 0.981-4.697 0.587-4.504 0.587-4.11 0.394-7.834-0.394-7.834-0.587-4.11-0.587-4.504-0.981-4.704-0.981-5.285-1.174-5.678-1.568-6.466-1.568-7.046-1.762-8.027-1.962-8.815-2.349-9.789-2.349-10.97-1.174-5.872-1.368-6.266-1.368-6.459-1.368-6.86-1.368-7.24-1.568-7.447 0.587-4.891 1.368-4.704 2.155-4.11 2.936-3.523 3.723-3.136 4.11-2.148 4.697-1.375 4.898-0.587 4.898 0.587 4.504 1.375 4.311 2.148 3.523 3.136 2.936 3.523 2.155 4.11 1.568 4.704 0.394 4.891zM210.772 271.244v0l-105.748 84.202-4.504 1.955-4.898 0.981-4.697-0.193-4.504-0.788-4.504-1.955-3.917-2.549-3.33-3.523-2.742-4.11-1.962-4.504-0.981-4.898 0.193-4.697 0.781-4.504 1.762-4.504 2.742-3.917 3.33-3.33 4.11-2.742 7.834-2.542 7.44-2.349 7.247-2.155 6.853-2.155 6.466-1.955 6.266-1.768 5.872-1.762 5.485-1.762 10.376-2.936 9.402-2.742 8.421-2.542 7.44-2.155 6.853-1.962 6.072-1.762 5.485-1.762 4.898-1.762 4.504-1.568 4.311-1.762 7.647-3.523z"></path>
<path fill="#919397" d="M93.473 321.376l7.247 0.387 6.853 0.394 12.725 0.781 11.55 0.981 10.376 0.781 9.402 0.587 8.421 0.788 7.633 0.587 6.853 0.781 6.072 0.394 5.485 0.394 4.898 0.387 4.504 0.2h4.11l3.917-0.2 7.247-0.587-7.046 1.568-3.723 0.981-8.221 2.742-4.697 1.955-5.091 1.962-5.678 2.349-6.266 2.542-7.053 2.936-7.834 3.33-8.815 3.53-9.595 3.917-10.77 4.304-5.678 2.349-6.072 2.356-6.459 2.542-6.659 2.549-5.091 0.193-4.697-0.587-4.504-1.568-3.917-2.349-3.523-3.33-2.936-3.723-2.155-4.304-1.174-4.898-0.193-5.091 0.587-4.697 1.762-4.504 2.349-3.917 3.136-3.523 3.723-2.943 4.311-2.148 4.691-1.174zM401.89 286.124l6.652 2.549 6.466 2.542 5.872 2.549 5.879 2.349 20.165 8.221 8.815 3.723 7.633 3.33 7.053 2.936 6.266 2.742 5.678 2.349 5.091 1.962 4.697 1.955 4.117 1.568 3.917 1.174 3.717 1.174 7.247 1.568-7.64-0.788-8.221-0.387-9.008-0.2-9.402 0.2-19.384 0.974-9.789 0.587-9.402 0.788-8.808 0.781-8.421 0.788-7.447 0.781-6.652 0.781-2.742 0.394-2.549 0.193-2.349 0.2-1.762 0.387-1.568 0.2h-0.974l-0.788 0.193h-0.193l-4.697-1.368-4.311-1.962-3.723-2.936-3.129-3.523-2.349-4.11-1.568-4.504-0.788-4.704 0.394-5.091 1.375-4.697 1.955-4.311 2.936-3.717 3.523-3.136 4.117-2.349 4.504-1.762 4.697-0.587 4.898 0.193zM511.154 328.816l7.247 0.781 3.917 0.193 4.11-0.193h4.504l4.898-0.394 5.478-0.387 6.072-0.394 6.853-0.587 7.64-0.587 8.421-0.587 9.395-0.781 10.383-0.788 11.55-0.587 6.072-0.394 20.558-1.174 4.697 1.375 4.311 1.955 3.723 2.936 3.129 3.53 2.349 4.11 1.568 4.504 0.788 4.697-0.394 5.091-1.375 4.704-1.955 4.304-2.936 3.917-3.523 3.136-4.117 2.349-4.504 1.568-4.697 0.587-4.898-0.2-109.265-42.685zM210.772 327.835l7.247-1.568 3.717-0.981 3.917-1.368 4.311-1.368 4.697-1.962 5.091-1.955 5.678-2.349 6.266-2.549 7.053-2.936 7.834-3.33 8.614-3.523 9.789-3.917 10.576-4.311 5.872-2.349 6.072-2.349 6.459-2.549 6.659-2.542 4.898-0.193 4.697 0.587 4.504 1.762 4.11 2.349 3.523 3.129 2.943 3.723 1.955 4.311 1.368 4.697 0.2 5.091-0.587 4.697-1.762 4.504-2.356 4.11-3.129 3.53-3.723 2.936-4.304 2.155-4.898 1.174-7.247-0.394-13.312-0.781-6.072-0.394-11.55-0.981-10.376-0.781-9.402-0.788-8.421-0.587-7.633-0.781-6.853-0.587-6.072-0.587-5.485-0.394-9.595-0.387h-8.027l-7.247 0.781z"></path>
<path fill="#919397" d="M385.048 228.359l-5.678 4.697-12.144 10.182-6.459 4.704 24.676 19.191-0.394 4.891-1.568 4.704-2.155 4.11-2.936 3.717-3.523 2.943-4.311 2.349-4.504 1.368-4.891 0.587-4.898-0.387-4.697-1.568-4.117-2.155-3.717-2.936-2.936-3.523-2.356-4.311-1.368-4.504-0.587-4.898 24.282-19.577-3.33-1.174-2.936-1.568-2.349-1.962-2.549-2.148-2.542-2.549-2.943-2.936-3.523-3.33-4.504-3.723 0.394-4.891 1.568-4.704 2.155-4.11 2.936-3.523 3.523-3.136 4.311-2.155 4.504-1.368 4.891-0.587 5.091 0.394 4.504 1.561 4.311 2.155 3.523 2.936 3.136 3.53 2.148 4.304 1.375 4.504 0.587 4.898zM164.163 571.039l6.072-6.853 5.678-6.266 5.485-6.266 5.285-5.872 9.989-10.77 8.815-9.595 4.11-4.504 4.11-4.311 7.247-7.834 6.459-6.853 6.072-6.266 5.091-5.678 4.898-5.285 4.11-4.704 3.917-4.304 3.33-4.117 3.136-3.917 5.285-7.633-4.11 7.247-4.11 8.027-4.311 8.808-4.311 9.208-8.421 19.191-8.027 19.778-3.917 9.395-3.523 9.402-3.33 8.815-3.129 8.221-2.742 7.44-2.542 6.466-0.981 2.936-0.981 2.742-0.781 2.349-0.781 1.955 153.331 24.869 9.202-0.193 9.989-0.587 10.569-0.781 11.163-1.174 11.357-1.568 11.557-1.568 23.1-3.523 11.163-1.962 10.77-1.955 9.989-1.962 9.202-1.762 12.144-2.542 3.523-0.587 3.129-0.788 2.943-0.587 2.349-0.587 2.155-0.387-56.397-134.728-4.898-7.633-5.678-8.034-6.459-8.221-7.053-8.614-14.88-17.236-7.64-8.421-7.633-8.221-14.493-15.274-6.853-6.659-6.072-6.072-2.742-2.936-2.542-2.349-7.834-7.834-1.368-1.174-0.981-0.981-98.122 110.052 4.697-8.027 2.155-4.504 2.155-4.704 2.349-5.285 2.349-5.872 2.742-6.466 2.742-7.247 10.576-27.017 2.155-5.292 2.155-5.678 2.349-6.072 2.542-6.266 2.742-6.652 2.742-6.86 2.936-7.24 3.136-7.64 3.33-8.027 3.523-8.421 3.129-3.917 3.53-3.129 4.11-2.356 4.504-1.368 4.697-0.587 4.704 0.193 4.697 1.375 4.504 2.148 3.717 2.943 2.943 3.33 3.129-3.33 3.723-2.943 4.504-2.148 4.504-1.174 4.697-0.394 4.697 0.587 4.504 1.568 4.117 2.349 3.523 3.129 3.129 3.917 3.53 8.421 3.323 7.834 2.943 7.64 2.936 7.24 2.936 6.86 2.549 6.652 2.542 6.266 2.349 5.879 2.155 5.678 2.155 5.485 3.917 9.789 3.523 9.008 2.936 8.027 2.936 7.053 2.549 6.459 2.349 5.872 2.349 5.091 2.155 4.898 2.155 4.311 4.697 8.027 5.292 7.633 2.936 3.917 3.33 4.117 3.717 4.304 4.11 4.697 4.704 5.098 5.285 5.678 5.879 6.266 6.459 7.046 7.247 7.64 3.917 4.304 4.11 4.504 4.504 4.697 4.504 4.898 4.697 5.292 5.091 5.478 5.292 5.879 5.478 6.065 5.678 6.466 6.072 6.659 2.155 4.504 1.368 4.497 0.2 4.704-0.587 4.697-1.375 4.504-2.349 4.11-3.136 3.53-3.91 3.129-4.117 1.962-4.304 1.368 1.174 2.549 0.781 2.736 0.394 2.742 0.193 2.936-0.587 4.898-1.368 4.504-2.155 4.311-3.136 3.523-3.523 2.936-4.311 2.155-4.497 1.568-5.091 0.387-9.595-1.561-9.208-1.568-8.808-1.375-8.421-1.561-7.834-1.375-7.64-1.174-7.24-1.368-6.659-1.174-6.466-1.174-6.266-1.174-5.872-0.981-5.485-0.981-10.182-1.955-9.008-1.568-8.221-1.568-7.44-1.368-6.659-0.981-6.072-0.981-5.678-0.587-5.485-0.587-9.982-0.394-9.989 0.2-5.285 0.587-5.678 0.587-6.273 0.781-6.652 0.981-7.447 1.174-8.221 1.368-9.202 1.568-10.182 1.762-5.485 0.981-5.872 0.981-6.072 0.981-6.659 1.174-6.659 0.974-7.247 1.174-7.64 1.375-8.027 1.174-8.227 1.368-8.815 1.375-9.402 1.368-9.595 1.375-4.898-0.587-4.504-1.375-4.311-2.155-3.523-3.129-2.936-3.523-2.155-4.117-1.568-4.697-0.394-4.898 0.394-4.11 0.981-3.723-3.723-1.174-3.523-1.955-3.917-2.936-3.136-3.723-2.155-4.11-1.568-4.504-0.587-4.697 0.394-4.704 1.174-4.504 2.176-4.504z"></path>
<path fill="#919397" d="M96.996 376.792v0.974l0.2 0.981v1.568l0.193 1.762 0.193 2.155 0.2 2.542 0.193 2.936 0.587 6.466 0.587 7.247 0.781 8.027 0.981 8.614 2.155 17.823 1.368 8.808 1.568 8.815 1.568 8.027 1.568 7.64 1.955 6.652 0.981 2.943 0.981 2.736 61.288 88.706 1.375 4.704 0.387 4.891-0.587 4.704-1.568 4.504-2.148 4.11-3.136 3.523-3.717 2.936-4.311 2.356-4.898 1.368-4.697 0.394-4.697-0.587-4.504-1.375-4.117-2.349-3.717-2.936-2.936-3.917-2.356-4.311-15.661-106.722-2.936-6.266-3.53-6.853-4.11-7.046-4.504-7.247-10.182-14.88-5.285-7.247-5.292-6.853-5.091-6.659-4.697-6.072-4.311-5.485-3.917-4.697-1.762-2.155-1.561-1.762-1.181-1.568-1.174-1.368-0.974-1.174-0.587-0.781-0.394-0.394-0.193-0.2-1.375-4.891-0.193-4.697 0.587-4.704 1.368-4.504 2.349-4.11 2.943-3.723 3.717-2.936 4.504-2.349 4.697-1.368 4.898-0.2 4.697 0.587 4.311 1.375 4.11 2.349 3.723 2.936 2.936 3.723z"></path>
<path fill="#919397" d="M669.963 396.369l-3.723 5.292-3.717 5.091-6.659 9.395-17.035 22.914-8.815 11.751-3.717 5.091-3.33 4.304-3.136 4.11-2.542 3.723-2.349 3.33-1.962 3.33-1.762 2.936-2.742 6.072-2.155 6.266-0.781 3.33-0.781 3.717-0.788 4.117-0.587 4.504-0.781 4.891-0.587 5.485-0.788 6.266-0.781 6.853-0.981 7.64-0.974 8.421-1.181 9.395-1.368 10.383-1.568 11.55-0.974 6.072-0.981 6.459-2.349 4.504-2.943 3.723-3.717 3.129-4.11 2.155-4.504 1.568-4.704 0.587-4.891-0.394-4.704-1.368-4.304-2.349-3.723-3.136-3.129-3.723-2.155-4.11-1.375-4.504-0.587-4.697 0.394-4.898 1.368-4.697 3.723-5.285 3.723-5.091 6.652-9.402 17.035-22.914 4.704-6.065 4.11-5.678 3.723-4.898 3.33-4.504 2.936-3.917 2.742-3.717 2.148-3.33 2.155-3.33 1.762-2.936 2.742-6.072 2.155-6.266 0.781-3.33 0.788-3.723 0.587-4.11 0.781-4.504 0.587-4.898 0.788-5.478 0.587-6.266 0.974-6.86 0.788-7.633 1.174-8.614 1.174-9.402 1.368-10.376 1.568-11.557 0.981-6.072 0.981-6.459 2.349-4.311 2.936-3.717 3.523-3.136 4.11-2.148 4.504-1.375 4.704-0.587 4.891 0.394 4.704 1.368 4.304 2.349 3.723 2.943 3.129 3.523 2.155 4.11 1.568 4.504 0.587 4.697-0.394 4.898-1.368 4.697zM600.054 610.988l1.962 7.834 2.155 8.027 4.11 16.448 31.722-10.77 4.11 2.742 3.33 3.523 2.549 3.917 1.762 4.504 0.974 4.504v4.697l-0.974 4.898-1.962 4.504-2.742 4.11-3.523 3.33-3.917 2.549-4.304 1.762-4.504 0.981h-4.704l-4.891-0.981-4.504-1.962-8.421-32.309-1.762 0.587-1.375 0.587-2.349 0.788-1.955 0.587-1.962 0.781-1.368 0.394-1.568 0.587-1.955 0.587-2.356 0.781-2.736 0.788-3.33 1.174-8.815 2.936-4.11-2.742-3.33-3.523-2.549-3.917-1.762-4.311-0.974-4.697v-4.697l0.974-4.704 1.962-4.504 2.742-4.11 3.523-3.33 3.917-2.542 4.304-1.762 4.704-0.981h4.697l4.697 0.981 4.504 1.955z"></path>
<path fill="#919397" d="M549.535 658.378l-0.193 0.193-0.587 0.394-0.981 0.587-1.375 0.781-1.762 1.174-1.955 1.174-2.349 1.568-2.549 1.568-5.678 3.723-6.659 4.304-7.046 4.898-7.64 5.091-15.467 10.576-7.64 5.478-7.24 5.292-6.659 5.091-6.072 4.891-5.091 4.311-3.917 3.917 4.311-5.485 2.155-3.129 2.148-3.33 2.155-3.723 2.155-4.11 2.549-4.697 2.736-5.091 2.943-5.879 3.323-6.459 3.723-7.053 4.11-8.027 4.704-8.815 5.091-9.595 5.872-10.569 3.136-5.879 3.323-5.872 3.723-3.33 4.11-2.349 4.311-1.568 4.697-0.781 4.704 0.193 4.504 1.174 4.504 1.962 3.91 2.936 3.33 3.717 2.549 4.117 1.568 4.304 0.781 4.704-0.193 4.697-1.174 4.504-1.962 4.504-2.936 3.917zM144.192 654.654l-3.33-1.174-2.742-0.981-4.898-2.148-4.11-1.568-3.33-1.568-2.936-1.174-2.936-0.981-3.33-0.781-3.723-0.394-8.027 32.309-4.504 1.962-4.697 0.981h-4.697l-4.697-0.981-4.311-1.762-3.917-2.549-3.523-3.33-2.742-4.11-1.962-4.504-0.781-4.898v-4.697l0.781-4.504 1.762-4.504 2.542-3.917 3.33-3.523 4.11-2.742 31.328 10.77 0.394-1.762 0.193-1.568 0.394-1.955 0.394-1.762 0.587-1.962 0.394-1.174 0.394-1.568 0.394-1.955 0.781-2.349 0.587-2.936 0.981-3.723 1.174-4.311 1.174-5.091 4.504-1.955 4.898-0.781h4.697l4.697 0.781 4.311 1.762 3.917 2.549 3.523 3.323 2.742 4.117 1.955 4.504 0.981 4.697v4.697l-0.981 4.704-1.762 4.304-2.542 3.917-3.33 3.523-4.11 2.742zM318.275 821.297l-3.33-5.872-3.136-5.678-3.129-5.485-2.742-5.285-5.285-9.595-4.697-8.815-4.311-7.834-3.723-7.247-3.33-6.266-2.936-5.872-2.742-5.091-2.542-4.697-2.349-4.117-2.155-3.717-2.155-3.33-2.155-2.936-4.311-5.485 4.898 4.898 2.742 2.349 3.129 2.542 3.523 2.549 3.917 2.742 4.311 2.936 4.898 3.129 5.285 3.723 6.072 3.917 14.293 9.395 8.227 5.485 9.008 6.266 4.891 3.33 5.091 3.523 5.292 3.723 5.678 3.917 2.936 3.917 1.955 4.504 1.181 4.504 0.193 4.697-0.781 4.697-1.568 4.504-2.349 4.117-3.33 3.717-3.917 2.936-4.504 1.962-4.504 1.174-4.697 0.193-4.704-0.781-4.304-1.568-4.117-2.349-3.717-3.33zM263.245 723.976l-4.898-4.898-2.742-2.542-3.136-2.349-3.523-2.549-3.917-2.742-4.311-3.129-4.898-3.136-5.485-3.523-5.872-4.11-14.293-9.402-8.227-5.485-14.086-9.595-5.091-3.523-5.285-3.723-5.678-3.91-2.936-3.917-1.962-4.504-1.174-4.504-0.193-4.704 0.781-4.697 1.568-4.311 2.349-4.11 3.33-3.717 3.917-2.943 4.504-2.148 4.504-1.174 4.898-0.2 4.504 0.788 4.697 1.561 4.11 2.349 3.723 3.33 3.33 5.879 3.129 5.872 3.136 5.285 2.742 5.292 5.285 9.595 4.697 8.808 4.11 8.034 3.723 7.046 3.523 6.466 5.678 10.963 2.349 4.504 2.349 4.11 2.155 3.723 2.155 3.33 2.155 3.129 4.304 5.485zM458.674 723.389v0l-54.435 97.514-3.723 3.33-4.11 2.549-4.311 1.568-4.697 0.781-4.697-0.193-4.504-1.181-4.504-1.955-3.917-2.936-3.33-3.723-2.549-4.11-1.561-4.311-0.788-4.697 0.2-4.697 1.174-4.504 1.955-4.504 2.936-3.917 5.485-3.917 5.285-3.723 5.091-3.717 4.898-3.33 9.008-6.266 8.227-5.485 7.44-5.091 6.853-4.504 5.872-3.917 5.485-3.717 4.898-3.136 4.304-2.936 3.917-2.742 3.33-2.742 3.136-2.349 2.736-2.542 4.898-4.898z"></path>
<path fill="#919397" d="M361.16 267.521l3.917 0.2 3.717 0.587 3.523 0.781 3.53 1.368 3.129 1.568 3.136 1.762 2.936 2.155 2.542 2.349 2.549 2.742 2.155 2.742 1.762 3.136 1.568 3.129 1.174 3.523 0.974 3.53 0.587 3.717 0.2 3.723-0.2 3.917-0.587 3.717-0.974 3.53-1.174 3.523-1.568 3.129-1.762 3.136-2.155 2.936-5.091 5.091-2.936 2.155-3.136 1.762-3.129 1.568-3.53 1.174-3.523 0.981-3.717 0.587-3.917 0.193-3.723-0.193-3.723-0.587-3.523-0.981-3.523-1.174-3.136-1.568-3.129-1.762-2.742-2.155-2.742-2.542-2.349-2.549-2.155-2.936-1.762-3.136-1.568-3.129-1.368-3.523-0.781-3.53-0.594-3.717-0.193-3.917 0.193-3.723 0.594-3.717 0.781-3.53 1.368-3.523 1.568-3.129 1.762-3.136 2.155-2.742 2.349-2.742 2.742-2.349 2.742-2.155 3.129-1.762 3.136-1.568 3.523-1.368 3.523-0.781 3.723-0.587z"></path>
<path fill="#919397" d="M361.16 267.521v-4.891l4.304 0.193 4.311 0.587 3.917 0.981 3.917 1.368-1.762 4.697-1.962 4.504-2.936-0.974-3.136-0.788-3.323-0.387-3.33-0.2z"></path>
<path fill="#919397" d="M375.846 270.456l1.762-4.697 3.717 1.762 3.53 2.155 3.323 2.349 2.943 2.742-3.53 3.523-3.523 3.53-2.349-2.155-2.349-1.762-5.485-2.943z"></path>
<path fill="#919397" d="M387.59 278.29l3.53-3.523 2.736 2.936 2.549 3.136 2.155 3.523 1.762 3.723-4.697 1.955-4.504 1.962-3.136-5.292-1.762-2.542-2.155-2.349z"></path>
<path fill="#919397" d="M395.624 290.041l4.697-1.955 1.368 3.917 0.981 4.11 0.781 4.11 0.2 4.311h-9.989l-0.193-3.33-0.394-3.136-1.955-6.065z"></path>
<path fill="#919397" d="M398.56 304.534h5.091l-0.2 4.304-0.781 4.311-0.981 4.11-1.368 3.723-4.697-1.762-4.504-1.962 0.974-2.936 0.981-3.129 0.394-3.33 0.193-3.33z"></path>
<path fill="#919397" d="M395.624 319.22l4.697 1.762-1.762 3.717-2.155 3.53-2.549 3.33-2.736 2.936-3.53-3.523-3.523-3.53 2.155-2.349 1.762-2.349 3.136-5.485z"></path>
<path fill="#919397" d="M387.59 330.971l3.53 3.523-2.943 2.742-3.323 2.542-3.53 2.155-3.717 1.762-1.762-4.697-1.962-4.504 5.485-3.136 2.349-1.762 2.349-2.155z"></path>
<path fill="#919397" d="M375.846 338.998l1.762 4.697-3.723 1.368-4.11 0.981-4.311 0.788-4.304 0.193v-9.989l3.33-0.193 3.323-0.394 3.136-0.981 2.936-0.974z"></path>
<path fill="#919397" d="M361.16 341.934v5.091l-4.311-0.193-4.11-0.788-4.117-0.981-3.91-1.368 1.955-4.697 1.955-4.504 6.072 1.955 3.136 0.394 3.33 0.193z"></path>
<path fill="#919397" d="M346.667 338.998l-1.955 4.697-3.723-1.762-3.523-2.155-3.136-2.542-2.936-2.742 7.046-7.053 2.356 2.155 2.542 1.762 5.285 3.136z"></path>
<path fill="#919397" d="M334.916 330.971l-3.523 3.523-2.742-2.936-2.349-3.33-2.155-3.53-1.762-3.717 4.697-1.762 4.504-1.962 2.936 5.485 1.768 2.349 2.148 2.349z"></path>
<path fill="#919397" d="M327.083 319.22l-4.697 1.762-1.368-3.917-0.981-3.917-0.587-4.311-0.2-4.304h9.989l0.193 3.33 0.394 3.33 0.788 3.129 0.974 2.936z"></path>
<path fill="#919397" d="M324.147 304.534h-4.898l0.2-4.311 0.587-4.11 0.981-4.11 1.368-3.917 4.697 1.955 4.504 1.962-0.974 2.936-0.788 3.129-0.394 3.136-0.193 3.33z"></path>
<path fill="#919397" d="M327.083 290.041l-4.697-1.955 1.762-3.53 2.155-3.523 2.349-3.33 2.742-2.936 7.046 7.053-2.148 2.349-1.768 2.349-1.561 2.742-1.375 2.742z"></path>
<path fill="#919397" d="M334.916 278.29l-3.523-3.523 2.936-2.742 3.33-2.349 3.523-2.155 3.53-1.762 1.955 4.697 1.955 4.504-2.736 1.375-2.742 1.568-2.349 1.762-2.356 2.155z"></path>
<path fill="#919397" d="M346.667 270.456l-1.955-4.697 3.91-1.368 4.117-0.981 4.11-0.587 4.311-0.193v9.982l-3.33 0.2-3.136 0.387-3.129 0.788-2.943 0.974z"></path>
<path fill="#919397" d="M165.144 578.286l3.917 0.193 3.717 0.587 3.53 0.788 3.523 1.368 3.129 1.568 3.136 1.762 2.936 2.155 2.549 2.349 2.542 2.742 2.155 2.742 1.762 3.129 1.568 3.136 1.174 3.523 0.981 3.523 0.587 3.723 0.193 3.723-0.193 3.917-0.587 3.717-0.981 3.523-1.174 3.53-1.568 3.129-1.762 3.136-2.155 2.936-5.091 5.091-2.936 2.155-3.136 1.762-3.129 1.568-3.523 1.174-3.53 0.974-3.717 0.587-3.917 0.2-3.723-0.2-3.717-0.587-3.53-0.974-3.523-1.174-3.129-1.568-3.136-1.762-2.742-2.155-2.742-2.549-2.349-2.542-2.155-2.936-1.762-3.136-1.561-3.129-1.375-3.53-0.781-3.523-0.587-3.717-0.2-3.917 0.2-3.723 0.587-3.723 0.781-3.523 1.375-3.523 1.561-3.136 1.762-3.129 2.155-2.742 2.349-2.742 2.742-2.349 2.742-2.155 3.136-1.762 3.129-1.568 3.523-1.368 3.53-0.788 3.717-0.587z"></path>
<path fill="#919397" d="M165.144 578.286v-4.898l4.304 0.2 4.311 0.587 3.917 0.981 3.917 1.368-1.762 4.697-1.962 4.504-2.936-0.974-3.129-0.788-3.33-0.394-3.33-0.193z"></path>
<path fill="#919397" d="M179.831 581.222l1.762-4.697 3.723 1.762 3.523 2.155 3.33 2.349 2.936 2.742-7.053 7.046-2.349-2.148-2.349-1.768-5.485-2.936z"></path>
<path fill="#919397" d="M191.581 589.055l3.523-3.523 2.742 2.936 2.542 3.136 2.155 3.523 1.762 3.717-4.697 1.962-4.504 1.955-3.136-5.285-1.762-2.542-2.155-2.356z"></path>
<path fill="#919397" d="M199.608 600.806l4.697-1.962 1.375 3.917 0.974 4.117 0.788 4.11 0.193 4.311h-9.989l-0.193-3.33-0.394-3.136-1.955-6.072z"></path>
<path fill="#919397" d="M202.544 615.299h5.091l-0.193 4.304-0.788 4.311-0.974 4.11-1.375 3.723-4.697-1.762-4.504-1.962 0.981-2.936 0.974-3.136 0.394-3.323 0.193-3.33z"></path>
<path fill="#919397" d="M199.608 629.986l4.697 1.762-1.762 3.717-2.155 3.53-2.542 3.323-2.742 2.943-3.523-3.53-3.53-3.523 2.155-2.349 1.762-2.349 3.136-5.485z"></path>
<path fill="#919397" d="M191.581 641.729l3.523 3.53-2.936 2.736-3.33 2.549-3.523 2.155-3.723 1.762-1.762-4.697-1.962-4.504 5.485-3.136 2.349-1.762 2.349-2.155z"></path>
<path fill="#919397" d="M179.831 649.763l1.762 4.697-3.723 1.368-4.11 0.981-4.311 0.781-4.304 0.2v-9.989l3.33-0.193 3.33-0.394 3.129-0.981 2.936-0.974z"></path>
<path fill="#919397" d="M165.144 652.699v5.091l-4.311-0.2-4.11-0.781-4.11-0.981-3.917-1.368 1.955-4.697 1.962-4.504 6.065 1.955 3.136 0.394 3.33 0.193z"></path>
<path fill="#919397" d="M150.651 649.763l-1.955 4.697-3.723-1.762-3.523-2.155-3.136-2.549-2.936-2.736 3.523-3.53 3.53-3.523 2.349 2.155 2.542 1.762 5.292 3.136z"></path>
<path fill="#919397" d="M138.901 641.729l-3.523 3.53-2.742-2.943-2.349-3.323-2.155-3.53-1.762-3.717 4.704-1.762 4.504-1.962 2.936 5.485 1.762 2.349 2.155 2.349z"></path>
<path fill="#919397" d="M131.074 629.986l-4.704 1.762-1.368-3.917-0.981-3.917-0.587-4.311-0.193-4.304h9.982l0.2 3.33 0.387 3.323 0.788 3.136 0.981 2.936z"></path>
<path fill="#919397" d="M128.131 615.299h-4.891l0.193-4.311 0.587-4.11 0.981-4.117 1.368-3.917 4.704 1.962 4.504 1.955-0.981 2.943-0.788 3.129-0.387 3.136-0.2 3.33z"></path>
<path fill="#919397" d="M131.074 600.806l-4.704-1.962 1.762-3.523 2.155-3.523 2.349-3.33 2.742-2.936 7.053 7.046-2.155 2.356-1.762 2.349-1.568 2.742-1.368 2.736z"></path>
<path fill="#919397" d="M138.901 589.055l-3.523-3.523 2.936-2.742 3.33-2.349 3.53-2.155 3.523-1.762 1.955 4.697 1.962 4.504-2.742 1.375-2.742 1.561-2.349 1.768-2.349 2.148z"></path>
<path fill="#919397" d="M150.651 581.222l-1.955-4.697 3.917-1.368 4.11-0.981 4.11-0.587 4.311-0.2v9.989l-3.33 0.193-3.136 0.394-3.129 0.788-2.936 0.974z"></path>
<path fill="#919397" d="M555.608 577.305l3.917 0.2 3.717 0.587 3.523 0.781 3.53 1.375 3.129 1.561 3.136 1.762 2.936 2.155 2.542 2.349 2.549 2.742 2.155 2.742 1.762 3.136 1.568 3.129 1.174 3.523 0.974 3.53 0.587 3.717 0.2 3.723-0.2 3.917-0.587 3.717-0.974 3.53-1.174 3.523-1.568 3.129-1.762 3.136-2.155 2.936-5.091 5.091-2.936 2.155-3.136 1.762-3.129 1.568-3.53 1.174-3.523 0.981-3.717 0.587-3.917 0.193-3.723-0.193-3.723-0.587-3.523-0.981-3.523-1.174-3.136-1.568-3.129-1.762-2.742-2.155-2.742-2.542-2.349-2.549-2.155-2.936-1.762-3.136-1.568-3.129-1.368-3.523-0.781-3.53-0.587-3.717-0.2-3.917 0.2-3.723 0.587-3.717 0.781-3.53 1.368-3.523 1.568-3.129 1.762-3.136 2.155-2.742 2.349-2.742 2.742-2.349 2.742-2.155 3.129-1.762 3.136-1.561 3.523-1.375 3.523-0.781 3.723-0.587z"></path>
<path fill="#919397" d="M555.608 577.305v-4.891l4.304 0.193 4.311 0.587 3.917 0.981 3.917 1.368-1.762 4.704-1.962 4.504-2.936-0.981-3.136-0.788-3.323-0.387-3.33-0.2z"></path>
<path fill="#919397" d="M570.294 580.248l1.762-4.704 3.717 1.762 3.53 2.155 3.323 2.349 2.943 2.742-3.53 3.523-3.523 3.53-2.349-2.155-2.349-1.762-5.485-2.936z"></path>
<path fill="#919397" d="M582.038 588.075l3.53-3.523 2.742 2.936 2.542 3.136 2.155 3.523 1.762 3.723-4.697 1.955-4.504 1.962-3.136-5.292-1.762-2.542-2.155-2.349z"></path>
<path fill="#919397" d="M590.072 599.825l4.697-1.955 1.368 3.917 0.981 4.11 0.781 4.11 0.2 4.311h-9.989l-0.193-3.33-0.394-3.136-1.955-6.065z"></path>
<path fill="#919397" d="M593.008 614.318h5.091l-0.2 4.311-0.781 4.304-0.981 4.11-1.368 3.723-4.697-1.762-4.504-1.962 0.974-2.936 0.981-3.129 0.394-3.33 0.193-3.33z"></path>
<path fill="#919397" d="M590.072 629.005l4.697 1.762-1.762 3.723-2.155 3.523-2.542 3.33-2.742 2.936-3.53-3.523-3.523-3.53 2.155-2.349 1.762-2.349 3.136-5.485z"></path>
<path fill="#919397" d="M582.038 640.755l3.53 3.523-2.943 2.742-3.323 2.542-3.53 2.155-3.717 1.762-1.762-4.697-1.962-4.504 5.485-3.136 2.349-1.762 2.349-2.155z"></path>
<path fill="#919397" d="M570.294 648.782l1.762 4.697-3.723 1.375-4.11 0.974-4.311 0.788-4.304 0.193v-9.989l3.33-0.193 3.323-0.394 3.136-0.974 2.936-0.981z"></path>
<path fill="#919397" d="M555.608 651.718v5.091l-4.311-0.193-4.11-0.788-4.117-0.974-3.91-1.375 1.955-4.697 1.955-4.504 6.072 1.955 3.136 0.394 3.33 0.193z"></path>
<path fill="#919397" d="M541.114 648.782l-1.955 4.697-3.723-1.762-3.523-2.155-3.136-2.542-2.936-2.742 7.046-7.053 2.356 2.155 2.542 1.762 5.285 3.136z"></path>
<path fill="#919397" d="M529.364 640.755l-3.523 3.523-2.742-2.936-2.349-3.33-2.155-3.523-1.762-3.723 4.697-1.762 4.504-1.962 2.943 5.485 1.762 2.349 2.148 2.349z"></path>
<path fill="#919397" d="M521.53 629.005l-4.697 1.762-1.368-3.917-0.981-3.917-0.587-4.304-0.193-4.311h9.982l0.2 3.33 0.387 3.33 0.788 3.129 0.974 2.936z"></path>
<path fill="#919397" d="M518.594 614.318h-4.891l0.193-4.311 0.587-4.11 0.981-4.11 1.368-3.917 4.697 1.955 4.504 1.962-0.974 2.936-0.788 3.129-0.387 3.136-0.2 3.33z"></path>
<path fill="#919397" d="M521.53 599.825l-4.697-1.955 1.762-3.523 2.155-3.53 2.349-3.33 2.742-2.936 7.046 7.053-2.148 2.349-1.762 2.349-1.568 2.742-1.375 2.742z"></path>
<path fill="#919397" d="M529.364 588.075l-3.523-3.523 2.936-2.742 3.33-2.349 3.523-2.155 3.53-1.762 1.955 4.704 1.955 4.504-2.736 1.368-2.742 1.568-2.349 1.762-2.356 2.155z"></path>
<path fill="#919397" d="M541.114 580.248l-1.955-4.704 3.91-1.368 4.117-0.981 4.11-0.587 4.311-0.193v9.982l-3.33 0.2-3.136 0.387-3.129 0.788-2.943 0.981z"></path>
<path fill="#919397" d="M360.179 154.339l3.917 0.193 3.717 0.587 3.53 0.788 3.523 1.368 3.129 1.568 3.136 1.762 2.936 2.155 2.549 2.349 2.542 2.742 2.155 2.742 1.762 3.129 1.568 3.136 1.174 3.523 0.981 3.523 0.587 3.723 0.193 3.723-0.193 3.91-0.587 3.723-0.981 3.523-1.174 3.523-1.568 3.136-1.762 3.136-2.155 2.936-5.091 5.091-2.936 2.155-3.136 1.762-3.129 1.561-3.523 1.181-3.53 0.974-3.717 0.587-3.917 0.2-3.723-0.2-3.717-0.587-3.53-0.974-3.523-1.181-3.129-1.561-3.136-1.762-2.742-2.155-2.742-2.549-2.349-2.542-2.155-2.936-1.762-3.136-1.561-3.136-1.375-3.523-0.781-3.523-0.587-3.723-0.2-3.91 0.2-3.723 0.587-3.723 0.781-3.523 1.375-3.523 1.561-3.136 1.762-3.129 2.155-2.742 2.349-2.742 2.742-2.349 2.742-2.155 3.136-1.762 3.129-1.568 3.523-1.368 3.53-0.788 3.717-0.587z"></path>
<path fill="#919397" d="M360.179 154.339v-4.898l4.311 0.2 4.304 0.587 3.917 0.974 3.917 1.375-1.762 4.697-1.962 4.504-2.936-0.981-3.129-0.781-3.33-0.394-3.33-0.193z"></path>
<path fill="#919397" d="M374.865 157.275l1.762-4.697 3.723 1.762 3.523 2.155 3.33 2.349 2.936 2.742-7.053 7.046-2.349-2.148-2.349-1.768-5.485-2.936z"></path>
<path fill="#919397" d="M386.616 165.109l3.523-3.523 2.742 2.936 2.542 3.136 2.155 3.523 1.762 3.717-4.697 1.962-4.504 1.955-3.136-5.285-1.762-2.549-2.155-2.349z"></path>
<path fill="#919397" d="M394.643 176.859l4.697-1.962 1.375 3.917 0.974 4.117 0.788 4.11 0.193 4.311h-9.989l-0.193-3.33-0.394-3.136-1.955-6.072z"></path>
<path fill="#919397" d="M397.579 191.352h5.091l-0.193 4.304-0.788 4.311-0.974 4.11-1.375 3.723-4.697-1.768-4.504-1.955 0.981-2.936 0.974-3.136 0.394-3.33 0.193-3.323z"></path>
<path fill="#919397" d="M394.643 206.032l4.697 1.768-1.762 3.717-2.155 3.523-2.542 3.33-2.742 2.943-3.523-3.53-3.53-3.523 2.155-2.349 1.762-2.349 3.136-5.485z"></path>
<path fill="#919397" d="M386.616 217.783l3.523 3.53-2.936 2.736-3.33 2.549-3.523 2.155-3.723 1.762-1.762-4.704-1.962-4.497 5.485-3.136 2.349-1.762 2.349-2.155z"></path>
<path fill="#919397" d="M374.865 225.81l1.762 4.704-3.723 1.368-4.11 0.981-4.304 0.781-4.311 0.2v-9.989l3.33-0.193 3.33-0.394 3.129-0.981 2.936-0.974z"></path>
<path fill="#919397" d="M360.179 228.753v5.091l-4.311-0.2-4.11-0.781-4.11-0.981-3.917-1.368 1.955-4.704 1.962-4.497 6.065 1.955 3.136 0.394 3.33 0.193z"></path>
<path fill="#919397" d="M345.686 225.81l-1.955 4.704-3.723-1.762-3.523-2.155-3.136-2.549-2.936-2.736 3.523-3.53 3.53-3.523 2.349 2.155 2.542 1.762 5.292 3.136z"></path>
<path fill="#919397" d="M333.935 217.783l-3.523 3.53-2.742-2.943-2.349-3.33-2.155-3.523-1.762-3.717 4.704-1.768 4.504-1.955 2.936 5.485 1.762 2.349 2.155 2.349z"></path>
<path fill="#919397" d="M326.109 206.032l-4.704 1.768-1.368-3.917-0.981-3.917-0.587-4.311-0.193-4.304h9.982l0.2 3.323 0.387 3.33 0.788 3.136 0.981 2.936z"></path>
<path fill="#919397" d="M323.166 191.352h-4.891l0.193-4.311 0.587-4.11 0.981-4.117 1.368-3.917 4.704 1.962 4.504 1.955-0.981 2.943-0.788 3.129-0.387 3.136-0.2 3.33z"></path>
<path fill="#919397" d="M326.109 176.859l-4.704-1.962 1.762-3.523 2.155-3.523 2.349-3.33 2.742-2.936 7.053 7.046-2.155 2.349-1.762 2.356-1.568 2.742-1.368 2.736z"></path>
<path fill="#919397" d="M333.935 165.109l-3.523-3.523 2.936-2.742 3.33-2.349 3.53-2.155 3.523-1.762 1.955 4.697 1.962 4.504-2.742 1.375-2.742 1.561-2.349 1.768-2.349 2.148z"></path>
<path fill="#919397" d="M345.686 157.275l-1.955-4.697 3.917-1.375 4.11-0.974 4.11-0.587 4.311-0.2v9.989l-3.33 0.193-3.136 0.394-3.129 0.781-2.936 0.981z"></path>
<path fill="#919397" d="M660.762 315.697l3.917 0.193 3.717 0.587 3.523 0.781 3.53 1.375 3.129 1.561 3.136 1.768 2.936 2.148 2.542 2.356 2.549 2.736 2.155 2.742 1.762 3.136 1.568 3.129 1.174 3.53 0.974 3.523 0.594 3.717 0.193 3.723-0.193 3.917-0.594 3.723-0.974 3.523-1.174 3.523-1.568 3.136-1.762 3.129-2.155 2.936-5.091 5.091-2.936 2.155-3.136 1.762-3.129 1.568-3.53 1.174-3.523 0.981-3.717 0.587-3.917 0.193-3.723-0.193-3.717-0.587-3.53-0.981-3.523-1.174-3.129-1.568-3.136-1.762-2.742-2.155-2.742-2.542-2.349-2.549-2.155-2.936-1.762-3.129-1.568-3.136-1.368-3.523-0.781-3.523-0.587-3.723-0.2-3.917 0.2-3.723 0.587-3.717 0.781-3.523 1.368-3.53 1.568-3.129 1.762-3.136 2.155-2.742 2.349-2.736 2.742-2.356 2.742-2.148 3.136-1.768 3.129-1.561 3.523-1.375 3.53-0.781 3.717-0.587z"></path>
<path fill="#919397" d="M660.762 315.697v-4.898l4.304 0.193 4.311 0.587 3.917 0.981 3.917 1.368-1.762 4.704-1.962 4.504-2.936-0.981-3.136-0.781-3.323-0.394-3.33-0.193z"></path>
<path fill="#919397" d="M675.448 318.633l1.762-4.704 3.717 1.768 3.53 2.148 3.33 2.349 2.936 2.742-7.053 7.053-2.349-2.155-2.349-1.762-5.485-2.936z"></path>
<path fill="#919397" d="M687.192 326.467l3.53-3.53 2.742 2.943 2.542 3.129 2.155 3.523 1.762 3.723-4.697 1.955-4.504 1.962-3.136-5.292-1.762-2.542-2.155-2.349z"></path>
<path fill="#919397" d="M695.226 338.211l4.697-1.955 1.368 3.917 0.981 4.11 0.788 4.11 0.193 4.311h-9.989l-0.193-3.33-0.394-3.129-1.955-6.072z"></path>
<path fill="#919397" d="M698.162 352.704h5.091l-0.193 4.311-0.788 4.304-0.981 4.117-1.368 3.717-4.697-1.762-4.504-1.955 0.974-2.943 0.981-3.129 0.394-3.33 0.193-3.33z"></path>
<path fill="#919397" d="M695.226 367.39l4.697 1.762-1.762 3.723-2.155 3.523-2.542 3.33-2.742 2.936-7.053-7.046 2.155-2.356 1.762-2.349 3.136-5.478z"></path>
<path fill="#919397" d="M687.192 379.141l3.53 3.523-2.936 2.742-3.33 2.542-3.53 2.155-3.717 1.762-1.762-4.697-1.962-4.504 5.485-3.136 2.349-1.762 2.349-2.148z"></path>
<path fill="#919397" d="M675.448 387.168l1.762 4.697-3.723 1.375-4.11 0.974-4.311 0.788-4.304 0.193v-9.982l3.33-0.2 3.323-0.394 3.136-0.974 2.936-0.981z"></path>
<path fill="#919397" d="M660.762 390.104v5.091l-4.311-0.193-4.11-0.788-4.11-0.974-3.917-1.375 1.955-4.697 1.962-4.504 6.065 1.955 3.136 0.394 3.33 0.2z"></path>
<path fill="#919397" d="M646.269 387.168l-1.955 4.697-3.723-1.762-3.523-2.155-3.136-2.542-2.936-2.742 7.053-7.046 2.349 2.148 2.542 1.762 5.292 3.136z"></path>
<path fill="#919397" d="M634.518 379.141l-3.523 3.523-2.742-2.936-2.349-3.33-2.155-3.523-1.762-3.723 4.697-1.762 4.504-1.955 2.943 5.478 1.762 2.349 2.155 2.356z"></path>
<path fill="#919397" d="M626.684 367.39l-4.697 1.762-1.368-3.917-0.981-3.917-0.587-4.304-0.193-4.311h9.982l0.2 3.33 0.387 3.33 0.788 3.129 0.974 2.943z"></path>
<path fill="#919397" d="M623.748 352.704h-4.891l0.193-4.311 0.587-4.11 0.981-4.11 1.368-3.917 4.697 1.955 4.504 1.962-0.974 2.936-0.788 3.136-0.387 3.129-0.2 3.33z"></path>
<path fill="#919397" d="M626.684 338.211l-4.697-1.955 1.762-3.523 2.155-3.53 2.349-3.323 2.742-2.943 3.523 3.53 3.53 3.523-2.155 2.349-1.762 2.349-1.568 2.742-1.375 2.742z"></path>
<path fill="#919397" d="M634.518 326.467l-3.523-3.53 2.936-2.742 3.33-2.349 3.523-2.148 3.53-1.768 1.955 4.704 1.962 4.504-2.742 1.368-2.742 1.568-2.349 1.762-2.349 2.155z"></path>
<path fill="#919397" d="M646.269 318.633l-1.955-4.704 3.917-1.368 4.11-0.981 4.11-0.587 4.311-0.193v9.989l-3.33 0.193-3.136 0.394-3.129 0.781-2.936 0.981z"></path>
<path fill="#919397" d="M60.577 314.129l3.917 0.193 3.717 0.587 3.53 0.788 3.523 1.368 3.129 1.568 3.136 1.762 2.936 2.155 2.549 2.349 2.542 2.742 2.155 2.736 1.762 3.136 1.568 3.136 1.174 3.523 0.981 3.523 0.587 3.723 0.193 3.717-0.193 3.917-0.587 3.723-0.981 3.523-1.174 3.523-1.568 3.136-1.762 3.129-2.155 2.943-5.091 5.091-2.936 2.148-3.136 1.762-3.129 1.568-3.523 1.174-3.53 0.981-3.717 0.587-3.917 0.193-3.723-0.193-3.717-0.587-3.53-0.981-3.523-1.174-3.129-1.568-3.136-1.762-2.742-2.148-2.742-2.549-2.349-2.542-2.155-2.943-1.762-3.129-1.561-3.136-1.375-3.523-0.781-3.523-0.587-3.723-0.2-3.917 0.2-3.717 0.587-3.723 0.781-3.523 1.375-3.523 1.561-3.136 1.762-3.136 2.155-2.736 2.349-2.742 2.742-2.349 2.742-2.155 3.136-1.762 3.129-1.568 3.523-1.368 3.53-0.788 3.717-0.587z"></path>
<path fill="#919397" d="M60.577 314.129v-4.898l4.304 0.193 4.311 0.587 3.917 0.981 3.917 1.375-1.762 4.697-1.962 4.504-2.936-0.981-3.129-0.781-3.33-0.394-3.33-0.193z"></path>
<path fill="#919397" d="M75.264 317.065l1.762-4.697 3.723 1.762 3.523 2.155 3.33 2.349 2.936 2.742-7.053 7.046-2.349-2.155-2.349-1.762-5.485-2.936z"></path>
<path fill="#919397" d="M87.014 324.899l3.523-3.523 2.742 2.936 2.542 3.129 2.155 3.53 1.762 3.717-4.697 1.962-4.504 1.955-3.136-5.285-1.762-2.549-2.155-2.349z"></path>
<path fill="#919397" d="M95.041 336.649l4.697-1.962 1.375 3.917 0.974 4.11 0.788 4.117 0.193 4.304h-9.989l-0.193-3.33-0.394-3.129-1.955-6.072z"></path>
<path fill="#919397" d="M97.977 351.136h5.091l-0.193 4.311-0.788 4.304-0.974 4.117-1.375 3.717-4.697-1.762-4.504-1.955 0.981-2.936 0.974-3.136 0.394-3.33 0.193-3.33z"></path>
<path fill="#919397" d="M95.041 365.822l4.697 1.762-1.762 3.723-2.155 3.523-2.542 3.33-2.742 2.936-7.053-7.046 2.155-2.349 1.762-2.356 3.136-5.478z"></path>
<path fill="#919397" d="M87.014 377.573l3.523 3.523-2.936 2.742-3.33 2.549-3.523 2.148-3.723 1.768-1.762-4.704-1.962-4.504 5.485-3.129 2.349-1.762 2.349-2.155z"></path>
<path fill="#919397" d="M75.264 385.6l1.762 4.704-3.723 1.368-4.11 0.981-4.311 0.781-4.304 0.193v-9.982l3.33-0.2 3.33-0.387 3.129-0.981 2.936-0.981z"></path>
<path fill="#919397" d="M60.577 388.536v5.091l-4.311-0.193-4.11-0.781-4.11-0.981-3.917-1.368 1.955-4.704 1.962-4.504 6.065 1.962 3.136 0.387 3.33 0.2z"></path>
<path fill="#919397" d="M46.084 385.6l-1.955 4.704-3.723-1.768-3.523-2.148-3.136-2.549-2.936-2.742 7.053-7.046 2.349 2.155 2.542 1.762 5.292 3.129z"></path>
<path fill="#919397" d="M34.333 377.573l-3.523 3.523-2.742-2.936-2.349-3.33-2.155-3.523-1.762-3.723 4.704-1.762 4.504-1.955 2.936 5.478 1.762 2.356 2.155 2.349z"></path>
<path fill="#919397" d="M26.507 365.822l-4.704 1.762-1.368-3.917-0.981-3.917-0.587-4.304-0.193-4.311h9.982l0.2 3.33 0.387 3.33 0.788 3.136 0.981 2.936z"></path>
<path fill="#919397" d="M23.564 351.136h-4.891l0.193-4.304 0.587-4.117 0.981-4.11 1.368-3.917 4.704 1.962 4.504 1.955-0.981 2.936-0.788 3.136-0.387 3.129-0.2 3.33z"></path>
<path fill="#919397" d="M26.507 336.649l-4.704-1.962 1.762-3.523 2.155-3.523 2.349-3.33 2.742-2.936 7.053 7.046-2.155 2.349-1.762 2.349-1.568 2.742-1.368 2.742z"></path>
<path fill="#919397" d="M34.333 324.899l-3.523-3.523 2.936-2.742 3.33-2.349 3.53-2.155 3.523-1.762 1.955 4.697 1.962 4.504-2.742 1.368-2.742 1.568-2.349 1.762-2.349 2.155z"></path>
<path fill="#919397" d="M46.084 317.065l-1.955-4.697 3.917-1.375 4.11-0.981 4.11-0.587 4.311-0.193v9.989l-3.33 0.193-3.136 0.394-3.129 0.781-2.936 0.981z"></path>
<path fill="#919397" d="M60.577 635.27l3.917 0.193 3.717 0.587 3.53 0.788 3.523 1.368 3.129 1.568 3.136 1.762 2.936 2.155 2.549 2.349 2.542 2.742 2.155 2.742 1.762 3.129 1.568 3.136 1.174 3.523 0.981 3.523 0.587 3.723 0.193 3.717-0.193 3.917-0.587 3.723-0.981 3.523-1.174 3.523-1.568 3.136-1.762 3.129-2.155 2.943-5.091 5.091-2.936 2.148-3.136 1.768-3.129 1.561-3.523 1.174-3.53 0.981-3.717 0.587-3.917 0.2-3.723-0.2-3.717-0.587-3.53-0.981-3.523-1.174-3.129-1.561-3.136-1.768-2.742-2.148-2.742-2.549-2.349-2.542-2.155-2.943-1.762-3.129-1.561-3.136-1.375-3.523-0.781-3.523-0.587-3.723-0.2-3.917 0.2-3.717 0.587-3.723 0.781-3.523 1.375-3.523 1.561-3.136 1.762-3.129 2.155-2.742 2.349-2.742 2.742-2.349 2.742-2.155 3.136-1.762 3.129-1.568 3.523-1.368 3.53-0.788 3.717-0.587z"></path>
<path fill="#919397" d="M60.577 635.27v-4.898l4.304 0.2 4.311 0.587 3.917 0.974 3.917 1.375-1.762 4.697-1.962 4.504-2.936-0.981-3.129-0.781-3.33-0.394-3.33-0.193z"></path>
<path fill="#919397" d="M75.264 638.206l1.762-4.697 3.723 1.762 3.523 2.155 3.33 2.349 2.936 2.742-7.053 7.046-2.349-2.155-2.349-1.762-5.485-2.936z"></path>
<path fill="#919397" d="M87.014 646.040l3.523-3.523 2.742 2.936 2.542 3.129 2.155 3.53 1.762 3.717-4.697 1.962-4.504 1.955-3.136-5.285-1.762-2.549-2.155-2.349z"></path>
<path fill="#919397" d="M95.041 657.79l4.697-1.962 1.375 3.917 0.974 4.117 0.788 4.11 0.193 4.304h-9.989l-0.193-3.323-0.394-3.136-1.955-6.072z"></path>
<path fill="#919397" d="M97.977 672.277h5.091l-0.193 4.311-0.788 4.311-0.974 4.11-1.375 3.723-4.697-1.768-4.504-1.955 0.981-2.936 0.974-3.136 0.394-3.33 0.193-3.33z"></path>
<path fill="#919397" d="M95.041 686.963l4.697 1.768-1.762 3.717-2.155 3.523-2.542 3.33-2.742 2.936-7.053-7.046 2.155-2.349 1.762-2.349 3.136-5.485z"></path>
<path fill="#919397" d="M87.014 698.714l3.523 3.523-2.936 2.742-3.33 2.549-3.523 2.155-3.723 1.762-1.762-4.704-1.962-4.504 5.485-3.129 2.349-1.762 2.349-2.155z"></path>
<path fill="#919397" d="M75.264 706.741l1.762 4.704-3.723 1.368-4.11 0.981-4.311 0.781-4.304 0.2v-9.989l3.33-0.193 3.33-0.394 3.129-0.981 2.936-0.981z"></path>
<path fill="#919397" d="M60.577 709.684v5.091l-4.311-0.2-4.11-0.781-4.11-0.981-3.917-1.368 1.955-4.704 1.962-4.504 6.065 1.962 3.136 0.394 3.33 0.193z"></path>
<path fill="#919397" d="M46.084 706.741l-1.955 4.704-3.723-1.762-3.523-2.155-3.136-2.549-2.936-2.742 7.053-7.046 2.349 2.155 2.542 1.762 5.292 3.129z"></path>
<path fill="#919397" d="M34.333 698.714l-3.523 3.523-2.742-2.936-2.349-3.33-2.155-3.523-1.762-3.717 4.704-1.768 4.504-1.955 2.936 5.485 1.762 2.349 2.155 2.349z"></path>
<path fill="#919397" d="M26.507 686.963l-4.704 1.768-1.368-3.917-0.981-3.917-0.587-4.311-0.193-4.311h9.982l0.2 3.33 0.387 3.33 0.788 3.136 0.981 2.936z"></path>
<path fill="#919397" d="M23.564 672.277h-4.891l0.193-4.304 0.587-4.11 0.981-4.117 1.368-3.917 4.704 1.962 4.504 1.955-0.981 2.936-0.788 3.136-0.387 3.136-0.2 3.323z"></path>
<path fill="#919397" d="M26.507 657.79l-4.704-1.962 1.762-3.523 2.155-3.523 2.349-3.33 2.742-2.936 7.053 7.046-2.155 2.349-1.762 2.356-1.568 2.736-1.368 2.742z"></path>
<path fill="#919397" d="M34.333 646.040l-3.523-3.523 2.936-2.742 3.33-2.349 3.53-2.155 3.523-1.762 1.955 4.697 1.962 4.504-2.742 1.375-2.742 1.561-2.349 1.762-2.349 2.155z"></path>
<path fill="#919397" d="M46.084 638.206l-1.955-4.697 3.917-1.375 4.11-0.974 4.11-0.587 4.311-0.2v9.989l-3.33 0.193-3.136 0.394-3.129 0.781-2.936 0.981z"></path>
<path fill="#919397" d="M660.762 634.49l3.917 0.193 3.717 0.587 3.523 0.781 3.53 1.375 3.129 1.568 3.136 1.762 2.936 2.148 2.542 2.356 2.549 2.736 2.155 2.742 1.762 3.136 1.568 3.129 1.174 3.53 0.974 3.523 0.594 3.717 0.193 3.723-0.193 3.917-0.594 3.723-0.974 3.523-1.174 3.523-1.568 3.136-1.762 3.129-2.155 2.936-5.091 5.091-2.936 2.155-3.136 1.762-3.129 1.568-3.53 1.174-3.523 0.981-3.717 0.587-3.917 0.193-3.723-0.193-3.717-0.587-3.53-0.981-3.523-1.174-3.129-1.568-3.136-1.762-2.742-2.155-2.742-2.542-2.349-2.549-2.155-2.936-1.762-3.129-1.568-3.136-1.368-3.523-0.781-3.523-0.587-3.723-0.2-3.917 0.2-3.723 0.587-3.717 0.781-3.523 1.368-3.53 1.568-3.129 1.762-3.136 2.155-2.742 2.349-2.736 2.742-2.356 2.742-2.148 3.136-1.762 3.129-1.568 3.523-1.375 3.53-0.781 3.717-0.587z"></path>
<path fill="#919397" d="M660.762 634.49v-4.898l4.304 0.193 4.311 0.587 3.917 0.981 3.917 1.368-1.762 4.704-1.962 4.504-2.936-0.981-3.136-0.781-3.323-0.394-3.33-0.193z"></path>
<path fill="#919397" d="M675.448 637.426l1.762-4.704 3.717 1.768 3.53 2.148 3.33 2.356 2.936 2.736-7.053 7.053-2.349-2.155-2.349-1.762-5.485-2.936z"></path>
<path fill="#919397" d="M687.192 645.259l3.53-3.53 2.742 2.943 2.542 3.129 2.155 3.523 1.762 3.723-4.697 1.955-4.504 1.962-3.136-5.292-1.762-2.542-2.155-2.349z"></path>
<path fill="#919397" d="M695.226 657.003l4.697-1.955 1.368 3.917 0.981 4.11 0.788 4.11 0.193 4.311h-9.989l-0.193-3.33-0.394-3.129-1.955-6.072z"></path>
<path fill="#919397" d="M698.162 671.496h5.091l-0.193 4.311-0.788 4.304-0.981 4.117-1.368 3.717-4.697-1.762-4.504-1.955 0.974-2.943 0.981-3.129 0.394-3.33 0.193-3.33z"></path>
<path fill="#919397" d="M695.226 686.183l4.697 1.762-1.762 3.723-2.155 3.523-2.542 3.33-2.742 2.936-7.053-7.046 2.155-2.356 1.762-2.349 3.136-5.478z"></path>
<path fill="#919397" d="M687.192 697.933l3.53 3.523-2.936 2.742-3.33 2.542-3.53 2.155-3.717 1.762-1.762-4.697-1.962-4.504 5.485-3.136 2.349-1.762 2.349-2.148z"></path>
<path fill="#919397" d="M675.448 705.96l1.762 4.697-3.723 1.375-4.11 0.974-4.311 0.788-4.304 0.193v-9.982l3.33-0.2 3.323-0.394 3.136-0.974 2.936-0.981z"></path>
<path fill="#919397" d="M660.762 708.896v5.091l-4.311-0.193-4.11-0.788-4.11-0.974-3.917-1.375 1.955-4.697 1.962-4.504 6.065 1.955 3.136 0.394 3.33 0.2z"></path>
<path fill="#919397" d="M646.269 705.96l-1.955 4.697-3.723-1.762-3.523-2.155-3.136-2.542-2.936-2.742 7.053-7.046 2.349 2.148 2.542 1.762 5.292 3.136z"></path>
<path fill="#919397" d="M634.518 697.933l-3.523 3.523-2.742-2.936-2.349-3.33-2.155-3.523-1.762-3.723 4.697-1.762 4.504-1.955 2.943 5.478 1.762 2.349 2.155 2.356z"></path>
<path fill="#919397" d="M626.684 686.183l-4.697 1.762-1.368-3.917-0.981-3.917-0.587-4.304-0.193-4.311h9.982l0.2 3.33 0.387 3.33 0.788 3.129 0.974 2.943z"></path>
<path fill="#919397" d="M623.748 671.496h-4.891l0.193-4.311 0.587-4.11 0.981-4.11 1.368-3.917 4.697 1.955 4.504 1.962-0.974 2.936-0.788 3.136-0.387 3.129-0.2 3.33z"></path>
<path fill="#919397" d="M626.684 657.003l-4.697-1.955 1.762-3.523 2.155-3.53 2.349-3.323 2.742-2.943 3.523 3.53 3.53 3.523-2.155 2.349-1.762 2.349-1.568 2.742-1.375 2.742z"></path>
<path fill="#919397" d="M634.518 645.259l-3.523-3.53 2.936-2.736 3.33-2.356 3.523-2.148 3.53-1.768 1.955 4.704 1.962 4.504-2.742 1.368-2.742 1.568-2.349 1.762-2.349 2.155z"></path>
<path fill="#919397" d="M646.269 637.426l-1.955-4.704 3.917-1.368 4.11-0.981 4.11-0.587 4.311-0.193v9.989l-3.33 0.193-3.136 0.394-3.129 0.781-2.936 0.981z"></path>
<path fill="#919397" d="M361.16 795.060l3.917 0.193 3.717 0.587 3.523 0.781 3.53 1.375 3.129 1.568 3.136 1.762 2.936 2.155 2.542 2.349 2.549 2.742 2.155 2.736 1.762 3.136 1.568 3.129 1.174 3.53 0.974 3.523 0.587 3.723 0.2 3.717-0.2 3.917-0.587 3.723-0.974 3.523-1.174 3.523-1.568 3.136-1.762 3.129-2.155 2.936-5.091 5.091-2.936 2.155-3.136 1.762-3.129 1.568-3.53 1.174-3.523 0.981-3.717 0.587-3.917 0.193-3.723-0.193-3.723-0.587-3.523-0.981-3.523-1.174-3.136-1.568-3.129-1.762-2.742-2.155-2.742-2.542-2.349-2.549-2.155-2.936-1.762-3.129-1.568-3.136-1.368-3.523-0.781-3.523-0.594-3.723-0.193-3.917 0.193-3.717 0.594-3.723 0.781-3.523 1.368-3.53 1.568-3.129 1.762-3.136 2.155-2.736 2.349-2.742 2.742-2.349 2.742-2.155 3.129-1.762 3.136-1.568 3.523-1.375 3.523-0.781 3.723-0.587z"></path>
<path fill="#919397" d="M361.16 795.060v-4.898l4.304 0.193 4.311 0.587 3.917 0.981 3.917 1.375-1.762 4.697-1.962 4.504-2.936-0.981-3.136-0.781-3.323-0.394-3.33-0.193z"></path>
<path fill="#919397" d="M375.846 797.996l1.762-4.697 3.717 1.762 3.53 2.148 3.323 2.356 2.943 2.736-7.053 7.053-2.349-2.155-2.349-1.762-5.485-2.936z"></path>
<path fill="#919397" d="M387.59 805.83l3.53-3.53 2.736 2.943 2.549 3.129 2.155 3.523 1.762 3.723-4.697 1.955-4.504 1.962-3.136-5.285-1.762-2.549-2.155-2.349z"></path>
<path fill="#919397" d="M395.624 817.574l4.697-1.955 1.368 3.917 0.981 4.11 0.781 4.11 0.2 4.311h-9.989l-0.193-3.33-0.394-3.129-1.955-6.072z"></path>
<path fill="#919397" d="M398.56 832.067h5.091l-0.2 4.311-0.781 4.304-0.981 4.117-1.368 3.717-4.697-1.762-4.504-1.955 0.974-2.943 0.981-3.129 0.394-3.33 0.193-3.33z"></path>
<path fill="#919397" d="M395.624 846.753l4.697 1.762-1.762 3.723-2.155 3.523-2.549 3.33-2.736 2.936-7.053-7.046 2.155-2.349 1.762-2.356 3.136-5.478z"></path>
<path fill="#919397" d="M387.59 858.504l3.53 3.523-2.943 2.742-3.323 2.549-3.53 2.148-3.717 1.762-1.762-4.697-1.962-4.504 5.485-3.129 2.349-1.768 2.349-2.148z"></path>
<path fill="#919397" d="M375.846 866.531l1.762 4.697-3.723 1.375-4.11 0.981-4.311 0.781-4.304 0.193v-9.982l3.33-0.2 3.323-0.387 3.136-0.981 2.936-0.981z"></path>
<path fill="#919397" d="M361.16 869.467v5.091l-4.311-0.193-4.11-0.781-4.117-0.981-3.91-1.375 1.955-4.697 1.955-4.504 6.072 1.962 3.136 0.387 3.33 0.2z"></path>
<path fill="#919397" d="M346.667 866.531l-1.955 4.697-3.723-1.762-3.523-2.148-3.136-2.549-2.936-2.742 7.046-7.046 2.356 2.148 2.542 1.768 5.285 3.129z"></path>
<path fill="#919397" d="M334.916 858.504l-3.523 3.523-2.742-2.936-2.349-3.33-2.155-3.523-1.762-3.723 4.697-1.762 4.504-1.955 2.936 5.478 1.768 2.356 2.148 2.349z"></path>
<path fill="#919397" d="M327.083 846.753l-4.697 1.762-1.368-3.917-0.981-3.917-0.587-4.304-0.2-4.311h9.989l0.193 3.33 0.394 3.33 0.788 3.129 0.974 2.943z"></path>
<path fill="#919397" d="M324.147 832.067h-4.898l0.2-4.311 0.587-4.11 0.981-4.11 1.368-3.917 4.697 1.955 4.504 1.962-0.974 2.936-0.788 3.136-0.394 3.129-0.193 3.33z"></path>
<path fill="#919397" d="M327.083 817.574l-4.697-1.955 1.762-3.523 2.155-3.523 2.349-3.33 2.742-2.943 7.046 7.053-2.148 2.349-1.768 2.349-1.561 2.742-1.375 2.742z"></path>
<path fill="#919397" d="M334.916 805.83l-3.523-3.53 2.936-2.736 3.33-2.356 3.523-2.148 3.53-1.762 1.955 4.697 1.955 4.504-2.736 1.368-2.742 1.568-2.349 1.762-2.356 2.155z"></path>
<path fill="#919397" d="M346.667 797.996l-1.955-4.697 3.91-1.375 4.117-0.981 4.11-0.587 4.311-0.193v9.989l-3.33 0.193-3.136 0.394-3.129 0.781-2.943 0.981z"></path>
<path fill="#3260a3" d="M827.992 234.431h163.313l17.422 0.387 8.227 0.587 8.027 0.981 7.834 0.981 7.44 1.368 7.247 1.568 6.853 1.762 6.659 2.155 6.266 2.155 6.072 2.542 5.678 2.742 5.478 3.136 5.292 3.129 4.891 3.53 4.704 3.717 4.304 3.917 4.117 4.311 3.917 4.504 3.523 4.697 3.129 4.898 3.136 5.091 2.542 5.478 2.549 5.678 1.955 5.879 1.962 6.266 1.568 6.459 1.174 6.659 0.974 6.853 0.788 7.053 0.394 7.44 0.193 7.633-0.193 7.834-0.394 7.64-0.587 7.247-0.981 7.24-1.174 6.853-1.568 6.466-1.762 6.459-1.955 6.072-2.356 5.872-2.542 5.485-2.936 5.485-3.136 5.091-3.33 4.697-3.717 4.704-3.917 4.304-4.11 4.11-4.504 3.917-4.898 3.53-5.485 3.323-5.678 3.136-6.072 2.742-6.652 2.742-6.853 2.349-7.447 2.155-7.834 1.762-8.027 1.568-8.614 1.368-9.008 1.174-9.402 0.781-9.789 0.594-10.182 0.387-10.576 0.2h-25.062v213.832h43.472v11.357h-170.359v-11.357h43.272v-453.513h-43.272v-11.163zM1045.54 393.433v-61.682l-0.386-18.797-0.587-8.227-0.788-7.633-0.974-7.053-1.174-6.266-1.375-5.678-1.568-5.091-1.955-4.504-2.155-3.917-2.742-3.523-2.936-3.136-3.136-2.542-3.717-2.349-3.917-1.762-4.311-1.181-4.891-1.174-5.485-0.781-6.266-0.781-7.053-0.587-7.827-0.587-8.421-0.394-9.208-0.193h-9.789v228.318h26.043l7.834-0.193 7.247-0.781 6.853-0.981 6.266-1.568 5.678-2.155 5.485-2.542 4.697-2.936 4.311-3.53 1.955-1.955 1.762-2.349 1.762-2.549 1.568-2.742 1.568-3.129 1.174-3.523 1.368-3.723 0.981-3.917 0.981-4.304 0.781-4.504 0.788-4.704 0.587-5.285 0.387-5.285 0.394-5.678 0.193-5.879v-6.266zM1484.373 338.998h-15.274l-2.155-11.557-2.742-10.77-3.129-9.982-3.53-9.008-3.917-8.621-4.497-7.633-4.898-6.853-5.285-6.072-5.879-5.285-6.459-4.704-7.053-3.917-7.633-3.323-8.421-2.549-8.815-1.762-9.395-0.981-9.989-0.387h-61.488v205.017h43.472l7.053-0.193 6.652-0.587 6.266-1.174 6.072-1.375 5.485-1.955 5.485-2.349 4.891-2.742 4.697-3.33 4.117-3.723 3.717-3.717 3.136-4.11 2.349-4.117 1.962-4.504 1.368-4.697 0.981-4.898 0.193-5.091v-18.603h15.274v152.744h-14.099v-4.504l-0.193-7.64-0.981-7.247-1.368-6.853-1.768-6.459-2.542-6.072-3.136-5.678-3.523-5.285-4.11-4.898-4.504-4.311-4.898-3.917-5.285-3.129-5.485-2.742-6.072-1.955-6.266-1.568-6.652-0.788-7.053-0.387h-45.234v236.352h49.344v11.357h-176.231v-11.357h43.272v-453.513h-43.272v-11.163h297.447v104.567zM1945.326 245.594h-44.446v453.513h43.272v11.357h-170.359v-11.357h43.472v-441.376h-2.155l-105.741 452.732h-19.191l-108.878-462.721h-1.955l0.587 423.753 0.781 4.311 0.981 3.717 1.368 3.523 1.568 2.943 1.962 2.742 2.155 2.148 2.542 1.962 3.136 1.568 3.523 1.561 4.11 1.174 4.311 0.788 5.091 0.587 5.478 0.394 5.879 0.193v11.357h-104.961v-11.357l5.879-0.193 5.285-0.394 4.898-0.587 4.304-0.788 4.11-1.174 3.53-1.561 2.936-1.568 2.742-1.962 2.349-2.148 1.955-2.742 1.568-2.943 1.375-3.523 0.974-3.717 0.788-4.311 0.387-4.504 0.2-5.091v-416.306h-43.279v-11.163h145.297l69.322 302.344h1.955l69.516-302.344h141.38v11.163z"></path>
<path fill="#191011" d="M820.745 765.293h19.191l3.917 0.394 3.523 0.781 2.936 1.568 2.349 2.155 1.962 2.736 1.368 3.33 0.788 3.917 0.193 4.704-0.193 4.697-0.788 4.11-1.368 3.523-1.762 2.943-2.356 2.148-3.323 1.568-3.917 0.788-4.704 0.387h-2.936v34.271h5.091v1.762h-19.971v-1.762h5.091v-72.258h-5.091v-1.762zM846.395 790.556v-12.732l-0.193-2.542-0.394-2.155-0.394-1.762-0.387-1.375-0.587-0.974-0.981-0.788-0.981-0.587-1.174-0.193-1.568-0.2-1.955-0.193h-2.155v36.226h3.136l1.762-0.193 1.568-0.394 1.174-0.781 1.174-0.981 0.781-1.568 0.587-2.155 0.394-2.936 0.193-3.717zM876.942 793.492l1.174-2.155 1.762-1.368 1.962-0.981 2.542-0.394 1.375 0.2 1.368 0.387 2.155 1.375 1.568 2.148 0.387 2.549-0.387 1.955-0.981 1.768-1.568 1.174-1.955 0.387-1.962-0.387-1.368-0.981-0.981-1.368-0.394-1.768 0.394-1.561 0.981-1.962 0.394-0.587 0.193-0.193-0.193-0.788-0.788-0.193-0.981 0.193-0.974 0.587-1.174 0.981-0.981 1.375-1.368 3.323-0.394 3.917v38.188h4.891v1.762h-18.99v-1.762h4.898v-47.976h-4.898v-1.762h14.099v3.917h0.193zM911.994 788.594l3.523 0.394 3.33 1.368 2.549 2.155 2.349 3.136 1.762 3.717 1.375 4.311 0.781 5.091 0.193 5.678-0.193 6.266-0.781 5.485-1.375 4.697-1.762 3.917-2.155 3.129-2.742 2.155-3.129 1.375-3.723 0.387-3.717-0.387-3.33-1.375-2.742-2.155-2.349-3.129-1.762-3.917-1.375-4.697-0.781-5.485-0.2-6.266 0.2-5.872 0.781-5.091 1.375-4.311 1.762-3.723 2.349-2.936 2.936-2.155 3.136-1.368 3.717-0.394zM918.259 829.524v-29.767l-0.387-2.349-0.394-2.155-0.781-1.762-0.788-1.375-1.174-0.781-1.368-0.587-1.375-0.193-1.568 0.193-1.174 0.587-1.174 0.981-0.974 1.368-0.788 1.568-0.587 1.955-0.193 2.155-0.2 2.549v27.218l0.2 2.155 0.193 2.155 1.375 3.523 0.974 1.368 1.174 0.981 1.174 0.587 1.375 0.193 1.368-0.193 1.375-0.587 0.974-0.781 0.981-1.375 0.788-1.568 0.587-1.762 0.386-4.303zM938.624 789.575l-0.387-3.136-0.2-2.736-0.193-1.962v-1.568l0.193-3.523 0.394-3.129 0.781-2.742 1.174-2.155 1.375-1.962 1.762-1.174 1.955-0.781 2.155-0.193 2.742 0.587 1.174 0.587 1.174 0.974 0.981 1.174 0.781 1.375 0.394 2.936-0.193 1.762-0.788 1.568-1.174 0.981-1.368 0.387-1.568-0.387-1.368-0.981-0.788-1.368-0.387-1.962 0.193-1.368 0.781-1.568 0.788-0.981 0.193-0.587-0.193-0.587-0.394-0.193-1.568-0.394-1.368 0.394-1.568 1.568-0.781 2.148-0.394 2.742 0.193 4.504 0.788 4.11 1.174 3.917 1.762 3.723h6.072v1.762h-5.091v47.976h5.091v1.762h-19.191v-1.762h5.091v-47.976h-5.091v-1.762h4.891zM987.775 816.793h-19.577v11.751l0.193 2.542 0.394 2.155 0.587 1.962 0.974 1.561 1.181 1.375 1.368 0.981 1.568 0.587 1.561 0.193 1.768-0.193 1.762-0.788 1.568-1.368 1.368-1.762 1.174-2.349 0.981-2.549 0.587-3.33 0.587-3.523h1.762l-0.394 4.311-0.981 3.717-1.174 2.936-1.368 2.549-1.762 1.955-1.962 1.375-2.542 0.781-2.742 0.193-3.723-0.387-3.129-1.375-2.742-2.155-2.349-2.936-1.762-3.917-1.375-4.504-0.781-5.478-0.193-6.072 0.193-6.072 0.781-5.285 1.174-4.504 1.768-3.723 2.148-2.936 2.742-2.155 3.136-1.368 3.523-0.394 3.136 0.394 2.936 1.368 2.155 2.155 1.955 3.136 1.568 3.917 1.174 4.891 0.587 5.678 0.193 6.659zM978.573 814.444v-15.467l-0.193-3.53-0.981-2.742-0.781-0.974-0.788-0.587-1.762-0.587-1.368 0.193-0.981 0.394-1.174 0.974-0.788 1.181-0.587 1.368-0.587 1.762-0.387 4.311v13.706h10.376zM1016.954 804.455l-0.587-3.129-0.981-2.936-0.981-2.356-1.368-1.955-1.368-1.568-1.768-0.981-1.762-0.781-1.955-0.193-2.349 0.387-1.762 1.375-1.181 1.955-0.387 2.549 0.387 2.742 1.375 2.542 0.981 1.375 1.561 1.762 2.155 1.955 2.742 2.349 4.898 4.898 1.955 2.542 1.568 2.356 1.368 2.349 0.788 2.349 0.587 2.349 0.193 2.349-0.193 3.33-0.587 2.742-1.174 2.155-1.568 1.762-1.762 1.368-2.155 0.981-2.155 0.587-2.542 0.193-4.311-0.387-3.523-1.375-1.568-0.781-0.981-0.193-0.974 0.387-0.2 0.587-0.193 0.981h-1.762v-17.429h1.762l0.587 3.917 0.981 3.136 1.174 2.936 1.368 2.349 1.568 1.762 1.762 1.375 1.962 0.781 2.148 0.193 2.549-0.387 1.955-1.375 1.375-2.155 0.387-2.736-0.193-1.768-0.394-1.762-0.781-1.762-0.981-1.568-1.368-1.762-1.762-1.955-2.349-2.349-2.742-2.349-2.155-2.155-1.962-2.155-1.561-1.962-1.375-2.148-0.974-1.962-0.788-2.155-0.394-1.955-0.193-1.962 0.193-3.129 0.788-2.549 0.981-2.349 1.561-1.762 1.762-1.368 1.962-1.174 1.955-0.587 1.962-0.2 2.155 0.2 1.955 0.387 3.523 1.568 0.981 0.394 0.781 0.193 0.594-0.193 0.387-0.2 0.394-1.368h1.762v14.88h-1.762zM1049.070 804.455l-0.587-3.129-0.788-2.936-1.174-2.356-1.368-1.955-1.375-1.568-1.762-0.981-1.762-0.781-1.955-0.193-2.356 0.387-1.762 1.375-1.174 1.955-0.387 2.549 0.387 2.742 1.375 2.542 0.974 1.375 1.568 1.762 2.155 1.955 2.742 2.349 2.542 2.549 2.356 2.349 1.955 2.542 1.568 2.356 1.368 2.349 0.788 2.349 0.587 2.349 0.193 2.349-0.193 3.33-0.587 2.742-1.174 2.155-1.568 1.762-1.762 1.368-2.155 0.981-2.155 0.587-2.542 0.193-4.311-0.387-3.523-1.375-1.568-0.781-0.981-0.193-0.981 0.387-0.193 0.587-0.193 0.981h-1.762v-17.429h1.762l0.587 3.917 0.974 3.136 1.181 2.936 1.368 2.349 1.568 1.762 1.762 1.375 1.955 0.781 2.155 0.193 2.549-0.387 1.955-1.375 1.375-2.155 0.387-2.736-0.193-1.768-0.394-1.762-0.781-1.762-0.981-1.568-1.368-1.762-1.762-1.955-2.356-2.349-2.736-2.349-2.155-2.155-1.962-2.155-1.568-1.962-1.368-2.148-0.981-1.962-0.781-2.155-0.394-1.955-0.193-1.962 0.193-3.129 0.788-2.549 0.974-2.349 1.568-1.762 1.762-1.368 1.962-1.174 1.955-0.587 1.962-0.2 2.148 0.2 1.962 0.387 3.523 1.568 0.981 0.394 0.781 0.193 0.587-0.193 0.394-0.2 0.394-1.368h1.762v14.88h-1.762zM1067.086 765.293l1.955 0.394 1.762 0.974 1.174 1.768 0.394 1.955-0.394 1.955-1.174 1.568-0.781 0.788-0.981 0.387-1.955 0.394-1.962-0.394-1.568-1.174-1.174-1.568-0.387-1.955 0.387-1.955 1.174-1.768 1.568-0.974 1.962-0.394zM1076.681 841.075h-18.997v-1.762h4.898v-47.976h-4.898v-1.762h13.906v49.738h5.091v1.762zM1098.414 788.594l3.723 0.394 3.129 1.368 2.742 2.155 2.349 3.136 1.762 3.717 1.375 4.311 0.781 5.091 0.193 5.678-0.193 6.266-0.781 5.485-1.375 4.697-1.762 3.917-2.349 3.129-2.742 2.155-3.129 1.375-3.917 0.387-3.723-0.387-3.129-1.375-2.742-2.155-2.349-3.129-1.768-3.917-1.368-4.697-0.781-5.485-0.2-6.266 0.2-5.872 0.781-5.091 1.368-4.311 1.768-3.723 2.349-2.936 2.742-2.155 3.323-1.368 3.723-0.394zM1104.873 829.524v-29.767l-0.387-2.349-0.394-2.155-0.781-1.762-0.981-1.375-1.174-0.781-1.375-0.587-1.561-0.193-1.375 0.193-1.174 0.587-1.174 0.981-0.981 1.368-0.781 1.568-0.587 1.955-0.193 2.155-0.2 2.549v27.218l0.2 2.155 0.193 2.155 1.368 3.523 0.981 1.368 1.174 0.981 1.174 0.587 1.375 0.193 1.368-0.193 1.375-0.587 1.174-0.781 0.974-1.375 0.788-1.568 0.587-1.762 0.386-4.303zM1159.702 841.075h-17.229v-1.762h3.136v-40.923l-0.2-2.549-0.781-2.155-0.981-1.368-1.568-0.394-1.174 0.193-1.368 0.788-1.174 1.174-1.375 1.762-1.174 1.962-0.781 1.955-0.394 1.955-0.193 1.962v35.639h3.129v1.762h-17.229v-1.762h5.091v-47.976h-5.091v-1.762h14.099v7.046l2.155-3.523 2.542-2.542 2.742-1.375 3.129-0.587 2.155 0.2 1.962 0.587 1.762 1.174 1.368 1.368 0.981 1.762 0.781 1.962 0.394 2.349 0.193 2.742v38.575h5.091v1.762zM1196.715 833.635l-0.193 1.762-0.2 1.568-0.587 1.568-0.981 1.174-0.974 0.974-1.174 0.587-1.568 0.394-1.568 0.193-2.349-0.387-1.955-0.981-1.568-1.762-0.981-2.349-1.368 2.349-2.155 1.762-2.549 0.981-2.936 0.387-2.155-0.193-1.762-0.587-1.568-1.174-1.561-1.368-1.174-1.768-0.788-1.955-0.587-2.349-0.193-2.549 0.193-1.955 0.394-1.962 1.568-3.523 1.368-1.568 1.762-1.561 2.349-1.768 2.742-1.955 5.485-4.11 1.568-1.375 0.781-0.974v-13.125l-0.394-2.349-1.174-1.762-1.762-0.981-2.349-0.387-1.762 0.193-1.762 0.587-1.174 0.781-0.394 0.788 0.394 0.981 0.781 0.781 0.981 0.781 0.974 0.788 0.394 1.174 0.193 1.174-0.387 1.955-0.981 1.568-1.368 0.981-1.962 0.394-1.955-0.394-1.762-1.174-0.981-1.762-0.394-1.962 0.2-1.762 0.781-1.762 1.174-1.568 1.568-1.568 1.955-1.368 2.155-0.781 2.349-0.587 2.549-0.2 2.542 0.2 2.349 0.974 2.356 1.375 1.955 1.762 1.762 2.349 1.174 2.742 0.788 2.936 0.193 3.136v31.915l0.193 1.174 0.2 0.781 0.587 0.394 0.587 0.2 0.974-0.394 0.788-1.174 0.387-1.762 0.2-2.742h1.762v1.174zM1182.029 831.673v-19.971l-1.368 1.174-1.768 1.568-1.561 1.368-1.174 1.174-1.768 2.155-0.781 2.549-0.193 2.936v8.421l0.193 2.349 0.781 1.762 1.181 0.981 1.762 0.394 1.561-0.394 1.568-1.568 1.174-2.155 0.394-2.742zM1218.842 841.075h-18.997v-1.762h4.898v-72.258h-4.898v-1.762h14.099v74.020h4.898v1.762zM1258.591 781.935h-1.762l-0.587-3.523-0.974-3.129-0.981-2.549-1.174-2.155-1.375-1.561-1.762-0.981-1.955-0.788-2.349-0.193h-7.247v32.509h5.091l1.568-0.2 1.561-0.387 1.174-0.587 1.174-0.981 0.981-1.174 0.788-1.375 0.193-1.368 0.193-1.568v-2.936h1.762v24.282h-1.561v-0.788l-0.2-2.349-0.387-2.148-0.587-1.962-0.981-1.568-1.174-1.368-1.174-0.788-1.568-0.587-1.568-0.193h-5.285v37.794h5.872v1.762h-20.759v-1.762h5.091v-72.258h-5.091v-1.762h35.051v16.641zM1272.103 765.293l1.962 0.394 1.762 0.974 0.981 1.768 0.387 1.955-0.387 1.955-0.981 1.568-0.781 0.788-0.981 0.387-1.962 0.394-1.955-0.394-1.568-1.174-1.174-1.568-0.394-1.955 0.394-1.955 1.174-1.768 1.568-0.974 1.955-0.394zM1281.698 841.075h-18.99v-1.762h4.891v-47.976h-4.891v-1.762h13.899v49.738h5.091v1.762zM1324.784 841.075h-17.236v-1.762h3.136v-40.923l-0.2-2.549-0.587-2.155-1.174-1.368-1.368-0.394-1.174 0.193-1.375 0.788-1.174 1.174-1.368 1.762-1.174 1.962-0.788 1.955-0.587 1.955-0.193 1.962v35.639h3.33v1.762h-17.236v-1.762h4.898v-47.976h-4.898v-1.762h13.906v7.046l2.155-3.523 2.542-2.542 2.936-1.375 3.136-0.587 2.155 0.2 1.955 0.587 1.568 1.174 1.368 1.368 0.981 1.762 0.981 1.962 0.394 2.349 0.193 2.742v38.575h4.898v1.762zM1361.79 833.635l-0.193 1.762-0.2 1.568-1.368 2.742-1.174 0.974-1.174 0.587-1.568 0.394-1.568 0.193-2.349-0.387-1.955-0.981-1.375-1.762-0.981-2.349-1.561 2.349-2.155 1.762-2.549 0.981-2.936 0.387-1.955-0.193-1.762-0.587-1.768-1.174-1.368-1.368-1.174-1.768-0.781-1.955-0.594-2.349-0.193-2.549 0.193-1.955 0.394-1.962 1.568-3.523 1.368-1.568 1.768-1.561 2.148-1.768 2.742-1.955 5.485-4.11 1.568-1.375 0.781-0.974v-13.125l-0.394-2.349-0.387-0.981-0.788-0.781-1.762-0.981-2.349-0.387-1.762 0.193-1.568 0.587-1.174 0.781-0.394 0.788 0.394 0.981 0.781 0.781 0.981 0.781 0.788 0.788 0.387 1.174 0.2 1.174-0.2 1.955-0.981 1.568-1.561 0.981-1.762 0.394-2.155-0.394-1.568-1.174-0.981-1.762-0.387-1.962 0.193-1.762 0.781-1.762 1.174-1.568 1.568-1.568 1.962-1.368 1.955-0.781 2.349-0.587 2.549-0.2 2.742 0.2 2.349 0.974 2.155 1.375 2.148 1.762 1.568 2.349 1.174 2.742 0.788 2.936 0.193 3.136v31.915l0.193 1.174 0.2 0.781 0.587 0.394 0.781 0.2 0.981-0.394 0.781-1.174 0.394-1.762 0.193-2.742h1.568v1.174zM1347.104 831.673v-19.971l-1.174 1.174-1.962 1.568-2.736 2.542-0.981 1.181-0.587 0.974-0.788 2.549-0.193 2.936v8.421l0.193 2.349 0.788 1.762 1.174 0.981 1.568 0.394 1.561-0.394 1.568-1.568 0.788-0.981 0.387-1.174 0.394-2.742zM1404.281 841.075h-17.229v-1.762h3.129v-40.923l-0.193-2.549-0.781-2.155-0.981-1.368-1.375-0.394-1.368 0.193-1.174 0.788-1.174 1.174-1.375 1.762-1.174 1.962-0.781 1.955-0.587 1.955-0.2 1.962v35.639h3.33v1.762h-17.422v-1.762h5.091v-47.976h-5.091v-1.762h14.092v7.046l2.155-3.523 2.549-2.542 2.936-1.375 3.136-0.587 2.148 0.2 1.962 0.587 1.568 1.174 1.368 1.368 0.981 1.762 0.974 1.962 0.394 2.349 0.2 2.742v38.575h4.891v1.762zM1437.571 824.82l-0.587 4.311-0.587 3.523-0.981 2.936-1.174 2.349-1.568 1.768-1.762 1.174-2.542 0.781-2.742 0.193-3.523-0.387-3.136-1.375-2.742-2.155-2.349-2.936-1.762-3.917-1.368-4.504-0.788-5.478-0.193-6.072 0.193-5.872 0.788-5.292 1.368-4.504 1.962-3.717 2.349-3.136 2.936-2.155 3.129-1.368 3.723-0.394 2.155 0.2 2.155 0.587 1.762 0.781 1.568 0.981 1.368 1.368 0.781 1.762 0.587 1.762 0.2 2.155-0.394 2.155-1.174 1.762-1.568 1.174-1.955 0.394-1.568-0.394-1.375-0.981-0.974-1.368-0.394-1.568 0.193-1.561 0.788-1.375 0.981-0.981 1.368-0.587 1.174-0.387 0.394-0.788-0.394-0.981-1.368-1.174-1.768-0.781-2.542-0.193-1.368 0.193-1.181 0.587-1.174 0.781-1.174 1.375-0.974 1.568-0.587 1.762-0.394 3.917v27.805l0.193 2.542 0.394 2.155 0.587 1.962 0.981 1.561 1.174 1.375 1.368 0.981 1.375 0.587 1.561 0.193 1.762-0.193 1.568-0.788 1.375-1.174 1.174-1.568 0.981-2.148 0.781-2.549 0.587-3.129 0.394-3.53h1.955zM1452.652 765.293l1.955 0.394 1.762 0.974 0.981 1.768 0.394 1.955-0.394 1.955-0.981 1.568-1.762 1.174-1.955 0.394-1.962-0.394-1.561-1.174-1.181-1.568-0.387-1.955 0.387-1.955 1.181-1.768 1.561-0.974 1.962-0.394zM1462.247 841.075h-19.191v-1.762h5.091v-47.976h-5.091v-1.762h14.099v49.738h5.091v1.762zM1499.253 833.635l-0.193 1.762-0.193 1.568-0.594 1.568-0.974 1.174-0.981 0.974-1.174 0.587-1.568 0.394-1.568 0.193-2.349-0.387-1.955-0.981-1.568-1.762-0.781-2.349-1.568 2.349-2.155 1.762-2.542 0.981-2.943 0.387-2.148-0.193-1.768-0.587-1.561-1.174-1.568-1.368-1.174-1.768-0.788-1.955-0.587-2.349-0.193-2.549 0.193-1.955 0.394-1.962 1.568-3.523 1.368-1.568 1.762-1.561 2.356-1.768 2.736-1.955 5.485-4.11 1.568-1.375 0.781-0.974v-13.125l-0.387-2.349-1.181-1.762-1.762-0.981-2.349-0.387-1.762 0.193-1.762 0.587-1.174 0.781-0.394 0.788 0.394 0.981 0.781 0.781 1.174 0.781 0.788 0.788 0.387 1.174 0.2 1.174-0.394 1.955-0.981 1.568-1.368 0.981-1.962 0.394-1.955-0.394-1.568-1.174-1.174-1.762-0.394-1.962 0.2-1.762 0.781-1.762 1.174-1.568 1.568-1.568 1.962-1.368 2.148-0.781 2.349-0.587 2.549-0.2 2.542 0.2 2.356 0.974 2.349 1.375 1.955 1.762 1.762 2.349 1.174 2.742 0.788 2.936 0.193 3.136v31.915l0.2 1.174 0.193 0.781 0.587 0.394 0.781 0.2 0.981-0.394 0.587-1.174 0.394-1.762 0.193-2.742h1.762v1.174zM1484.567 831.673v-19.971l-1.174 1.174-1.955 1.568-2.742 2.542-1.762 2.155-0.788 2.549-0.193 2.936v8.421l0.193 2.349 0.788 1.762 1.174 0.981 1.762 0.394 1.568-0.394 1.561-1.568 1.181-2.155 0.387-2.742zM1521.38 841.075h-18.99v-1.762h5.091v-72.258h-5.091v-1.762h14.099v74.020h4.891v1.762zM1576.015 767.055h-5.285v72.258h5.091v1.762h-19.978v-1.762h5.091v-70.296h-0.193l-12.531 72.058h-2.349l-12.732-73.626h-0.193v65.993l0.193 2.736 0.394 0.981 0.394 0.781 0.781 0.594 0.781 0.387 2.549 0.394v1.762h-12.531v-1.762l2.542-0.394 0.788-0.387 0.781-0.594 0.394-0.781 0.387-0.981 0.2-2.736v-66.386h-5.091v-1.762h17.229l8.227 47.976h0.193l8.227-47.976h16.641v1.762zM1613.616 833.635l-0.2 1.762-0.193 1.568-1.375 2.742-1.174 0.974-1.174 0.587-1.568 0.394-1.561 0.193-2.349-0.387-1.962-0.981-1.368-1.762-0.981-2.349-1.568 2.349-2.155 1.762-2.542 0.981-2.936 0.387-1.962-0.193-1.762-0.587-1.762-1.174-1.368-1.368-1.181-1.768-0.974-1.955-0.394-2.349-0.193-2.549 0.587-3.917 0.587-1.762 0.974-1.762 1.375-1.568 1.762-1.561 2.155-1.768 2.742-1.955 5.478-4.11 1.568-1.375 0.788-0.974v-13.125l-0.394-2.349-1.174-1.762-1.762-0.981-2.349-0.387-1.768 0.193-1.561 0.587-1.375 0.781-0.387 0.788 0.387 0.981 0.788 0.781 1.174 0.781 0.781 0.788 0.394 1.174 0.193 1.174-0.193 1.955-0.981 1.568-1.568 0.981-1.762 0.394-2.155-0.394-1.561-1.174-0.981-1.762-0.394-1.962 0.193-1.762 0.788-1.762 0.981-1.568 1.561-1.568 1.962-1.368 2.155-0.781 2.349-0.587 2.542-0.2 2.549 0.2 2.349 0.974 2.349 1.375 1.962 1.762 1.762 2.349 1.174 2.742 0.781 2.936 0.193 3.136v31.915l0.2 1.174 0.193 0.781 0.587 0.394 0.788 0.2 0.974-0.394 0.788-1.174 0.193-1.762 0.193-2.742h1.768v1.174zM1598.929 831.673v-19.971l-1.174 1.174-1.962 1.568-2.742 2.542-0.981 1.181-0.587 0.974-0.781 2.549-0.394 2.936v8.421l0.2 2.349 0.781 1.762 1.174 0.981 1.762 0.394 1.568-0.394 1.568-1.568 0.781-0.981 0.394-1.174 0.394-2.742zM1656.107 841.075h-17.236v-1.762h3.136v-40.923l-0.2-2.549-0.781-2.155-0.981-1.368-1.368-0.394-1.375 0.193-1.174 0.788-1.174 1.174-1.368 1.762-1.174 1.962-0.788 1.955-0.587 1.955-0.193 1.962v35.639h3.33v1.762h-17.429v-1.762h5.091v-47.976h-5.091v-1.762h14.099v7.046l2.155-3.523 2.542-2.542 2.943-1.375 3.129-0.587 2.155 0.2 1.762 0.587 1.762 1.174 1.375 1.368 0.974 1.762 0.788 1.962 0.387 2.349 0.2 2.742v38.575h5.091v1.762zM1693.314 833.635l-0.2 1.762-0.193 1.568-1.375 2.742-1.174 0.974-1.174 0.587-1.561 0.394-1.568 0.193-2.349-0.387-1.962-0.981-1.368-1.762-0.981-2.349-1.568 2.349-2.155 1.762-2.542 0.981-2.936 0.387-1.962-0.193-1.762-0.587-1.762-1.174-1.368-1.368-1.181-1.768-0.974-1.955-0.394-2.349-0.193-2.549 0.587-3.917 0.587-1.762 0.981-1.762 1.368-1.568 1.762-1.561 2.155-1.768 2.742-1.955 5.478-4.11 1.568-1.375 0.788-0.974v-13.125l-0.394-2.349-1.174-1.762-1.762-0.981-2.349-0.387-1.768 0.193-1.561 0.587-1.375 0.781-0.387 0.788 0.387 0.981 0.788 0.781 1.174 0.781 0.781 0.788 0.394 1.174 0.193 1.174-0.394 1.955-0.974 1.568-1.375 0.981-1.762 0.394-2.155-0.394-1.561-1.174-1.181-1.762-0.387-1.962 0.193-1.762 0.788-1.762 1.174-1.568 1.561-1.568 1.962-1.368 2.155-0.781 2.349-0.587 2.542-0.2 2.549 0.2 2.349 0.974 2.349 1.375 1.962 1.762 1.762 2.349 1.174 2.742 0.781 2.936 0.2 3.136v31.915l0.193 1.174 0.193 0.781 0.587 0.394 0.788 0.2 0.974-0.394 0.587-1.174 0.394-1.762 0.193-2.742h1.768v1.174zM1678.627 831.673v-19.971l-1.181 1.174-1.955 1.568-2.742 2.542-0.981 1.181-0.587 0.974-0.781 2.549-0.394 2.936v8.421l0.2 2.349 0.781 1.762 1.174 0.981 1.762 0.394 1.568-0.394 1.568-1.568 1.174-2.155 0.394-2.742zM1723.661 793.299l1.568-2.742 1.762-1.962 1.762-1.174 1.962-0.394 1.762 0.394 1.368 0.981 0.981 1.568 0.394 1.762-0.2 1.762-0.781 1.568-0.981 0.974-1.368 0.2-1.375-0.2-0.781-0.387-0.781-0.981-0.788-2.349-0.974-0.394-0.394 0.193-0.587 0.587-0.587 0.788-0.788 1.174 1.568 3.136 1.174 3.129 0.788 3.523 0.193 3.723-0.193 4.11-0.788 3.723-1.368 3.523-1.762 2.936-2.155 2.349-2.549 1.762-2.742 0.981-3.129 0.394-2.155-0.2-2.155-0.587h-2.742l-3.129 0.788-0.981 0.781-0.981 0.788-0.587 0.974-0.387 1.174-0.2 1.375 0.394 1.762 1.368 1.174 2.155 0.781 3.136 0.2 8.614-0.2h7.64l2.349 0.2 2.155 0.587 1.762 0.981 1.368 1.368 1.174 1.762 0.788 1.962 0.587 2.542 0.193 2.742-0.394 3.723-0.974 3.129-1.962 2.936-2.542 2.742-3.136 2.155-3.33 1.568-4.11 0.781-4.311 0.394-3.523-0.2-3.136-0.587-2.936-0.781-2.542-1.368-2.155-1.568-1.568-1.568-0.781-1.955-0.394-1.962 0.193-1.368 0.394-1.568 0.788-1.375 0.974-1.368 1.375-1.368 1.561-1.375 1.962-1.368 2.155-1.375-2.155-0.587-1.762-0.781-1.375-0.981-1.368-1.174-0.981-1.368-0.587-1.375-0.394-1.762-0.193-1.762 0.193-2.155 0.394-1.762 0.788-1.762 0.974-1.174 1.375-1.174 1.561-0.788 1.962-0.587 2.155-0.387-1.762-1.568-1.375-1.568-1.368-1.955-0.981-1.962-0.781-2.349-0.587-2.349-0.2-2.742-0.193-2.936 0.193-4.11 0.788-3.723 1.368-3.136 1.762-2.936 2.155-2.542 2.549-1.762 2.736-0.981 3.136-0.394 2.742 0.394 2.542 0.781 2.349 1.568 2.155 1.962zM1719.551 819.929v-23.308l-0.394-2.349-1.368-1.762-1.962-1.368-1.955-0.394-2.155 0.394-1.762 1.174-1.368 1.762-0.394 2.155v23.888l0.394 2.155 1.368 1.955 1.762 1.174 2.155 0.394 1.955-0.394 1.962-1.368 1.368-1.762 0.394-2.349zM1708.781 845.579l-2.549 1.955-2.148 2.549-1.375 2.549-0.394 2.349 0.2 2.148 0.587 1.768 0.981 1.368 1.368 1.368 1.568 1.181 1.762 0.781 1.955 0.394 2.155 0.193 3.723-0.193 3.33-0.788 3.129-1.174 2.742-1.568 2.349-1.955 1.568-2.155 0.781-2.349 0.394-2.549-0.394-2.349-0.387-0.974-0.788-0.788-1.955-1.174-2.549-0.394h-15.467l-0.587-0.193zM1768.114 816.793h-19.384v11.751l0.193 2.542 0.394 2.155 0.587 1.962 0.974 1.561 1.181 1.375 1.368 0.981 1.368 0.587 1.568 0.193 1.762-0.193 1.762-0.788 1.568-1.368 1.375-1.762 1.174-2.349 0.974-2.549 0.788-3.33 0.387-3.523h1.962l-0.587 4.311-0.788 3.717-1.174 2.936-1.368 2.549-1.762 1.955-2.155 1.375-2.349 0.781-2.936 0.193-3.53-0.387-3.129-1.375-2.742-2.155-2.349-2.936-1.762-3.917-1.375-4.504-0.781-5.478-0.193-6.072 0.193-6.072 0.781-5.285 1.174-4.504 1.768-3.723 2.148-2.936 2.742-2.155 2.936-1.368 3.53-0.394 3.33 0.394 2.736 1.368 2.356 2.155 1.955 3.136 1.568 3.917 0.981 4.891 0.587 5.678 0.193 6.659zM1758.913 814.444v-15.467l-0.2-3.53-0.974-2.742-0.587-0.974-0.788-0.587-1.955-0.587-1.174 0.193-1.174 0.394-0.981 0.974-0.788 1.181-0.781 1.368-0.394 1.762-0.387 2.155v15.861h10.182zM1833.319 841.075h-17.229v-1.762h3.129v-40.923l-0.193-2.549-0.587-2.155-1.174-1.368-1.375-0.394-1.174 0.193-1.368 0.788-1.174 1.174-1.375 1.762-1.174 1.962-0.781 1.955-0.587 1.762-0.193 1.962v35.832h3.323v1.762h-15.467v-1.762h3.136v-40.923l-0.2-2.549-0.781-2.155-0.981-1.368-1.368-0.394-1.375 0.193-1.174 0.788-1.174 1.174-1.368 1.762-1.174 1.962-0.788 1.955-0.587 1.762-0.193 1.962v35.832h3.129v1.762h-17.229v-1.762h5.091v-47.583h-5.091v-2.155h14.099v7.046l2.155-3.523 2.542-2.542 2.936-1.568 3.136-0.394 1.762 0.2 1.762 0.387 1.375 0.587 1.174 0.981 1.174 1.174 0.781 1.375 0.587 1.762 0.394 1.955 2.349-3.717 2.742-2.549 2.936-1.568 3.136-0.587 2.148 0.2 1.962 0.587 1.568 0.974 1.368 1.375 0.981 1.762 0.781 2.155 0.394 2.349 0.193 2.742v38.575h5.091v1.762zM1867.984 816.793h-19.584v11.751l0.193 2.542 0.394 2.155 0.587 1.962 0.981 1.561 1.174 1.375 1.368 0.981 1.568 0.587 1.568 0.193 1.762-0.193 1.762-0.788 1.568-1.368 1.368-1.762 1.174-2.349 0.788-2.549 0.781-3.33 0.394-3.523h1.955l-0.387 4.311-0.981 3.717-1.174 2.936-1.375 2.549-1.762 1.955-1.955 1.375-2.549 0.781-2.936 0.193-3.523-0.387-3.136-1.375-2.742-2.155-2.349-2.936-1.762-3.917-1.368-4.504-0.788-5.478-0.193-6.072 0.193-6.072 0.788-5.285 1.174-4.504 1.762-3.723 2.155-2.936 2.742-2.155 2.936-1.368 3.523-0.394 3.33 0.394 2.742 1.368 2.349 2.155 1.955 3.136 1.568 3.917 1.174 4.891 0.587 5.678 0.2 6.659zM1858.775 814.444v-15.467l-0.387-3.53-0.394-1.368-0.587-1.375-0.587-0.974-0.788-0.587-0.974-0.394-0.981-0.193-1.174 0.193-1.174 0.394-0.981 0.974-0.781 1.181-0.587 1.368-0.587 1.762-0.2 2.155-0.193 2.155v13.706h10.376zM1912.824 841.075h-17.236v-1.762h3.136v-40.923l-0.193-2.549-0.587-2.155-1.174-1.368-1.375-0.394-1.368 0.193-1.174 0.788-1.174 1.174-1.375 1.762-1.174 1.962-0.781 1.955-0.587 1.955-0.2 1.962v35.639h3.33v1.762h-17.429v-1.762h5.091v-47.976h-5.091v-1.762h14.099v7.046l2.155-3.523 2.549-2.542 2.936-1.375 3.129-0.587 2.155 0.2 1.962 0.587 1.561 1.174 1.375 1.368 0.981 1.762 0.974 1.962 0.394 2.349 0.193 2.742v38.575h4.898v1.762zM1939.061 830.699l-0.387 2.542-0.788 2.349-0.974 1.962-0.981 1.568-1.375 1.368-1.561 0.781-1.568 0.587-1.962 0.2-1.561-0.2-1.375-0.387-1.174-0.788-1.174-0.974-0.981-1.174-0.587-1.375-0.387-3.523v-42.298h-6.072v-1.762h6.072v-14.293h9.008v14.293h6.065v1.762h-6.065v46.014l0.387 0.587 0.394 0.394 0.587 0.2 1.568-0.594 1.174-1.368 0.981-2.542 0.781-3.33h1.955z"></path>
</svg>
