<!-- Generated by IcoMoon.io -->
<svg version="1.1" xmlns="http://www.w3.org/2000/svg" width="100" height="100" viewBox="0 0 31 32">
<title>marker</title>
<path fill="#0071bc" d="M24.105 14.253c0-5.093-4.129-9.223-9.223-9.223s-9.223 4.129-9.223 9.223c0 2.571 1.103 5.088 3.017 6.811 1.805 1.625 3.881 3.006 5.804 4.49 0.025 0.019 0.512 0.429 0.534 0.412 1.201-0.97 2.404-1.94 3.605-2.909 1.135-0.916 2.396-1.761 3.339-2.888 0.856-1.024 1.519-2.265 1.85-3.559 0.193-0.755 0.297-1.575 0.297-2.356z"></path>
<path fill="#fff" d="M17.649 10.157l-0.032-0.019-0.041-0.019 0.038 0.023z"></path>
<path fill="#fff" d="M12.248 18.317l-0.068-0.047-0.071-0.055-0.077-0.064-0.085-0.068-0.095-0.078-0.105-0.088-0.115-0.098-0.129-0.108-0.223-0.182-0.081-0.068-0.087-0.071-0.088-0.074-0.098-0.078-0.101-0.081-0.105-0.088-0.086-0.068 0.11-0.443-0.485-0.166-0.023-0.111-0.023-0.122-0.023-0.118-0.024-0.115-0.023-0.105-0.020-0.101-0.040-0.189-0.041-0.169-0.034-0.156-0.030-0.135-0.028-0.125-0.027-0.109-0.020-0.101-0.017-0.091-0.018-0.081-0.010-0.078-0.010-0.071-0.003-0.135-0.007 0.135-0.010 0.071-0.010 0.078-0.017 0.081-0.017 0.091-0.021 0.101-0.027 0.109-0.027 0.125-0.030 0.135-0.034 0.156-0.040 0.169-0.041 0.189-0.020 0.101-0.023 0.105-0.023 0.115-0.048 0.241-0.027 0.132 0.005 0.040-0.049 0.034-0.051 0.047-0.047 0.050-0.041 0.058-0.037 0.061-0.030 0.060-0.024 0.068-0.017 0.071-0.010 0.070-0.003 0.075 0.003 0.075 0.010 0.074 0.017 0.068 0.024 0.068 0.030 0.064 0.037 0.061 0.041 0.058 0.047 0.050 0.051 0.047 0.054 0.044 0.061 0.037 0.064 0.031 0.068 0.023 0.071 0.017 0.070 0.013 0.075 0.003 0.075-0.003 0.075-0.013 0.070-0.017 0.065-0.023 0.044-0.021 0.041 0.028 0.135 0.044 0.132 0.040 0.122 0.038 0.118 0.037 0.115 0.034 0.105 0.030 0.101 0.030 0.098 0.031 0.179 0.050 0.162 0.047 0.278 0.078 0.115 0.034 0.108 0.034 0.095 0.027 0.163 0.058 0.074 0.030 0.132 0.060-0.129-0.074z"></path>
<path fill="#fff" d="M9.856 14.074l0.010-0.078 0.018-0.081 0.017-0.091 0.020-0.098 0.027-0.112 0.028-0.122 0.030-0.138 0.034-0.153 0.041-0.169 0.040-0.189 0.006-0.028 0.001 0.002 0.091 0.118 0.091 0.125 0.175 0.257 0.078 0.125 0.071 0.122 0.061 0.118 0.050 0.108-0.017-0.047-0.017-0.051-0.034-0.115-0.027-0.132-0.027-0.138-0.027-0.153-0.024-0.152-0.037-0.309-0.017-0.148-0.013-0.138-0.010-0.125-0.011-0.112-0.003-0.050-0.003-0.044-0.003-0.038-0.003-0.030v-0.027l-0.003-0.018v-0.017l-0.018-0.036 0.035-0.059 0.011-0.022 0.044-0.002 0.115-0.044 0.111-0.044 0.105-0.040 0.098-0.041 0.186-0.074 0.166-0.068 0.152-0.061 0.135-0.057 0.122-0.051 0.108-0.044 0.098-0.040 0.088-0.034 0.081-0.034 0.071-0.023 0.071-0.024 0.064-0.017 0.122-0.027-0.125 0.010-0.067 0.003h-0.071l-0.078-0.003-0.085-0.007-0.095-0.007-0.105-0.007-0.118-0.013-0.132-0.010-0.145-0.014-0.14-0.008 1.16-0.925-0.132 0.061-0.075 0.030-0.077 0.028-0.085 0.030-0.095 0.030-0.105 0.030-0.118 0.034-0.128 0.037-0.146 0.044-0.162 0.047-0.179 0.051-0.095 0.030-0.101 0.030-0.108 0.031-0.111 0.034-0.118 0.037-0.126 0.038-0.128 0.040-0.135 0.044-0.039 0.026-0.046-0.023-0.068-0.023-0.067-0.017-0.075-0.010-0.075-0.003-0.075 0.003-0.070 0.010-0.071 0.017-0.068 0.023-0.060 0.031-0.061 0.037-0.057 0.040-0.051 0.048-0.047 0.050-0.041 0.058-0.037 0.061-0.030 0.060-0.024 0.068-0.017 0.070-0.010 0.071-0.003 0.075 0.003 0.075 0.010 0.074 0.017 0.068 0.024 0.068 0.030 0.064 0.037 0.061 0.041 0.057 0.047 0.051 0.051 0.047 0.049 0.040-0.005 0.041 0.027 0.129 0.024 0.125 0.023 0.118 0.023 0.111 0.023 0.108 0.020 0.101 0.041 0.189 0.040 0.169 0.034 0.153 0.030 0.138 0.027 0.122 0.027 0.112 0.021 0.098 0.017 0.091 0.017 0.081 0.010 0.078 0.010 0.071 0.007 0.135 0.003-0.135z"></path>
<path fill="#fff" d="M17.421 18.523l-0.078 0.028-0.087 0.030-0.095 0.027-0.105 0.034-0.116 0.034-0.132 0.037-0.142 0.044-0.163 0.047-0.179 0.051-0.098 0.030-0.055 0.016 0.542-0.969-0.085 0.085-0.047 0.044-0.055 0.040-0.057 0.048-0.142 0.098-0.085 0.054-0.095 0.065-0.22 0.145-0.129 0.088-0.142 0.095-0.156 0.108-0.084 0.058-0.088 0.064-0.091 0.065-0.095 0.068-0.027 0.035-0.013-0.002-0.075-0.003-0.075 0.003-0.013 0.002-0.027-0.035-0.098-0.068-0.091-0.065-0.088-0.060-0.085-0.058-0.155-0.108-0.143-0.095-0.128-0.085-0.118-0.077-0.105-0.068-0.091-0.065-0.085-0.054-0.075-0.051-0.067-0.047-0.061-0.044-0.054-0.044-0.048-0.040-0.085-0.085 0.075 0.095 0.037 0.050 0.038 0.058 0.037 0.064 0.041 0.071 0.044 0.081 0.047 0.088 0.051 0.101 0.057 0.108 0.065 0.125 0.068 0.123-0.061-0.018-0.098-0.030-0.179-0.051-0.162-0.047-0.146-0.041-0.128-0.037-0.118-0.034-0.105-0.034-0.091-0.030-0.088-0.027-0.077-0.031-0.071-0.027-0.132-0.065 0.125 0.075 0.064 0.044 0.068 0.050 0.071 0.055 0.078 0.060 0.084 0.071 0.095 0.078 0.101 0.088 0.118 0.098 0.129 0.105 0.142 0.122 0.078 0.064 0.085 0.068 0.084 0.071 0.091 0.074 0.098 0.078 0.101 0.081 0.105 0.085 0.111 0.088 0.044 0.017 0.007 0.050 0.017 0.068 0.023 0.068 0.031 0.064 0.037 0.061 0.040 0.057 0.048 0.051 0.050 0.047 0.055 0.044 0.060 0.037 0.065 0.030 0.068 0.024 0.070 0.017 0.071 0.013 0.075 0.003 0.075-0.003 0.074-0.013 0.071-0.017 0.065-0.024 0.064-0.030 0.061-0.037 0.057-0.044 0.051-0.047 0.047-0.051 0.044-0.057 0.037-0.061 0.030-0.064 0.024-0.065 0.017-0.071 0.009-0.053 0.041-0.018 0.111-0.088 0.105-0.088 0.101-0.081 0.095-0.078 0.091-0.074 0.088-0.071 0.081-0.068 0.078-0.064 0.145-0.118 0.128-0.109 0.115-0.097 0.101-0.088 0.095-0.078 0.085-0.071 0.078-0.060 0.071-0.055 0.067-0.050 0.065-0.044 0.125-0.075-0.132 0.065z"></path>
<path fill="#fff" d="M12.724 9.992l0.166-0.064 0.176-0.061 0.368-0.122 0.183-0.055 0.179-0.050 0.172-0.048 0.159-0.044 0.145-0.038 0.068-0.017 0.061-0.013 0.054-0.013 0.051-0.013 0.040-0.010 0.037-0.007 0.031-0.007 0.020-0.007 0.006-0.002 0.034 0.028 0.061 0.057 0.050 0.051 0.044 0.044 0.044 0.038 0.041 0.034 0.050 0.027 0.058 0.021 0.111-0.081 0.21-0.176 0.049-0.041 0.127 0.041 0.132 0.040 0.125 0.041 0.118 0.037 0.22 0.068 0.101 0.030 0.098 0.027 0.179 0.055 0.163 0.047 0.145 0.044 0.128 0.037 0.118 0.034 0.105 0.034 0.179 0.057 0.078 0.031 0.075 0.030 0.091 0.042-0.087-0.052-0.065-0.044-0.067-0.050-0.071-0.055-0.078-0.064-0.085-0.068-0.091-0.081-0.105-0.087-0.115-0.095-0.132-0.111-0.142-0.119-0.078-0.064-0.169-0.143-0.091-0.074-0.098-0.078-0.101-0.081-0.105-0.088-0.111-0.088-0.042-0.016-0.012-0.061-0.017-0.071-0.024-0.068-0.030-0.064-0.037-0.061-0.044-0.055-0.047-0.050-0.051-0.047-0.057-0.041-0.061-0.037-0.065-0.031-0.067-0.023-0.068-0.017-0.075-0.010-0.074-0.003-0.075 0.003-0.071 0.010-0.070 0.017-0.068 0.023-0.061 0.031-0.060 0.037-0.058 0.041-0.050 0.047-0.048 0.050-0.040 0.058-0.038 0.061-0.030 0.060-0.023 0.068-0.017 0.071-0.008 0.059-0.039 0.015-0.111 0.088-0.105 0.085-0.101 0.081-0.095 0.078-0.091 0.074-0.088 0.071-0.081 0.068-0.078 0.064-0.145 0.122-0.129 0.105-0.115 0.098-0.101 0.088-0.095 0.078-0.085 0.068-0.077 0.064-0.071 0.055-0.065 0.047-0.064 0.044-0.126 0.074 0.136-0.064z"></path>
<path fill="#fff" d="M17.431 11.071l-0.067-0.020-0.071-0.028-0.081-0.034-0.088-0.034-0.098-0.041-0.108-0.047-0.122-0.051-0.132-0.057-0.153-0.065-0.165-0.068-0.284-0.115-0.101-0.044-0.111-0.044-0.115-0.044-0.044-0.002-0.013-0.028-0.037-0.061-0.044-0.054-0.047-0.051-0.051-0.047-0.051-0.037 0.004-0.048-0.426-0.331-0.419 0.338 0.005 0.047-0.043 0.031-0.050 0.047-0.048 0.051-0.040 0.057-0.037 0.061-0.011 0.022-0.050 0.002-0.115 0.044-0.111 0.044-0.105 0.040-0.284 0.115-0.169 0.068-0.148 0.061-0.135 0.057-0.122 0.051-0.108 0.044-0.098 0.040-0.087 0.034-0.081 0.034-0.075 0.023-0.068 0.023-0.064 0.018-0.126 0.027 0.126-0.013h0.138l0.166 0.007 0.095 0.007 0.105 0.010 0.118 0.010 0.132 0.013 0.145 0.010 0.163 0.014 0.179 0.013 0.2 0.017 0.105 0.007 0.115 0.007 0.032 0.002-0.039 0.093-0.055 0.132-0.050 0.125-0.048 0.119-0.047 0.115-0.044 0.108-0.040 0.105-0.037 0.098-0.038 0.091-0.067 0.172-0.061 0.156-0.054 0.138-0.048 0.125-0.047 0.112-0.041 0.101-0.040 0.091-0.038 0.081-0.037 0.078-0.081 0.138 1.694-1.9 0.017 0.017 0.023 0.020 0.028 0.027 0.030 0.031 0.037 0.037 0.041 0.040 0.044 0.041 0.047 0.050 0.105 0.105 0.119 0.115 0.122 0.129 0.128 0.135 0.132 0.142 0.132 0.146 0.257 0.298 0.122 0.148 0.111 0.142 0.098 0.139 0.085 0.132 0.974 2.327-0.038 0.007-0.040 0.010-0.051 0.010-0.054 0.013-0.061 0.010-0.064 0.013-0.146 0.031-0.158 0.030-0.173 0.034-0.186 0.034-0.193 0.034-0.398 0.061-0.2 0.027-0.196 0.027-0.193 0.020-0.183 0.014-0.173 0.010-0.158 0.003 0.172 0.007 0.095 0.010 0.098 0.010 0.105 0.017 0.115 0.017 0.129 0.023 0.142 0.028 0.156 0.027 0.175 0.034 0.095 0.018 0.101 0.017 0.108 0.020 0.111 0.020 0.116 0.020 0.125 0.023 0.132 0.021 0.135 0.023 0.146 0.027 0.152 0.023 0.090 0.016-0.025 0.045-0.051 0.091-0.087 0.165-0.081 0.153-0.071 0.138-0.065 0.122-0.057 0.111-0.051 0.101-0.047 0.088-0.044 0.081-0.037 0.071-0.037 0.065-0.038 0.057-0.037 0.055-0.075 0.095 0.030-0.031 0.038-0.037 0.088-0.075 0.105-0.085 0.115-0.087 0.125-0.091 0.132-0.095 0.267-0.183 0.132-0.088 0.122-0.085 0.116-0.074 0.098-0.065 0.044-0.027 0.040-0.028 0.034-0.020 0.030-0.020 0.023-0.013 0.017-0.010 0.011-0.007 0.003-0.003 0.023-0.032 0.007 0.001 0.075 0.003 0.074-0.003 0.075-0.013 0.071-0.017 0.064-0.023 0.042-0.020 0.039 0.027 0.081-0.027 0.071-0.024 0.057-0.020 0.048-0.013 0.040-0.013 0.034-0.010 0.028-0.010 0.023-0.007 0.034-0.013 0.034-0.010 0.041-0.014 0.023-0.010 0.030-0.010-0.070-0.284-0.038-0.138-0.034-0.135-0.037-0.017v-0.001l-0.013-0.070-0.018-0.071-0.023-0.067-0.030-0.065-0.030-0.049 0.020-0.039 0.017-0.111 0.017-0.105 0.027-0.2 0.024-0.179 0.020-0.162 0.017-0.146 0.017-0.132 0.013-0.118 0.013-0.108 0.011-0.095 0.013-0.085 0.010-0.078 0.013-0.071 0.013-0.064 0.013-0.058 0.037-0.108-0.047 0.105-0.030 0.051-0.038 0.057-0.037 0.058-0.047 0.064-0.051 0.068-0.057 0.078-0.065 0.085-0.071 0.098-0.081 0.105-0.186 0.25-0.108 0.146-0.115 0.162-0.047 0.065-0.013-0.014-0.098-0.111-0.095-0.105-0.091-0.101-0.088-0.095-0.081-0.091-0.077-0.085-0.078-0.081-0.071-0.078-0.067-0.074-0.126-0.132-0.111-0.122-0.101-0.108-0.091-0.098-0.081-0.088-0.070-0.081-0.065-0.074-0.057-0.071-0.051-0.068-0.091-0.132-0.081-0.138-0.037-0.075-0.037-0.085-0.041-0.088-0.040-0.101-0.044-0.111-0.050-0.122-0.050-0.138-0.061-0.156-0.068-0.169-0.037-0.095-0.037-0.098-0.041-0.101-0.044-0.108-0.044-0.115-0.050-0.119-0.051-0.125-0.050-0.132-0.044-0.102 0.017-0.002 0.115-0.013 0.128-0.013 0.145-0.014 0.153-0.013 0.162-0.013 0.169-0.010 0.335-0.017 0.163-0.003 0.155 0.003 0.143 0.007 0.132 0.013-0.125-0.027z"></path>
<path fill="#fff" d="M13.228 17.793l-0.037-0.057-0.037-0.065-0.041-0.071-0.040-0.077-0.048-0.091-0.050-0.098-0.061-0.111-0.064-0.122-0.071-0.139-0.081-0.152-0.091-0.166-0.047-0.091-0.054-0.090 0.104-0.015 0.153-0.023 0.142-0.023 0.138-0.021 0.132-0.023 0.125-0.020 0.115-0.017 0.115-0.020 0.105-0.017 0.101-0.018 0.095-0.017 0.477-0.081 0.128-0.020 0.115-0.017 0.108-0.013 0.098-0.010 0.091-0.010 0.173-0.003-2.648-0.43 0.013-0.034 0.013-0.040 0.017-0.048 0.017-0.050 0.044-0.111 0.047-0.129 0.055-0.142 0.057-0.152 0.061-0.163 0.068-0.163 0.138-0.341 0.145-0.331 0.075-0.159 0.075-0.152 0.071-0.138 0.070-0.126-0.091 0.132-0.054 0.068-0.058 0.071-0.067 0.075-0.071 0.081-0.085 0.091-0.088 0.098-0.105 0.108-0.111 0.118-0.125 0.136-0.071 0.075-0.070 0.077-0.075 0.081-0.078 0.085-0.085 0.091-0.088 0.095-0.091 0.101-0.095 0.108-0.098 0.108-0.014 0.016-0.973-1.409 0.271 1.843 0.020 0.038-0.030 0.050-0.031 0.061-0.023 0.067-0.017 0.071-0.009 0.064-0.049 0.021-0.020 0.088-0.020 0.074-0.017 0.065-0.010 0.051-0.013 0.040-0.008 0.034-0.007 0.027-0.007 0.021-0.010 0.034-0.007 0.030-0.007 0.034-0.003 0.027-0.007 0.030 0.065 0.007 0.057 0.013 0.051 0.018 0.050 0.020 0.058 0.027 0.070 0.027 0.085 0.038 0.048 0.017 0.057 0.020 0.035-0.023 0.043 0.020 0.068 0.023 0.070 0.017 0.071 0.013 0.075 0.004 0.075-0.004 0.015-0.003 0.025 0.034 0.098 0.067 0.091 0.065 0.088 0.061 0.243 0.165 0.142 0.095 0.129 0.085 0.118 0.078 0.101 0.071 0.095 0.060 0.085 0.055 0.074 0.054 0.068 0.048 0.061 0.044 0.054 0.040 0.047 0.044 0.085 0.085-0.074-0.095z"></path>
<path fill="#fff" d="M20.92 16.89l-0.017-0.070-0.023-0.068-0.030-0.065-0.038-0.060-0.044-0.055-0.048-0.050-0.050-0.048-0.043-0.029 0.006-0.044-0.028-0.129-0.023-0.122-0.023-0.118-0.023-0.111-0.024-0.105-0.020-0.101-0.040-0.186-0.041-0.169-0.034-0.152-0.030-0.135-0.028-0.122-0.027-0.111-0.020-0.097-0.017-0.088-0.017-0.081-0.011-0.078-0.010-0.071-0.003-0.132 0.003-0.135 0.010-0.071 0.011-0.075 0.017-0.081 0.017-0.091 0.020-0.098 0.027-0.108 0.028-0.122 0.030-0.139 0.034-0.148 0.041-0.169 0.040-0.186 0.020-0.101 0.024-0.105 0.023-0.111 0.023-0.118 0.023-0.122 0.028-0.128-0.007-0.052 0.044-0.033 0.050-0.048 0.048-0.050 0.044-0.058 0.038-0.060 0.030-0.065 0.023-0.065 0.017-0.070 0.013-0.075 0.003-0.075-0.003-0.075-0.013-0.070-0.017-0.071-0.023-0.068-0.030-0.064-0.038-0.061-0.044-0.054-0.048-0.051-0.050-0.047-0.058-0.041-0.060-0.037-0.065-0.030-0.068-0.024-0.067-0.017-0.075-0.010-0.075-0.003-0.074 0.003-0.071 0.010-0.071 0.017-0.067 0.024-0.040 0.019-0.034-0.023-0.136-0.044-0.132-0.040-0.125-0.041-0.118-0.037-0.111-0.034-0.108-0.034-0.101-0.030-0.098-0.027-0.179-0.055-0.163-0.047-0.145-0.044-0.128-0.037-0.118-0.034-0.105-0.034-0.179-0.057-0.078-0.030-0.075-0.031-0.096-0.044 0.093 0.058 0.065 0.044 0.068 0.047 0.070 0.058 0.078 0.060 0.085 0.071 0.095 0.078 0.101 0.088 0.115 0.098 0.132 0.108 0.143 0.122 0.077 0.065 0.018 0.014-0.147 0.013-0.145 0.010-0.132 0.010-0.118 0.010-0.105 0.007-0.095 0.007-0.085 0.007h-0.077l-0.071 0.003-0.068-0.003-0.125-0.013 1.886 0.737 0.048 0.002 0.010 0.022 0.034 0.055-0.020 0.036-0.017 0.111-0.017 0.106-0.027 0.2-0.024 0.179-0.020 0.163-0.020 0.148-0.013 0.132-0.017 0.118-0.010 0.108-0.014 0.095-0.010 0.085-0.013 0.077-0.010 0.071-0.013 0.065-0.013 0.057-0.038 0.108 0.048-0.105 0.030-0.050 0.034-0.058 0.040-0.057 0.044-0.065 0.055-0.071 0.058-0.074 0.064-0.088 0.153-0.203 0.087-0.118 0.023-0.030 0.039 0.179 0.037 0.169 0.034 0.148 0.034 0.139 0.027 0.122 0.024 0.108 0.023 0.098 0.017 0.091 0.013 0.081 0.013 0.075 0.007 0.071 0.007 0.135-0.007 0.132-0.007 0.071-0.013 0.078-0.013 0.081-0.017 0.088-0.023 0.097-0.024 0.111-0.027 0.122-0.034 0.135-0.034 0.152-0.037 0.169-0.040 0.186-0.024 0.101-0.023 0.105-0.023 0.112-0.023 0.118-0.023 0.122-0.023 0.11-0.495 0.168 0.117 0.448-0.080 0.063-0.105 0.088-0.101 0.081-0.095 0.078-0.091 0.074-0.088 0.071-0.081 0.068-0.077 0.064-0.143 0.122-0.128 0.108-0.115 0.098-0.105 0.085-0.095 0.078-0.085 0.071-0.075 0.060-0.070 0.058-0.068 0.047-0.065 0.044-0.125 0.074 0.128-0.060 0.075-0.030 0.163-0.058 0.095-0.030 0.105-0.031 0.115-0.034 0.132-0.040 0.145-0.041 0.159-0.047 0.179-0.055 0.098-0.027 0.101-0.030 0.108-0.034 0.111-0.034 0.24-0.075 0.132-0.040 0.136-0.044 0.037-0.025 0.038 0.018 0.067 0.024 0.071 0.017 0.071 0.013 0.074 0.003 0.075-0.003 0.075-0.013 0.070-0.017 0.065-0.024 0.065-0.030 0.060-0.037 0.058-0.044 0.050-0.047 0.048-0.051 0.044-0.057 0.038-0.061 0.030-0.064 0.023-0.065 0.017-0.071 0.013-0.074 0.003-0.075-0.003-0.075z"></path>
</svg>
