<?xml version="1.0" standalone="no"?>
<!DOCTYPE svg PUBLIC "-//W3C//DTD SVG 20010904//EN"
 "http://www.w3.org/TR/2001/REC-SVG-20010904/DTD/svg10.dtd">
<svg version="1.0" xmlns="http://www.w3.org/2000/svg"
 width="840.000000pt" height="840.000000pt" viewBox="0 0 840.000000 840.000000"
 preserveAspectRatio="xMidYMid meet">
<metadata>
Created by potrace 1.11, written by Peter Selinger 2001-2013
</metadata>
<g transform="translate(0.000000,840.000000) scale(0.100000,-0.100000)"
fill="#000000" stroke="none">
<path d="M4046 8375 c-89 -32 -120 -51 -188 -114 -55 -51 -123 -164 -132 -221
-3 -14 -5 -27 -6 -30 -1 -3 -3 -10 -4 -17 0 -6 -23 -28 -51 -49 -27 -21 -57
-44 -65 -51 -8 -7 -44 -35 -80 -63 -76 -60 -118 -94 -209 -170 -36 -31 -86
-71 -111 -90 -51 -40 -77 -61 -94 -75 -6 -5 -34 -28 -61 -50 -28 -22 -56 -45
-63 -52 -8 -8 -30 -26 -50 -41 -21 -15 -42 -31 -49 -37 -6 -5 -30 -26 -54 -45
-23 -19 -58 -50 -78 -67 -20 -18 -39 -33 -43 -33 -4 0 -13 -6 -20 -13 -7 -7
-33 -28 -58 -47 -24 -19 -51 -41 -60 -48 -8 -7 -26 -22 -40 -33 -17 -13 -18
-17 -5 -10 90 45 146 67 307 121 100 34 190 63 198 65 8 2 69 22 136 44 66 22
134 43 150 46 16 3 34 7 39 9 6 1 30 8 55 15 25 7 101 30 170 51 69 21 139 41
155 44 54 10 170 34 190 41 15 4 40 -14 110 -80 50 -47 107 -93 127 -102 l37
-16 -22 -20 c-12 -10 -35 -28 -50 -40 -15 -12 -36 -29 -46 -37 -10 -8 -33 -26
-51 -40 -18 -14 -47 -37 -64 -52 -17 -15 -35 -28 -39 -28 -5 0 -6 -9 -2 -19 4
-14 -1 -23 -16 -32 -12 -6 -34 -25 -48 -41 -13 -17 -30 -35 -36 -42 -6 -6 -21
-28 -34 -48 -12 -21 -26 -39 -29 -39 -4 -1 -18 -3 -32 -4 -14 -2 -38 -9 -55
-16 -16 -7 -32 -13 -35 -14 -3 -1 -25 -11 -50 -23 -25 -12 -52 -22 -61 -22 -9
0 -19 -3 -23 -7 -4 -5 -12 -9 -17 -9 -5 -1 -10 -2 -11 -4 -2 -1 -10 -3 -19 -5
-15 -3 -236 -92 -334 -135 -22 -10 -74 -32 -115 -50 -41 -17 -93 -40 -115 -49
-22 -10 -62 -26 -90 -36 -27 -10 -54 -22 -60 -26 -18 -12 -156 -59 -176 -59
-10 0 -19 -4 -19 -8 0 -4 48 -8 108 -9 96 0 155 -5 262 -19 77 -10 298 -27
490 -38 69 -4 205 -17 230 -22 8 -1 21 -3 28 -3 8 -1 10 -6 5 -13 -4 -7 -8
-18 -9 -24 -1 -5 -11 -30 -23 -55 -12 -24 -38 -84 -58 -134 -35 -88 -40 -102
-82 -197 -12 -26 -21 -51 -21 -56 0 -10 -43 -122 -75 -197 -25 -58 -159 -391
-212 -530 -29 -76 -65 -159 -79 -182 -14 -24 -20 -43 -14 -43 5 0 10 3 10 8 0
4 19 27 41 52 23 25 66 74 98 109 31 35 68 77 84 93 15 16 27 33 27 38 0 6 6
10 13 10 7 0 19 11 27 24 13 20 63 78 160 185 14 15 54 60 90 101 36 41 74 84
85 96 11 12 43 48 70 80 28 31 64 72 80 90 17 17 53 58 80 89 28 32 61 70 75
85 66 72 145 163 148 171 2 5 8 9 13 9 20 0 407 -387 626 -626 15 -17 66 -73
113 -124 47 -51 94 -103 105 -114 34 -35 154 -186 172 -217 10 -16 21 -29 25
-29 4 0 8 -5 8 -11 0 -6 9 -23 19 -37 10 -15 42 -83 71 -152 50 -121 60 -145
111 -259 13 -30 24 -57 24 -61 0 -3 17 -46 39 -95 54 -125 61 -142 91 -215 14
-36 35 -84 46 -107 10 -24 19 -45 19 -48 0 -3 9 -27 21 -53 12 -26 25 -56 30
-67 4 -11 21 -50 38 -87 16 -38 28 -68 26 -68 -2 0 7 -22 20 -49 14 -27 25
-52 25 -56 0 -3 10 -27 21 -53 12 -26 43 -99 70 -162 53 -127 53 -122 -21
-137 -14 -3 -29 -6 -35 -7 -19 -4 -130 -28 -145 -31 -8 -2 -15 -4 -15 -5 0 -1
-9 -3 -21 -5 -11 -3 -60 -14 -110 -25 -98 -23 -218 -48 -277 -56 -48 -7 -72
-12 -72 -14 0 -2 -11 -3 -100 -14 -32 -4 -62 -9 -65 -11 -3 -1 -32 -6 -65 -10
-32 -3 -62 -8 -65 -10 -3 -2 -37 -6 -76 -9 -38 -3 -80 -8 -94 -11 -14 -2 -45
-7 -70 -9 -25 -3 -65 -8 -90 -11 -208 -25 -408 -25 -544 1 -12 2 -32 6 -46 8
-14 3 -41 8 -60 10 -19 3 -46 8 -60 10 -28 5 -93 16 -130 21 -14 2 -41 6 -60
10 -19 4 -46 8 -60 10 -26 4 -56 8 -170 27 -36 5 -78 12 -95 15 -16 2 -41 6
-55 9 -14 3 -41 7 -60 10 -19 3 -44 7 -55 9 -11 2 -40 6 -65 10 -25 4 -56 8
-70 11 -14 2 -41 7 -60 10 -19 3 -46 7 -60 10 -14 3 -41 7 -60 10 -19 2 -60 9
-90 14 -30 5 -71 12 -90 15 -19 3 -60 9 -90 15 -30 5 -73 12 -95 15 -22 3 -49
7 -60 9 -14 2 -20 10 -19 27 4 55 15 99 45 169 17 41 32 82 34 90 2 8 4 16 5
18 2 1 3 5 5 10 2 7 25 62 50 117 7 17 24 62 38 100 14 39 38 99 55 135 29 64
39 87 102 240 17 41 40 94 51 117 10 24 19 45 19 47 0 2 26 58 57 123 31 65
56 121 55 126 -1 4 3 7 8 7 6 0 10 6 10 14 0 8 11 34 25 57 14 24 25 51 24 59
0 8 -7 3 -15 -12 -8 -16 -19 -28 -24 -28 -6 0 -10 -4 -10 -9 0 -6 -22 -33 -49
-61 -27 -28 -70 -76 -97 -108 -27 -31 -85 -95 -129 -141 -44 -47 -84 -90 -90
-97 -5 -6 -49 -54 -97 -105 -48 -52 -96 -105 -106 -117 -34 -38 -173 -191
-243 -266 -104 -112 -147 -159 -163 -181 -15 -20 -15 -20 -34 1 -11 11 -27 34
-36 50 -9 16 -39 61 -66 99 -63 87 -182 260 -195 283 -5 9 -13 19 -16 22 -3 3
-39 55 -80 115 -40 61 -81 119 -91 129 -10 11 -18 26 -18 33 0 7 -3 13 -7 13
-5 0 -21 21 -38 48 -31 49 -32 50 -65 92 l-20 25 7 -60 c6 -62 10 -90 13 -90
1 0 3 -9 4 -20 12 -91 19 -142 22 -160 2 -11 7 -45 10 -75 3 -30 7 -57 9 -60
2 -3 7 -35 11 -70 8 -80 12 -105 14 -105 1 0 3 -13 5 -30 3 -39 15 -123 20
-155 3 -14 7 -45 10 -70 3 -25 10 -70 15 -100 5 -30 12 -73 15 -95 11 -93 18
-131 26 -145 4 -9 2 -21 -5 -30 -18 -22 -45 -99 -52 -150 -4 -25 -10 -47 -14
-50 -4 -3 -17 -39 -29 -80 -31 -107 -47 -158 -70 -217 -12 -29 -18 -53 -15
-53 4 0 1 -7 -6 -15 -8 -9 -17 -11 -28 -5 -10 5 -24 11 -32 13 -20 6 -20 6
-150 53 l-115 41 -12 59 c-7 32 -15 73 -18 89 -3 17 -10 50 -15 75 -5 25 -12
56 -14 70 -2 14 -11 54 -20 90 -8 36 -17 80 -20 97 -7 41 -17 95 -21 108 -2
13 -15 76 -19 95 -2 8 -6 29 -10 45 -4 17 -12 50 -18 75 -5 25 -14 56 -18 70
-5 14 -11 41 -14 60 -3 19 -12 61 -21 93 -8 32 -17 77 -19 101 -3 23 -7 54
-10 67 -18 78 -24 249 -13 339 3 25 8 70 12 100 9 76 12 91 23 121 6 15 9 29
6 32 -2 2 0 16 5 30 5 14 13 45 16 68 4 24 8 49 9 54 1 6 5 16 9 23 5 6 6 12
3 12 -3 0 -1 11 4 26 6 14 12 39 15 57 3 18 8 40 11 49 5 18 12 50 20 88 20
106 37 186 40 192 3 4 33 -30 68 -75 61 -80 226 -321 226 -330 0 -2 12 -26 27
-53 15 -27 28 -55 30 -62 1 -8 9 -22 17 -31 9 -10 16 -23 16 -30 0 -7 4 -10 9
-6 6 3 3 21 -6 43 -8 20 -17 46 -18 57 -2 11 -6 37 -9 59 -4 21 -9 42 -12 47
-3 5 -9 32 -14 61 -17 102 -18 113 -29 183 -6 39 -13 90 -16 115 -2 25 -7 64
-10 87 -3 23 -7 74 -10 115 -5 81 -12 160 -21 228 -3 25 -7 72 -10 105 -2 33
-7 73 -10 88 -7 32 10 57 37 57 10 0 60 18 111 40 51 22 97 40 101 40 8 0 107
37 162 60 11 4 92 37 180 73 88 36 243 100 345 142 170 71 251 101 303 111 40
7 24 10 -66 10 -51 0 -119 3 -152 8 -75 9 -158 18 -310 31 -33 3 -84 7 -114
10 -29 2 -55 6 -57 8 -2 2 47 44 109 93 61 48 114 91 117 94 3 3 36 30 75 60
91 71 105 83 120 98 8 6 18 12 24 12 6 0 11 3 11 8 0 4 32 32 71 62 39 30 76
60 83 65 6 6 44 36 84 69 72 58 87 74 55 58 -80 -40 -343 -140 -393 -149 -14
-2 -54 -13 -89 -24 -34 -10 -73 -21 -85 -24 -35 -7 -140 -35 -156 -42 -8 -3
-22 -7 -31 -8 -9 -1 -121 -36 -250 -78 -129 -41 -290 -94 -359 -115 l-125 -40
-55 20 c-70 26 -235 32 -295 11 -129 -45 -244 -134 -292 -227 -68 -131 -80
-267 -35 -397 30 -88 47 -116 121 -191 55 -57 55 -59 73 -155 9 -54 19 -108
22 -119 4 -21 39 -180 51 -239 4 -16 11 -50 15 -75 5 -25 12 -58 15 -75 5 -27
18 -71 33 -115 3 -8 6 -20 7 -26 8 -37 60 -261 75 -324 10 -41 18 -82 19 -90
0 -8 3 -28 5 -45 20 -122 26 -323 12 -395 -4 -19 -13 -71 -21 -115 -16 -95
-58 -292 -80 -375 -8 -33 -20 -83 -26 -112 -6 -29 -15 -73 -21 -98 -5 -25 -11
-54 -13 -65 -7 -37 -33 -150 -38 -165 -4 -8 -8 -31 -11 -50 -3 -19 -12 -69
-21 -110 -16 -77 -21 -104 -32 -179 -5 -35 -16 -53 -63 -100 -55 -54 -112
-132 -108 -148 1 -5 -7 -26 -17 -48 -29 -63 -27 -230 4 -315 29 -79 51 -112
124 -189 62 -64 151 -114 228 -127 103 -17 272 0 303 31 11 11 18 11 41 -1 22
-11 145 -53 178 -60 4 -1 8 -2 10 -4 1 -1 10 -3 20 -5 30 -6 187 -55 302 -95
158 -55 411 -127 476 -135 16 -2 52 -10 81 -19 29 -8 56 -16 60 -16 4 0 23 -7
43 -16 19 -8 35 -12 35 -10 0 6 164 -51 204 -70 29 -15 28 -14 -9 20 -22 20
-43 36 -47 36 -4 0 -13 6 -20 13 -7 7 -40 33 -73 59 -33 25 -71 56 -85 68 -14
12 -45 39 -70 59 -25 20 -47 38 -50 41 -3 3 -25 21 -50 40 -25 19 -86 69 -137
112 -51 43 -95 78 -98 78 -4 0 -12 6 -20 13 -7 6 -30 26 -51 44 -52 41 -78 64
-144 122 -40 35 -199 162 -257 205 -2 2 69 290 73 294 5 7 98 -17 139 -34 22
-10 42 -18 45 -19 3 -1 28 -12 55 -25 55 -25 77 -31 115 -31 14 0 48 -6 75
-15 28 -8 59 -15 70 -17 11 -1 25 -5 30 -9 6 -3 40 -5 78 -4 39 1 67 -3 67 -9
1 -5 53 -46 118 -89 369 -250 513 -345 566 -375 54 -31 173 -117 204 -148 8
-7 34 -27 59 -45 25 -17 59 -45 75 -62 l29 -31 -26 50 c-15 28 -33 57 -40 65
-7 8 -44 80 -83 160 -74 151 -258 508 -272 525 -4 6 -28 49 -54 97 l-47 87 48
7 c27 3 57 9 68 11 11 3 27 5 35 5 8 0 33 4 55 9 22 4 63 11 90 15 28 3 58 11
69 16 11 6 16 6 13 1 -4 -6 17 -4 46 4 29 7 75 16 102 19 63 7 79 10 135 23
56 12 92 18 155 26 27 3 81 12 120 19 38 8 95 18 125 21 30 4 57 8 60 10 3 2
26 6 50 10 25 3 52 8 60 10 8 3 42 7 75 11 33 3 74 7 90 9 17 1 55 6 85 10 88
12 258 8 385 -10 17 -2 57 -7 90 -10 33 -4 71 -9 85 -11 14 -3 41 -7 60 -9 19
-3 46 -7 60 -10 14 -3 48 -8 75 -11 28 -3 54 -8 58 -11 4 -3 27 -7 49 -10 23
-2 50 -9 59 -14 10 -5 33 -11 51 -13 18 -3 56 -7 83 -11 28 -3 57 -8 65 -10 8
-3 31 -7 50 -10 19 -2 51 -7 70 -10 19 -3 55 -9 80 -14 104 -21 458 -82 487
-84 18 -1 33 -3 33 -5 0 -8 -295 -588 -348 -682 -13 -25 -40 -74 -60 -110 -19
-36 -50 -87 -69 -113 l-34 -48 89 73 c49 40 124 98 165 128 42 30 77 58 77 63
0 4 7 7 15 7 8 0 15 5 15 10 0 6 7 10 15 10 8 0 15 3 15 8 0 4 17 18 38 32 44
30 48 33 87 63 43 35 305 205 404 263 46 27 96 61 110 75 21 21 36 26 76 27
77 1 146 12 186 31 23 11 42 15 55 9 13 -5 72 10 193 51 l173 58 13 -31 c7
-17 11 -34 9 -38 -3 -5 -2 -14 3 -20 4 -7 8 -17 10 -23 7 -34 12 -55 21 -90
25 -93 26 -89 -46 -144 -37 -28 -86 -67 -108 -88 -60 -55 -93 -83 -99 -83 -3
0 -16 -9 -28 -21 -12 -11 -87 -73 -166 -137 -79 -65 -172 -139 -206 -167 -34
-27 -76 -61 -94 -75 -43 -34 -69 -55 -116 -97 -58 -52 -171 -143 -178 -143 -3
0 -18 -11 -32 -24 -31 -29 -241 -135 -281 -142 -15 -3 -37 -10 -48 -16 -12 -7
-30 -13 -41 -15 -11 -2 -49 -13 -85 -25 -36 -12 -67 -23 -70 -23 -25 -6 -109
-31 -171 -51 -41 -13 -84 -26 -95 -29 -49 -10 -239 -67 -256 -76 -21 -11 -20
-10 92 191 23 41 72 129 108 195 36 66 71 123 76 127 6 4 8 8 4 8 -4 0 9 25
28 57 l37 56 -34 -23 c-19 -13 -36 -27 -39 -30 -12 -12 -89 -70 -95 -70 -3 0
-11 -5 -18 -11 -18 -16 -282 -197 -462 -316 -88 -59 -173 -117 -190 -130 -45
-35 -46 -36 -100 -71 -80 -52 -98 -65 -128 -96 -40 -42 -126 -42 -162 0 -5 7
-62 47 -125 90 -139 94 -173 117 -180 124 -3 3 -39 27 -80 54 -41 27 -106 70
-143 95 -37 25 -75 51 -85 56 -9 6 -45 29 -79 53 -35 23 -89 59 -120 81 -32
21 -85 59 -117 85 -33 25 -64 46 -70 46 -6 0 -3 -5 6 -10 28 -17 208 -335 208
-369 0 -5 3 -11 8 -13 4 -1 29 -45 56 -97 44 -87 46 -93 24 -86 -50 15 -126
38 -193 56 -105 29 -107 30 -145 39 -72 17 -158 42 -260 76 -58 20 -113 37
-122 39 -9 2 -25 8 -35 13 -10 6 -20 10 -23 10 -5 0 -49 17 -90 35 -14 6 -29
13 -35 15 -5 3 22 -19 60 -47 39 -29 77 -57 85 -64 8 -7 31 -23 50 -37 54 -38
99 -81 105 -101 5 -16 283 -250 378 -317 17 -13 46 -36 63 -52 18 -15 53 -44
78 -64 26 -20 53 -41 61 -48 68 -63 267 -217 297 -230 21 -10 33 -30 58 -100
66 -185 196 -296 380 -325 114 -19 223 1 320 58 115 67 179 146 224 279 19 57
32 78 67 108 24 20 46 39 49 42 3 3 43 37 90 75 47 38 90 74 95 80 6 7 69 56
140 110 72 54 157 121 190 149 33 28 92 77 130 107 39 31 81 66 95 79 14 12
47 40 74 63 27 23 54 47 60 52 26 25 205 154 251 181 68 40 262 124 285 124 3
0 39 11 80 25 41 14 129 39 195 56 66 17 174 48 240 69 332 105 477 151 545
170 86 24 155 48 186 62 17 8 36 5 80 -12 73 -27 186 -33 263 -13 31 8 61 18
66 23 6 4 25 11 43 15 17 3 32 10 32 15 0 5 8 11 18 14 40 13 181 174 174 198
-1 6 2 16 7 22 6 7 13 23 15 37 3 13 5 26 6 29 2 3 2 8 1 13 0 4 3 7 8 7 11 0
12 187 1 209 -4 9 -20 50 -36 91 -23 64 -37 85 -96 142 -38 37 -68 73 -67 80
1 7 -1 29 -4 48 -4 19 -9 46 -11 60 -2 14 -7 36 -10 50 -3 14 -8 36 -10 50 -5
28 -45 215 -53 245 -8 32 -24 108 -28 130 -6 40 -36 173 -65 290 -16 66 -31
131 -34 145 -2 14 -9 45 -15 70 -11 49 -16 78 -26 155 -4 28 -9 61 -11 75 -6
33 -5 220 0 229 3 4 8 34 11 66 4 33 11 78 15 100 21 110 63 296 76 342 8 29
17 65 20 80 3 15 7 36 10 45 3 10 7 30 10 45 3 16 14 53 25 83 12 30 23 66 26
80 2 14 13 63 23 110 10 47 21 96 24 110 2 14 12 60 21 103 9 43 18 99 19 123
3 39 11 53 52 95 27 28 54 56 59 62 6 7 26 48 45 92 30 72 34 89 34 180 1 95
-1 114 -18 160 -5 11 -15 38 -23 60 -37 101 -160 209 -288 251 -98 33 -280 24
-361 -19 -17 -9 -34 -14 -36 -11 -6 6 -116 45 -141 49 -30 6 -186 54 -307 95
-63 22 -169 55 -235 76 -66 20 -160 49 -210 64 -49 16 -117 36 -150 45 -33 9
-67 19 -75 22 -8 3 -17 7 -20 8 -3 0 -30 9 -60 20 -30 11 -57 19 -60 20 -14 1
-108 40 -128 53 -12 8 -25 13 -27 10 -3 -2 14 -16 38 -31 23 -15 56 -40 74
-55 17 -15 42 -36 55 -46 58 -48 144 -122 158 -137 8 -9 40 -36 70 -60 30 -24
57 -46 60 -49 13 -14 170 -148 200 -172 28 -21 31 -26 15 -26 -29 1 -194 -11
-235 -17 -19 -3 -61 -7 -93 -10 -32 -3 -79 -8 -105 -12 -26 -4 -100 -7 -164
-7 -113 -1 -143 -7 -95 -21 27 -8 268 -101 322 -125 22 -9 51 -21 65 -25 14
-4 39 -13 55 -20 17 -7 113 -46 215 -85 102 -39 194 -76 205 -80 11 -5 54 -22
95 -38 41 -16 84 -33 95 -37 11 -5 22 -9 25 -10 3 -1 19 -7 35 -14 17 -6 41
-16 55 -21 14 -6 36 -12 49 -15 40 -8 50 -29 38 -80 -3 -11 -8 -51 -11 -90 -4
-38 -9 -81 -11 -95 -1 -14 -6 -50 -10 -80 -4 -30 -9 -66 -10 -80 -11 -91 -22
-165 -25 -165 -2 0 -4 -18 -26 -230 -7 -74 -16 -150 -20 -170 -2 -11 -7 -40
-10 -65 -5 -40 -11 -77 -17 -105 -2 -5 -6 -15 -10 -22 -4 -6 -3 -14 1 -17 5
-3 15 7 23 22 8 15 20 33 27 40 6 7 12 17 12 22 0 5 12 22 28 38 15 15 45 51
67 80 21 29 43 52 49 52 5 0 7 3 3 6 -3 4 10 27 31 53 20 25 40 50 45 56 4 5
15 20 25 32 9 11 24 31 32 44 8 12 25 34 37 48 19 22 21 23 19 6 -2 -11 2 -38
7 -60 5 -22 11 -49 12 -60 1 -11 5 -27 8 -35 5 -12 21 -87 33 -147 1 -6 7 -27
13 -45 10 -32 16 -59 27 -123 3 -16 12 -57 20 -90 8 -33 17 -73 18 -90 5 -46
17 -125 26 -172 8 -45 6 -212 -4 -252 -3 -13 -8 -49 -11 -80 -4 -31 -11 -74
-17 -96 -6 -22 -12 -51 -14 -65 -7 -36 -44 -195 -51 -215 -3 -12 -31 -129 -37
-164 -19 -92 -47 -225 -61 -286 -3 -11 -8 -33 -11 -50 -3 -16 -10 -50 -16 -75
-6 -25 -12 -54 -14 -65 -1 -11 -5 -31 -9 -45 -3 -14 -8 -38 -10 -55 -11 -59
-15 -64 -78 -84 -34 -11 -107 -36 -162 -55 -111 -39 -107 -40 -120 35 -3 16
-12 55 -21 87 -8 31 -17 66 -19 77 -12 64 -39 142 -54 155 -10 8 -24 42 -31
75 -7 33 -22 74 -34 90 -11 17 -19 32 -17 35 18 27 21 40 36 185 6 57 13 114
21 165 2 19 7 53 9 75 2 22 7 56 10 75 3 19 7 60 10 90 20 210 26 263 31 272
3 4 7 26 10 50 3 24 7 59 10 78 3 19 7 53 10 75 3 22 9 57 14 78 4 20 5 37 1
36 -5 0 -124 -173 -156 -227 -5 -9 -12 -19 -15 -22 -3 -3 -21 -26 -40 -53 -19
-26 -55 -74 -80 -106 -25 -32 -52 -68 -60 -81 -8 -12 -42 -59 -75 -104 -33
-44 -85 -116 -116 -158 l-56 -76 -44 50 c-24 27 -55 62 -69 77 -14 14 -54 60
-90 101 -62 70 -119 132 -262 283 -36 37 -64 67 -63 67 4 0 -151 163 -252 266
-61 62 -137 146 -170 186 -32 40 -61 75 -65 76 -5 2 -8 7 -8 12 0 5 -24 44
-53 87 -72 105 -92 144 -157 308 -18 44 -40 98 -50 120 -9 22 -25 65 -34 95
-10 30 -21 64 -26 75 -27 61 -92 221 -94 230 -1 6 -4 15 -7 20 -5 8 -30 77
-34 95 -2 6 -15 39 -66 165 -23 55 -52 129 -66 165 -14 36 -34 84 -44 107 -30
67 -26 79 24 82 23 2 58 4 77 6 19 1 76 6 125 11 50 4 111 8 137 8 27 1 48 3
48 6 0 6 27 7 355 12 132 3 253 1 268 -3 50 -14 24 14 -29 32 -27 8 -58 19
-69 23 -47 19 -174 71 -215 89 -25 11 -61 25 -80 32 -19 7 -60 24 -90 38 -49
22 -85 37 -100 42 -3 1 -23 9 -45 19 -34 14 -89 37 -280 111 -11 5 -22 9 -25
10 -3 1 -35 16 -73 33 -37 17 -90 39 -118 49 -34 12 -55 27 -64 44 -8 14 -44
57 -81 95 -37 38 -67 76 -65 85 1 9 -4 19 -11 22 -13 4 -208 155 -218 168 -3
3 -15 11 -27 18 -13 6 -23 17 -23 24 1 7 40 41 88 77 48 36 89 67 92 70 53 52
56 53 107 37 26 -8 89 -27 138 -42 50 -15 160 -50 245 -77 85 -28 160 -51 165
-53 33 -7 71 -19 80 -24 6 -3 15 -6 20 -7 18 -3 216 -64 224 -68 7 -5 171 -51
215 -61 11 -3 40 -11 65 -20 25 -8 49 -15 53 -15 4 0 28 -9 54 -20 25 -11 57
-22 72 -24 l27 -5 -23 17 c-67 50 -152 117 -192 151 -25 21 -130 107 -235 191
-104 85 -196 160 -203 167 -7 7 -16 13 -20 13 -4 0 -23 15 -43 33 -20 18 -51
43 -68 57 -18 14 -38 30 -45 35 -101 85 -152 131 -206 185 -36 36 -81 73 -101
83 -32 15 -38 23 -54 84 -10 38 -26 84 -36 104 -22 44 -141 162 -183 182 -40
19 -112 48 -126 51 -3 1 -9 4 -15 7 -5 3 -50 6 -100 7 -73 1 -103 -3 -159 -23z"/>
<path d="M5890 7011 c0 -4 21 -17 46 -29 25 -12 43 -18 39 -12 -8 13 -85 50
-85 41z"/>
<path d="M2518 6343 c7 -3 16 -2 19 1 4 3 -2 6 -13 5 -11 0 -14 -3 -6 -6z"/>
<path d="M7086 4575 c-9 -26 -7 -32 5 -12 6 10 9 21 6 23 -2 3 -7 -2 -11 -11z"/>
<path d="M7060 4521 c-6 -12 -7 -21 -1 -21 10 0 24 30 17 37 -2 3 -9 -5 -16
-16z"/>
<path d="M3090 1721 c0 -6 4 -13 10 -16 6 -3 7 1 4 9 -7 18 -14 21 -14 7z"/>
</g>
</svg>
